<svg width="600" height="150" xmlns="http://www.w3.org/2000/svg">
  <path d="M21.789905863754285 27.180288997374173 C22.982443640079538 26.017292702518663, 23.589342332688652 24.444543866805084, 26.22324519500005 21.79763714106841 M22.022084140783754 27.133461688962548 C23.17379576727951 25.602430037705954, 24.371859817063754 24.455728336229438, 26.10787883326702 22.57416259938148 M21.690221040975256 33.23462888032135 C24.464978890764662 30.035220061229655, 26.95297954574661 24.919630313914517, 30.66259927400316 24.041884164596045 M21.94753797877636 33.341714947528956 C24.135747179491222 30.98085354172805, 26.410235481137168 28.499458220581086, 30.104091651566254 23.982271256613974 M20.88102174093367 38.52068776087586 C26.92045699252478 35.6285578081269, 28.63819282144002 32.730719459565776, 33.78195468390224 23.294803955764234 M22.802112634295053 38.75660576377258 C26.472918432618883 34.27906358507191, 31.793509633136875 28.58855043179262, 33.99106610226474 24.182010939737374 M20.591355320408532 44.18010211810707 C29.21174336567716 40.475422731893005, 31.04301938909861 33.969735091165376, 37.974730458155946 25.25208526511071 M22.45637114715878 44.210892385954836 C28.195374826079792 38.031727418321864, 33.78123495216052 32.64566577349139, 38.28555872246622 26.436666183014886 M20.039899641674896 52.24526383296194 C27.398127742481396 42.0277345971776, 33.13332233540379 38.33119615649967, 43.66786555491662 28.974090654778557 M21.23391255464936 51.73520037615174 C26.775262541962753 46.14541487280967, 30.339142702471754 41.267908520488234, 42.84922772724995 27.037998237858336 M21.89889574930849 57.039548432660084 C28.113307946168366 46.66602247593168, 36.99533040691561 38.493240398633944, 47.097224970279186 29.637097761410264 M22.552831641389936 56.08433653330788 C28.78098369105461 48.30930362785688, 35.584219399023354 41.38976314437767, 46.5446731704406 28.228477045469614 M21.372940024460934 64.02144243139846 C31.413055316993997 55.108166484729324, 36.63944855552809 46.284448152036575, 49.593944237554524 29.71711661329193 M22.65212284787655 63.64733548972025 C32.09922319413093 50.53050880752012, 40.78176502788416 41.102716827636584, 50.33891062056098 31.311269617477958 M21.403284572874718 69.73353869849477 C31.22008673149557 56.92162234662197, 43.81000226116362 45.17343835017721, 55.06229212825909 32.4049124002657 M21.605192912583586 68.67675483301342 C32.40826867016993 55.744668552678064, 44.19074045754165 41.55350826891993, 53.47991085822137 32.770325560490306 M23.485999150767878 76.85137106957445 C35.73517359554606 59.01861840058689, 47.92369362842564 48.1023412294368, 56.23825497713992 31.191763577660584 M23.00743555558522 74.6646245779966 C29.672420450330797 65.25413676032876, 37.9747609471802 54.59016403150416, 58.66437947540048 33.00313071476275 M20.895993802374484 79.43781564825692 C28.107355269359086 69.94232770098397, 37.74957069084887 62.08875481804556, 60.121087071370454 33.35125744100512 M22.425723898011032 79.9635342399851 C35.628482207321426 66.28333935837891, 47.903629678699446 49.99093270986663, 63.046462879693365 35.042056948990535 M24.023872519123934 88.67767259980066 C36.36737942673578 70.05852200123219, 49.938855886694625 55.38668102424336, 66.58745170212872 34.59442460147771 M21.32206112300823 87.53034635648729 C33.61233924516232 70.94747766239331, 47.47137345836178 57.80441177241879, 66.55471185322008 36.10461981349589 M20.2642394452855 94.6528723823073 C38.17537556508596 77.71397480892097, 50.994548607988534 60.197499171829065, 70.48949308583445 37.855283859471655 M22.940375026569154 91.68147301199807 C37.6305806584017 75.17292923056249, 53.961926785607446 56.76567737956577, 70.26634942104393 36.37404891378971 M23.984510145600858 100.27667988057227 C41.827711186619695 76.43746485888002, 57.45646679192711 58.69988256569711, 76.34374458789686 38.527694013949244 M22.74076475158639 97.80979055574858 C35.12464685350555 83.89725134219144, 48.4013004916268 68.09963570013348, 74.80578352219011 38.34245237589363 M24.218593072829474 105.03048344529189 C45.138084712448716 79.34507759488578, 62.822763618852335 55.34759740921929, 78.27057561203607 41.08644383554915 M22.06655332248349 105.05858933993056 C38.535767993684104 84.17180466421365, 58.73799239014389 62.155049297566094, 78.2918514975889 39.07977241871947 M24.20956219174409 109.3656815208056 C44.21318471126774 81.63869675553852, 69.83031603039143 52.12260580665196, 83.33969551524393 42.2066628482324 M22.786171314335732 109.84503586917664 C43.91756308034904 83.81458729495799, 67.15825302302967 57.50334968278413, 82.20845879598726 41.57628026220897 M32.70332610982119 103.70187784616643 C46.61466271095151 86.80479594448182, 65.40392644062848 66.21678643327567, 87.94119471406057 43.82161159097787 M31.09607515146814 105.94783157310157 C46.68325467125297 86.56393418494959, 62.13044413881265 69.1052485269945, 85.21038825291475 42.73473436282117 M39.990523833502436 102.0256763530227 C58.8227886787101 83.009918136996, 71.96309131102304 64.00712767558751, 87.21283645155486 47.62116418378595 M40.441140133117884 100.71895526882369 C51.403275372170455 88.58998373192415, 62.11888727288519 75.91411415709258, 87.17424506674276 48.06555567948786 M48.719812820506974 96.35758567113444 C57.44864589913763 86.3824585554754, 69.18368643233957 71.80691066529785, 78.01588687462802 61.05238916609569 M50.40820678964626 95.52539107858978 C61.55951502190494 83.303375295756, 72.68275058696457 68.28999083883676, 80.02422539108511 62.71071334303397 M59.9226121043325 90.2770440855096 C63.40340349635946 86.01378341450094, 68.94808340929833 79.69941550601321, 71.34527690993706 73.69624643176319 M59.41357246077466 92.85270341309567 C62.81802676499831 86.91730742614997, 68.20090034333292 81.99036346758236, 72.92406249337871 75.85185066991119" stroke="lime" stroke-width="1.0" fill="none" />
  <path d="M22.674785847321452 21.072967487753573 C48.056693893596176 31.235351557538305, 75.9911770393873 38.518599515413754, 89.4528686639343 43.137840608760754 M23.034805101730747 20.0 C49.264580780420644 30.408102622234964, 74.70122206643444 38.99568724662902, 89.45218687944724 42.865349446692875 M89.80382934348894 41.78425812528707 C81.74158703654037 54.62418134417193, 78.46113417283851 68.68669490056537, 67.16278794262651 88.18528351676001 M88.20786041862941 42.290391237297115 C81.83567892801244 60.2488649941517, 73.74269256720501 78.06369011522517, 65.98688158728537 88.15703810166359 M66.87487477519477 86.97904158659416 C53.987508851421666 90.7243058450974, 43.810281251344094 96.71609195554453, 20.0 108.43725286912075 M66.40386440284374 87.5669310289185 C52.32223358942828 96.19338607219329, 36.313149658821516 104.40357232496625, 22.266273140492082 111.40611207301286 M23.70150523871364 108.19038612341232 C22.74485007187637 91.9022004474241, 21.163335750717586 72.54594316901276, 22.942821055435378 22.640086419650665 M21.524356264037966 109.60716043277182 C24.456862509180763 92.06078260246615, 22.855651996550925 74.99947251709676, 21.32708527670189 20.98902506635034" stroke="#000" stroke-width="2.0" fill="none" />
  <path d="M133.67731840174946 27.016300236958692 C135.7184323926177 25.485833539982266, 137.1204661013942 23.249374817735788, 137.68937903486517 22.400952436767277 M133.67731840174946 27.016300236958692 C134.9026947602781 25.25125676742295, 136.6113159633948 23.756723969256086, 137.68937903486517 22.400952436767277 M133.67731840174946 32.969001581521994 C135.95184316944076 28.939982803995104, 138.875126408491 26.456271102205626, 141.70143966798085 23.73830598113916 M133.67731840174946 32.969001581521994 C135.88527870395436 30.627576490480823, 138.4815408874337 26.880870188012707, 141.70143966798085 23.73830598113916 M133.67731840174946 38.9217029260853 C136.99645447473713 33.43216995552629, 143.14281524394096 30.19015838000374, 145.71350030109653 25.075659525511067 M133.67731840174946 38.9217029260853 C137.74345265421536 34.338433135124305, 143.78749641563195 27.952641388289734, 145.71350030109653 25.075659525511067 M133.6773184017495 44.87440427064861 C135.47103082839382 40.88260768869185, 141.2340007312726 35.164741438210825, 149.72556093421224 26.413013069882968 M133.6773184017495 44.87440427064861 C136.9985622081207 41.07371391508528, 139.33804022254958 37.92722389319728, 149.72556093421224 26.413013069882968 M133.67731840174946 50.827105615211934 C140.35326912658144 44.00969295894508, 144.89935342069037 36.67336696063694, 153.73762156732792 27.75036661425486 M133.67731840174946 50.827105615211934 C140.45043246344432 42.44922100127846, 148.3834793444464 32.573838226209915, 153.73762156732792 27.75036661425486 M133.6773184017495 56.77980695977523 C139.7311741158576 44.614060423635905, 148.84304668960678 38.16290098351125, 157.74968220044363 29.087720158626745 M133.6773184017495 56.77980695977523 C140.15045833715422 49.13437005466287, 145.2907235664867 43.75100067558816, 157.74968220044363 29.087720158626745 M133.6773184017495 62.73250830433852 C141.292469750833 56.629376871388615, 145.81598491773127 47.9228138960805, 161.7617428335593 30.425073702998656 M133.6773184017495 62.73250830433852 C143.00264940371605 52.464724345696325, 150.3082319197255 42.10601149683907, 161.7617428335593 30.425073702998656 M133.67731840174946 68.68520964890182 C145.2517517567615 60.06716512089598, 151.92426144509068 45.86449848155816, 165.773803466675 31.762427247370535 M133.67731840174946 68.68520964890182 C140.5974914439978 58.889644474370684, 149.31507395837042 51.42836481122774, 165.773803466675 31.762427247370535 M133.6773184017495 74.63791099346514 C150.07548412794017 58.26926813463112, 163.00538068086394 43.53132409965772, 169.7858640997907 33.09978079174245 M133.6773184017495 74.63791099346514 C145.3539795948339 61.41742644419449, 156.50104619199894 47.61049418248179, 169.7858640997907 33.09978079174245 M133.6773184017495 80.59061233802844 C144.51707035757119 67.61152596439851, 155.25312063256501 55.88610025803297, 173.79792473290635 34.437134336114354 M133.6773184017495 80.59061233802844 C142.85252156754888 70.34729355832471, 151.27298348311473 60.623248169844686, 173.79792473290635 34.437134336114354 M133.6773184017495 86.54331368259176 C148.68105037161243 71.95834987631925, 158.4937556937069 58.67128303982946, 177.80998536602206 35.774487880486234 M133.6773184017495 86.54331368259176 C144.39168388555044 74.82126288113771, 152.86823994328046 64.8251896267748, 177.80998536602206 35.774487880486234 M133.6773184017495 92.49601502715507 C147.9089539428737 75.12121962392766, 164.2944721095929 57.302396568846206, 181.82204599913774 37.11184142485814 M133.6773184017495 92.49601502715507 C148.54979144225223 77.13986997973666, 161.65940702798594 62.904352199176955, 181.82204599913774 37.11184142485814 M133.6773184017495 98.44871637171836 C148.90777417569586 76.93071318844183, 166.61586589542122 58.00968460614202, 185.83410663225345 38.44919496923002 M133.6773184017495 98.44871637171836 C146.2574888474804 88.00333016782928, 155.2334037025975 74.07300230833378, 185.83410663225345 38.44919496923002 M133.6773184017495 104.40141771628167 C156.62502315832504 77.0269237873843, 178.7985732335624 51.78244065978437, 189.84616726536913 39.78654851360193 M133.6773184017495 104.40141771628167 C148.95165282296117 88.104714115404, 161.89568506517543 70.4970279043283, 189.84616726536913 39.78654851360193 M133.71727090945282 110.30815895819383 C152.3361089236939 88.82248183222553, 170.45855473065126 68.54951400143565, 193.8582278984848 41.12390205797384 M133.71727090945282 110.30815895819383 C152.1750544132846 86.2218717968199, 171.4220159411308 63.94760761708372, 193.8582278984848 41.12390205797384 M142.87008534273517 105.73175174155264 C165.7161443791658 82.94468550438442, 183.90041390959195 54.87784035606232, 197.87028853160052 42.46125560234573 M142.87008534273517 105.73175174155264 C158.67667024609045 89.1156900971863, 172.68655311176332 72.25238605348542, 197.87028853160052 42.46125560234573 M152.02289977601754 101.15534452491147 C162.73426422727474 87.43476956971398, 178.43189703781522 72.7511328130183, 198.4312849084101 47.76860443846188 M152.02289977601754 101.15534452491147 C167.06869982084666 83.77334900188526, 181.84309012282105 65.7073665200834, 198.4312849084101 47.76860443846188 M161.17571420929985 96.57893730827028 C169.92218159807047 85.1077594425051, 182.60409931049634 73.70614530149575, 191.42507022059098 61.78103381410007 M161.17571420929985 96.57893730827028 C168.8134195149423 86.25934962816018, 177.0309614404721 78.47025226122733, 191.42507022059098 61.78103381410007 M170.3285286425822 92.00253009162911 C176.96563861488994 87.20264176689945, 178.63264946976642 78.8964927413855, 184.41885553277186 75.7934631897383 M170.3285286425822 92.00253009162911 C175.52568816216834 86.77706893563538, 180.30990213367448 81.15322601721789, 184.41885553277186 75.7934631897383" stroke="#ccf" stroke-width="1.0" fill="none" />
  <path d="M133.67731840174946 21.063598892395376 C159.47320490808931 29.319963484345166, 181.35813401167422 36.7028729188947, 200.62572064148705 43.379732972307906 M133.67731840174946 21.063598892395376 C151.66408114276942 25.526984984002706, 168.71351270225128 30.65188508374264, 200.62572064148705 43.379732972307906 M200.62572064148705 43.379732972307906 C197.93904039012492 51.14661459197477, 189.75147631748095 63.90615832031044, 178.30958656157452 88.01200113213295 M200.62572064148705 43.379732972307906 C192.70925804542554 58.857173957547104, 186.24703058669039 74.84786546464186, 178.30958656157452 88.01200113213295 M178.30958656157452 88.01200113213295 C162.95784499595925 94.22181445742616, 152.48102721431042 101.74562684923609, 133.67731840174946 110.32813521204548 M178.30958656157452 88.01200113213295 C167.0765153514539 92.89038829527779, 155.21613329226378 99.02778681897135, 133.67731840174946 110.32813521204548 M133.67731840174946 110.32813521204548 C132.54352181358433 80.49587803755622, 133.83591640527425 52.65561392671596, 133.67731840174946 21.063598892395376 M133.67731840174946 110.32813521204548 C135.02007869376422 78.32161995165019, 136.31296186787046 46.87719578066496, 133.67731840174946 21.063598892395376" stroke="blue" stroke-width="2.0" fill="none" />
  <path d="M286.9491363663265 59.461034806055636 C289.92883453974406 52.03375327680658, 295.37272696466323 48.56581061891194, 301.8083232720776 39.68509254043427 M286.07450650188485 58.18382152492525 C290.44344687099607 55.90763908540801, 292.2812607358929 51.936641651487335, 302.3966958325416 41.60891638951105 M283.97037923333966 69.58229300227431 C288.18931911192425 60.688978232251856, 294.1909564928394 56.392162419380284, 307.3246377772141 37.845289689154285 M282.5684112929928 68.01944793606548 C293.09011685835 57.523177211297764, 304.0801572659968 46.00194437891338, 308.3499610854195 39.295866872202296 M285.81241911378123 69.81998105211713 C296.0942476155561 57.50768884663921, 305.9547374363374 43.91916712212715, 313.14897005565814 40.26823387976272 M285.9885074422768 72.53931579733394 C294.2631921919867 61.806149132895285, 303.6650359310859 50.61315946768974, 314.14251866570197 38.355431881841355 M287.77138156024483 74.63184521979161 C295.10935907389 65.4153752855963, 304.002254579181 59.30305364153625, 319.7483151278868 37.482319497494316 M286.62066865990056 74.65333748239213 C297.30060334380613 64.47752025957071, 307.3916705695019 51.18508460370225, 318.68163311074386 38.44013876324355 M290.7262381375872 77.93817460133123 C299.76298926212866 66.56287447270958, 308.91725616115434 57.444465047783694, 323.0008663221656 37.770376278512416 M288.7932370288708 80.46454831491923 C301.5009375932318 66.51587726311173, 312.8878343951926 53.256502218246496, 324.50650749707745 40.110076893427404 M292.83319344714124 82.36082605164249 C304.60289457199775 65.98245083984045, 316.6034446393296 50.57216858060349, 326.6730762695102 40.31877677343603 M289.97757844734844 83.65656664282213 C301.00473187852697 72.40347667574075, 309.3254298355065 63.732226927783046, 325.7566686301683 41.91323063848823 M291.96411979808965 84.16661943928824 C304.1478309730005 69.89342746104737, 321.0331514160313 53.98311656952745, 330.6729560602 45.726142178484494 M292.7004551188337 85.9260385749971 C305.62660982154046 72.13616217762626, 316.62591195702373 58.3771936283477, 329.37786180335996 44.9630647289265 M299.46600397978114 86.73337718761141 C303.7108255046607 80.29306898767217, 312.86478500863944 69.73664391541776, 332.11067071066674 45.42466683584176 M298.2061135986492 88.41102276785163 C311.5457958492308 72.93557195664525, 323.77145489422736 55.790487272404775, 331.31011099506327 46.262675546162825 M299.7432396723376 87.62198261015696 C310.8474218765823 75.9704602032161, 323.43993557410437 61.4830819511302, 336.1422839386974 48.01702383575433 M300.10029734126124 89.39690241322253 C308.43724280715554 78.80042292999458, 317.88561726534317 70.54120323554486, 334.3888051898076 49.947042433265565 M304.3218463669486 92.6584170713019 C315.6757189270063 76.75406634237807, 329.80418169954726 62.30544774306031, 338.6076247904784 54.36423989490393 M304.23316266424746 91.40712821987478 C314.83828941229507 79.45710227000393, 324.5708207927679 69.32175533371579, 337.84298052256037 51.42657080512927 M306.75193240191055 91.41267076188281 C318.6464015736362 79.92307917272804, 332.10981482590086 64.77010336636243, 341.0014551627478 55.80281445036199 M309.4103642661093 93.1746890979868 C317.38582972654297 83.86299435089047, 325.17940486123473 74.40934680125713, 339.88869916763554 57.4642900568915 M314.43076351707333 91.29979585374707 C319.8039661313376 85.90899247136602, 330.2139852755854 76.82867451828629, 339.6345627954118 65.11034241010745 M313.6264980552838 92.58265661538644 C320.9268846585539 84.79542389630984, 327.92503211596255 77.66238217968584, 339.04038956636043 62.57719762295818 M321.6077035855463 88.65948215164318 C327.7902403034653 83.295281331668, 335.5395037820959 75.22503651113757, 340.69184601010505 66.51095854017697 M322.02190524148705 90.4233835036403 C325.4179885527259 83.8880037635412, 330.5693926744178 78.20294913568007, 340.34735508869585 67.77355244645491 M328.4544196256072 87.5833820431232 C328.516093883811 87.48342020833289, 328.56371445689547 87.42928380136338, 328.704465590509 87.26141305405477 M328.4688745627505 87.57486833609637 C328.5358249558448 87.49356196794731, 328.5940647169855 87.4003152611372, 328.7104947560539 87.25839296244101" stroke="yellow" stroke-width="1.0" fill="none" />
  <path d="M304.8702537161495 38.78374240755265 C309.73266026369805 36.99664382829832, 318.1525083322584 37.62153207261737, 323.18877372755924 39.65164585300187 C328.2250391228601 41.68175963338636, 335.91899116245924 47.283054345825846, 338.4453563514883 52.31783427678259 C340.97172154051725 57.352614207739336, 341.525620463047 67.928667845269, 340.031208321086 73.21684539271347 C338.53679617912496 78.50502294015793, 332.91955870842526 84.47577078605133, 328.482608738415 87.57235125974567 C324.0456587684048 90.66893173344, 315.95394484943637 94.20882077549759, 310.45154185435126 93.86071521734236 C304.94913885926616 93.51260965918712, 295.8544317551202 89.05318407952001, 291.7999221045142 85.25164753871071 C287.7454124539083 81.4501109979014, 283.8700615383079 73.82719102740992, 283.42147751697826 68.51713827861369 C282.97289349564863 63.207085529817434, 285.470847672868 54.504969048556944, 288.8093619623168 49.85129588006912 C292.14787625176564 45.1976227115813, 302.7885930799111 39.05159084576523, 305.678239446637 37.49265048869486 C308.56788581336286 35.933710131624494, 308.0590928772137 39.00586961954207, 308.0736710738228 39.4583601662666 M317.2990621929742 36.77931328630633 C322.7066166275072 37.363212921035256, 330.1530508664938 43.96511710560996, 333.82249296597405 48.29890073350984 C337.49193506545424 52.632684361409716, 341.47632030897523 60.52960231580063, 341.7620095228426 65.67120413897219 C342.04769873670995 70.81280596214374, 339.21282681164195 78.22511227185716, 335.72708772508975 82.57624622132022 C332.2413486385376 86.92738017078328, 324.11477778429605 93.6969325843262, 318.5237489458278 94.67876380205924 C312.93272010735956 95.66059501979227, 303.48816362585364 92.2212309415098, 298.4535621353018 89.12178767287378 C293.41896064475 86.02234440423777, 286.915974916943 78.721949643711, 284.9597390088156 74.01580867781914 C283.0035031006882 69.30966771192726, 283.27039742588715 62.66890793374, 285.41198941445236 57.747514566928004 C287.5535814030176 52.82612120011599, 294.5250719759101 44.301261642325926, 299.23701893258345 41.206519565739114 C303.94896588925684 38.1117774891523, 314.20479660327123 37.7102002397329, 316.8249691256078 37.11590072301594 C319.44514164794447 36.52160120629898, 316.913267285368 36.60862573444636, 316.70483574816103 37.24452278762604" stroke="#000" stroke-width="2.0" fill="none" />
  <path d="M398.87122563223824 60.65729788858107 C403.4393361083954 56.62473297140035, 409.0150852458068 46.80686657698861, 416.9657455884127 39.84193378716783 M398.87122563223824 60.65729788858107 C405.0133098455552 54.34565843536376, 410.0149993568403 46.34944130627697, 416.9657455884127 39.84193378716783 M398.7514572594548 66.74777698537868 C406.4232463218195 60.481241015559036, 409.98894738665155 51.07512601490038, 423.45541115236676 38.329128893528264 M398.7514572594548 66.74777698537868 C408.1838316219151 55.97252031896693, 416.2755124905658 44.82397187018147, 423.45541115236676 38.329128893528264 M398.63168888667144 72.83825608217631 C411.54570541960555 59.24459182581029, 419.9356974447571 49.12832330261223, 428.92827902327366 37.986015942505404 M398.63168888667144 72.83825608217631 C409.3073446793118 59.70111964792798, 421.65912944472655 48.13388188310944, 428.92827902327366 37.986015942505404 M399.33624280028926 77.98046086332967 C406.0997629844906 69.05358758803078, 412.25551094664667 60.55929555674807, 432.6430242720598 39.66539171199081 M399.33624280028926 77.98046086332967 C408.2967623555386 68.50307588957318, 417.05113274733156 60.30130180674011, 432.6430242720598 39.66539171199081 M401.8408200348212 81.05197568384241 C411.1960532663769 66.76343916217547, 424.0018960632728 54.55828010641207, 436.3577695208459 41.3447674814762 M401.8408200348212 81.05197568384241 C414.475909600193 67.08201892275875, 427.2386857560107 50.43325682999223, 436.3577695208459 41.3447674814762 M404.3453972693532 84.12349050435516 C415.7167103604515 73.48196020798555, 426.7941901516818 60.14931721612136, 440.072514769632 43.02414325096164 M404.3453972693532 84.12349050435516 C411.59550722174544 75.12700835809223, 420.6331559876344 65.10806028852511, 440.072514769632 43.02414325096164 M406.84997450388533 87.19500532486786 C418.9081734516705 75.63636865750321, 429.1804275635439 63.059159590787544, 443.7872600184181 44.70351902044703 M406.84997450388533 87.19500532486786 C421.0760647175627 69.96367977597647, 435.33652461295196 52.94758682918105, 443.7872600184181 44.70351902044703 M409.35455173841734 90.26652014538058 C419.9584569042667 78.64496809657945, 425.05471855889556 70.59584580360836, 445.5079497421504 48.67679326819891 M409.35455173841734 90.26652014538058 C420.46049333240944 78.09529536666376, 430.503815080443 66.25681502286707, 445.5079497421504 48.67679326819891 M412.9083766261594 92.13101361428964 C422.5345877067695 77.69300228596173, 436.7933567165204 65.48933676733733, 446.8184660453496 53.12191806041373 M412.9083766261594 92.13101361428964 C424.1734998668227 78.06539456799584, 437.85895213095216 64.62509381229934, 446.8184660453496 53.12191806041373 M417.6180915884077 92.66580765926639 C429.4173969762406 77.92618118747845, 443.64623664186615 66.3736490425569, 448.1289823485489 57.567042852628546 M417.6180915884077 92.66580765926639 C425.683765779249 82.49725407118554, 434.9124154968636 73.16621219043375, 448.1289823485489 57.567042852628546 M422.327806550656 93.20060170424317 C430.46359260756935 84.61796317289749, 438.891063497965 76.05921119506517, 449.43949865174807 62.01216764484337 M422.327806550656 93.20060170424317 C428.84222022790476 85.3416884587981, 435.40085198480534 79.5590665324298, 449.43949865174807 62.01216764484337 M427.03752151290433 93.73539574921992 C433.7930366338871 86.4227648086748, 443.2966170052654 76.38114756864408, 448.3378387906118 69.2321836891614 M427.03752151290433 93.73539574921992 C434.00693479716443 85.08079802176954, 440.658051990574 78.33969437341243, 448.3378387906118 69.2321836891614 M436.98924422427336 88.23994968920047 C438.09211276062973 86.08044146115505, 440.4398976503968 84.17329817623032, 445.50649835734214 78.44196961824561 M436.98924422427336 88.23994968920047 C440.9160197882452 84.29133921901645, 443.98444898681385 80.31832010017285, 445.50649835734214 78.44196961824561" stroke="gold" stroke-width="1.0" fill="none" />
  <path d="M427.5671068200297 37.37065217914318 C432.5602580020207 37.60218357398077, 441.05806256950314 41.015352313400115, 444.4210140408461 44.99002888257746 C447.783965512189 48.96470545175481, 450.0556846253086 58.09695296581128, 449.98678329564916 63.86849597365884 C449.9178819659898 69.64003898150641, 447.1565368206267 78.95884060811551, 443.961671843117 83.46698226822792 C440.76680686560735 87.97512392834032, 433.68182390004205 92.66133882553946, 428.6876834455848 93.92277370774156 C423.6935429911276 95.18420858994365, 415.18812359465505 94.41261218852412, 410.6674021467353 91.87654814957523 C406.14668069881554 89.34048411062633, 400.3103134040185 82.13861838052284, 398.54954045945317 77.01568011474893 C396.7887675148878 71.892741848975, 397.13993491488236 63.07276759284038, 398.92891584963314 57.72362637774914 C400.717896784384 52.37448516265789, 405.38743953639965 44.14253803679182, 410.4760800244587 41.3547386808073 C415.5647205125178 38.5669393248228, 428.70133030187543 39.10529841700203, 432.85318577002715 39.13829733785238 C437.0050412381789 39.171296258702725, 438.2270167238851 41.111701721741966, 438.1551164788033 41.57473148647631 M416.34186983933677 37.782863071478005 C420.90000352344293 36.266323236067635, 429.1561594275694 37.86513688692111, 434.1015023202763 40.27081006049316 C439.0468452129832 42.676483234065216, 447.21149724693754 48.929678700937814, 449.31082245738304 53.820684228625 C451.4101476678286 58.7116897563122, 449.49844568552163 67.48266102790664, 448.0970037232466 72.87751357840779 C446.6955617609716 78.27236612890893, 444.259970582261 86.37289404227695, 439.9678760422163 89.78636789863266 C435.67578150217156 93.19984175498836, 425.00892002604684 96.45378614922949, 419.48304012294835 95.63400595411251 C413.95716021984987 94.81422575899553, 406.6615175816594 88.74879562280803, 403.1286766882265 84.32116659785287 C399.5958357947937 79.8935375728977, 396.2365364213476 71.70531700377072, 395.9307675000627 66.11647912107802 C395.62499857877776 60.527641238385314, 398.0426354788006 51.41052134768417, 401.0902172129937 47.06224737990151 C404.13779894718675 42.71397341211885, 413.56240732668664 38.33745676466481, 416.24797906134984 37.12798600252694 C418.933550796013 35.918515240389056, 418.61709507228676 38.68842051766721, 418.9940287774147 38.999108965649015" stroke="#000" stroke-width="2.0" fill="none" />
  <path d="M535.3677318401749 32.22166593235164 C551.8948066114674 35.749797331607056, 567.2117003913704 38.54916771522424, 580.0 43.379732972307906 M535.3677318401749 32.22166593235164 C552.4645591590279 34.66154288419331, 568.5420695757281 38.751806816265, 580.0 43.379732972307906 M580.0 43.379732972307906 C574.330504490596 63.98915494846888, 570.98653810502 83.57712786838917, 568.8419329600437 99.17006817208922 M580.0 43.379732972307906 C576.29911738922 56.2104653675422, 575.1752661452845 69.34929490545015, 568.8419329600437 99.17006817208922 M568.8419329600437 99.17006817208922 C552.8796802822546 96.65536126210351, 535.5611981328526 90.90980837286857, 524.2096648002187 88.01200113213295 M568.8419329600437 99.17006817208922 C555.5359145599866 96.29007313708402, 543.1253937314506 90.98677460374577, 524.2096648002187 88.01200113213295" stroke="red" stroke-width="2.0" fill="none" />
</svg>