<svg width="600" height="150" xmlns="http://www.w3.org/2000/svg">
  <path d="M92.2075937574008 94.17463330380825 C92.63034671988608 97.71760559570937, 90.8764961012672 103.7111379044816, 89.29247178984484 107.14072328180683 C87.7084474784225 110.57030865913204, 84.33723320853349 114.42915462923112, 81.64743168125179 117.03853581930969 C78.95763015397007 119.64791700938825, 74.66269000592455 122.69858483057921, 71.36046160796677 124.53659788233061 C68.058233210009 126.374610934082, 63.075005524195944 128.75968616208462, 59.632575694866674 129.29195616431906 C56.190145865537396 129.8242261665535, 51.867155780113315 128.95333731289435, 48.4109294124383 128.08506456389347 C44.954703044763285 127.2167918148926, 39.74384237702186 125.56469848324322, 36.59106657703321 123.50347117097988 C33.43829077704456 121.44224385871654, 29.721758559646368 117.26305238907823, 27.392424079180607 114.34354914880457 C25.063089598714853 111.4240459085309, 22.12434008118964 107.24664362565943, 21.062170040594822 104.04011623582215 C20.0 100.83358884598488, 20.423922410022087 94.62771233611261, 20.311290475215138 92.96669988322269 M92.68916001212769 93.02714616413273 C93.17397287875677 96.6637361899594, 90.77574375973549 102.9043697257235, 89.18368294769003 106.18548339834702 C87.59162213564456 109.46659707097055, 84.37235884469096 112.07448097503695, 82.0754212651579 114.90123731495622 C79.77848368562483 117.7279936548755, 76.68942672153469 122.84038356999262, 73.87076575080297 125.03052566447549 C71.05210478007126 127.22066775895837, 67.10658317922206 129.00436922301728, 63.28434812694647 129.50218461150865 C59.46211307467087 130.0, 52.29067497767211 129.2411663603266, 48.389198735632306 128.34929492108455 C44.48772249359251 127.45742348184251, 40.06664411677395 125.47052061838814, 37.27450651334778 123.55637501656174 C34.48236890992162 121.64222941473534, 31.86595246145577 118.46715344182215, 29.774948046124514 115.5883242422419 C27.683943630793266 112.70949504266164, 24.754025713442495 107.75742400654627, 23.33447707780609 104.3641803526934 C21.914928442169682 100.97093669884052, 20.76476846560378 94.6763219536433, 20.311290475215138 92.96669988322269" stroke="blue" stroke-width="2.0" fill="none" />
  <path d="M144.7969854048394 119.37763630242307 C142.06173232211782 119.67190025015077, 137.24901945259458 118.27768247643046, 134.69515706612404 117.27627252908218 C132.14129467965353 116.27486258173391, 129.7686873773608 114.41645972817876, 127.77123616170263 112.70156998676791 C125.77378494604447 110.98668024535705, 122.74925236723665 108.11928636457866, 121.37881562840296 105.84367425300978 C120.00837888956929 103.5680621414409, 119.12392355924429 100.19735459735814, 118.6349912361448 97.5308225763087 C118.14605891304532 94.86429055525925, 117.71232850901391 90.65407469886362, 118.11926680773978 88.06679411268014 C118.52620510646565 85.47951352649665, 119.93813075251067 82.48898902414103, 121.34791322765066 80.28228533508545 C122.75769570279066 78.07558164602987, 125.3509970948026 75.30202935361167, 127.51781664200641 73.35543618564293 C129.68463618921024 71.40884301767419, 133.3866051915068 68.39727796462319, 135.79337687567613 67.30499754862718 C138.20014855984547 66.21271713263118, 142.2571148685685 66.21346477735051, 143.56296120313536 66.07356674566961 C144.86880753770225 65.93366871398871, 144.358610420674 66.32752741532512, 144.499019106122 66.37234400408786 L144.56313180325495 92.9096876678087 L144.58450272036868 119.44709864486458" stroke="none" stroke-width="0.0" fill="orange" />
  <path d="M143.77636298306456 119.09796803134986 C141.09944146787288 119.43812822187816, 137.36588962220043 118.85447134484684, 134.86447555186473 117.87061158625227 C132.36306148152903 116.88675182765769, 129.0529874526494 114.3806256580587, 127.10026918082666 112.53890297405269 C125.1475509090039 110.69718029004666, 123.19068874883463 107.91917206004716, 121.84635373971305 105.59246035954548 C120.50201873059149 103.26574865904381, 118.65310687266951 99.77605835752692, 118.13803578668283 97.02749163737484 C117.62296470069617 94.27892491722274, 118.03643100367236 89.96315339740514, 118.41254649980192 87.26868222519818 C118.78866199593148 84.57421105299123, 119.25238461818755 81.17787959620524, 120.64547242754652 79.06435048932843 C122.03856023690551 76.95082138245164, 125.41189535373115 74.90490620949022, 127.69979856219511 73.17848817935278 C129.9877017706591 71.45207014921533, 133.37825798626164 68.61393311180555, 135.898160483973 67.55489695507883 C138.41806298168433 66.49586079835211, 143.20900033749265 66.33374460759362, 144.4991485469373 66.11824713450798 M147.31566651551853 120.27911319770435 C144.6615713406584 120.71096542708757, 139.52498695522934 118.53605403077587, 136.67042257592718 117.81773214592992 C133.815858196625 117.09941026108397, 130.2831871327699 116.90851868072265, 128.2852373201706 115.49030063206467 C126.28728750757132 114.0720825834067, 124.89709745788522 110.92199975907445, 123.35075715859851 108.36294515487677 C121.8044168593118 105.80389055067907, 118.93467020876629 101.1628067854766, 117.97630199159248 98.42993660408007 C117.01793377441867 95.69706642268352, 116.62370587120424 92.69578127084121, 116.96163571077307 90.14381061223315 C117.2995655503419 87.5918399536251, 118.82615713251192 83.82292806569326, 120.22916758871797 81.41679888002636 C121.63217804492402 79.01066969435946, 124.10147812813811 76.24325945563284, 126.3150387521467 74.10294937445377 C128.5285993761553 71.96263929327472, 132.5620753146051 68.3677819558674, 134.98623841544196 67.14806500549929 C137.41040151627882 65.92834805513118, 141.04918957133475 66.12597571931504, 142.4761260910591 65.97150303866634 C143.9030626107834 65.81703035801763, 144.19569517855558 66.09623552013173, 144.4991485469373 66.11824713450798 M145.29017001432706 91.90337694258764 C144.67960387420564 101.67630812304483, 144.24914946105235 109.80660846806028, 144.06827715290157 120.39082364000156 M144.80331692045695 93.52152655849572 C144.3895270231287 101.117767651247, 144.21934292805625 110.31297161545372, 145.45833139083936 119.16376200388379 M143.0566495387263 93.63122147524408 C144.043656397427 82.52937424193222, 145.25108531995414 72.69563600714231, 143.36512799805953 65.50508695130368 M144.37935221487663 92.45193733939477 C144.4561939415537 86.99029018199731, 144.79473795103831 79.30675157293513, 144.16102378998636 66.99606045639601" stroke="#000" stroke-width="2.0" fill="none" />
  <path d="M206.65196474572556 75.1700211128171 M206.65196474572556 75.1700211128171 C224.26620924763708 21.187444985461223, 276.4449442170514 22.608371392863678, 295.5388824494483 74.56963724100858 M206.51628407557683 74.60158540221991 C226.21750861767825 20.0, 275.7643462608701 22.212617055536455, 294.5017737705569 74.33303139447753" stroke="purple" stroke-width="2.5" fill="none" />
  <path d="M410.70838064693794 53.87329330247608 C411.873930592126 51.27867222774972, 414.36939069613646 49.48574037661162, 414.1628875561478 49.649912673824105 M410.43152228065406 53.2245284894088 C411.59041909840425 51.69851328511587, 413.9496546525081 50.307290031360395, 414.52917886322825 48.25435837216356 M412.3842739784994 59.40570859113085 C411.80002981273157 52.82051137561739, 414.8452362903371 49.21252488779951, 419.3248287747501 47.991559012316834 M409.83581585669066 58.81975515364674 C412.25202546661 55.62461095549096, 414.98321097910315 51.68096319714667, 419.37392032208476 48.206994092419464 M409.0639474802231 65.63658928940647 C414.8338591030645 59.53331904797271, 418.11119228239914 57.89291517267504, 419.89240140789275 51.18727306048247 M412.00282809350585 62.45701379805451 C416.5795978218691 58.36265445091246, 419.1698189344316 50.77593534564939, 421.6232304022821 49.66457635392299 M412.2881291760566 68.30653201386814 C415.80572928198376 60.017339407972614, 416.87277172799344 57.32234099869382, 430.15943811507555 48.86181259501105 M411.6470491275491 68.33845296681248 C414.1309765138587 63.19551002727252, 419.65052823036973 59.1409869192848, 428.65930312338827 47.371866443712015 M409.2153778594789 74.29000715069859 C418.11382398060977 65.79417027605936, 427.5120662149828 58.11407184776166, 434.18395173799587 50.60865307283653 M411.92575945538874 73.1888403084814 C416.909891104935 65.63992593737345, 421.245392320451 56.667452192882436, 429.71274501954116 47.55689183910692 M412.9764130362002 76.52246543128953 C417.1355185545142 67.44373872355115, 431.09562225230246 54.32782071677937, 437.0542862676975 49.17640351842517 M409.5326870248151 75.7529409936803 C420.08945626186045 67.72333797921912, 430.55994002661674 55.74760740017173, 433.799696373998 49.4762484738618 M413.33468872838756 84.82158659156222 C417.98125965654367 68.68497458526143, 429.98022746043756 60.69182855038572, 438.1024829198283 49.87686506839082 M411.66746776770026 83.2730419251373 C417.9992417428969 73.73414827869316, 422.56418432104266 65.43555856050017, 438.0128283237278 49.179731265861435 M413.70317118396747 86.64078617450299 C426.2215362828404 71.30408737022303, 435.43217555688864 60.27149169251297, 444.27207303210207 45.46909587482265 M413.97447714610354 85.46438001670654 C423.30627190445773 73.65226036518742, 432.9733356007855 60.13322324099045, 443.77123755046495 49.72014663907135 M419.0568979535681 82.71541548096073 C424.5103148417795 72.39916964040788, 434.0644683750927 66.252478476, 444.89012669753953 47.92874498947128 M415.7616067421882 83.27301388408235 C424.73382181175026 72.80303799951234, 435.0069309000523 62.40859770759507, 446.68689626378483 48.49297704241379 M421.6535888154413 81.82623925213859 C428.36656111367296 73.77098906453674, 433.6095652538244 64.8523750441241, 449.3447973219847 49.2190380280742 M420.5023885820779 84.26313653312774 C426.3017409413425 75.00138309591046, 433.5124343108123 66.4640493486776, 450.9974298135449 49.522548736540045 M425.7360557121003 80.94582569937131 C435.8263128740057 72.14720501565249, 446.70112903401207 55.66350407728744, 455.16835127374947 50.40803959756851 M425.9213377320099 82.83074816091275 C432.79578003036215 74.42683286584746, 441.5196559433321 65.70355006039904, 454.45666897089694 49.72665787893456 M429.6559342224307 83.03169309520818 C441.0502127132556 75.6575556172798, 447.2716493096639 63.29316881415226, 452.7588351201151 51.30678581919089 M427.67975816862065 84.67581126436876 C434.7160187937929 77.59537412969753, 441.0655627278856 71.86095662427374, 454.08412455993357 54.739353415346336 M430.5845267317259 81.4535493031263 C438.3227412611705 76.42802852229306, 451.7983838393715 68.64829654323522, 453.6997411679643 61.24597208737601 M431.99386359006644 82.49599155607238 C441.83499105901467 76.52694206531208, 447.7903217777488 66.3904864452748, 456.33514773652684 59.050908498570976 M438.2097402907773 83.18275899199496 C441.83928558432194 79.41300204737496, 452.26380323681514 66.74048878541021, 455.2935903938755 66.19549023888874 M438.1765102560905 85.18541571894947 C439.5178131392327 80.30536170820729, 444.61102646568224 76.70820319997328, 455.6622178746444 64.05212744116562 M442.73089719639717 84.6542008353231 C443.9037226370038 76.66781940313848, 447.60767016388627 72.4059959785129, 454.750438103468 69.1746814763388 M440.7705849304569 84.09292393890489 C447.5279538189156 77.05316396395472, 452.16194053638816 73.5928934830865, 454.16609262983025 67.1277028793703 M446.3900525676071 81.9730193302799 C449.6245251456362 82.24446259971202, 449.5903856529076 77.87351715120582, 456.78560551742004 72.07372150242858 M446.4642883228042 84.35809035253993 C446.9683894078923 81.22202690051635, 451.3876433264666 79.74388926252206, 454.46626609964585 73.71432393569982 M450.41670294090096 84.70680254212122 C450.6974145361755 83.29252014536176, 451.3691942702811 81.76992621173231, 454.74517605683457 77.26347400675324 M449.92048073395443 83.950540128916 C451.9289248727582 81.85027861331696, 453.3130617501903 80.12101750520561, 455.15983282073574 78.30895412883042 M453.77390358097676 84.06314715135126 C454.0848218550586 83.59918923970893, 454.6301384721692 83.12264846842875, 455.1346698079548 82.7395129108526 M453.85773466499467 84.14744938930838 C454.21034261879703 83.56369611719464, 454.59004596218045 83.15861491011609, 454.87854449205634 82.83937116799025" stroke="yellow" stroke-width="1.0" fill="none" />
  <path d="M410.658130128129 48.560521280329695 M410.0258753086241 48.656673183702004 C423.461233394896 49.77955371190181, 439.7653753841197 49.132480193947295, 455.0487906290959 47.22192718846102 M411.14138915610283 48.05496720524767 C423.66341958465745 47.958059046583365, 436.5713091009282 48.4424867870247, 454.4090804812783 49.2068275758371 M454.5826487357523 50.00334299058105 C456.6049350751432 56.48054915581843, 453.45911120015296 64.9767407174445, 455.0262242401653 83.21797719672844 M454.5871779303898 48.04968888506396 C454.99751248485893 58.7166217070925, 456.2373517812895 68.78591563419161, 455.5139986695728 83.81074346109703 M453.53563594056783 82.3425747672284 C444.3209321788165 82.92935585772183, 435.4952356836593 83.18053266839536, 409.4559586449654 84.37854200344442 M455.58076539764534 83.44300027574278 C438.91359583196305 83.99112913900603, 421.9962269220185 84.20462430234274, 410.82893827284136 83.24836074790711 M409.23690694758244 84.62744894837321 C412.26661919012037 74.83515682129652, 409.89026628040216 66.64201855247278, 409.3512960015397 48.247908050564014 M409.84947219388647 83.23219582890344 C411.2173481385609 75.18171299004293, 410.54169399974165 66.77509591830858, 410.31501569041177 48.20449401095378" stroke="#000" stroke-width="1.5" fill="none" />
  <path d="M507.09570469281465 58.15455917452846 C510.04539080259343 59.38897306018385, 513.5567718111091 63.95277435969196, 514.8357177602815 67.26178664880075 C516.1146637094539 70.57079893790952, 516.6338264155361 76.63016271236938, 515.6220110206306 80.2146411019203 C514.610195625725 83.7991194914712, 510.91382052498295 89.27728789500843, 508.09028179424513 91.15830924580678 C505.26674306350736 93.03933059660513, 500.0380379309022 93.32148300050365, 496.7984194823785 92.75478344057596 C493.5588010338548 92.18808388064826, 488.63604072915683 89.87743050784044, 486.4928254707539 87.3803121796221 C484.3496102123511 84.88319385140373, 482.641983749799 79.59237487631135, 482.51031775969295 76.1073279191203 C482.3786517695869 72.62228096192923, 483.756722631943 67.0285495818373, 485.6150522033799 64.14666579834832 C487.47338177481686 61.26478201485937, 491.707092168338 57.73110018811079, 494.89918156927274 56.894769362527214 C498.09127097020746 56.05843853694365, 504.9601379274866 58.10685100076458, 506.89564820961147 58.57112696112452 C508.83115849173635 59.03540292148447, 507.68297508813146 59.71628983130788, 507.80258345010566 59.9899424315935 M503.4338879341798 56.36392219463237 C506.3934576384306 56.748559108427365, 511.0161668192192 60.158064554209254, 513.1141062510039 63.35572310442882 C515.2120456827887 66.55338165464839, 517.5521342274845 74.12285236432587, 517.4201508127451 77.68164586276284 C517.2881673980056 81.2404393611998, 514.5760165398056 84.61190446467427, 512.2342168194081 87.08101309400865 C509.8924170990106 89.55012172334304, 505.2820870691806 93.6183916660985, 501.8081526767616 94.14237005832547 C498.3342182843426 94.66634845055243, 492.0348976598692 92.67892943350098, 489.07465420328157 90.57420237552178 C486.1144107466939 88.46947531754256, 483.0371208312123 83.52933914395187, 482.0731962995105 80.11085633846405 C481.1092717678087 76.6923735329762, 481.1464177783537 70.99757093608068, 482.6484906586027 67.78431700560284 C484.15056353885177 64.57106307512502, 488.8272860760144 60.16790353025854, 492.08701550117064 58.68916346861186 C495.34674492632683 57.21042340696518, 502.55980062429 58.140929842509124, 504.38002015964395 57.92604992795828 C506.20023969499795 57.71117001340745, 504.53441544979444 57.24171846299193, 504.22181240353035 57.25663070493959" stroke="red" stroke-width="2.0" fill="none" stroke-dasharray="4 2" />
</svg>