<svg width="600" height="150" xmlns="http://www.w3.org/2000/svg">
  <path d="M21.588412154430806 37.403154423047795 C23.49317462084496 35.82186808294805, 25.763559815761607 33.366814045186565, 26.106027103811204 32.00450252737018 M22.145818707942407 37.334441652440745 C23.80433121404003 35.714550236864724, 25.67030694781984 33.81005280604451, 27.09527373240602 32.043019680259775 M21.022873358065663 41.76866608773117 C24.549835653325246 40.22457765780362, 28.90647485081557 35.95382588371198, 30.87697762217752 32.42887669432854 M21.840673830731017 42.2927057574599 C24.391221978645337 40.0190484099085, 28.628440560684933 35.59067776536414, 30.995705206122185 32.03479332947032 M22.051620478689312 48.48130672470187 C28.430270118984282 43.766030248206604, 32.8698311743228 36.697599864765536, 35.26948053345457 33.8297186812205 M22.504311054573666 48.658576508110016 C26.835611929857222 43.81232829715641, 30.982690914219837 37.959217403418656, 35.37879402816525 32.86633153201298 M21.83922399727071 52.50720741940319 C27.878086766740722 47.56024782048737, 31.44361571178892 40.15458729390468, 40.52186657538965 30.23512289436569 M21.753524229017803 53.35225772881043 C28.051519489359197 47.5692753663037, 34.7512464419793 40.52623641449152, 40.761209664093556 32.2976465023263 M20.97995366036851 59.74111268871095 C28.7157639535858 52.77077683524968, 34.73895543947902 43.250532329682606, 46.72645696889603 32.032563836135836 M21.867925588126422 59.232763870279435 C30.333083271968306 48.41846010594093, 39.48249228726312 38.361038130109016, 46.961960071705356 31.471133273734168 M20.63908128116014 63.200955268036765 C30.93125678467406 57.07013497411538, 37.51317766105196 45.8552572906852, 51.08483864034243 29.989331224177764 M22.39259025463686 64.7640851122436 C31.02085036607447 54.31211148341245, 41.42522289755002 41.85285951183251, 51.345089004918755 32.14263137634116 M23.167371664584284 71.65482113141988 C28.69435704106201 61.15132711650459, 39.119701194091505 52.33569453574569, 55.480589714813384 30.57060873412848 M21.044754238152304 71.4109628293188 C31.99732795070723 60.80701667507067, 40.9666964706755 49.0789953922854, 55.253510192178204 32.65180842036302 M22.568660594802605 75.68676226154253 C32.72442703642534 63.318734047147785, 40.74534678546763 55.14264105479098, 61.36210013965642 32.95687766175779 M22.67210988192536 76.06034218424176 C32.34242510668366 63.31054103275666, 42.96240049165493 50.827904826331974, 60.69817905207973 31.06046743240983 M21.96999639845433 83.19528152829395 C37.426254036634006 62.52963637648426, 54.74165954529447 43.660122710223966, 64.43923139839302 30.02524792126655 M21.08861225516601 81.17296666595428 C35.554951156395155 67.08868445076641, 48.0603859185779 51.879648596740495, 64.30482686601769 32.1652116191786 M20.395844893726757 85.82926447410176 C38.10530475034106 69.74459799153018, 53.07515165614961 53.50841968779329, 68.40205107676437 30.61008533879715 M22.86948217626415 86.70220201122262 C39.386653383245395 64.64393039396305, 58.49532287331049 42.81487229711236, 69.06680876240463 33.00010551788974 M24.04143553998677 91.82208119751883 C40.989935253272904 70.08139550944782, 61.60208704758808 48.3763972147869, 74.95513560701382 31.749400011010234 M22.206568776793606 93.00769240250688 C38.368514763832785 71.99443748891238, 54.81619671198349 51.77708194813154, 74.81052478974887 32.658918410704544 M22.123083780725906 99.11866614813323 C35.361716133987514 80.0241652512324, 52.02816573898506 63.70516984297441, 78.427205839953 34.0014670374892 M21.740272402379233 97.53617437447997 C36.48746040852546 82.24518519473051, 49.674251537295184 66.76851617708732, 79.96153785677835 31.22738041488549 M22.913173871669173 101.97291258766529 C40.95991947668324 84.54851392042258, 54.729842865477785 64.51866079740604, 84.00196409517996 32.0382669016298 M22.438411885181875 104.36783702340185 C38.07360161388164 82.63952847356677, 54.47196326356239 65.2437590953617, 85.1581776365543 32.28955299112545 M21.991599244639865 110.37513518867937 C39.44123986047824 88.56010838227257, 55.67285192786491 70.28462251700176, 89.47161429723374 33.449812244134876 M22.0034602829429 108.84284488178031 C38.15015306649554 90.61065473475327, 53.299707460617 72.58713748088141, 88.19171983775738 32.84165050379504 M21.221800382663627 114.24561704417144 C39.56721247004816 95.20580676389702, 53.60704493038669 76.90601050442922, 95.79769835598697 29.978325130318012 M21.948677671412216 114.67735378402409 C39.943783625827095 92.68806114571831, 61.003742723053655 69.26638728535045, 93.99053081871973 32.84618095329563 M27.46717528159065 114.06835949438704 C53.653829434796386 82.82073791093475, 84.28547012817474 54.62306803881699, 97.19540810433311 33.02296892509204 M27.680641028716213 115.50486650519161 C51.956841101302324 86.94639177275181, 76.49882042111116 57.70518957428014, 99.53419261183213 31.515015724417527 M29.97857312944742 113.63430257153448 C53.27610319893591 88.92548715037827, 77.54358507714582 60.2198872195066, 104.27510193691221 31.9912043580455 M31.61168140486928 114.13231045509886 C60.3989905564661 83.60146703710362, 85.78627433748647 53.97985171617847, 103.19525362624586 31.80283275121213 M37.775953074031285 113.05259107142908 C57.71814912069697 92.74371655912955, 76.59038333651799 71.92737645960125, 105.73052201437282 34.364848185776076 M37.409696482329586 113.99981430653779 C50.78422922196076 99.55545221357903, 67.01405142963482 81.66185271045481, 104.68476592881429 36.11642540538582 M40.54252388475979 113.0133675735375 C63.698201876167374 86.53415791183957, 90.85573774261486 58.34973393301303, 106.40468538929713 40.789120567497356 M41.160292150873225 113.79420897459369 C65.3864988038833 88.57042098496805, 87.59061635159601 64.40421058689137, 104.81509613026813 42.609592765698 M45.30437302135737 114.06888001904758 C60.91535462238341 98.41370361208527, 76.38485910277721 81.99979486071621, 105.4732493232486 47.331210527535966 M45.26864273774672 114.46949611732526 C59.43612335663802 99.66081465087342, 71.26742974577465 85.87530385814608, 105.1720154889739 46.63997589428053 M51.37267317462234 114.21233855042237 C69.37287625214928 94.71829777857175, 85.9583917043475 73.94126304758004, 106.1939788651701 50.64959120300994 M49.88820436703401 114.48164611052596 C67.12326389768575 97.45651476095622, 81.3458833623127 80.79996161541843, 104.51677769160352 52.513901490751735 M56.36804354004549 115.50427570520122 C72.5226140799766 95.91623020433104, 88.88071542493266 73.8340666152933, 105.61587721855443 56.94814102885343 M56.146289467591366 115.4732239965031 C70.65021926153615 96.92105949066391, 85.50618514067217 79.50169324130198, 104.7264419747376 58.93785431993831 M58.62664280516212 115.42562038914244 C71.79874583696915 101.26327529931638, 79.86546937982912 92.06057560710738, 102.99346699613801 62.1792842266198 M60.37143777063165 113.89588694131729 C73.96807707155612 99.8292530184118, 85.84259556738938 84.71081492777157, 105.25229385573809 63.44804141962339 M65.18925068854494 116.00483721445073 C79.59644542066778 97.54484119643985, 95.41772444685229 80.46485542967736, 104.40742529966299 67.20824776363497 M65.77235586017194 114.30657687834588 C74.2445282184209 103.87422778831146, 85.38278356535773 92.35101831136615, 104.62410271095709 68.60591699682328 M70.2826663181642 116.29105874152037 C77.61487856963782 106.2946355141573, 85.27219913173415 97.25070614599039, 104.7496811098098 75.88677136885275 M68.92585593298224 113.56184789142571 C82.18897114753688 99.35634007202185, 93.6559729081951 84.98815084108912, 105.53126716242828 73.7225847277071 M74.78876125538387 115.67610847960836 C81.52889817457627 103.73881665817603, 93.77939209121709 93.70104889421228, 104.70670543787743 78.1487232678542 M75.62884243353982 113.5790993785038 C81.9162335083398 105.81229474134733, 87.9498204028792 97.53920392261341, 104.51097955969134 80.57128385707819 M78.56409372929913 115.2648259471793 C85.52118839711197 107.84976084458205, 94.12352632966935 96.77182299588083, 103.38856086334206 84.33868382391279 M80.41998257019392 115.20697951062286 C83.7147608876891 108.19198965646646, 88.61877358816643 101.88851818776217, 105.31613456472614 86.47299435963251 M83.32219548450774 113.24279733832711 C89.09004134946517 106.84616234314313, 94.02864112671331 102.24761404513967, 102.73588562868645 92.90281557680817 M83.7068953216702 113.57171232705696 C90.28534426495644 108.32796438098913, 96.6996063357053 101.46613866814258, 103.55946833849993 90.11069477026874 M90.38002934552568 114.14740559797923 C93.11038175935563 105.10479350810809, 102.01420000367042 101.55189977717018, 105.02891122897722 97.81240580801867 M89.72688274095451 114.56509358337505 C93.79220347611631 109.53532815382385, 96.58697748865549 105.47107053937651, 104.75648919797297 96.23110929859266 M93.14094685300056 114.39974594196266 C94.97921654392768 113.29042859654217, 99.365871078852 108.70488872435854, 105.91635204521161 102.16598779472568 M93.40929961019928 113.91194665574872 C96.05424234454595 111.73547330283688, 100.25941066277248 108.52696590663524, 105.12069742987494 102.3524215665829 M99.0169622157343 114.47003935394247 C100.13107178554601 113.22797224792706, 100.93881177925802 111.19004684471287, 104.47738598765518 107.10291676421141 M98.69833737866327 114.83292060720018 C100.00206607498869 112.83686176640995, 102.49346407700823 110.02961140679767, 104.41109470801592 107.83190911172304 M103.19402898070419 114.36431952035267 C103.53776734350014 114.30307807543457, 103.86038298723568 113.99954814816297, 104.42652422524277 113.16648136977838 M103.27962541275329 114.50652991520934 C103.73565671363548 114.05365198578542, 104.11817160480241 113.60559478871639, 104.49309951060663 113.07296379192368" stroke="lightblue" stroke-width="1.0" fill="none" />
  <path d="M20.0 33.613775367500054 C48.10244921017124 32.65368767548327, 78.85307252031753 31.057969085069473, 102.53246343411554 32.06487918169309 M22.558885388390305 31.38904254178739 C43.11937742071512 30.34814649739819, 65.71855614104021 31.994184362143216, 104.29953246117483 32.29211869179734 M106.55566519080918 30.58215193138815 C103.46109136486908 55.348382419010775, 103.0033678469036 77.24280094124208, 106.45354042635232 112.88964971178257 M105.25036570119717 31.42369153283957 C104.3940250098649 59.99841081226754, 103.51490611928028 87.77242701719541, 104.19144328035763 114.53169178397829 M104.32148481433619 114.31232410379809 C84.74110675634948 114.74913523643693, 62.24136418674742 112.94480536414588, 22.61010974950372 112.95701860256065 M104.06989576668568 115.19270645629118 C78.16749271864165 112.37576014966578, 50.89204098459394 112.64395608013007, 22.697375102301105 114.98389840976319 M22.174375310400716 115.8517757436359 C23.989614229134464 92.90449676906258, 24.131123406496034 69.18376065851396, 23.070975362858135 30.974750397291107 M22.811699174242417 113.6605391502448 C23.7289328625826 86.23411600218552, 23.142956543343843 56.440565137902176, 22.666163797590617 32.44488350552981" stroke="#000" stroke-width="2.0" fill="none" />
  <path d="M124.63440775400036 37.17331726984368 C126.1248732663746 36.77413736640367, 127.15416330604123 35.593678093213114, 129.98781811395682 32.51981659833014 M125.36319921499094 37.594733037733526 C126.64184300018765 35.46978548833082, 129.15339798346682 33.49375380781231, 130.00553842176603 32.10618151016152 M124.5635711031572 42.74273827691006 C127.0287433514504 41.5309958307719, 130.9803602024331 37.38776512827381, 134.97763877147062 32.38806135000311 M124.47252976196334 42.43045246807656 C127.55489079235677 39.820754124210666, 130.31251127569672 36.83391136360175, 135.30969215007016 32.4151005496173 M124.03047878540217 49.595509033394094 C130.49936402734494 43.91079764585921, 135.8217439223809 35.576379190339324, 140.37524798608658 33.53474571181637 M124.1986418760241 48.10993224108282 C127.33979411015244 45.42441926168613, 130.73439230826867 40.38441066016558, 138.87267079300833 31.729945327341913 M124.08931498086551 55.43011556150009 C129.2463636222281 45.84822360167966, 137.84086392516696 39.98791898592489, 142.45419113410986 32.19967980225062 M124.17181357959785 53.35089606431105 C130.19231695956225 47.33641647608897, 136.74027650935471 41.17474604814846, 143.477207457099 32.872244985332934 M123.72251991203227 60.41062936635941 C133.17219861993493 51.95906816221764, 139.6199392968954 43.18770308964156, 150.68658287725586 34.02331919774513 M126.00884276364502 58.9912314693659 C129.90979488529834 53.81088781767945, 134.97309251348372 47.04485584521953, 149.39603891643938 32.6093672707339 M126.72261355405918 64.275366659357 C131.0875310079886 57.00430837180826, 136.56246145708838 51.90769444822488, 152.59760152215856 30.877619342836134 M124.22052086847393 65.12303958892383 C132.4877759688362 56.57692330501602, 138.3505998381956 49.161751408165415, 154.710160298349 32.86456144926676 M125.80700042092208 71.45058203952371 C136.16117273161208 59.34971623767546, 144.2858781772716 49.4656219533109, 157.92705159147826 30.526412627029824 M126.030003163956 69.54087882814625 C131.69892373144555 62.59595562080161, 141.71489550615416 52.03358755083632, 159.23404495557878 32.07995497376148 M124.9096329039815 75.49591041150444 C134.76596206489916 62.054082622085424, 148.99035951409957 50.13522745213741, 162.09112380382493 31.256160420472586 M125.14763085966177 75.25021705088443 C134.56165546158456 65.31797074269846, 144.34544494240632 54.47003100617604, 163.15701187198718 32.21229341644397 M125.79737487019617 80.54184383739965 C133.19998266480962 69.48126094318144, 144.7100202035186 60.46427548758266, 166.62325518135864 31.14621714104443 M125.0389824188585 81.68451113532814 C135.80752488403957 69.07351032955262, 143.95871034105127 59.61567686971702, 169.14467925948136 31.69450543594122 M126.07137675885917 86.3758957828478 C136.7382519214922 76.71964186841817, 147.25399486428674 61.20512862259469, 174.0315934499388 32.58707225052672 M125.29737934271047 86.39464003644596 C144.74190915553712 66.6900599256146, 162.52787301119378 45.3771162875241, 172.16100468722928 31.864019179868045 M126.47844155958572 93.39621810311422 C137.4442478307422 75.88058240184944, 151.82410213341163 58.60469892621121, 176.10367602679426 31.759077907902412 M125.45249931524093 91.67660761628065 C141.47045520880883 75.07823473552943, 157.19570458155448 57.25220558824548, 176.7142345531872 30.998508956274357 M123.94585591107261 97.71930573519043 C141.9230310191245 80.84509601394191, 155.7883890276416 61.963948617417735, 181.95099226561948 32.99966487282279 M125.75674321562042 97.05365337218905 C146.9553664129605 74.25219138949856, 168.99395385757006 48.538277882777756, 182.8745642099268 31.923538018625855 M126.25601986895794 103.48146093205702 C146.72760541393203 82.94582314197487, 163.94153229738347 58.82688640635722, 188.35011042534973 31.638254822988976 M124.79082784299813 104.05285057163499 C150.91841287782063 74.46687848887484, 175.23452004814592 46.6095873473483, 187.87638839416675 31.649159252333366 M124.5295687713912 109.8893920082808 C144.55611749479104 88.64262871683476, 163.56383451267658 68.41351138218377, 193.0992345067001 33.86569169171064 M125.3780950563057 108.49956073702333 C144.96845410209713 86.07358110646624, 165.23978614679282 62.50622447863755, 192.28245568182524 31.804732466051806 M124.98837718131423 113.17436730424441 C139.1411885116392 96.58680735226216, 156.2746445134745 75.9237189474195, 194.95288155242227 33.75965077642487 M124.62803973662724 114.86565452065469 C141.2256989954847 98.16815502215488, 155.34610685727233 82.01098746313912, 197.60649647063374 31.040059668999753 M128.95799038437656 115.68778943276294 C144.33619041101926 101.18378103364697, 156.4213576277326 82.38689261402865, 202.69101493345977 30.619197963967277 M130.6273686479453 114.52906342475816 C150.0398344912684 93.91443486650218, 167.63889339858846 71.67295360172469, 201.8261467953726 32.058676383924464 M136.15804671592343 116.29351555308423 C161.37576496126874 83.19956265959229, 187.86736571611536 50.45968136146841, 208.17188926554806 31.035010373610245 M134.41192128005414 113.87207581340559 C157.65954219458933 87.17255392177927, 178.17367406549258 62.27845397918874, 206.2905079194597 32.52733794099092 M139.78292956301945 113.16975493789522 C156.46753567911395 94.63218342295662, 177.37129201203948 71.26098719572022, 209.59398860088575 34.73538084620979 M138.49298093900464 114.7488557266793 C158.34224270678368 92.51724971396979, 176.71310937092596 72.87240797195722, 208.59991308860836 36.09250840956729 M142.84071659826114 113.3532684646089 C158.90583285518642 99.51987164307761, 174.1031545577039 83.10602186323996, 207.72666930244213 43.3225696361135 M143.3933984721076 114.67720839983576 C168.93207973858972 87.20308012969446, 191.54475535566903 59.20625845127884, 208.0398778036344 40.92233864222148 M149.2084960108403 115.13591922102921 C160.8355644166355 101.67199869639859, 173.53163420136153 85.08144898256143, 208.15163683117214 47.79983300103681 M149.22772844450225 113.83271629059522 C162.28306804417556 100.47907958045147, 176.25820322157057 83.75626732055346, 206.83920482704053 46.986497037078614 M154.61821404538296 114.26611561060369 C165.45275940301502 102.32327174940747, 178.5772322208043 87.92755108512677, 209.0505795244731 51.55571407741323 M153.36874010682848 115.38341626180159 C169.71926467735074 98.30173577766192, 183.19557292477256 82.90098342019462, 207.79681269764416 51.97513013865942 M158.5808579012469 115.0608363327101 C174.18896540385037 100.18462358802125, 186.98998551971354 83.39237806339449, 207.57206438660884 56.33379936589101 M159.39473645181332 114.51360686851444 C170.7150031153013 101.20822164336872, 182.10179924456975 86.57677218408818, 207.17926799347612 57.47487223427292 M165.14470187229713 115.95829400418569 C177.65266022002336 97.86182874683507, 192.24773238315703 83.4566148556365, 209.64036502609179 63.94595688707407 M163.27239303854594 115.15592396367043 C176.9898181988183 99.31777077630855, 192.04206878105256 83.51458938134758, 207.74253838996586 64.29503486754274 M166.94633586324466 116.23302404687647 C177.61889839913033 100.06104837437627, 191.52073819468376 88.96209710516638, 207.51303920833337 70.50939103366485 M167.65495691104883 113.82979238037134 C176.56238894572985 105.11082361793558, 183.02342367426425 94.4273250284327, 208.27259444144366 68.27772251816307 M171.45596860891786 115.78977221912109 C180.9570405488762 104.33106979299365, 186.17288887544547 99.23944910501311, 209.14221644848587 73.06718871586244 M172.32593079349544 115.10508671381967 C182.559169522463 103.80386898156294, 192.0154961999626 95.14834702117614, 207.4850481990195 75.62651737890582 M178.7656851276466 115.60719984156518 C184.5632684798661 104.37624968993691, 192.45889639843278 97.96411650343231, 207.46020375550438 80.34753917138238 M178.26064707404328 114.444678280971 C186.741786253231 106.31664566916118, 193.29753107732748 95.89507788607304, 207.9519108707048 79.99605657122336 M184.34687439802795 115.9768400536166 C190.4189361971115 107.15918134564603, 198.5646553607364 97.93467198439131, 206.59546773671843 85.04010759636344 M182.55824050595106 114.08284033431684 C189.75580330519324 107.33294951380262, 196.03035427833436 98.48852405649524, 208.2522497013969 84.93116695362255 M189.09655813766366 115.06887964857995 C192.7961759945191 108.29742885428723, 201.69943812397543 98.02807371963203, 205.8437075297904 90.26978697530419 M187.20686068227542 113.91753591233848 C195.21566031316598 104.15215142871529, 203.83519287774732 96.88584959613107, 206.98903014641718 91.24028750961418 M191.07600298566905 112.72147004258264 C198.45697746339025 109.1108291064698, 201.9171870702363 104.44892543672682, 208.97729980079993 96.53111920206885 M192.97973361124605 114.16045188134879 C197.34027073054165 107.84272799283286, 203.0238479156276 102.37138685603196, 206.60927759875946 96.48708164184131 M197.38350787761695 114.68436779997126 C200.31292737589075 110.63296695595687, 203.42650564129397 104.62440516359663, 207.43419851370388 101.92347723092675 M197.60985567673512 114.43892765786407 C199.48591328072885 110.59652953697503, 202.09179197229156 107.50072856575707, 206.87588428894654 102.77289125296315 M202.25909275002502 114.56501318053637 C202.66412367340337 112.3206993042806, 205.98888034933103 110.59848982076915, 208.194991884777 107.01792092501364 M201.8873710655307 114.17618217554073 C203.5461443023819 112.6801571945158, 204.8569602911123 111.52539648368713, 207.4879930108047 107.61177921229157 M206.34720141808154 114.63974008214475 C206.77415210550217 113.93951184088823, 207.13590398353216 113.37980376055555, 207.55979658348178 113.11305749840568 M206.50472964500509 114.4575536364789 C206.7361945518157 114.09394903338887, 207.13271536033395 113.57195825399802, 207.56724148953995 113.19491905544041" stroke="lightgreen" stroke-width="1.0" fill="none" />
  <path d="M126.02833539599511 32.12693199006321 C153.19310836918635 33.22972823651496, 182.3863210744645 31.297470201354727, 207.36945191320834 31.775824964600705 M124.63990718197488 32.695430409642356 C144.171624342095 31.056581410105668, 164.48136354103193 31.013708452521666, 207.45896778536004 31.302013832438156 M206.47234364479368 30.417231058899365 C209.57111841335566 63.92748085418374, 206.75985641833432 96.12840869997686, 208.64327388972197 114.57047565086216 M207.47273822246146 32.02704536175908 C207.55083321910843 57.36215598791952, 208.04134959997404 84.01969458107513, 206.77273038940805 114.09723537747954 M207.4805679239063 112.45106113097157 C185.37932660937594 112.67168837861854, 162.70776451699982 114.31283704753699, 125.89367216453945 113.17524133925531 M206.8178249567114 115.47072361363016 C182.147115834768 114.69045553880878, 156.87090483213922 114.63278942113382, 124.69343586846077 113.86910247352952 M125.70884405681218 112.60578141998354 C127.77682510292006 94.58734807138092, 125.89723046080545 72.31521048108374, 124.61768222474568 30.570965814357443 M126.05916128411494 114.06229369158206 C125.67566370436968 90.21622090523061, 127.15280423518666 65.00530358496471, 125.07497658014151 31.39405361667247" stroke="#000" stroke-width="2.0" fill="none" />
  <path d="M198.9403292339388 70.29940214347045 C204.3882643464047 65.04747642287099, 207.23974038572794 63.109650008781706, 218.6628704021367 49.839912525321715 M199.70192243725708 71.22657804153852 C204.7061497491652 65.59990477656714, 208.4280762698564 60.99500463218219, 220.64527855823766 49.27378286541322 M201.80434730343163 74.28602732362424 C210.8515545520338 67.44459156209084, 218.63734922443038 59.74330230226624, 226.3266497122643 49.42371214947105 M200.5276246402031 76.21952909237541 C208.41628514481468 69.2172376615614, 215.17598452260242 61.814167492810576, 226.2117728904592 47.14087130378787 M202.0481182776311 80.56741025373546 C213.32604022895362 69.09252923901212, 225.2691601893601 56.27023099804615, 230.81115511671834 44.29767762466762 M202.75208246397548 80.42831208504069 C212.93254800686083 69.84270403501023, 220.37044616451837 60.309957087329096, 231.94474038374298 46.513229548529345 M204.68320203848268 84.34993325144941 C214.4386252521874 73.08582752504284, 222.3265606579331 64.89429413376234, 239.15788876362262 43.848839663179994 M203.6052461876806 84.97092291450068 C213.62826545305617 74.37667950858133, 221.6577627734379 64.56471333726847, 239.19612875994784 43.75280116426969 M206.156701491164 86.88763817149086 C219.38493013619154 71.56423456821355, 229.41506888597436 57.32720414675643, 244.62210160176406 43.94748065596202 M205.1674929241554 88.32026962193365 C218.73113615138678 72.00684979553867, 230.4376864272466 59.88841632458395, 242.66849233542598 43.61323659006225 M207.3516658654897 87.50923377375395 C220.16562070409245 76.94296253950122, 230.64409011645898 61.74012873851283, 247.73321703987938 42.55973464304648 M208.0231836902315 90.3641318478648 C222.71457786595388 72.9321484441885, 237.4127230130504 56.0784743248448, 247.72276551001684 44.036561214506 M210.19985263877493 92.25516849547981 C220.3215527894661 77.30502252992187, 232.5356803664416 65.20711943290013, 250.69743447965436 43.5745759479914 M212.64971964782416 91.82491299037386 C227.5567137229935 73.50139136557064, 243.94014012904933 54.730240529796454, 252.9165634345259 44.823364684562556 M215.92720942013608 95.2050178585834 C228.95344535964267 77.46569023899653, 240.2200160003573 64.85281536735135, 257.71892673802836 44.855241208236684 M214.20626043769343 94.28038531828636 C231.09878405275626 73.79385267394264, 247.83773096575908 55.21903416816318, 256.24912286597544 45.936406731157476 M217.791243118261 94.89342702997129 C226.91717158191108 84.1799182397535, 238.11548949951313 71.62661291108222, 261.5434845713752 43.56821796914247 M217.9160159085588 95.77827486094108 C228.88208574035278 80.74159043714263, 241.79199339079025 68.32908564441593, 261.3430720424823 46.26912670801065 M222.32166401177716 97.82229957257374 C237.1379851433016 80.89059800009059, 253.3577674566407 63.48324202012694, 266.3386993214966 47.77844475473393 M220.83877199288762 97.40945908876398 C237.4802933188602 77.46290473429505, 254.59437644624214 58.93965355358629, 265.75780251513766 44.905856725656704 M226.16518060045624 100.46933742575104 C238.3021860803672 84.12438494385589, 245.79228104558538 70.45551199574288, 272.3569186708887 46.520710256208524 M224.02638843642595 99.27724409984671 C237.76512276352383 82.75126190715599, 250.82104214671563 66.2764568685518, 270.1093929926876 46.03157165056689 M229.30239738716043 101.35752790009943 C238.05012083486514 87.52376714220179, 246.21731385812885 79.61139081390607, 274.16278408200174 45.57602280114206 M228.3594609528046 99.60540107276762 C238.43002713050484 87.87033151785911, 248.70797167111067 76.96391448540678, 274.90175551763923 47.866847471701725 M234.59341153964675 101.11737809197271 C245.47455872948385 85.68263084768847, 258.2947758567394 69.09735817657295, 278.15799232584686 49.85800942771637 M232.145717237241 100.20297419063422 C245.04107171585454 85.33999933579756, 259.35654542163456 68.95464791614324, 276.7007388838066 48.66510496732636 M236.6452993620484 101.41936803316841 C248.41579105089696 87.43334720488102, 263.3141185755986 69.88062695932237, 281.19251226291715 52.6392285757129 M237.65498358877173 101.5885783586861 C247.43984005484688 91.13770166373195, 255.67333846168148 79.52072272694426, 279.59141775931505 51.8071316003711 M242.87458116306368 100.2980929640033 C255.56881054438188 87.4937826628844, 269.4061338132807 71.47371018361258, 281.6102770183139 51.3283756643733 M240.88992841954598 101.14344061732882 C254.24728174708315 86.28309128829133, 268.1499743704444 70.02452596837267, 283.9940377788447 53.73413375692731 M246.73027125108774 103.13565878096117 C255.8476413823961 90.45759708028851, 266.0898597584543 79.94736782070132, 286.32467565251454 55.66015897487669 M245.96629093821105 102.72882088081656 C254.49504569705212 91.87917755283388, 263.4638096398014 82.78593617871903, 285.9741689997903 54.94013844191315 M247.98272867876813 103.08692674620539 C260.65466585547756 92.71837975604026, 269.78321153156503 78.41375242539326, 291.70051029812225 57.96672195098319 M250.1046235409633 103.12975506027519 C259.61756666955864 91.0347706703397, 270.2689155373529 78.43614866302627, 290.4133984826443 56.483978032821504 M254.41327687115302 101.90941518569542 C270.93845753898006 84.65694424078166, 286.6554031528025 68.34086397712508, 293.9530189010753 58.11574504900587 M255.0079954144022 103.8374991485868 C262.55815199715585 93.00660799975321, 270.74925408812317 83.98324348988862, 293.4016135283389 59.17513139151087 M260.64171746209456 100.44633580871246 C269.3304727704465 92.93163661738251, 278.5596600076009 78.54991736189695, 293.28894971229624 61.39498305301457 M259.76305508722226 101.88575259101177 C269.38712987837914 91.42982938505128, 278.0662641260079 78.83321299726884, 295.4660800128869 61.47173015081842 M268.23982046654714 101.0982921414911 C273.4462603132032 92.96448679541408, 282.40099333116984 82.97693510205647, 297.3571617776548 67.57441530552845 M266.60111898398134 99.5259171986828 C274.64312563575356 91.59602449923591, 282.38038572906544 81.63093117765376, 295.7965844222758 66.57946935567364 M271.0959793936963 96.0277728991816 C281.2782028033348 88.01316456774947, 289.56276285688136 79.50808994601158, 295.47679722532223 72.23186439822004 M272.44896418885185 98.09400268629616 C280.29096681589647 89.17058325934877, 288.10674456950505 80.50702110978864, 296.5534285322308 71.09278347004147 M281.33310604206076 94.45348637946961 C282.8747876296392 89.89628534709652, 289.0811056982632 83.88190964726391, 299.3327245405619 75.71450129768485 M280.2105246457486 94.9671695850368 C286.1176343221182 89.77574271821823, 290.7001646080454 84.42410513588004, 297.76538726695605 74.89863633841696" stroke="pink" stroke-width="1.0" fill="none" />
  <path d="M272.2946129781094 46.295396579993366 C280.0768977553719 48.19495709504485, 290.9369399952716 54.72404804798546, 294.8077172710298 59.686534125144775 C298.6784945467879 64.64902020230409, 299.74024736553577 74.15088439360483, 298.09979481649725 79.37863709438878 C296.45934226745885 84.60638979517273, 290.1347080845968 90.93521934144246, 283.8713669441066 94.53821879703784 C277.60802580361644 98.1412182526332, 265.1785695004497 102.62171316515446, 256.3441872132295 103.39863346502449 C247.50980492600928 104.17555376489452, 232.8145933016994 102.23111771028948, 224.97548502930513 99.71768746283794 C217.13637675691086 97.20425721538643, 207.9048199512141 91.51972642628004, 204.08346539726773 86.64243181534766 C200.26211084332135 81.76513720441525, 198.0294929151684 72.60433518007886, 199.49978800299593 67.20239005662194 C200.97008309082346 61.800444933165004, 207.70098492582397 54.10154649839149, 213.88543264945136 50.62946432563479 C220.06988037307875 47.15738215287809, 231.27759927584347 44.44068746851655, 240.72943949384512 44.0551755715773 C250.1812797118468 43.66966367463806, 270.7592933292864 47.10866690340965, 276.8977007694624 48.0593850127065 C283.03610820963854 49.01010312200334, 281.95167290543804 50.01226922393403, 281.65215576168555 50.39329630022294 M235.35445609821812 42.76091041368034 C243.3015613908862 41.11983288812878, 259.08489250096864 44.0497195915471, 267.57971972481846 46.34205416652015 C276.0745469486684 48.6343887414932, 287.4183905898251 53.79581450711749, 291.9866375905506 58.04314091350062 C296.55488459127594 62.29046731988376, 298.49147835824726 69.35851287899143, 298.0346997296547 74.6575635424077 C297.5779211010622 79.95661420582397, 294.2929368557767 88.99769552269967, 288.9414467332666 93.37014533627578 C283.58995661075664 97.74259514985192, 271.331702685235 102.53318250930081, 262.35809891292104 103.80722896624854 C253.38449514060719 105.0812754231963, 237.66460594579863 104.03086068217087, 229.11742158450747 101.86378838259401 C220.57023722321634 99.69671608301718, 209.7912437131176 93.7790765655133, 205.37686983764664 89.36008030240296 C200.9624959621757 84.9410840392926, 198.79507638537143 77.8854202082986, 199.688262414701 72.4038132951917 C200.5814484440306 66.92220638208482, 206.02879104107865 57.14850009385053, 211.33144336651057 52.81603421502378 C216.6340956919425 48.48356833619703, 231.1611755332599 44.93320400649965, 235.03927791758045 43.52070743634673 C238.917380301901 42.10821086619381, 236.94538804959697 43.00877878493577, 237.18545926198087 43.39939041400433" stroke="#000" stroke-width="2.0" fill="none" />
  <path d="M368.25185849409445 60.3442308777034 C371.44958107629725 52.56409809145289, 376.3019709879253 48.59742677736316, 381.1246940834601 46.8668507441158 M367.7065154400002 60.297996327820805 C371.68430481764244 55.18577702323758, 377.10716472261106 49.85152184830901, 379.73373057156243 45.74585795939175 M362.174643690782 68.14520335049696 C367.348352032183 63.63776973355494, 373.48124003494297 57.19473159982374, 386.5788464422923 44.48115336091668 M363.42385114631145 70.05463713495621 C368.9486851780539 64.74726757297468, 373.3748577935645 58.50257526557147, 387.01483138034257 43.44162090524242 M364.3667497741824 74.50649146726542 C374.18558421223884 63.81821891981436, 386.1746426891908 51.83253232844005, 394.69400402109045 41.82801092861435 M363.72880208159324 74.01511650676048 C374.11822347049963 63.048691795853436, 384.6406287874977 49.87140647548562, 392.56862933405694 40.49406773750712 M365.1286714498724 78.11957699837876 C375.71775226614955 67.40415708227138, 390.3403171780392 51.7830463175115, 398.89114837770705 41.201447124889846 M365.4673834133231 78.1781393787941 C376.00659466131583 66.5795847306168, 388.27643497306224 53.932832924499394, 397.3618165837563 43.227865132469006 M366.1570155355779 85.4440538782616 C377.8214492958027 71.5908525653013, 390.829943940544 57.7786574253284, 399.37032740460506 44.154654044189776 M366.9616670151644 82.86420334310478 C373.3583815445087 73.98439485909964, 383.17538418227286 65.41090649821658, 399.94929979686174 43.95522291803755 M365.03068059339614 90.24796062576394 C379.6767677091286 72.7393496501426, 391.3305714495564 59.882581216003885, 403.8996909600547 43.571789996771415 M366.5746573888805 88.08311740015654 C379.0267611024383 74.87952181802387, 391.14384220545753 62.78061803415916, 403.6438570485168 45.302760007343565 M368.74547658360575 92.39619105880905 C380.3038936307487 76.50222139379557, 394.2872002306226 64.11445619464175, 407.399105703851 45.62571648370591 M369.62377936635767 91.8771636450164 C382.9127312728126 74.36276275331468, 397.9824207020605 57.47352961334626, 406.9959362412334 47.55295771446677 M372.9546159161449 92.83091720901552 C388.7514326213984 77.77188303511772, 402.0940387401562 60.47943526471912, 411.3962127449273 48.38014951130267 M372.147664821465 94.52986948271834 C383.30042402894674 78.51623290501695, 397.7940272558769 62.7253214722545, 411.4229729242845 47.97468060745238 M372.80299933751803 95.28427106655374 C388.55918429835185 83.53225387731104, 399.75028732637315 65.67271608032979, 413.6782886823504 50.346310456392956 M374.2540108744398 96.2722810432756 C384.4907355771239 86.98948026244554, 392.65373394932044 76.4340731655725, 413.77139298213365 51.41384834754153 M378.8990147552364 96.65960350433477 C388.5759012417776 84.25813382689421, 400.4869966960406 72.62633462954048, 414.2311055839508 55.71150959554244 M377.4169170495851 99.555143897639 C386.97580361364373 87.45643856719343, 397.4794536443794 75.97054043713572, 415.4020642594264 53.97522323121178 M380.42058951753927 101.31386389624365 C394.98212195416795 84.33453333740388, 404.5261606657439 68.29120216522304, 417.93897529706635 58.00135385442728 M379.25058736103574 100.1249335256266 C391.1133066382914 89.06406948460096, 401.45938841577856 76.60759511720593, 418.038217608723 56.834500325205774 M385.3778743155941 101.35152702507582 C391.2138640948285 90.4303103232208, 404.28126816637473 79.98768488472228, 421.0926641133956 58.84049411118022 M383.4124484825735 102.80382784187074 C396.19026856071764 86.95912971262612, 408.73514782285883 72.1343469450492, 420.55557224302595 60.38449897686328 M388.29931112375994 103.7414672928204 C395.9725170813497 94.35946475097526, 402.740060530719 85.86643612011741, 421.5166476296896 63.50274358349998 M387.6108646428827 102.42180003748524 C395.25103366827216 94.29111376429717, 404.1501080694984 83.99257934202925, 421.4034665144784 64.7774269365209 M394.4752632603364 101.32394177877046 C402.6193141083803 95.87840343962955, 408.57114655007456 84.80873730015068, 423.0860335047065 66.64224797530096 M392.79257495377294 102.55208626615584 C402.28483579283943 90.42260385023866, 413.082618945308 78.41856689788776, 422.85814100919504 68.10787524261838 M396.95479053522865 104.38720317858309 C402.4802992244654 96.59607273358424, 412.01453663155394 88.65240746740727, 424.4061637633474 73.27521697689525 M396.95676517553125 102.83277997412353 C406.3973947722594 91.89198915929063, 415.5221970431163 81.89721885419436, 424.085050506078 73.49847167616232 M402.9721696139188 104.04688377102588 C406.9613109284778 99.96666772998347, 411.66574631185995 93.97554975919289, 422.22542726802897 79.54878199007265 M402.6575148425628 102.48979642973876 C406.86439675220265 96.91897873419299, 411.5752725628348 91.55433275520431, 421.70805093086506 79.66786024707412 M413.26996746116924 95.4717171532138 C415.79944250169024 93.07769801835713, 417.968496796871 91.20552256564778, 420.17550866961165 87.82182949597058 M413.89140353049766 95.07694601761733 C415.20024503562524 92.68288573263965, 416.9081893324568 91.04658491746721, 419.3791569093029 87.73903242646054" stroke="orange" stroke-width="1.0" fill="none" />
  <path d="M393.211621388912 41.024234134719 C398.8836845748069 40.54493933161025, 408.3965880763179 44.55237655179458, 413.063927735412 48.71912511069613 C417.7312673945062 52.885873669597686, 423.40497333399196 62.55181314274702, 424.3272191162064 68.80255786072934 C425.2494648984207 75.05330257871168, 422.3096918994079 85.22153128151078, 419.2122329501742 90.39075656391162 C416.11477400094054 95.55998184631244, 409.2875284845645 101.4615210835137, 403.67749278798203 103.26405974340159 C398.06745709139955 105.06659840328945, 387.3206644519471 104.38805539149337, 381.8119949729578 102.40768096316418 C376.3033254939685 100.42730653483503, 369.6604021555178 95.21381628207016, 366.95302959471996 90.06156355454047 C364.24565703392227 84.90931082701078, 362.76221189596197 74.4225774835478, 363.76284456763926 68.05932944629956 C364.76347723931667 61.69608140905133, 368.90292509256926 51.71392638335613, 373.6239140725693 47.6399099728856 C378.3449030525694 43.56589356241506, 391.5402294961955 41.76104559738871, 395.2361044343062 40.89922004316266 C398.9319793724169 40.037394488936606, 398.1958916317542 41.429058345652145, 398.26308032664076 41.89440627804523 M381.79449254113706 41.62137873412443 C386.9048139174598 39.38597372051977, 397.10068570343265 42.003922082170064, 402.97302499702573 44.57742635922152 C408.8453642906188 47.15093063627297, 417.93823301707255 53.677001276076616, 420.9434211650906 58.778073914467456 C423.9486093131087 63.87914655285829, 424.43966619945274 72.5998127878486, 423.0076126504797 78.58457728182705 C421.57555910150677 84.56934177580553, 415.9229543646686 94.72738519346257, 411.3963975052708 98.67650387432383 C406.86984064587307 102.62562255518509, 398.3797591046772 104.87359878579599, 392.83056692116156 104.91203515423535 C387.28137473764593 104.95047152267472, 378.7194876011748 102.80048236887814, 374.4017829484998 98.93274633058624 C370.08407829582484 95.06501029229437, 365.29921123186045 85.69370313694736, 364.0458692366617 79.12712823228944 C362.79252724146306 72.56055332763151, 363.2805400686291 60.78358607607336, 366.0461696471755 55.15558029953343 C368.81179922572187 49.527574522993504, 380.02738366447534 43.50963259340313, 382.4833997603041 41.60708972202325 C384.939415856133 39.70454685064337, 382.2865712515014 41.824112633885704, 382.4196102860343 42.47196115700089" stroke="#000" stroke-width="2.0" fill="none" />
  <path d="M496.8551652926386 36.45748638872361 C498.9531335348436 33.34881459953711, 500.8939701267075 32.05150809571687, 502.39883912851553 31.112698491945324 M497.3799382294567 35.86626237053903 C498.73865125550765 34.435913208272275, 500.292477494845 33.272975844936354, 502.117686809809 30.857104712909347 M500.0218102259362 40.6129700381889 C502.6710137972408 36.82528106000809, 505.91535373848296 33.45264393108609, 507.37503524241083 30.192741556829173 M498.1976881845492 40.62304565173149 C500.1296935311691 37.57790786693876, 502.97117892409733 36.510734817706194, 507.70519894689176 29.77491959886744 M498.39317846783 43.199075779219676 C503.5992513990494 40.97447535126628, 508.9440773431455 33.64665269560585, 515.3555375808976 29.59652703787617 M500.8161063538431 45.29806410413874 C504.4060330074045 39.15869763622772, 506.8245392108561 35.90933150160123, 513.3077979794427 28.27713982070057 M501.4512692433152 50.501447446383885 C505.2845626719676 44.99079434967617, 509.71738676204404 38.56987687444702, 517.6998961466466 26.459377211099635 M500.70034516548606 49.435976928576544 C508.196944989586 41.44018631306462, 513.4087936558907 33.37325482764465, 519.1717830286606 28.19158443310298 M501.86451519152047 51.51159381433134 C507.03528283535775 46.41478247426649, 513.8657273366011 37.376916700132234, 525.7099582109748 26.953673592579154 M502.8899720406039 52.815764630534254 C507.9619977401061 46.79988943178642, 513.5717853309684 40.1415868740375, 524.7555468760451 25.771862227058513 M504.6381500276374 55.729882334878205 C509.7698061782046 48.51000905678202, 516.8386052547897 40.09373869129851, 531.9603986354387 24.304996731200713 M503.5071970569004 56.482234210450244 C514.3788270781811 45.101771352781135, 525.0325325634295 32.13011554341523, 530.1939848832659 25.98474191201255 M504.8937095758333 59.4663325978852 C513.8776894996703 51.212964034608596, 517.6520463082803 44.44509451403448, 536.9005439163274 22.898734710603946 M505.3717526677817 60.27622158000169 C512.5183301060314 53.139779637202004, 517.9230597934769 45.72116393633432, 537.7398152189014 24.470359736693272 M505.8153162654354 63.93736768224311 C519.4187083626671 50.0097754682204, 530.7901177190639 33.04890300388247, 544.1283213144546 21.813889936940797 M506.46627951002733 65.27324440407801 C517.4138986068119 52.48949318413426, 528.6074028710759 38.37221693141898, 541.5994830717982 22.206773578443467 M505.3428958846565 69.22073351699183 C522.8295762679846 50.34017039165451, 538.2375678818321 33.61018828671415, 546.5133100348005 20.0 M507.7163917117697 69.4206416245595 C522.284886635753 52.359020315365825, 539.2581219136317 33.909616738170286, 547.8725073277284 22.234778850508263 M508.2417801863122 74.9086087736157 C519.2556288135858 63.84684526082174, 530.7410645113258 50.95150387341596, 551.4919114423777 26.102881589011535 M507.20935923093555 72.7087749097972 C522.8588989524546 55.352344211537414, 539.0789210904547 38.488889319471866, 549.7667822365543 25.751966472751324 M511.25076982318217 78.31174442656831 C526.8520564885557 60.727864651781005, 539.6371964096246 40.8505828371087, 550.5692356879664 28.72932164746498 M509.27519750553813 78.1192147602163 C524.6303796825938 60.85235206976291, 538.4241084721882 42.51703401242072, 552.8073331181855 28.34180413904498 M510.12553541539944 80.89814112811777 C520.9274358288067 69.36573799512345, 528.4413717870818 58.645140311617965, 556.5337686431413 32.36048670982908 M510.1831172864818 82.6519904302425 C526.0965752540571 63.84142246006941, 541.6579937223433 46.523196976840225, 554.1599241373583 30.765753704489082 M510.74561824748776 86.6742603687616 C522.4775626835998 72.16658183063922, 535.5045284362966 58.02466083094535, 558.3857674495875 33.03529910644319 M511.22892497968905 85.37157725438627 C524.2121949182018 69.97571860215459, 536.5692136544031 56.278636718693775, 556.8019500489958 33.34339925414957 M512.3273569236219 89.14821373698999 C527.7631844675828 69.42873816254277, 542.316632644835 53.262658812351226, 558.8127721144455 36.79793055468135 M512.6981507425381 90.22035917987228 C529.5556780692431 69.64197723861218, 546.5106243441227 49.06293192044478, 558.3244761766498 37.2058563846498 M515.1469270305065 95.57260095779094 C530.549367900111 76.16084565785661, 545.5433045178773 61.877290931789894, 563.3220551700235 41.42704214893769 M514.2136137530995 94.80413557974737 C523.7334304993731 82.53694651344608, 533.1034034867276 70.82806777037945, 560.355010748675 40.52003920132071 M514.2739436946443 97.71220759723118 C532.9942367794406 78.37272033933709, 546.7254471229659 62.99216544175597, 563.7655381718882 43.94447002172827 M514.192097189934 97.71176463643567 C530.5653017701379 81.67462222424118, 545.0360339380384 64.35917529947169, 564.3622168079982 42.31828315685807 M517.4739193459952 101.2593233731522 C531.069626439418 86.60732918199699, 549.6143158673403 67.20313744662133, 567.704405004289 43.63587236104282 M515.9710474057898 102.34063075151369 C532.4180414842361 83.98435363578193, 547.8380143880007 65.60779110822779, 565.3771380604586 45.474529040685844 M523.7431975888223 99.18863933139585 C536.6336003620075 84.23618240676188, 550.9703955867071 68.23593535069546, 567.34842486828 49.19655521431622 M524.3595756696034 100.66059746558292 C539.8602373234778 82.32825002510361, 555.8957903942838 63.488379453509936, 567.5870834972791 47.92866868077579 M536.0715619184384 94.11335928079995 C547.7675395824227 77.62558017073067, 559.9712925743429 65.3877262929586, 568.669409223425 50.84132059120457 M533.7495416275167 92.02672266448553 C546.0036098640327 78.66103678944259, 557.9940485401776 65.25815633176262, 569.7413177530422 51.302320522267884 M548.0045026878993 85.4642735642802 C552.677068522923 75.97889682588013, 562.901130781805 64.12341856353507, 573.1951157471916 55.3893033854901 M545.5827992360832 84.3474579426505 C554.104030138252 75.5968793211785, 563.4567169870569 64.85731681454507, 572.7016659102806 54.18871390042545 M557.3151897589557 76.91402151840842 C563.736106815087 71.30280602532619, 565.4337335026429 68.00161144406775, 576.3608714196544 56.22218607863083 M556.9885701443072 77.3338933128345 C563.8105914380998 70.9973870681755, 569.2268216376589 63.9993348429255, 574.4332385000467 57.27390306289276 M568.7224009246138 69.53431960476573 C572.5594583303658 65.71063310933516, 575.0466908069941 64.60881094351677, 577.9015020493503 61.33653514209309 M568.6492325735123 69.11499690907067 C570.0475992427148 67.78594209253765, 572.7980128494013 65.1108839406948, 576.9691201437748 60.79323923790535" stroke="#fffccc" stroke-width="1.0" fill="none" />
  <path d="M495.8914840878057 31.7256274079112 C511.06659148416236 30.515835069554896, 527.606211603759 27.80619964488767, 548.4540054212044 22.82688786951885 M497.2587402865803 31.912316251531802 C509.76187288609276 29.524719406037452, 520.9934027073979 26.04968985155763, 548.6057405922763 20.970115974595682 M549.1046193841097 20.988924692878957 C555.6365387962392 31.521476163304044, 561.3633943574778 40.19005983020379, 580.0 61.506914224129005 M547.3126529146676 21.010130121419547 C556.6391759380259 32.99109179171792, 564.5656286492564 43.74257249706279, 578.3870711870449 63.91966873809062 M577.3146067234043 62.20576398386321 C566.3539342469273 71.80516877249352, 551.4243880148088 80.12257169250213, 515.0326414210659 102.12532655994681 M578.5929472755141 62.590676139083264 C561.3584654640588 74.28387717943127, 543.41061929018 86.59794827998743, 516.1899900043912 104.44831925521947 M515.4752785235825 106.18887165247355 C513.5198967371439 88.9705980530116, 510.3489692950749 75.9773400634225, 496.89439993502015 32.254229586034526 M516.8616819798741 104.02927347823228 C511.65968115531587 85.249744539738, 506.8603287920315 67.13196847508775, 496.2994689741096 31.643474237023916" stroke="#000" stroke-width="2.0" fill="none" />
</svg>