<svg width="600" height="150" xmlns="http://www.w3.org/2000/svg">
  <path d="M79.95535557920572 15.353949035594791 C84.292876582266 16.715752501788966, 89.54978951295884 21.335934233645382, 92.86142698798074 24.67445231563127 C96.17306446300262 28.01297039761716, 99.92585361917365 33.32253572499007, 102.03293874601832 37.61073624883405 C104.140023872863 41.898936772678034, 106.26621557956996 48.55202930860796, 106.90866116694525 53.26245580792448 C107.55110675432053 57.97288230724101, 107.28049288126275 64.42551649046999, 106.3159093285202 69.01357957761084 C105.35132577577767 73.60164266475172, 102.82074459181285 79.75118798851571, 100.47810414866166 83.84954305553029 C98.13546370551049 87.94789812254488, 94.25021514548241 93.15448764375924, 90.69830637417903 96.33594669104141 C87.14639760287562 99.51740573832359, 81.19491474406924 103.25589007705786, 76.79871233997238 105.05927003741152 C72.40250993587551 106.8626499977652, 66.08690205936813 108.1369523238983, 61.390290346866614 108.3584797600659 C56.69367863436509 108.58000719623351, 49.98788636274294 107.89676873360827, 45.48796758996224 106.53611961186226 C40.988048817181536 105.17547049011625, 35.18192661674463 102.0053348173934, 31.39083186166193 99.28748561509252 C27.59973710657923 96.56963641279164, 22.93087223616937 92.23256445586975, 20.214002556077553 88.41712492985636 C17.49713287598573 84.60168540384296, 14.678404263747474 78.41298175831832, 13.278367327716467 73.85122210833657 C11.878330391685463 69.28946245835482, 10.71213471331972 62.81358350178421, 10.880422982537524 58.00539392997799 C11.048711251755336 53.197204358171774, 12.724109214490724 46.26877955963559, 14.400289122501846 41.79662496296178 C16.076469030512964 37.32447036628796, 19.093138431777962 31.787464170201584, 22.05495570261165 28.191029952152554 C25.01677297344534 24.59459573410352, 30.10121318765239 20.306828053249586, 34.145737594726455 17.820396842634896 C38.19026200180052 15.333965632020202, 44.43158315394734 12.678483156948104, 49.01845174977208 11.614821881387932 C53.60532034559683 10.55116060582776, 59.75424524708123 10.0, 64.72486156689145 10.729321672233752 C69.69547788670167 11.458643344467504, 79.24784861463985 15.28524135876781, 82.15589388184021 16.476966362946293 C85.06393914904058 17.668691367124772, 84.42006009026005 18.018269945999183, 84.11183001489388 18.67415503342362 M66.74617923240291 10.897514823443252 C71.29433496918288 10.963951822933787, 77.92867576776538 14.163637577975543, 82.14536385048291 16.538137412305282 C86.36205193320043 18.912637246635025, 91.70229674189989 23.23481363368943, 94.85743311718639 26.72751371897485 C98.01256949247289 30.220213804260272, 101.42083857137386 35.44908605932382, 103.17960635239288 39.82280464754143 C104.93837413341191 44.19652323575904, 106.25607063401773 51.1411297633049, 106.58255165731316 55.885637640425564 C106.9090326806086 60.630145517546225, 106.51341205825028 66.90931421223459, 105.35614650769583 71.45285716167915 C104.19888095714137 75.9964001111237, 101.41289104402665 82.22634840312408, 98.86744798695011 86.17592397005595 C96.32200492987357 90.12549953698785, 91.97916659910032 94.91771272750034, 88.38652612718553 97.78336094122504 C84.79388565527074 100.64900915494974, 79.27400621259869 103.76130934117842, 74.91651150751818 105.28024539488723 C70.5590168024377 106.79918144859606, 64.10287390083376 107.84314435800536, 59.33656142664891 107.90960129928385 C54.570248952464055 107.97605824056237, 47.57978507073879 107.2315836062213, 43.1410950129525 105.72329167007726 C38.70240495516621 104.2149997339332, 33.3110777468824 100.75882757359778, 29.745294374740325 97.85432172499011 C26.17951100259825 94.94981587638244, 21.946063233552287 90.35495444892521, 19.369205865338667 86.3599193460261 C16.79234849712505 82.364884243127, 13.713644295253317 75.84650196127143, 12.566245253316218 71.22075437232935 C11.418846211379122 66.59500678338728, 11.37566327220883 60.30049922123768, 11.71987891909134 55.5216020864123 C12.064094565973846 50.74270495158692, 12.987014042663095 43.75999246584142, 14.861016232532943 39.36144014016016 C16.735018422402792 34.96288781447891, 21.037836565300744 29.56899293643919, 24.213226851557014 26.197919915203947 C27.388617137813284 22.826846893968703, 31.913582354223657 19.182361216850342, 36.030284807574745 16.88761999859187 C40.14698726092584 14.592878780333397, 47.03626756496824 11.69446884900406, 51.65790987389762 10.89964512681415 C56.279552182827004 10.10482140462424, 64.51903686752152 11.373425734933988, 66.8412335337706 11.588795183992485 C69.16343020001969 11.804164633050974, 67.16904181155553 11.679083811138629, 67.13922098222486 12.33544145387076" stroke="green" stroke-width="2.0" fill="none" />
  <path d="M11.028189826016423 76.97314345669004 C11.503495389624991 76.6480265176281, 11.860270457354666 76.50202599396832, 12.523823583241079 75.27814965713125 M11.283739293359229 77.22989065437774 C11.427920884767243 76.87685838668236, 11.928605440758144 76.38740318629686, 12.767290643627064 75.4234777152207 M10.796530112474798 78.58686166785586 C11.813141255566187 78.05007435007676, 12.59621983416546 77.30560358276146, 13.941312111438588 75.15868393246257 M11.180188595188682 78.94510676280402 C11.829849304364469 77.98978460666163, 12.538680171796152 77.16696766702977, 13.933675554578876 75.36143281825386 M10.867583466486622 80.30357936502634 C12.732961821637275 78.75311755654876, 14.484120506799645 77.60506577274052, 15.988955429520747 75.81543462044142 M11.436376521453884 80.43274977812486 C12.798447935960201 78.78621318160617, 14.185191147426227 77.04367208861262, 15.568719960875836 75.67395205315994 M11.494109160255508 82.71113738732731 C12.70455522981316 80.91046582110374, 14.86173111581618 79.38229339964802, 17.423856285540026 74.89076183782035 M10.979084679002774 82.2423315257811 C12.149317410782977 81.00964148206972, 13.60391389877531 79.27841386568761, 16.979753803446744 75.36998482311738 M10.872432443467886 83.39146565980124 C14.151342980212487 81.24772825747026, 16.879660322949324 77.59999915205074, 19.15948729599232 75.93107808893106 M11.40359682227946 84.22929197068675 C13.732954581445181 80.88688234723404, 16.224536508012193 78.33952196654795, 18.81490771956561 75.48038605608087 M10.858444483040138 86.14675930287254 C14.841193037059206 81.76598537548585, 18.126582903328366 78.88389523206257, 19.467764198080797 74.857393880335 M11.436768361200816 85.56207613545612 C14.498263886530857 81.96288875283966, 17.766940479214725 77.99593016853164, 19.822970478495918 75.25926355057729 M11.168437754206124 87.89904914283309 C14.193304466106415 84.19993783170224, 16.511353416927022 80.16660835214311, 21.843958027078195 75.88905291792166 M11.022845308602932 87.64807251860097 C13.675485961531027 84.47484831602964, 16.532311382900694 81.29674253469949, 21.66598014810383 75.61482780496222 M11.141798893558121 88.64862485934776 C15.015219726085952 84.8708153312916, 18.617811914533597 80.73735278778472, 23.007430772793736 75.50295500367028 M10.915686131021126 89.29640816274603 C14.439287892488114 85.18935675111598, 17.96201963970521 81.17456808350221, 22.79784708813231 75.35517074765386 M11.135895610745791 90.63307188386412 C15.164021140648359 85.71062932295445, 20.19768973822619 80.34421618550505, 24.269244361162414 75.18862126225275 M11.215540478965057 91.05408109986905 C14.358372122535453 87.31000829341157, 17.70804990060796 83.34778378163521, 24.78787789413017 75.16109757838159 M11.248069788484631 93.1018609943496 C15.260338547735227 87.69931622152619, 18.964696257927663 83.31766508875302, 26.54054825970202 74.8407847978225 M11.258659392266583 92.34808170849195 C15.978018601555835 86.74481148463784, 20.514592880142267 81.66159290676202, 26.16546652194463 75.42181211375947 M10.751039028447991 94.48942944900816 C15.248678293656749 90.50123654149323, 17.456918295445437 85.9278425653878, 27.45741050964007 74.86136095708223 M11.339012637444778 94.17527874959632 C17.14469487798743 86.70240484577896, 23.07256218462741 79.96085942268039, 27.73030720664697 75.37667489145085 M11.232539388561332 96.37395250940929 C16.582922622034225 89.9382657921865, 21.46304815562227 83.76898115953631, 28.383823947524327 74.88004514310462 M11.13679641332157 96.04123821474028 C15.96999812287601 89.56532620126956, 21.006875190300974 84.10068972049086, 28.861938700310205 75.26430410222 M11.14750399243897 97.215676892678 C15.0232378199861 92.46655874117327, 19.903904943438388 87.9546058846314, 29.958025537059978 75.29910370596308 M11.450262017110145 97.39533256808485 C17.478504428441337 90.62168605805405, 23.847392036874407 83.30910931591015, 30.714601942052305 75.68467948425936 M11.617900587796473 99.5618578621154 C19.000324929673564 89.63718198602683, 27.045429437963712 80.48538825795252, 31.694676412782613 75.84444455046139 M11.500291711700221 99.59489070978893 C16.314407718195323 94.12361895687124, 20.631005390616988 88.8094570246625, 31.844324204795022 75.54942159972072 M10.974274162524416 100.4979375650019 C17.56928409824417 93.827586596597, 23.47330206836754 86.41044411808966, 32.78827730709419 75.42229743906134 M11.063124196104283 100.78499918999395 C17.064893176562986 93.80511229680268, 22.849432467030326 86.97793565765028, 33.096685056877206 75.74411467755053 M11.706392882899301 102.90788675797188 C17.48604845837315 96.13212540652023, 23.13216140100767 89.54140427022112, 35.39862099595425 74.86845609581648 M11.158118319781696 102.49551687880306 C17.826994548667656 94.77135292990809, 24.186245332756076 87.55072403576246, 34.70806228756969 75.26196469961803 M11.025846821933392 104.20992308568557 C18.394502685315043 97.02468971198414, 24.889762665267146 88.64673128522297, 36.664929911537314 76.00322489377864 M11.037537270272807 104.23465922138914 C19.952497291450417 93.63977373969857, 28.963560348764872 83.25304052691823, 36.21375343371482 75.48573414175281 M10.874811639391517 105.91154472283776 C21.319547133715922 94.36800521816386, 31.08363225682099 84.41417803508249, 38.32617136398589 75.20502935393654 M11.299327169769164 106.28985034959709 C19.792349655426598 96.9209192721094, 28.701868947189666 86.98400265049841, 38.048482017317646 75.47324781804464 M10.830236678106509 107.58502304437437 C18.58013078489565 99.1832544492195, 26.633850708758715 90.9437968668457, 39.320908721339514 74.89237248964754 M11.27256995411691 107.67817544213054 C19.859178169058023 97.09284320161726, 29.36351930909852 86.29736411438097, 39.580767553790906 75.21361386753408 M11.257553561331338 109.10175197886119 C17.4521916812215 100.73047558738344, 25.03113361259223 93.72170029495072, 41.190541343344634 75.05363101687757 M11.091165900126704 109.33091283117597 C18.370360658750098 100.79455167193834, 25.321695700873804 92.79447539667119, 40.90761418531007 75.53004790750111 M11.42373610370808 110.91520066326524 C19.997932669407064 100.92750069608019, 27.830215028027652 91.43627957295722, 42.71328994657914 76.00049924651128 M11.353855779769635 111.04489124820728 C19.707523316666 100.37320136940636, 28.0962312568292 90.65268449295546, 42.07902644332195 75.24262272666132 M10.770467457715185 112.94299974683318 C22.99673223029292 99.11968850498312, 35.88398531496507 84.91009299250186, 43.31996660292047 75.07673242664342 M10.95496779869758 112.85902218040394 C20.59542904081282 101.57970669287037, 29.843799735178123 90.88581745198675, 43.77867573206162 75.71863183695326 M11.588233435812096 114.83830141832505 C20.591586808307728 105.51250181672006, 28.49401201526002 96.24934904332007, 45.48040522533386 75.39080568155276 M10.921808149649948 114.8110366089912 C25.128644551434167 99.04551648809863, 39.07656680154718 83.20386831535598, 44.923717717443935 75.35496490897214 M10.765258048261444 116.02953763998678 C21.61139326527482 103.1742563285417, 32.16054697291543 90.97937999250738, 46.63431250288675 75.38039380548983 M11.110018312696134 116.03865440570226 C20.127710559692307 106.09201172240304, 28.906961419096817 95.60120596393415, 46.752039949934215 75.33267620689668 M10.635143267751175 118.4045948293716 C22.21978767432975 103.93314310579453, 35.42302804862582 89.91532696708174, 48.12727641266886 75.0459413370397 M11.073987234456645 118.03855408685916 C23.498752031541514 103.89999464410786, 35.938659568446674 89.56762552743234, 48.358720716332755 75.25089537633669 M11.659183666261953 119.18000094464082 C20.201634688097627 111.10662192994164, 28.868047080143434 101.42237668327604, 50.320307105187794 75.53411241242148 M11.264028301482249 119.78910346894915 C25.02649374202783 104.73124413222764, 37.54911990173256 89.78293502498765, 49.658933276342374 75.58984890639863 M11.64388042514532 121.79311165069512 C22.430231281110743 108.46960075255046, 33.88083061820673 96.7616613134287, 50.854928002631546 75.51828553717218 M11.356049402897952 121.5278627528906 C24.603886994621273 106.31294944516011, 37.11064999222276 91.99820882068411, 51.090011590610644 75.55993793250005 M11.11362171304274 123.27420529063656 C22.443883814409695 109.51351451428232, 33.74450134333584 96.40509230397561, 52.957248805997416 75.48012867985364 M11.448191628999616 123.13898699778912 C21.847169593487916 110.7422687515992, 32.67767158772593 98.45822152442308, 52.44772222112043 75.33077493322853 M11.478275455057066 124.38449213774183 C27.708407943869375 105.39591217524126, 43.93573999159992 86.29329672326504, 53.9826704830933 75.9517171252692 M11.455732263467723 124.82385612312868 C25.134785191560812 109.18373398572774, 38.52807528141131 93.67037099569289, 54.19867434920827 75.4749116076448 M11.730401354942863 127.0754202393531 C23.724271642335616 112.50389243498472, 35.08919441001063 99.69781650427271, 55.05593333637436 75.60111781545255 M11.321357263923858 126.27958440303402 C28.69006850578649 106.91778253892723, 45.91041221605274 86.9217981796667, 55.508805157960985 75.57936476126889 M11.147664456968645 128.0579619261105 C25.45795144408524 111.77759158655118, 38.29183512185574 96.37288481561565, 57.40918259115249 75.46482221694941 M11.391285895400305 128.21665490499848 C20.860135937078077 116.86201248752445, 30.694282995574525 105.57428678083917, 56.874050307762765 75.2764298956726 M11.153018711550224 130.14918433130183 C20.945864559121848 117.08799982258745, 31.587882459718166 104.37829379599309, 58.19283039963241 75.74724420277869 M11.273717230504577 129.86166548935836 C29.017706070626737 109.43254292053223, 47.32027538292783 87.922184459819, 58.465758802464485 75.49340683243133 M11.356300582043282 131.24005898005765 C21.35453542719614 120.9245530009722, 30.777101077658685 109.35502483842615, 60.35088347559419 75.78098592677847 M10.925815600669239 131.55915165437827 C24.035580753845608 118.34378045769103, 36.04959151415599 104.54862243960882, 60.19864722526839 75.30336740201636 M11.53749985457911 133.5332767626966 C24.763914699726946 117.27736709648826, 38.5881466608041 102.70292466585174, 61.0388719670954 75.00398617395615 M11.202000359432645 133.60635603943314 C26.112110821542853 117.54104245007989, 40.469395536020286 101.3189027581107, 61.355788602897746 75.30589854733482 M10.66732587132401 135.06116886642627 C26.24345608745555 118.13713172738298, 41.387767060800655 100.60712833836818, 62.81636790293861 75.07138456627337 M11.335655582964161 135.11809737601885 C25.703617984795283 118.34007492359936, 39.84921121705926 101.6565781640082, 62.772488648283385 75.3746298706948 M11.59208876834888 136.5502721618378 C21.12149025994956 124.88243174297298, 32.448801299844966 112.51505737454144, 64.64592083111701 75.6049918064358 M11.163303258347348 136.63671787530723 C27.13627647501327 117.89606322865566, 43.27211367706301 98.75698505819614, 64.6141470497623 75.47788660359018 M11.331037992959 138.0695723653285 C28.54428340433356 118.1913314341634, 45.52398201215919 97.42142528673887, 66.33262510033228 75.1306435676518 M10.950160302830668 138.46088755198355 C31.46191197903448 115.10666680151783, 51.431247606418154 92.31115591697798, 66.0584968840605 75.5723714258784 M12.32216349013391 138.85025202351042 C31.221261897625148 117.48764105396182, 49.70944308414411 95.25113719118002, 67.49789253003712 75.7419342516375 M12.11247221640296 139.47785700013853 C31.69713318503718 114.80914880283726, 52.66805878465416 91.27200880688996, 67.31686790531124 75.31336224456027 M12.999681751252322 139.79776750360784 C31.26502902182667 118.17370283852264, 49.27958833467536 96.7535121323998, 68.98575584743642 75.46797806048167 M13.391805318831878 139.5297604609519 C34.085646995126204 116.24686754091874, 53.74970214736891 93.03813155145096, 69.1323173027239 75.41261391200345 M14.410688174804779 138.79854348783397 C35.5059089814711 115.87703320488015, 56.219019052903036 91.91569413329142, 69.97842717479357 75.04066957670686 M15.058172953634038 139.10725019471678 C34.949710236006645 116.53720911028537, 55.414283325903035 92.53141885069174, 70.46390213123144 75.48139513356463 M16.038298369978147 139.22975805984717 C32.07355401280761 121.20893636554342, 48.27509046154137 103.80209312847933, 72.30501469576834 75.07649572882715 M16.57802310694291 139.4076060394573 C33.928730886353186 120.51326595600008, 50.495578029534066 101.19635662167494, 71.81794954479821 75.36389418031496 M17.759359221905555 138.9420698532712 C33.22986132441872 121.87718542873273, 48.76455849909158 103.86202477890134, 73.0155427943543 75.43936754955256 M17.98803774037632 139.348097178037 C35.63766054886145 120.38418605884917, 52.578919576296364 100.59103296836938, 73.54602165797196 75.27378496131361 M19.03231116512349 139.19560049625403 C40.003986347858195 114.98727019662155, 60.724047066594636 91.2163146003411, 74.4361437312224 75.61364487576645 M19.522867798084445 139.05231876113544 C34.58096475440398 121.18657771346955, 49.280364001836226 104.07306091681548, 74.62516908550165 75.30103194487342 M20.335125893659285 139.52915955294083 C39.46645297153884 118.2245353093409, 57.930586740977155 96.9033235584599, 74.86766622580981 77.41336508589504 M21.01555222184155 139.49151842175863 C41.84967799233452 115.1369382177756, 63.368244542365076 90.54886400399684, 74.87939543332094 76.83384768449189 M22.814270896560192 139.03577657990118 C37.806753422054214 121.22705513624331, 53.85703897766648 103.7945966246073, 75.28057691730604 78.44536301634254 M22.183445250317604 139.21198711264765 C37.184392685505685 121.85805268782767, 52.272700625338146 104.43269942246548, 75.02571042139539 78.6852320148447 M23.466861929918025 138.9911894178647 C39.17644315155002 122.64327937454419, 53.31494470917407 105.09585151358607, 74.62374461146908 80.84444854369505 M23.770849044321963 139.15464020998604 C34.11978825597196 126.95967235543154, 44.652074171840646 114.54226991314516, 75.06103419662635 80.49646364613554 M25.121356986356183 138.9837083202509 C40.52247824716683 120.69914368032002, 55.85521990710583 103.39260255643956, 75.55094322727123 81.79527237332111 M25.218671328655592 139.08483947050252 C44.99730719071563 117.9334539722623, 64.47065357555402 95.8571522641571, 74.95260084458516 82.186802803551 M27.239862032966748 139.69174760742683 C38.413622339251305 126.52853149834345, 49.585904142881965 114.0867923304146, 75.47167369187508 84.20989793133249 M26.80916151242107 139.26017552739972 C38.83744742882716 125.35838359455943, 50.66339770043825 111.92223394538038, 74.78867849353334 83.75210666146279 M28.025805481853386 139.75835853465026 C38.39392570334446 128.17443516208303, 49.540843935244695 115.40407605880557, 75.52403341771523 85.36650303314764 M28.00804399914165 139.3465149942388 C46.835674420986116 118.03929353731431, 65.070094003795 97.50108678704439, 74.80667235276368 85.39973553828003 M29.578307422087676 139.40124485121086 C43.82292758470896 124.74329837894336, 57.61660446893284 109.41099316652696, 75.51192527469928 86.929412943904 M29.697862270035017 139.07114677490358 C39.676959905688825 126.6345245996925, 49.98255304096135 114.41417855253758, 74.88453910574523 87.13075851272654 M30.746101075451765 139.05126046050094 C46.48394140229921 123.26157385586862, 60.791545093419 105.97978070206806, 74.89075796498098 88.60122506915572 M31.02626863387154 139.02189648381062 C46.93270103659637 120.11172598436056, 62.86303069734675 101.97267939447434, 75.05616994267811 88.66425387111748 M32.84357957357737 139.0641662846017 C49.22196833986802 121.05382709884569, 63.968015348873266 102.92290186232154, 74.768815138789 91.11546731196655 M32.771259253680434 139.19103618905532 C41.71539805128176 129.70310976941596, 50.62691691674665 120.1778209239663, 74.8081144251986 90.44426139846871 M34.13592265901649 138.77958716322246 C42.91566532573117 126.93752371789262, 53.10784850009997 116.30062810513331, 75.43742613193268 92.29088964151396 M34.44366901055331 139.0430193605316 C41.79924188785902 130.03664205802986, 50.4695714405697 120.79873646648053, 74.81426921041052 92.43595406858206 M35.11715364091985 139.69582743893562 C45.9121108307945 129.05329098336847, 53.9141256002023 118.49656834069472, 74.9689170646796 94.32483391779338 M35.58627217379512 139.02090508409108 C44.21187652200691 129.1078560759309, 53.43831920078158 117.94949682852499, 74.95365448967011 93.80111925372927 M36.5447048745605 139.33543677415315 C51.665728883033346 121.94005096139412, 66.84980843525906 104.0636782804332, 75.17367129940345 96.17634618822726 M37.1393703757099 139.50835292504016 C47.3003255961663 126.42222362821238, 58.590113014390894 114.21395712771863, 75.05968137463786 95.50606785250491 M38.925518700069006 139.3055273908674 C53.91906996885578 123.53956989471834, 67.78223234925528 106.95462194904357, 75.04853245032285 97.92202171463043 M38.67075524690341 139.58769897713262 C52.31298499055617 124.20830659281154, 65.17209648959019 108.9244533756382, 75.14862015540382 97.40820859731313 M40.13522505294611 139.71619120300062 C48.61709374154127 128.59009193169504, 57.63195899703885 118.90724207778257, 75.63533861889255 99.50729659774063 M40.016459768025165 139.25531493960426 C53.13201339019813 124.6272591149812, 65.87164012769907 109.68969657080075, 74.73966406838365 98.74452274676153 M41.401003544286986 138.71179714159737 C48.90371692611208 131.19506377676603, 57.16302728808029 123.04681435960651, 75.67361465792672 100.21027687279258 M41.42644538672591 139.18553462151056 C51.16132686987648 127.52879451067864, 61.096604522067096 116.0518648082766, 75.05037621790832 101.00430633432137 M43.26225262656856 138.8256555022203 C50.99686166156806 131.25053212638147, 58.01521730670805 122.34610450557517, 75.07463167287094 102.47068697599428 M42.83734587983344 139.58712223331105 C52.96662248598713 128.4704262089056, 62.47842587593779 117.4359359909549, 75.11162403699429 102.44274649013008 M45.10918989422274 139.8325254970657 C53.72797674796648 127.32939491050874, 64.42921637882195 116.08319763702559, 74.48267352860657 103.83449151581715 M44.39312837001652 139.13487929515645 C52.52464855321775 130.12502860004764, 60.50535106655861 121.6902860104797, 75.27645492573784 103.96511837705006 M46.509854510136336 139.77805897291356 C57.06125497585995 125.80029478579937, 68.82853093393985 114.2081609951741, 74.59395917756422 105.52534627736412 M45.999517071674916 139.1376341219733 C56.776661515164754 126.87806430692322, 66.93695361618015 114.75220346554329, 75.21949546321649 105.71153704857306 M47.672337623738194 139.85416800930162 C55.66106151381051 129.92013983009622, 62.61627566499199 121.78161389241771, 75.51876912935117 107.63486281297668 M47.16250255496013 138.97570546462694 C58.37392683163588 127.38904756656498, 68.80470961440521 115.40729970884473, 74.8123858242622 107.26599909520448 M48.76715704592701 138.92163472119543 C56.959863194216105 130.67447173797677, 65.15837959188943 121.20526634490821, 74.88570360809338 109.21996778919717 M49.21051787769112 139.24074089429573 C59.319128383515334 128.31651546339677, 68.88095655579168 116.54694970926082, 75.22448951547923 109.17128567592647 M50.95110940826177 139.66838204689805 C57.44275568207769 130.14960870797074, 66.54614982105417 121.39461696678822, 75.5100164803384 111.29580373214111 M50.59794116034003 139.27545989998717 C60.38583757758527 127.86204091433137, 70.38947287318203 116.8836887495763, 75.3156167030291 111.11215538681543 M52.307409568103694 139.15745463813502 C60.313693295116664 129.7466258928544, 67.61807366003086 121.03188105644071, 74.66802594321447 112.70422523159633 M51.995959622273034 139.03798463016483 C56.28164231958387 133.27675957618712, 61.53619354040186 126.98535834185734, 75.14087821994104 112.46795965356009 M53.98035138623835 139.273397968249 C60.767646784709896 131.00288264874698, 67.31130741948846 123.77938864101858, 74.8781305333527 114.33001790120835 M53.58290321234174 139.39855084957307 C60.60331181685844 131.1184088397363, 67.17043548479246 123.71018561716886, 74.9976309337138 114.24410668245011 M54.99188043990648 139.64833220764874 C60.337019724333416 133.29326336358494, 65.88100757635718 127.66485291764533, 74.89211388742433 115.98847825737599 M54.7899971512868 139.3622475191072 C59.04411443403649 134.73737760085842, 63.42291095348079 129.8983598319129, 75.27256284656974 116.13005967554048 M56.54231544519865 139.56211904005218 C60.4609523489884 134.3743387326455, 64.97560234084821 128.8975170817512, 75.09521298260918 117.99603993419493 M56.482298058857054 139.60163511032238 C59.86211749532644 135.2015333858691, 63.70864432303134 130.69405548665574, 75.02073438314063 118.09188732080392 M57.554736559468736 139.87297787552095 C61.33820059681197 134.6371784210076, 66.00927692694913 130.7761523852861, 75.30178634797153 119.20233971959459 M57.53850443761655 139.37934348772012 C64.76461911994875 131.70131620268398, 71.77783474852879 123.40436395497372, 75.13300961445654 119.65328758196134 M59.07224008111647 139.2924954290559 C63.83852292719645 133.42745962836756, 69.82628799908386 126.9489640407001, 75.3092713740698 121.69343830818556 M59.48055897202376 139.42037261106853 C63.13391234198231 135.290784868025, 66.14255385230959 131.66100071599192, 74.83965553265453 120.94056946824531 M61.13111398581532 139.53921335134848 C66.21234318904847 133.530478223736, 69.98035465619424 128.257569982194, 75.04542572902011 123.27194483283594 M60.79971384570368 139.00360036479353 C64.44376831029203 134.90581683786712, 67.68287091754888 131.17546668961293, 75.07907889739708 122.7135994768183 M62.4949644445806 139.15315772718594 C66.27782941296462 135.5634476434189, 69.72115837615594 129.9825717343451, 75.21563640629418 124.01775585081373 M62.27615305861676 139.5948877761423 C65.3134212966236 136.22767293268163, 68.14334450046842 132.69717549666802, 74.90150153001711 124.32305723516166 M64.28030505313075 138.78326628594274 C68.39733381627573 135.01624044972456, 71.94924311178691 129.61585809881217, 74.88592321363265 125.96044054207246 M63.58580482712995 139.41660797334873 C66.52606461184648 135.43663440010033, 69.94339763050371 131.79791431443104, 75.15856553455673 126.08868013390153 M64.84930222446495 139.3945930579176 C68.97913506550431 136.58084914405637, 71.54848929583568 132.92135130070344, 75.58214195269976 128.20331116002362 M65.22930997375178 139.08646294062913 C68.61784533271191 135.22669930007453, 71.84070226701485 131.00947152481328, 75.0743518349228 128.137720785705 M67.27290644371516 139.91353562435484 C68.88481122498173 135.8835287908898, 72.79743457914273 132.81375203030333, 74.98307064400532 129.14675072440411 M66.96833174613965 139.03890671852665 C68.58945967961071 137.04859109760898, 70.30619573636221 134.8415867401415, 74.8104638955078 129.52978583241025 M68.59571330631245 139.0746732441694 C70.18218632040603 137.6327879418955, 71.31486472179878 135.11186324574592, 74.50435427694046 131.34998982709646 M68.19245638349926 139.09604374404577 C70.0080982309162 136.6986268542322, 71.9205202595182 134.76474166564756, 75.17715786111714 131.63369338944207 M69.31521184669705 139.6004835126463 C70.6406254226943 137.26281075032128, 71.66715931056103 136.57567162664185, 75.59868873959664 133.2692088233331 M69.8886790913256 139.19223923771366 C71.21669179662001 137.29673869138998, 72.59481329749791 135.87115600891138, 75.36357287900293 133.26833587585648 M71.07816717014836 138.987154450011 C71.69815462217846 138.2804676729157, 72.35928250228376 137.0481248503748, 74.51468462412043 134.49495084809644 M71.25854925242886 139.1782637625078 C71.81242684959001 138.6365499630528, 72.75075664170673 137.48666207024527, 74.92774478615362 135.07861203871718 M72.72315852759672 139.38609844071655 C73.01313924787246 138.52744783246584, 73.30459219130913 138.2782856083678, 75.01613703328091 136.6070260447667 M72.5531242381855 139.41494599826535 C72.97444418398797 138.5214504981093, 73.49887477545278 138.19544993303418, 74.92467898526522 136.45852185382952 M74.01200923504226 139.39299113333072 C74.32493077040525 139.0104937064837, 74.53678630454228 138.76806144432638, 75.1399949128765 138.31083268333776 M74.11733416183328 139.24627359982043 C74.50070498661904 138.94096359497226, 74.81351545699854 138.5243346781342, 75.11463636274755 138.19652951865297" stroke="pink" stroke-width="1.0" fill="none" />
  <path d="M11.259720119856777 75.9191865135921 C24.60325162647264 75.00558469914797, 38.568538351523785 74.67415077536305, 74.9335393131579 74.89262866124147 M11.351731470113908 75.37868315010708 C31.04669679167783 76.35982587754802, 50.67286699460339 76.78753967513985, 74.87292310548695 75.31678865436577 M75.04019577787182 76.000742831591 C75.23420376466152 100.07806166187784, 75.62535442757903 124.7526350939423, 75.49807010570159 139.69859964129424 M74.98476903350998 75.63299220690054 C76.16273741249908 93.54474874482928, 76.19704633357495 111.16646631419175, 75.18627432645904 139.15814708441536 M75.32175410763855 139.2975958182342 C53.490139602654146 140.0, 32.251944723797365 139.6406027744263, 11.058520185398422 138.78101389176413 M74.94936042244413 139.1612314837741 C57.834864829641454 139.25602268636442, 40.40356311663549 139.13050647999293, 11.33009360393968 139.3121331142392 M11.004699897630033 138.96774873634303 C10.078146435322175 121.82459137367758, 10.0 105.39144576927256, 11.39889199499255 75.55584281027556 M11.10927756714915 139.0178663033716 C11.316247248258996 123.22890079673044, 11.658612814430889 107.01487291710626, 11.125736927377226 75.64394598232019" stroke="#000" stroke-width="2.0" fill="none" />
</svg>