<svg width="600" height="150" xmlns="http://www.w3.org/2000/svg">
  <path d="M20.0 156.1338099742657 M20.0 156.1338099742657 C74.87730100458941 37.243217817749766, 216.8460541068703 37.36293425558567, 263.9098590159737 159.9269202985168 M21.310718650594158 152.9800402466928 C69.81216443854868 32.39382099904661, 217.1247271420952 38.998040839121785, 265.4195069534224 155.03273021972183" stroke="#8a2be2" stroke-width="4" fill="none" />
  <path d="M103.41889198514022 28.98050985848687 C105.84475509429103 27.45594295770095, 106.91229477947815 25.82821759116013, 107.88311583746344 24.33423735885109 M103.100136298063 29.340953225823668 C104.65671937518967 27.70937794668545, 105.9159600842026 26.313208593924138, 107.91981133549085 23.666272631932987 M102.0559833595235 34.810961159823705 C107.43614887909567 31.315338812743057, 109.72008927196795 27.01656505906944, 112.9531748827318 22.69654414486875 M103.14128108759489 34.5404389146318 C107.33689817694012 30.531649664906606, 110.28225942168878 25.73586216203693, 113.19558302682253 24.36267641962889 M102.55415321654364 38.21919324755308 C107.63575901297529 36.40142155376624, 110.9727990108115 31.275605362252527, 119.04986000136051 24.48019827969322 M102.41598010947368 41.01384195986954 C107.94012018078192 34.178995053488684, 113.42106612527695 29.18754556593713, 118.15576905684148 23.114145998171423 M104.87381050702741 44.32707766567344 C110.27626172624961 39.57126808670357, 116.68483817415097 28.996119531871813, 120.26156212263481 25.357922433353817 M103.57616286539918 46.08667890058689 C107.20147060791714 39.625961197369136, 111.64914834402965 34.8798148655584, 121.69999876049451 23.54590174124096 M102.72753457417117 53.01274231944693 C109.27216252002677 45.99072357420678, 113.56907854645495 38.76635982049174, 126.95157267877465 23.686667661236882 M102.55232697275643 51.48520339400787 C111.60850991797801 42.23787425817241, 120.07516548378908 32.45849746126474, 125.96615058077697 23.187315479630584 M102.14454832762704 57.11437935831397 C110.7582840530777 47.73839183289128, 120.48512454343532 36.874400429537204, 130.11505568860667 22.37288993137241 M102.72299093141012 55.576505001065314 C110.39562538909813 48.13933722866423, 118.23211305531328 38.563026672743746, 131.0568109868961 24.17101456184597 M101.76005457475712 62.191093799100116 C117.07208295631087 45.72516729725861, 129.1844213500918 32.45704593231214, 135.50082002321784 23.310429510242567 M103.23275533525907 62.85425081932871 C108.89658922503698 53.26190420776139, 115.4416345853633 45.38373101826271, 136.1353460402654 23.120619536040227 M103.50077245689066 66.76808429476102 C114.4417434504319 53.816924012166226, 126.17756471030154 40.49169575530097, 140.95859724714467 22.475007005993323 M104.2637477529683 67.27691113278897 C116.24796096850136 52.65319558878846, 129.8080730818975 37.76601409423024, 141.31866172626795 23.08549422673412 M102.08132043188867 73.86337424883533 C118.43637710983458 52.583450362929966, 134.4974461117434 34.453617744237505, 146.0904238860886 25.249576206493813 M103.09993490109176 73.56692584006383 C113.07187006989771 61.51577868302874, 122.2294249113666 49.829317444462546, 145.69782043795172 23.661133774899323 M104.50261290112061 76.8958813024183 C120.32759263318889 61.79223462558869, 133.94861510520354 45.04111543607296, 151.35870096126374 23.978744478328395 M104.08923256490318 78.62498342564646 C115.1997063048182 65.00867886946298, 128.60437040510325 50.97563921686084, 151.43013816955332 23.639320769684378 M102.58690174029448 83.53137441420593 C124.66787812381469 62.14278036546135, 143.48226421935 42.09674768745201, 156.5151019596515 23.06270003293429 M104.18845780433905 83.15851741577802 C117.6276878125243 65.78508006337132, 133.7875491104046 47.347322439707824, 155.1974408897314 24.93716831957843 M103.84015949038232 89.66084912071082 C124.73975300066488 63.832590269915386, 146.7168772040709 37.85124569130029, 160.28052608300396 22.293336632111874 M103.10640461036255 89.76811439481048 C116.78986491892157 72.834615464474, 131.39778265526132 56.33924128490381, 159.5218927122768 23.037361855812698 M102.82743738320814 95.00407859219926 C123.70096861756159 69.47386752041508, 142.29121365591675 45.920129624103154, 163.49989107585628 25.162260385894747 M104.22746904446247 93.63773446742111 C124.07896924468113 69.19180836071696, 145.39213124180017 46.12828629276122, 165.48842755503176 24.177029947381843 M101.8318362101422 101.69315232708529 C127.77579502116845 71.49161159520605, 154.27366397508553 46.30897411880183, 169.40962987671128 22.05789840210878 M102.71173459287695 99.23795839065332 C120.35211087486744 79.55401991914326, 139.1395571783058 58.90256533283882, 170.34489271536728 23.810868136793655 M103.41034279095715 106.69260758293362 C129.82590645295366 72.77254273316622, 155.95655152922384 42.41201511537788, 174.50141590255103 23.062159835222243 M103.28836399735876 105.38706422513539 C129.37918236329187 75.13384629652265, 154.66218973978812 43.68999848158771, 173.71469063158023 22.98779867136014 M104.51491220091704 109.11873099988134 C124.12041911636146 87.7180567233199, 139.90378116817791 67.09433664500757, 180.30813008877055 22.673023282287577 M104.16694867698554 109.88807109144486 C129.57032750230218 78.51797155647716, 154.97265135776138 48.52636419711391, 179.739189346957 23.787721040092773 M104.7682024522986 118.0192182554852 C126.97610191109106 91.3096183942624, 147.15419480708934 65.03536283194842, 183.56963026067785 23.199981110857692 M103.05456163959728 115.41787691124678 C129.3418653769295 87.93741382533533, 152.5501411079552 59.358509581347946, 182.7457139285844 24.04790781102775 M104.97667882444925 121.58529000895246 C123.14687875126586 98.50654077404718, 147.50738748694025 71.67584592066872, 185.01663372032175 28.213429309705408 M103.89897753026207 120.92937784321731 C133.72128516235776 87.86427399427123, 163.68192468306128 54.661201055387124, 184.1857458845641 28.41399646419397 M104.48505879562458 126.977199999791 C134.88984471547562 89.12821363127398, 165.08666727256025 56.02414604110214, 185.9516047401037 33.63899018265609 M105.18179380307373 125.07824148336212 C136.4887650266469 88.38053154150539, 165.79617628945755 52.78335883612269, 184.6499619553947 34.27297740161424 M109.34292029480103 123.83644770309763 C134.39768109884338 99.36928844800339, 158.57453042769984 70.60725035301033, 186.10311207208875 37.301157499215535 M109.97678100919981 125.54808169515282 C126.7289658697525 105.67962508819586, 143.48576332464827 85.89602310633686, 185.168563221417 39.60859535627098 M112.0278914808154 126.94775012775486 C141.4733572446651 93.82715690511978, 168.25550662439647 59.49093106662703, 184.17636649930654 43.28099206410211 M114.3849033360526 124.80790319494861 C137.61241234632703 98.30350231895952, 159.6675486531112 70.86598713009872, 184.65126258929524 45.112400490259404 M120.17525169749706 125.23771901413426 C137.59230707232504 103.65229808122189, 155.96766787794576 86.5260392682002, 184.64847433517144 50.33817734499604 M119.373750478734 125.2003823444601 C144.3284013610442 94.2270200610993, 170.0751468905921 64.89548423210857, 184.12105650891286 48.84487147056086 M123.11465645124363 126.45955944809361 C141.2070382948017 103.59208342053007, 161.43898412198092 79.87738370334182, 185.37237689350383 56.72902346586123 M123.61916770316728 125.64039317725965 C135.98221882985501 110.15550668469338, 151.44443656685465 93.24957978186703, 184.33224420929812 55.44453162719327 M128.27888991875312 126.40922419803898 C140.56463890923575 111.35743273023797, 154.18209140617208 98.32917970073895, 183.31191543631488 58.74083158684914 M127.96929665691289 124.63907219006994 C139.0510702519632 110.95155716728132, 150.83147815886065 99.49197754760505, 185.35596103908514 61.04140469207201 M131.1263476464047 126.27164315138064 C152.84730007554492 103.14105676892743, 168.7477459547145 83.52349222107536, 183.50541043872497 67.95942141395281 M131.91625108692426 126.13092561291765 C153.48513715245554 103.2172218747073, 172.31538237405138 78.4553614964603, 184.00646359542188 65.25766438503526 M137.58731344679384 124.13406532480239 C148.38024165666144 109.91978325939507, 161.37340746354332 97.04339185993982, 183.79447778626644 71.723078881597 M136.593439503675 125.57793056100965 C151.0164269373864 109.85021996343316, 165.92514063207872 92.71722736085984, 183.8186630180247 72.22671463502425 M144.1838949256916 126.76961658372628 C152.5481664274452 115.6204776538572, 161.33173515776267 107.51551406386385, 186.74008268337374 75.33424161281226 M141.29276986813622 125.78210998520548 C154.4754967508459 110.28085024905086, 167.0358620137294 95.99436121253575, 185.16642559483986 77.10988639723772 M147.16127917186458 124.62528184557 C154.80383240770567 113.93762775843634, 164.24007263474053 103.62587225215482, 184.61537354677893 83.82141219663048 M146.36962292007541 125.27913343865455 C160.97857400135283 108.67674694119745, 177.53367989687595 90.87081289033632, 185.59195675885854 81.53327739429218 M152.3026833327161 123.95330915716845 C161.58681793089667 116.40737997451198, 170.1123545243854 107.47821605319531, 186.24121850666435 87.35042861195731 M152.33380821912885 126.09829697576988 C159.83287030734826 116.56500237705797, 166.06332982556185 108.51536710887463, 185.02652814715546 88.68243233657627 M157.5485655409785 123.66580989871625 C163.55074010387617 115.90888395826283, 174.64353771708548 103.00640545048537, 183.52563493859358 92.18040264378098 M155.6425624816553 125.4938913035749 C163.3141877249775 117.40429100882216, 168.2061680548722 111.25745059734602, 185.6408614545004 93.30097410729483 M160.99434516475364 127.16797203160155 C167.22846779788213 118.4327498410048, 178.4623973283686 106.52454414741064, 184.79169545376118 100.21643471896445 M161.17681059843315 126.32224776861237 C169.78515265784884 116.10179707148973, 176.9776246005136 106.75886291373929, 185.25767748796093 99.53012617132225 M167.6170447199345 124.70197442070912 C173.8615578603431 116.07542569072292, 180.5611045366445 109.98549595611861, 182.74726527014604 103.99430304019296 M166.5840375439166 126.24084612127334 C171.83001505424468 118.26825238563194, 178.29443205407648 112.23517306734198, 184.31817899173214 103.25090230923682 M170.00133456027743 124.11008688407507 C175.97245571422977 119.16658755091267, 178.04544183035478 116.6945510760044, 184.4505428796549 108.90398131516373 M170.50027173326237 125.83739177843515 C175.35842988665095 121.14027343139058, 179.655645385294 116.81738703141536, 184.06569505035142 108.6728472825023 M174.46441047574237 124.47414313250937 C176.50282838252767 123.29625907157151, 178.53485780017422 121.45633636829122, 186.10285110427162 115.65831531974594 M175.90307206294057 125.99444173497666 C177.96968328669328 122.86544863783693, 178.8271992117965 120.90320153861549, 184.64229267112026 115.24453067541498 M180.61342753058244 126.25539434484878 C180.75001023601266 123.96505342977747, 182.42104622807034 123.10824564343145, 185.1531309845765 120.59091275860135 M180.31430837683735 125.37530755376065 C181.25547179050133 124.10144970332162, 182.1402519932113 122.86659209097084, 184.92278662455624 120.0259030794794" stroke="rgba(230, 250, 255, 0.3)" stroke-width="1.0" fill="none" />
  <path d="M101.93419970399881 25.36903652480248 C122.64228126881534 24.20017546008826, 138.3003044708907 24.115541417569865, 183.60737087351384 22.793446398017668 M103.58911760489161 24.446499147326197 C127.59732951957994 25.752514337617296, 150.29701363914896 25.202747988280816, 184.7151035959942 23.321116962484005 M184.86965498260616 22.35638465139717 C184.5962704788967 50.193284712433936, 186.08014726610025 73.96176080851825, 183.3744066939413 124.04430330946528 M184.8630807994107 23.18719876968331 C185.14353873275687 59.77883652541131, 184.81993215685404 96.34267139293478, 183.99140609993046 125.36003151569172 M183.535994864433 127.20177228199569 C162.03808016272612 124.91934044531666, 138.88087277172122 126.38911440617765, 101.95701004842431 124.34740747314156 M184.2106408220566 124.71426632202291 C163.75812535725854 128.06938383158266, 143.8448791066259 126.99648120603993, 104.11057363099863 125.84914211646436 M103.90567407940229 124.2521076566073 C105.59127554008916 103.25449803491651, 103.7247046715558 82.19219436023587, 102.08079182066244 23.76695549321234 M103.17352750947124 125.45600242525555 C103.91325528648282 96.15592026266465, 103.62924140291567 65.49437924218431, 103.03067544866371 23.90866588702091" stroke="#000" stroke-width="2.0" fill="none" />
  <path d="M396.05838676812726 86.20773422280475 C396.4574656916739 90.0440628090991, 394.1763809276514 94.57028302922664, 392.79797493802124 98.40731665585582 C391.4195689483911 102.24435028248502, 389.5586644679005 108.4961370823273, 386.86901350392617 111.78795840033264 C384.17936253995185 115.07977971833799, 378.41342949777396 118.3307403848048, 374.86696851152567 120.35279210922481 C371.3205075252774 122.37484383364482, 367.10838348079966 124.70874244392888, 363.2259402622708 125.26830322979936 C359.3434970437419 125.82786401566983, 353.3668998685095 124.8553862334824, 348.98401372133293 124.0831973483613 C344.6011275741564 123.31100846324019, 337.59405873360384 122.10480063436323, 334.0066992810938 120.12037732899194 C330.4193398285838 118.13595402362066, 327.6263255740092 114.00089809312817, 325.06828403793264 110.85370864588604 C322.51024250185606 107.70651919864392, 318.501591516918 103.01354986305883, 316.95308904058345 99.13911434737778 C315.40458656424886 95.26467883169674, 315.0761574224343 87.14138491225052, 314.7449341957021 85.0241385413457 M396.0377063154281 85.6676657262184 C396.69499535721025 89.77900487515063, 396.0620946803067 96.39854048083022, 394.5751724425378 100.39767815819577 C393.0882502047689 104.39681583556131, 389.01232517628404 109.51016329108639, 386.1248913969688 112.32858357532207 C383.2374576176536 115.14700385955777, 378.81244678537723 117.15055849317328, 375.3256139137698 119.18714671976709 C371.83878104216245 121.22373494636089, 367.1534027540556 125.09953533594468, 362.8793389195862 125.90583841928076 C358.6052750851168 126.71214150261684, 351.13804225216757 125.72381551207559, 346.831855017307 124.56250060867426 C342.52566778244653 123.40118570527294, 337.71404485479 120.23622106148949, 334.171424020516 118.16373906327189 C330.62880318624195 116.09125706505428, 325.9582860800436 113.76594285744784, 323.2143827888134 110.74595395389018 C320.47047949758326 107.72596505033252, 317.14915270128154 101.88875201810254, 315.8787354123149 98.03047970622087 C314.60831812334817 94.17220739433921, 314.915004378194 86.97508971607698, 314.7449341957021 85.0241385413457" stroke="#ff66cc" stroke-width="3" fill="none" />
  <path d="M81.65008394831466 54.77570984705521 C86.53299377937702 52.98570240434114, 96.8980724336226 54.60664256211945, 102.23498932819106 56.8760876994011 C107.57190622275952 59.14553283668275, 114.59299623401029 64.72814885425885, 117.22952991210441 69.90534409559955 C119.86606359019851 75.08253933694026, 121.1557048393446 85.47501166257238, 119.81188051548514 91.39072264167244 C118.46805619162572 97.30643362077251, 112.82721215739768 105.70750083121773, 108.27070108637483 109.34341728959994 C103.71419001535196 112.97933374798214, 94.93456675150318 115.90967212410884, 89.43514004199943 115.63016569755379 C83.93571333249567 115.35065927099875, 75.6424338093515 111.65728549624426, 71.60785635634979 107.48004111256634 C67.57327890334808 103.30279672888842, 63.2540060829439 93.59155072279097, 62.53795702198802 87.78186980636768 C61.82190796103214 81.9721888899444, 62.79242793837338 73.71423942542098, 66.83419594997724 68.74883500307783 C70.87596396158112 63.78343058073466, 84.95331385028872 56.84849691065105, 89.48307709934717 54.6791736574133 C94.01284034840563 52.50985040417555, 97.07860511166629 53.88654958705929, 97.03261761036687 54.28667998149281 M93.86277747623541 53.474066601255856 C99.41826519060479 53.43531567617573, 109.07099185284108 58.00621056302043, 113.32087193718534 62.456545506080374 C117.57075202152961 66.9068804491403, 121.72332742690296 76.79685996711642, 122.1953113718638 83.14296622165541 C122.66729531682464 89.48907247619441, 120.00756067688809 100.10314368926788, 116.46743157025753 104.76392053634034 C112.927302463627 109.4246973834128, 104.5512372236301 112.96009033187157, 98.5944506609936 114.21481186880514 C92.63766409835709 115.46953340573872, 82.16251666739818 115.84056917716399, 76.75552115268088 113.12873078256418 C71.34852563796358 110.41689238796437, 64.88058859465495 101.83291469153934, 62.54781389621154 96.13588923813974 C60.215039197768135 90.43886378474014, 59.563917479981896 80.79261183301648, 61.20368982972481 75.14856109323345 C62.84346217946772 69.50451035345044, 68.4549908373107 61.603870314609864, 73.47962956116436 58.50888430625291 C78.50426828501801 55.41389829789597, 91.48771151335245 55.233157035989564, 94.70128132208245 54.51532103752049 C97.91485113081244 53.79748503905141, 94.96179256345793 53.23811708758355, 94.90342828603102 53.72331098312574" stroke="none" stroke-width="0.0" fill="pink" />
  <path d="M85.00621172872147 54.17786115981278 C90.16518774245807 52.54385492275034, 100.09437024944157 54.18255974016898, 105.05646656267875 56.89165182776796 C110.01856287591595 59.600743915366934, 115.82135651035362 66.55252341980814, 118.08685381696941 72.23847507713931 C120.35235112358518 77.92442673447047, 121.78011304529352 88.95141834760673, 120.15978194011728 94.79799620997574 C118.53945083494108 100.64457407234474, 112.19902301789196 107.89803041399357, 107.284646449128 111.21566082626599 C102.37026988036406 114.53329123853841, 93.2049597498446 117.7552860579663, 87.39727148169095 116.91553229179193 C81.5895832135373 116.07577852561757, 72.5153910777872 110.1738495824492, 68.56672466143702 105.61730238510351 C64.61805824508684 101.06075518775782, 61.08600744453801 92.54673780367402, 61.07282870602309 86.53855097615406 C61.05964996750815 80.53036414863408, 63.965578247436795 70.3908276944875, 68.47886640467081 65.56272353497043 C72.99215456190484 60.73461937545336, 87.04572457938335 55.8984958080146, 91.16141642091654 54.351189912706914 C95.27710826244974 52.80388401739923, 95.92660108559842 55.01740406096248, 95.91681201489216 55.24735089958587 M104.88198744031887 56.644508494609425 C109.96336871037602 58.92614157732747, 115.77098725613895 66.23176242607985, 118.04441872536674 71.87326662315728 C120.31785019459454 77.51477082023469, 121.5759275832574 88.60747898771893, 120.03819723517083 94.25453647512553 C118.50046688708423 99.90159396253215, 112.83441094890516 106.21017758072026, 107.79288307145619 109.52031653920133 C102.75135519400722 112.83045549768241, 92.00780800266479 116.66609346009871, 86.42801138551108 116.32212953166605 C80.84821476835738 115.9781656032334, 74.21554923049338 111.44847101571644, 70.5942389570982 107.2272236829836 C66.97292868370303 103.00597635025078, 62.99433884466782 94.44900586273793, 62.28594289620992 88.18048064678055 C61.577546947752 81.91195543082317, 62.618489690616585 70.57476862124739, 65.87159930071209 65.43705557660105 C69.12470891080758 60.299342531954736, 78.24579738233804 55.358283909256016, 83.97334029684652 53.929060349138425 C89.70088321135499 52.49983678902082, 100.91717591745248 55.45508710995695, 104.0552187307686 55.908898509150404 C107.19326154408472 56.36270990834386, 104.95844938232332 56.49615914793735, 104.89362571895397 56.954469677094835" stroke="#444" stroke-width="3" fill="none" />
  <path d="M144.27736949016875 36.98284263941325 C144.88580447757866 36.09800121131852, 145.32513450138893 35.531876670146275, 145.7324204501364 35.322746709418915 M144.31143140623757 36.77210447902608 C144.61086290015103 36.474468556128826, 145.05892929131798 36.00270473862014, 145.72373508598912 35.33149333475433 M146.68850831827896 39.2887985348943 C147.7205066185827 38.59378301918001, 148.49368223678175 37.229982543848536, 149.23062109749029 36.57015573686866 M146.67001857944933 39.72861931913222 C147.65367048363325 38.68446234451683, 148.5520079278718 37.60402907788013, 149.39006041569573 36.619048201170386 M149.18268524522207 42.34853482949961 C150.6915191261311 40.74627045208064, 151.70903751885763 39.5864133088087, 152.48085474837347 38.17293080414596 M149.01384280692747 42.255369055654796 C149.72524168027388 41.21920148662936, 150.39100341943652 40.2088075433079, 152.82084364440962 37.803370727922726 M150.9179898602914 44.94716717854736 C152.12533278416262 43.42560024552239, 153.52524192981295 42.06579256801392, 157.0412541763941 38.45072877799636 M151.57988993076486 45.05301355101223 C153.56752566655132 42.36744549057704, 155.50262398585744 40.14990635103827, 156.33980390806312 38.84451574306809 M153.45381224057212 48.218195637316796 C156.28760351559046 46.40115730876522, 157.07965317396204 43.33166543551222, 159.5470393641854 40.21722867746031 M154.0548284589981 48.117643505188155 C156.011240082749 45.69381939659063, 158.2008870255436 42.997984104075016, 159.98489391180237 39.89041695155156 M154.90491877079774 49.56325218697056 C159.10724323836698 48.05782906642273, 159.8387698009863 45.85455675430023, 163.43703459634855 41.78541106269613 M156.37710743221058 50.04333937816533 C157.73074730570545 48.40053552510915, 160.38424592126952 45.50636019800845, 164.37053242259503 41.57922587259608 M157.95015844414874 53.42187493326017 C160.66659506318024 49.092767759639344, 164.74329381578346 45.62838585457743, 167.2549927063415 43.921895872863516 M158.77625594344332 52.891638928295976 C162.321983556558 48.637946333061294, 165.4367876826441 45.26537720031985, 168.29862045457693 42.324695588090634 M162.19767328672734 55.12720272737705 C163.42232097377797 52.33445276632632, 168.15186071922403 48.494398841974416, 170.46309165546091 42.67761705291427 M160.55602834069467 55.56202429921167 C164.99796609752153 51.28067548636601, 168.5460361980353 46.51614463923937, 171.76116126819883 43.813698081146285 M162.51498945847405 57.34965467238837 C165.4297023913967 55.63060428994021, 170.34916505242538 52.95775032809115, 174.87677836705862 44.74398803000605 M162.78309480689086 58.84149557200905 C167.38373749783824 53.94061466543393, 172.8659718875637 47.3409322107773, 174.96217134667583 44.768826934006256 M165.96239898155324 61.2274886077041 C170.63517010311398 55.25019485529032, 175.07067652504472 47.97874188149433, 178.09133042347705 45.87073917457974 M165.6155125522661 60.8224049847835 C169.75553895807292 55.59685776523091, 176.12008796667732 50.444385445406, 178.7119087561347 47.275392409742935 M165.89310707886355 64.30654713983354 C175.16904510465872 59.63094830301527, 176.95269095205947 52.440848793014965, 183.55976094968796 48.980351877051405 M166.9419124523028 65.16222183889336 C173.16175844430137 58.48638696474828, 178.0708460260234 51.526935322109935, 181.54360842127585 47.162447999339676 M170.574531361773 66.14987898275578 C174.74607575889155 63.86041898444955, 177.70336330789388 60.24470277136993, 184.25903658068282 48.59183604851623 M170.41918970836832 66.52837580439753 C175.98765334536515 60.584451274671466, 180.49216950855669 54.38266943056274, 185.49421034198454 48.57708897298383 M173.20210539944608 69.048119617658 C178.5417619598085 64.5793058719746, 184.11544373598082 56.729636320527206, 188.65794236049726 49.26970954243289 M172.8277950534193 68.90979627743812 C179.18643306756752 63.02940876050364, 185.6980481362529 55.78197449501144, 189.44023529457917 50.97510530942077 M176.089811539593 71.58076662476249 C180.93694345893576 63.39823178541961, 186.79225825092448 57.74980623106768, 193.60754182743685 50.73375806271467 M174.48328351419792 72.11343385057135 C179.44163420181715 65.8035933054979, 184.7073837246372 59.42329526200727, 193.8673404871068 50.91155918770107 M176.92788456280772 74.70459322480802 C184.12912161500645 68.36089325150047, 185.1666573794233 63.38112620815937, 198.54409553048419 53.792875472867266 M176.84532308087478 74.60708944987763 C182.8393398957573 68.80858025805011, 187.12971852917696 62.08667883611004, 196.372705693097 51.42446976626685 M178.5470332832473 78.05875937553965 C188.2772753027043 68.99902116489321, 192.5014647876944 61.28728498298128, 201.14286144192403 55.41296032510128 M179.06973688491297 78.46331247068491 C183.26443038192033 72.85895072011955, 187.8389609628244 68.74791282844001, 200.0432242254361 52.83428928104088 M180.44234520030665 82.47714110685686 C188.44020446206446 70.50625770476208, 196.28041600492176 63.34593936688405, 202.26810543375245 56.73359474225893 M182.04436034268429 80.86495741417815 C189.45472966528757 71.55500441997253, 196.07420698413523 64.81961222909659, 204.15154055973932 53.86004456984644 M185.18575972163725 84.94190942783347 C189.4385272937218 74.49952744173726, 194.3460721668301 71.60340078120652, 206.62742646647615 55.106796578605994 M183.93874765247043 83.3209595102241 C193.41243045672377 74.36316145100643, 201.17310231736815 64.35101531573895, 207.50877748072784 56.68150975629719 M186.97241996353566 87.00922956125308 C194.87479860227882 77.11350459650593, 202.35551319853573 67.94701327214806, 211.76448815856278 56.633313342757674 M187.2512689043918 86.23127008327447 C194.5237978552278 77.6571923017253, 200.91132299585618 67.06226393091289, 211.68056273162003 56.69702448320555 M188.28426536456033 88.880918617859 C195.8527054170586 79.85675357574812, 205.97994879797122 69.38270171615518, 217.024757498688 60.191476299213136 M188.75847379371834 87.76794054598506 C193.1411407560138 83.29373168575749, 199.3447186272448 75.6038609348691, 215.82746986745866 57.9538681553893 M193.05614837068725 89.82094906904639 C198.06455323842388 83.71301838705722, 205.2564921705715 76.27916773328404, 218.60557598993333 58.93119982895331 M191.46962759266057 92.33621169557023 C201.94528900820342 79.3482120226226, 212.24960676937863 67.18299299013013, 219.5025088788357 60.12959550351404 M194.31658273150728 95.13071711606997 C202.15262778801448 83.60031500288281, 210.29807798885318 76.88715219587671, 221.1210350159751 61.64870369231954 M193.89017257644602 94.3297331330748 C202.14333907860873 82.93502581136013, 212.26173388870043 72.33195858730409, 222.68226697741608 61.799973930009884 M194.89750772148716 95.77252451414047 C205.4398001963054 85.83711490873986, 216.07610448158073 74.2119486428632, 225.61176603487945 62.934695228378175 M196.85135799739447 95.96541158492771 C207.20492388356604 83.9052799242524, 218.51828253767246 70.91044677945831, 225.47622178039396 63.11105228829264 M200.18304687373566 98.68604901225402 C211.04154502240493 86.68215301041631, 218.21994052934454 74.99076489126645, 228.71940215455015 61.34206183952331 M198.43294879385348 99.223397161881 C206.48868872172733 90.1593595667182, 215.255300929535 78.65120482987713, 229.74314514899916 63.41581340308002 M200.28616625870666 103.58951039526885 C212.07524248334047 88.21512465388399, 224.5979111790506 76.03374080045815, 233.2844592815382 64.39293764996259 M199.99867650834182 102.73085689822173 C211.36783818283544 89.69335870520476, 221.24144529211242 77.29330574716971, 233.64027042694664 65.11762460715467 M203.66818778122348 105.83125697203921 C214.66922417571186 91.46205967804525, 223.90543565863763 80.55967510993895, 237.52148786937028 64.88873709902825 M201.95928837091992 105.54253602877208 C211.5595801827439 96.69305147797782, 218.14959798188113 88.03905453914177, 237.83888194414 65.04257028760189 M209.68284464203177 103.2018556867469 C219.36690983100996 91.3892075965154, 234.30513266454102 75.83809192785458, 241.80498004117268 65.22304412966771 M208.55270029557204 103.1133236116579 C216.7158967520326 93.8109764752194, 226.65453307249913 81.88910818250278, 239.96370404739696 67.38378015591698 M212.88495458583233 100.53350508639429 C223.9873670132993 95.72883208414855, 229.45257005677666 83.28217478500758, 244.64411295672983 67.21300361177913 M215.23827436203797 101.6765270316314 C223.13977602902744 91.96312918361016, 235.04046060748146 79.3890649461798, 245.12277162596297 68.2105469029015 M219.56531546439663 101.5208670994549 C231.7746258778209 91.14519341088182, 237.26797216781497 80.60334827064013, 246.30813081877366 68.35239213778539 M220.25759384527657 101.88053622520991 C232.3617730151552 87.5156665437005, 243.64073067085556 75.95384889262128, 247.19648496690573 69.9109165041045 M225.88948935130531 97.73813351734442 C232.41288403476446 93.81586724157384, 235.76926210997036 87.12042256386968, 252.14362770293528 71.16693379292597 M226.89815205146914 98.60462997514917 C236.62314407563028 88.49689556766151, 245.12234658130546 75.97310215254882, 252.09549907022134 69.79227261854692 M231.85537934236143 96.12505217260666 C240.5539131008486 89.99211783817208, 249.5791185743823 76.95540577254314, 256.61393060443504 71.83313766898331 M233.0308357662353 98.43966213478923 C241.12140465561384 89.82263782990236, 248.26311903960467 80.4132027310043, 254.8140584925031 72.80529053801831 M239.78296386241908 96.34285010075203 C242.78925761474366 91.85280851913843, 248.13196694413207 85.63705697399836, 260.3938581909654 75.13286153088612 M238.14112054943573 95.71921663223799 C242.6976240080986 90.54086470759795, 247.01290183724254 86.06692950881421, 259.89785198871493 73.987595096352 M250.33497552647597 87.1624171611309 C253.93835736195908 82.94516558118426, 260.9954313733699 76.35933509626324, 261.24287792122993 73.87644357676456 M250.87477613825698 89.123597697988 C254.3604074223446 83.16832135060004, 258.69114816803796 79.25516332472651, 263.4899611209371 73.88080450704119" stroke="#a3ffa3" stroke-width="1.0" fill="none" />
  <path d="M141.50218802361326 32.23717316684976 C171.0016855840606 46.346567364873295, 203.78572121391898 54.62555575500578, 263.44257809173376 72.78169680327048 M142.80214751049962 34.94984618990072 C170.13780850106204 42.17092684697796, 199.12458187871766 52.0398332837796, 263.0278612296899 74.75981298807774 M265.70852726508963 73.21613568032909 C255.9776741745557 81.12517057179761, 251.525948689949 86.64930623867208, 243.44068216392884 96.82734641505076 M264.35926514697445 74.91135843821964 C256.34736039418505 81.90409431899414, 251.09220723459876 88.11727124722373, 243.33063393785295 95.43830599536815 M241.77839418568016 94.15902362723563 C232.168148985358 97.26792042205544, 220.12084494499746 101.67680516831244, 201.1479201138624 106.19438525944764 M243.39819401329396 95.74038945328616 C230.13363309829552 99.62130254382963, 215.81469341726887 101.85912542914026, 202.16931781004996 105.61913939651312 M202.1496931156065 103.85805442249166 C180.93895366776178 81.44034555781857, 162.93505602551824 56.66064677082015, 142.7192621117797 34.80605687721789 M203.15548197801792 104.69901172700656 C179.7579970307202 77.02438174864027, 156.27570569853745 49.13704878068275, 142.9619357573025 33.374759405603214" stroke="teal" stroke-width="2" fill="none" />
  <path d="M419.6888792916687 20.0 C453.9328420719698 48.97510045972996, 495.97069582191864 69.39418223969913, 579.4820799041751 101.30698028930142 M416.2606680941988 25.22627975680936 C455.53314615503587 34.80366816011888, 488.52560176280315 54.380710419555086, 580.0 107.22613185391747" stroke="orange" stroke-width="20" fill="none" />
</svg>