<svg width="600" height="150" xmlns="http://www.w3.org/2000/svg">
  <path d="M21.611672328209348 100.76923280034602 M21.611672328209348 100.76923280034602 C50.395923858878305 20.0, 99.98252904965261 20.3648931328397, 132.53715588324974 101.53381839669528 M20.0 99.46835778997391 C50.483976683694195 21.770595512923812, 100.11235767512213 21.540962262716388, 132.53832327928782 101.9033087950201" stroke="purple" stroke-width="2" fill="none" />
  <path d="M368.8363873233121 69.17050414319235 C368.3927482986261 72.04659756444048, 365.86028233621374 75.41383512013616, 364.22515791318403 77.85359371737206 C362.5900334901544 80.29335231460797, 360.3623271367702 83.77799018164077, 357.93555783644746 85.43556145809839 C355.5087885361247 87.09313273455602, 351.1048864147921 88.22907325679219, 348.04669591103243 88.90406889375622 C344.98850540727284 89.57906453072025, 340.63752251813276 90.15538966799119, 337.5476211447167 89.93553237119197 C334.45771977130056 89.71567507439276, 330.1463658451744 88.63696815807252, 327.4473534215917 87.43835358176146 C324.748340998009 86.23973900545039, 321.4969011438505 83.630000193051, 319.5542049874987 81.94476852911824 C317.61150883114686 80.25953686518548, 315.25476960381775 77.064669728246, 314.4960457125799 76.20347582220971 M369.9579066483853 68.94328052473656 C369.56321533005934 71.62444040648994, 366.50467398619986 74.0378488290683, 364.5586619231095 76.63879620866233 C362.61264986001913 79.23974358825637, 359.6067759685129 84.18779858639404, 356.9844928944494 86.28292972203023 C354.36220982038583 88.37806085766644, 350.06067798317946 90.14798852051199, 347.0767747626859 90.6063371129037 C344.0928715421923 91.06468570529542, 340.0478931070351 89.86619042951425, 337.09180475782546 89.3385870046417 C334.13571640861585 88.81098357976916, 330.2048847371256 88.43172774675577, 327.36951910128846 87.08898094708672 C324.53415346545125 85.74623414741768, 320.1203881938842 82.01976744224633, 318.1893671855779 80.38694167351477 C316.2583461772716 78.75411590478322, 315.0500439335296 76.83099569990547, 314.4960457125799 76.20347582220971" stroke="green" stroke-width="2.0" fill="none" />
  <path d="M379.5652810104073 76.259810721117 C381.42908006258324 75.3275506682246, 382.01391422131445 73.5163448245516, 384.4417494063408 70.77297918991458 M380.1228398636772 75.55549253957567 C381.12301654194926 74.68206103279996, 381.87909226230533 74.11866683595328, 384.64496229067583 70.80124294398945 M382.0261043705921 80.89725266570538 C384.53582434187734 77.6751773632076, 386.58364352200226 73.33445238310881, 389.5515390504507 71.92080223696144 M380.91731199628134 79.69754245502037 C384.58545310497885 76.93592692140498, 387.1055067888527 72.80803285328601, 389.4379291242522 71.10865955301733 M381.05684670777197 83.91404680164621 C384.56468081091407 81.28620344190705, 388.8548197864899 76.01381269001675, 394.9185845180086 70.5166543381339 M381.84823235147087 84.82570574443102 C385.78800444240164 79.83717118003474, 388.5704093888904 77.25765360154202, 394.1863538988176 71.70456147160051 M385.4003795017648 88.83063086488123 C386.56865697266267 81.28546272109858, 392.3390895487964 78.83956736008813, 397.28834048608286 71.1520411392464 M382.8823464966348 87.30090612542283 C388.2151444851349 82.73840949670702, 392.8912166345951 77.01845562764748, 398.09726135234297 70.43161313980728 M384.1897702737777 91.79155938926279 C391.5941020105814 83.58986344093981, 397.48411060809167 78.31160308612202, 404.2567398481746 69.70854605057629 M385.4056207613851 91.09935553265193 C389.7990401971485 84.11954905651967, 396.7573149561295 79.39638132648443, 403.12391513033515 71.13982984993096 M386.5329064356069 92.72780970499718 C395.09082729498766 86.6123935157021, 399.260829938018 81.20073193046385, 408.3616391376761 72.79400196360427 M387.4193492829448 93.16538959559442 C391.001017850766 88.75572073854313, 396.0640276131612 83.57434151661133, 408.10932299605344 71.89734948566615 M390.9710693140482 94.96584169669995 C394.2804359745024 88.33188961248955, 400.2462521861973 81.63569320704228, 414.0073664435801 72.80026414884894 M388.6990301145625 96.72369595580665 C398.07802075695867 86.78780218073283, 406.1295815226538 76.4819255689543, 412.4292679728337 70.7035861533571 M390.68193359407945 100.2671883119137 C398.52465657765947 93.43427408694384, 403.0951440023348 86.54373325812384, 416.1358631979367 72.03781999005055 M391.24927536087546 99.0469414270405 C400.42727702360486 88.02397076455323, 409.48651462497025 77.62772951007341, 417.7899445878079 70.98985383962597 M395.8910232082992 101.41823809359542 C400.7626882908209 94.65160719682463, 407.9015867393393 85.44030894982437, 420.76784280579494 71.33855160375671 M395.5338847652719 102.13268135765122 C400.34832478317674 96.0267236511237, 404.2559935145487 88.59515926639824, 419.1347325554165 72.74338362538334 M397.2990904908369 105.50226342547136 C402.5441445425276 94.91019595984278, 411.5487010414488 88.82604695936571, 416.0475223248597 81.18133127855566 M397.5899129431432 102.88187597789897 C402.4364895710998 98.91801134839632, 408.1873443767934 92.75947771679525, 418.35144644196953 80.606698728972 M400.4453331554456 103.9609151869292 C406.42928341912847 97.78788946451478, 412.7195600064788 92.80491813121444, 415.6279492132448 89.28916809489876 M399.4597152973889 105.75145987525721 C405.4302762503039 98.31604811023048, 412.01123615769956 91.87166282270383, 416.471142140175 88.83919889981792 M404.09007863598225 108.71711528723179 C408.13784703619217 104.63288802960376, 411.42625133024507 99.9089181952289, 413.9748888282916 94.97690372964705 M403.5728961865933 107.41854224897814 C406.45219605939576 104.5259401017512, 409.6682250013183 101.66382020041583, 413.7316520368136 95.53102892413372 M407.31680636304475 108.60838993388539 C408.5851083886505 106.94318115163495, 409.56504291962096 105.83226011738346, 411.82974230559705 102.63126886060813 M407.43271802394355 108.47193072986171 C409.04894244288073 106.15700814663359, 411.0787028595246 104.12559846844279, 412.2908574861773 102.16597379072758 M410.769732423164 109.71767107960825 C410.7790352930562 109.71524852134634, 410.7855116208293 109.70180676989933, 410.8049378366115 109.6915426897279 M410.768679368998 109.72032424645128 C410.7827050731325 109.7086545549248, 410.7947377680442 109.69440617387761, 410.8023722374919 109.68874542687078" stroke="#ffdddd" stroke-width="1.0" fill="none" />
  <path d="M414.3691336683724 109.88249442113268 C410.5974520724869 109.95074590052992, 404.89641295935024 108.43058918744715, 401.3405021511284 106.57561501485526 C397.78459134290665 104.72064084226338, 393.56397986892347 100.87985705931861, 390.6630616135604 97.5159999371868 C387.76214335819725 94.15214281505499, 383.4552995795158 88.07258323129521, 382.0010471153743 84.14990086730987 C380.5467946512329 80.22721850332452, 381.21525408515015 73.34308875117493, 380.96804518595104 71.36478417728449 C380.7208362867519 69.38647960339405, 380.4452463971656 71.02174077842692, 380.35298778737996 70.96120370804029 M412.5204015057427 110.09576407252574 C408.64914136030455 109.87277914234369, 402.05766118667765 107.20913092511567, 398.6074599680185 104.96332793992154 C395.1572587493593 102.71752495472741, 391.93003147858906 98.5109099228164, 389.519060048015 95.12374417123148 C387.10808861744096 91.73657841964658, 383.90922793662014 86.00660399883417, 382.5343170975249 82.38222292935548 C381.1594062584296 78.7578418598768, 380.68018718390175 72.67435659123755, 380.35298778737996 70.96120370804029 M418.22056552168215 69.85892151358004 C414.18523133646886 86.57619005364504, 412.2547881391854 101.5871131044843, 411.2525380686591 110.58896972143776 M419.322717385627 71.67381002629307 C418.8846975353248 78.89605664358736, 417.0221432967139 87.02862646083233, 411.5474246632116 110.35576274096684 M421.79348221709324 72.6483106571244 C410.4599787626458 69.49374239391646, 403.63816236069465 69.82369222953108, 380.181829249142 72.35340268666319 M419.11123347780705 70.67681048615702 C407.9748284159824 70.72471129712437, 395.50723099411545 70.49138317085311, 379.86037504701534 70.05980648527878" stroke="red" stroke-width="2.0" fill="none" />
  <path d="M530.143072882397 80.51595255186892 C530.6061561727596 83.36326151128432, 528.8652079099468 87.3803616603965, 527.6733500071858 90.23766846360748 C526.4814921044248 93.09497526681847, 524.0007194744901 97.21502102994441, 522.1973535306571 99.56466457327541 C520.3939875868241 101.91430811660639, 516.6328768539864 104.95136462559994, 515.6509103816327 105.90195875248074 M529.1612955866902 80.77427176623205 C529.398916845279 83.81777572409813, 527.0803010186362 88.70624196313426, 526.2192986905311 91.67425614122025 C525.358296362426 94.64227031930625, 525.0065383123243 98.42687756178294, 523.4212800659897 100.56103295347202 C521.8360218196549 102.6951883451611, 516.8164658342863 105.10081988262942, 515.6509103816327 105.90195875248074" stroke="blue" stroke-width="2.0" fill="none" />
  <path d="M540.4160741819354 73.48165361640201 C541.3114211935781 73.10942265285894, 543.6759581561563 73.28678703194822, 545.210753757775 73.4587048479267 M540.1883646153448 73.64245560723006 C541.3281247798297 73.71774138527104, 542.5080644659741 73.68581564715356, 545.2746484473093 73.30265669716808 M544.5635379957632 73.5069353839096 C544.8097315541037 71.32251082247603, 544.6103221283859 69.6610466094815, 544.4829720021926 68.5817069342653 M544.9444560575713 73.39852306037999 C544.8588012908186 71.97430594560687, 544.6735095347461 71.29316890577404, 544.6592775116153 68.32803425355179 M544.868389721551 68.79510548498699 C546.0556512000111 68.06160323548798, 547.8241951479673 68.03090363204548, 550.0857446317901 67.79766476838473 M544.918734520257 68.52091920261736 C545.753230817812 68.31160726142951, 547.0240685911629 68.40529059476307, 549.4338468234178 67.84459144867952 M549.5538508544016 68.10167207998906 C549.221193181606 66.31331321161299, 549.7349041140998 63.99295414495742, 549.4426463116465 62.841180805604864 M549.5418602086651 67.91682336382021 C549.3346131991782 66.00858517688224, 549.4536569008444 64.00316698108068, 549.0581216912439 63.32310117529444 M549.0185360313801 63.44740140602366 C550.9468084241889 62.705810561911704, 551.5741455941607 62.5262547946149, 553.9533603139853 63.17021480157656 M549.4878700723112 63.05926699573804 C551.0162038516784 63.00529275662129, 552.3168139179688 62.99087286438399, 554.3814206132291 62.78492875277884 M554.0556170204413 63.29054783497324 C553.6288064073117 61.53778159313708, 553.6416499217587 59.55487608529903, 553.8734799379905 57.463314664214224 M553.9707787092809 62.58581144028433 C554.0914284106863 61.627286199364875, 554.029876070693 60.20526792003618, 553.9868217840179 57.86001672531914 M553.9931643343282 58.256923467930065 C555.2026676797025 57.57828918166966, 556.6733173522156 57.94185490295483, 558.549346010534 57.815995967151 M553.9825528778961 58.06521646880165 C555.1575432483733 57.98307739382713, 555.9733908317689 57.672955829830556, 558.7482144962145 57.79047861058129 M558.9218295996907 57.24524177222065 C558.7808632045812 55.70373789263469, 558.6280876780623 53.86462059376963, 558.7993737250777 52.201513626900734 M558.6634851184978 57.63294684419236 C558.8502455283567 55.95371318250035, 558.646389745104 54.3209225702264, 558.3884859865641 52.74264006368725 M542.7843125127832 80.83957953458197 C545.0012055592231 80.77608748248002, 545.9795484568035 80.85147831225676, 548.000114176747 80.15993468015508 M543.2691995214082 80.9978471119483 C544.9232637226405 80.76422455287751, 546.2144138927464 80.6156015182047, 548.121224205369 80.38306043426385 M548.090784601028 80.94749329158891 C547.8986674065309 78.68294848396414, 547.8645952701439 78.02285001576367, 547.7035295553306 75.64726861999519 M548.1468323665158 80.63423517175465 C547.7736148077776 79.20264045946791, 547.6860508669063 77.94019626599535, 547.6014580771531 75.52646691185396 M547.6948008365534 75.72297626156926 C549.8285200653017 75.38161291567472, 551.3032947870357 74.95950489841782, 552.163093126225 75.41889206912897 M547.45857658526 75.8281437003722 C549.0512871819988 75.72689215735558, 550.5682007817367 75.17300624085667, 552.7510518549988 75.0083796560769 M552.876579335577 75.7084344463271 C552.4723597135632 74.46504790692825, 551.974890424674 72.70213472558764, 552.0736287215929 69.99259629110566 M552.6026713375178 75.48810877936697 C552.2967011139394 73.81239947261571, 552.5820622946155 72.51655943897848, 552.2843825775998 70.24799609336996 M552.5061765346129 70.4551046539107 C553.7355194420791 70.52728654199566, 555.1881550630535 69.66729705594128, 557.033508327081 69.90880415962539 M552.3260457758079 70.24772165668355 C554.0069607830151 70.2622915623008, 555.7853991122481 70.07995739220915, 557.3283542153292 70.22045134264457 M557.0890070480145 69.64990423840003 C556.8983779851931 68.1031507071517, 556.7611327327954 66.54261107490528, 557.3069943958438 64.69457624556684 M557.2494940002823 69.95183181692536 C556.9703236404018 68.27481144678335, 556.9282695295186 66.35345191710934, 556.7021874174804 65.19290867949265 M556.9761827006515 65.51480929665087 C558.7381589665583 64.7763960943498, 559.6749708336246 65.06170055735376, 561.6854378832328 64.29384251410397 M556.7189719604552 65.19016878934883 C558.0101516677759 65.21961742813086, 559.2675341881356 65.00024420257725, 561.7113496600585 64.89783058670136 M562.2220047748609 64.93452929788813 C561.8171548479008 63.550791743681714, 561.4316085718249 61.93580790883536, 561.4722252099575 59.950626500373986 M561.8953816012033 64.9100277082682 C561.6503829841898 63.01571661814967, 561.3926236751204 61.0412594535707, 561.6031460026206 59.90234659774397 M561.3320955081399 59.441214554108825 C562.5286897186455 59.440203213948124, 563.7618853443236 59.139484247039036, 565.957036611443 59.893541083424154 M561.5201298161984 59.92069058275119 C563.0673522066727 59.75979846771138, 564.7415019087157 59.550600780672596, 566.1923381865854 59.66333787914873 M566.6804848300853 59.37572948336209 C566.6102871185998 57.46515112443599, 566.5192512288041 56.19387278932945, 566.3420771529405 54.339491682656345 M566.4715532780552 59.46670648750181 C566.3062393922384 57.73664669107913, 566.0860785941045 56.07712989564382, 566.1957749451385 54.33965606741755 M547.9398385687283 86.40110011091814 C549.2819862181312 85.79806120827855, 550.7808918713628 85.62951563942666, 552.1688155798595 85.6956207676496 M547.7392728135121 86.43775132275076 C549.140666919653 86.00873299327837, 551.1281406893485 85.81936790848233, 552.8191303849202 85.6630777727083 M552.4867561841746 85.65603694156447 C552.504644372016 83.78415518860028, 552.1999420804016 82.16682740521186, 552.0901559083145 80.59494267007966 M552.664968191598 85.89092581517286 C552.4838918796713 84.69115008493742, 552.1717382071182 83.10958031489156, 552.0854390809579 81.1911319099924 M551.9512573224944 81.12544823050662 C553.6045471299811 81.091093491238, 554.9781189488793 80.5388297375662, 556.9318758122939 80.2902871255601 M552.3735307738373 81.05940220658441 C553.8540907362108 80.69472684386363, 555.3154278711388 80.62420757840528, 556.9904691663182 80.73309634723257 M557.2891487640808 80.62308786648074 C557.3177724898991 79.57114694060326, 556.7549738265375 78.11610690600845, 556.8957074439656 75.42915742892129 M556.9296521183423 80.67384004032441 C557.2270461562163 79.17818666642825, 556.9594681030079 77.09768923364963, 556.9016549718654 75.52461464778935 M556.3875128421212 75.32203193435993 C558.4645970847434 75.3782978002903, 560.4043010630188 75.91425132236539, 562.2055107902868 75.66204138472361 M556.9605881730894 75.6856300854474 C558.3182383163784 75.65718735255781, 559.9281004395638 75.51645940705939, 561.7135871258132 75.52980065494351 M561.2514909235706 75.16577802963452 C562.0919197930059 74.49612718781403, 561.867604645128 72.92528593948431, 561.0618991958567 70.86461955682111 M561.8465658736409 75.17997088940167 C561.564794602737 74.11467200325454, 561.392431919183 72.40946018664513, 561.2855031940604 70.38731712902455 M560.9990637730249 70.42778647134179 C563.1620308686188 70.5054101489256, 565.2309808644893 70.66598887101343, 566.4408333247516 69.6563324574717 M561.569989767174 70.33003597572367 C563.3812557443013 70.08335340160706, 565.4000777779515 70.20206222553891, 566.4118762090599 70.03705542410394 M566.115198542974 69.79570383781862 C566.5320663289846 68.60657601519799, 565.8296104391242 66.07875556565452, 566.4220691330596 64.91174248833548 M566.1239335515105 69.95575949736426 C566.3812451124784 69.059050852999, 565.9486381107534 67.63496750516558, 566.0502680927265 65.2749019573665 M566.2780224097628 65.46191921896133 C567.7847908694414 65.45684500697969, 569.4831726318757 65.24562323827475, 570.7068170921324 64.99530538192367 M565.827818186421 65.37255250707182 C567.6675082007605 64.92182394182171, 569.324106842314 65.19935310353313, 570.7174674924067 64.68428358962284 M571.2808232150427 65.18186438708226 C570.9515045450343 63.112026590725804, 570.9037508366409 60.71576510120131, 570.1212105700448 59.73536591379917 M570.7623495610179 64.61640955140342 C570.9342636024755 63.15854673873298, 570.6029748586272 61.88385973164637, 570.5324155888061 59.87107743054469 M554.7887459990568 88.3989050061445 C555.8082856431658 89.04880470989309, 557.8856745138021 88.38706066533875, 559.9988904864845 88.57279902411683 M554.6620327930725 88.79928213196216 C556.3051130536888 88.76293281065207, 557.7377804149495 88.53230203481887, 559.6611945739573 88.73949967662041 M559.3365539822751 88.74753410692784 C559.7774785724907 86.93860567346171, 559.7033804301302 84.75951759959628, 559.408604899027 83.49674188740656 M559.7284368400702 88.42573138345496 C559.2763020853612 87.32059615663515, 559.5164480981526 86.00143889610646, 559.203258553806 83.42330801861584 M559.230863128691 83.89856252644906 C560.3486998446798 83.61368838901625, 561.1363923049862 83.6941432247378, 563.7748759377946 83.70606824509039 M559.3776136683705 83.76371565758859 C561.1292388226766 83.44101027840858, 562.9710365625921 83.54192419474937, 564.0648201703253 83.24575471079909 M563.7229405268129 83.19344021666146 C563.8975076118747 81.95457222544366, 564.3752603535304 80.54996563080267, 563.5852581385857 77.96732595511558 M564.3618802418624 83.30111552231791 C564.017039729422 81.67584921062725, 563.7419098519325 80.71451195786337, 563.5980285943754 78.08443748426207 M563.6138641377063 78.61735236359405 C564.5360039284477 78.24154234443229, 566.1872353059072 78.14814652262585, 569.0206893770669 78.36221894482614 M563.7971932660048 78.5513223104225 C565.3516111199239 78.20826292399467, 566.8520633310515 77.96870935135578, 568.6601170093692 78.0716382307063 M568.2807094100681 78.17666348806434 C568.6858519304418 76.35460094778722, 568.3380625394705 75.52490686984532, 568.3179614104853 72.72471254431358 M568.7540381245587 77.86559024410359 C568.6804055926422 76.9948264865083, 568.7338873921468 76.08962436014127, 568.3009146875397 73.11877280098739 M568.570464315821 73.13421376064112 C569.6593296489348 72.51364307834348, 570.1779748518104 73.32720227133356, 573.2388760611537 72.27799967353741 M568.264835296397 73.05012682213173 C570.0551741066014 73.12211756030877, 572.1588418019761 73.05633225543687, 573.4829940177443 72.69738880877499 M573.6742026493798 72.39577078606709 C572.6983479321175 70.94067648287661, 573.2894828085034 69.87767798587947, 572.6854523554916 68.09860080583597 M573.3105249265062 72.64310736069521 C573.245224568163 71.01807539099589, 572.9087765975988 69.18263824359173, 572.9650650011775 67.93594788687072 M572.9214187751932 68.08244041324731 C573.9170391086855 67.30311643688044, 575.3025281997847 67.69966502638255, 577.940868061736 66.98362161968575 M572.9256844653422 67.63749540112883 C573.8909420686081 67.54964592670845, 575.1573364997781 67.7641582063747, 577.933973806188 67.30411188674964 M577.6286995439723 67.0987638557645 C577.4988640506632 65.5879741730422, 577.3994461937563 63.32179290792797, 577.3174792963822 62.25277235407711 M577.9013602290803 67.23993297987367 C577.9262700087743 65.64446035503649, 577.7995321904855 63.67599721993638, 577.265825762184 62.76223306909303 M563.2267382833808 88.80367911182978 C565.4328139706656 88.44859934442077, 566.7837715520983 88.73444218587932, 568.5569223153325 88.33901299337526 M563.7690706545774 89.26267318611004 C565.1488154823078 89.0808720298748, 567.0796982349028 88.62858414751662, 568.5413963917757 88.84309886895609 M568.8992210477675 88.45713562917229 C568.3810967551078 87.2842187967173, 568.0465452133409 86.09275736079623, 568.1398053756923 84.16993889407522 M568.8297745590204 88.70541391063776 C568.436194561002 86.79065127335686, 568.3947309246029 85.03449122978196, 568.1968681167482 83.6807361521918 M568.4070437219734 83.33465523579098 C569.6719234921932 83.93313889161124, 570.4788016540542 83.54850628521942, 572.7344762734012 83.4372231089293 M568.4103568422211 83.91424292795965 C569.961812637407 83.85589332242928, 571.2947579343775 83.72841911788892, 573.3272741322706 83.496614145239 M573.4861254623283 83.14999206164057 C573.0954905516978 81.59560446996478, 573.1093761760067 80.07393654201752, 572.4285289459142 78.78174652737836 M573.4143683601167 83.33205677750901 C573.1946199937851 82.19833678890083, 572.9729110474678 80.56194896918187, 573.0322586860564 78.444578572235 M572.8411175872441 78.94999782440628 C574.533460604876 78.19549450804104, 575.5177185171364 77.95013526791213, 577.8447760371398 78.39789552119518 M572.7195992506571 78.78255684123879 C574.5373874886635 78.29986683483125, 576.1332640343234 78.48521734040796, 577.9120385562301 77.95522734442783 M577.6220449688116 77.74584490140612 C577.4320942754402 76.97978101770649, 577.7961430165589 74.50973913510738, 577.1997158402921 73.30266137459576 M577.6706140185446 78.07590039079201 C577.4864413450952 76.72761231911106, 577.6725178325428 75.2297309042769, 577.30865638186 73.36769791889068" stroke="#ccc" stroke-width="1.0" fill="none" />
  <path d="M554.5272469689794 51.63874007509362 C557.9344485374627 50.29374290093401, 563.110741015872 50.90632983340598, 566.58667655858 52.52346499645547 C570.0626121012881 54.140600159504984, 575.817766737334 59.05849793820511, 577.7001505870331 62.419641162090315 C579.5825344367323 65.78078438597554, 580.0 71.19433280764123, 579.1359022232409 74.93108648902357 C578.2718044464818 78.66784017040591, 575.0717919350819 85.04134686845642, 571.9394987419727 87.33133237130598 C568.8072055488634 89.62131787415552, 562.3059641405127 90.51860415851996, 558.2539476025128 90.19765650802061 C554.2019310645129 89.87670885752125, 547.6888098836453 87.7740566202632, 544.9260551553066 85.19168136797698 C542.163300426968 82.60930611569077, 540.2232164335494 76.68635482949433, 539.8355827469218 72.98182149277922 C539.4479490602941 69.27728815606409, 539.8878311971994 63.68295507955111, 542.3418305777889 60.49479245654287 C544.7958299583784 57.30662983353464, 553.6971200217037 53.10606757550744, 556.1955786175185 51.72740400605771 C558.6940372133333 50.34874043660797, 558.9085586820421 51.06142910173759, 558.9982212165546 51.303701993544635 M564.7788278184445 50.27792940154491 C568.3877990255737 51.25694946217541, 572.2160053703775 56.48660736236559, 574.2084423374874 59.92294609802889 C576.2008793045974 63.3592848336922, 578.250862318746 69.43164565018361, 578.0617409325109 73.18685430596695 C577.8726195462758 76.9420629617503, 575.5420127406649 82.37150473362806, 572.9476330959203 84.95767046991786 C570.3532534511756 87.54383620620766, 564.4532672570557 89.93362730891724, 560.7658766342139 90.42795921456565 C557.0784860113721 90.92229112021404, 551.6177042518741 90.24724862716636, 548.3650289436415 88.25321650757382 C545.1123536354089 86.25918438798128, 540.0655811612511 81.04402324452333, 539.08137457933 77.13441175061543 C538.097167997409 73.22480025670754, 540.0903139677408 65.67641665729603, 541.8036517308346 62.18913988152114 C543.5169894939285 58.701863105746256, 547.0723998765792 55.42128499045893, 550.5036263332888 53.88589991211619 C553.9348527899986 52.35051483377346, 562.8010840673736 52.48785809341483, 564.6784947755657 51.95323935923622 C566.5559054837579 51.4186206250576, 563.110842727066 50.07992084573726, 563.0196977212363 50.32177501759212" stroke="#000" stroke-width="2.0" fill="none" />
</svg>