<svg width="600" height="150" xmlns="http://www.w3.org/2000/svg">
  <path d="M20.0 20.0 C82.41916334171329 31.68765039737713, 142.53114318002585 39.145259889729694, 207.40035459888128 52.195969810069215 M20.496304122597007 20.260496102255352 C77.07881796951037 30.17239784356107, 132.62756706601786 39.97379631696148, 208.66736754122266 49.79480748778849" stroke="#000" stroke-width="2.0" fill="none" />
  <path d="M211.56868484454046 53.23362217147162 C232.35049123128283 61.67981719765615, 263.3479676178856 65.43015893448093, 306.7666302362491 77.71105971761946 M207.14950276115758 50.28525566825678 C234.23507319646046 60.17113758359193, 260.303273310886 68.21850539608631, 305.7175964724376 80.5649308619034" stroke="red" stroke-width="3.0" fill="none" />
  <path d="M326.069802028618 30.643542840187525 C355.7196331390229 31.01243109397292, 386.1392747246393 31.21314252322892, 405.0643646440742 28.921945059802734 M325.1871394538911 29.957660135081152 C356.1125775524928 30.12256223340057, 386.4277276551999 30.00371225956507, 404.46660345409566 29.787502362417207 M405.06404972949974 29.122261426049768 C404.8306837476082 64.38595207669843, 401.84464729448644 96.8749634482835, 404.40756364956184 128.79540519849164 M404.21227315459265 29.65358016322849 C402.6414899798178 59.9643223968947, 403.1307495121254 89.15495862980815, 405.6882663096195 128.350893575881 M405.20771156457755 128.90672638805756 C372.95626118948735 130.0, 344.5406619078648 127.97139928265962, 324.5336928634156 127.3450234918874 M405.06264237238224 128.14638977021306 C383.823244047666 129.0771731005792, 364.823527090781 129.07613548439292, 325.5508054829497 128.24258459824722 M325.0772249346833 129.63485233488728 C327.4818639703013 97.16602870216322, 328.67097524099376 67.70857494732373, 327.01990873330647 28.71888351834663 M326.3801239455831 129.56591059493812 C328.7609369774887 104.73378250316172, 327.9739342845831 79.28938187564577, 326.73999497216676 30.959102258417314" stroke="blue" stroke-width="3.0" fill="none" />
  <path d="M447.80719704185793 47.33236726636022 C452.1675127821299 46.068503053453384, 459.62509847814823 47.16452207239658, 463.84853657274834 49.0838447682484 C468.0719746673485 51.00316746410023, 473.78655283181956 56.20177797989196, 475.96345100585876 60.12785190537238 C478.140349179898 64.05392583085282, 479.37181884124465 70.95941734769266, 478.3611910663431 75.25767093811798 C477.3505632914415 79.5559245285433, 473.1408586491277 86.00770398755972, 469.2259325065149 88.78287584154116 C465.311006363902 91.55804769552259, 457.0971242323706 94.11115586840415, 452.2616834489238 93.75881663132756 C447.426242665477 93.40647739425096, 440.6281613649084 89.67040291026278, 436.98966061686957 86.43394759436383 C433.3511598688307 83.19749227846489, 428.481697140958 76.55620263991771, 428.0050117953316 72.1824478586679 C427.52832644970516 67.80869307741811, 430.34364094680524 60.984104261560105, 433.81175831269366 57.27558238603186 C437.27987567858213 53.56706051050361, 447.755669800529 49.12117303527799, 451.1257942345879 47.45896868847959 C454.49591866864677 45.79676434168118, 456.2132206134647 45.88955138359708, 456.2792545397532 46.19422007404245 M463.1962503150907 46.56578213512567 C467.4822323688831 47.73975554388002, 473.50980214443405 54.75536066684286, 476.04946351028474 59.05742275855091 C478.5891248761355 63.35948485025895, 481.07166791595097 71.0134827313341, 480.12732608742897 75.24619607984596 C479.182984258907 79.47890942835784, 473.5076090580708 84.66086421942214, 469.75385132013827 87.27551174863008 C466.00009358220575 89.89015927783801, 459.8144604579321 92.76712083053629, 455.10227450121226 92.67717960789885 C450.39008854449247 92.58723838526141, 442.28351185175137 89.44620756586241, 438.33927827533967 86.6759035977138 C434.39504469892796 83.9055996295652, 429.90652075249074 78.64534656514535, 428.80738399180086 74.20848648690816 C427.70824723111105 69.77162640867098, 428.36985882985203 61.135815766611074, 431.011699870741 57.09683640946592 C433.6535409116299 53.057857052320784, 441.5605456071774 48.75380186629968, 446.4196575977271 47.28195743927387 C451.2787695882768 45.81011301224805, 460.91684758267996 47.34844738797355, 463.40577980773907 47.284540229293825 C465.89471203279817 47.22063307061411, 463.3476534734112 46.618455407627565, 463.01253909812107 46.855909714742396" stroke="none" stroke-width="0.0" fill="green" />
  <path d="M458.314586721866 45.815557896235006 C463.14827230823477 46.19433826036541, 470.38929294606 51.50480268144648, 473.6469157670661 54.911804931176974 C476.9045385880722 58.31880718090747, 479.9669135159661 64.1560509144175, 480.03207219524 68.52890622777166 C480.09723087451385 72.90176154112582, 477.2244792790059 80.22997629239264, 474.081306962225 84.06417368687138 C470.93813464544417 87.89837108135015, 463.8270787008954 93.18431720418323, 459.0775900833676 94.09022219096332 C454.32810146583984 94.99612717774339, 446.81833744180875 92.54378216389567, 442.41804951204006 90.10354026540524 C438.01776158227136 87.66329836691483, 431.6939759769315 82.11419177985185, 429.74233721824316 77.82194286769388 C427.79069845955485 73.5296939555359, 427.82382749601857 65.69573887748507, 429.40712445411793 61.48854751768549 C430.99042141221736 57.28135615788591, 435.3146696315945 51.715591924046294, 440.2976502722392 49.774000469030014 C445.2806309128839 47.83240901401375, 458.2798250832878 48.312342669700286, 462.6269953917493 48.54460448424369 C466.9741657002108 48.7768662987871, 469.438520708935 50.936428772631444, 469.27878566198257 51.322412565986056 M445.5945944896005 47.269452647199614 C449.9053159417243 45.731083707473886, 458.60502765644924 46.677992989387434, 463.375342277761 48.59245155727666 C468.1456568990727 50.5069101251659, 474.9805213751945 55.893461749089795, 477.39669196501194 60.0325097664612 C479.81286255482945 64.17155778383261, 480.76661816213937 71.98714864742414, 479.4831462098776 76.18610500641934 C478.19967425761575 80.38506136541454, 472.7878443371557 85.2132210983472, 468.84021228326674 88.02555215976253 C464.8925802293777 90.83788322117786, 457.90307367939135 95.03051373995238, 453.1655991839511 94.93497874918823 C448.42812468851076 94.83944375842408, 440.9855464767823 90.44932854065517, 437.2570489803312 87.38865222133485 C433.52855148388016 84.32797590201451, 429.1139128731963 79.17340716692526, 428.30894920761034 74.53046995371936 C427.5039855420244 69.88753274051346, 429.39396037376383 60.373734305366156, 431.89062454309146 56.43573746662884 C434.38728871241904 52.4977406278915, 442.8149321437021 49.619080557460606, 444.95337700312757 48.27715769547051 C447.0918218625531 46.93523483348042, 445.63827206460826 47.43036865149523, 446.14692360592835 47.48958505336158" stroke="#999" stroke-width="2.0" fill="none" />
  <path d="M514.4628339767645 44.18921784394536 C515.3441433135724 43.15060620661116, 515.7200766705918 42.788906908176955, 516.9299345121187 41.01250003603745 M514.2671054429335 44.386431370826045 C514.8908507380057 43.89994836915071, 515.5818136182899 43.03287335049616, 516.7967687830766 41.06808080688674 M514.4113325200772 48.06807621858951 C516.3298132643545 46.9833178864948, 517.7505995603449 46.36444685908643, 521.03529718329 42.08186733871926 M514.852262842929 49.03720712647355 C516.8427898398826 47.113453456223255, 517.948733627249 44.846371004183965, 521.0677525112717 41.81378887975925 M514.8438846318431 52.09651010801039 C518.4634418759877 49.194756229849204, 520.2678533948368 45.68531558903615, 525.7169020933624 43.15836026104904 M515.8264982787537 52.53438863424175 C517.8309869290607 50.15561733703545, 521.2965465647854 47.70889809501227, 524.6225540906977 42.3054224930193 M516.9526100219887 56.95539535156776 C519.7588319007947 53.160015654209275, 526.2323550269322 48.58360057541165, 529.7214646654703 43.52233926830529 M516.6159029063988 56.48868853942359 C519.3156369100277 53.69825676909531, 523.1654550457529 49.62211875374105, 528.8997873113807 43.484900056618145 M517.0487598124475 62.803265027744416 C522.1942996491433 55.11497936399695, 528.1618527538308 51.12636599521622, 532.5957952178928 43.51633926755524 M517.309800497261 60.473863343161966 C522.9701953968198 57.29603093478211, 526.4489245306443 52.1447885351012, 533.1758436570933 44.401660508192066 M519.0588283984517 66.77301281123042 C523.602837625402 60.2212656566432, 530.6876215922972 53.97464068683924, 536.0195598768629 46.7530009908277 M518.173305137589 64.86968866801682 C521.8368423891098 60.17138093835182, 525.5920341158826 57.37301074808855, 536.8776220159549 44.34548905395954 M519.25896545953 70.95803866302187 C525.9417666432474 60.82264008975278, 536.1067927300976 53.08953028840948, 538.9530770582178 45.074857262983144 M519.6570976690795 68.929488956425 C528.3405614933919 59.379134914538184, 535.9002422560815 50.062415762750874, 539.7017335488173 45.02602026481371 M520.3850232038731 75.4051126234739 C528.2205665095266 69.40697338974121, 533.6428137386547 60.66293168058934, 542.5771276436892 48.18754638224924 M520.6947405970101 73.21098197600894 C528.6730882126511 63.44176618405028, 539.3684276781939 53.14200602151807, 543.6245318619149 45.7452978349197 M523.3034031494643 76.64448812522153 C528.0870824644945 68.7644756744129, 533.7618664300095 63.45438632858537, 546.7974178394827 46.37787724838239 M520.5756621455453 78.72635273568022 C527.8039099271724 71.45589767749459, 533.8886190954015 63.90331761836764, 547.8451450144343 47.11310253462989 M524.269721902685 80.68514814853442 C533.3378438118006 71.75891660034466, 540.2127165657221 59.42766527156107, 552.0407816984641 46.494742775243765 M522.6426048616206 82.47364939619177 C529.819211004935 74.40375172219274, 537.0374872428292 65.85932418953888, 551.2553208581344 48.40226731064334 M525.4778280939169 85.00247563309533 C536.6309901389021 72.97880445956231, 547.4028944374124 58.00618309822029, 554.2520799272144 50.116048879922076 M523.3561009714955 85.98926485058881 C530.9242849310846 76.58467623411664, 537.2053226262353 69.56838520193743, 555.2693890983767 49.599280464621884 M528.5708817675953 87.8658253143968 C538.1512513537441 74.72855309644305, 549.56500793642 60.54590293816028, 560.2203181605108 48.34176464403674 M526.8614015489048 87.23857386369951 C537.5150418933106 74.64325279116608, 547.587920515834 63.85645806290941, 558.836661089882 48.96168752884894 M529.7192126062732 90.37556771823351 C539.832747113322 79.7156725598962, 549.1055484451553 68.86663349887851, 560.7628278083554 53.4961737017085 M531.3310006759225 88.47682764850919 C542.4695210734733 74.09716595894932, 554.6203442051193 59.12068110365732, 561.7353264871692 53.14938950549572 M533.4580251381717 91.57810927074183 C544.0360275884941 77.91845001144394, 551.4433114833992 67.90017907682483, 558.8002702345286 59.65823978256661 M533.1758445272426 89.5029006322101 C542.0043946192416 80.7117600215716, 548.9032155435765 72.21863895341082, 560.9311913970722 59.9728284752438 M538.7428547065683 93.536652958281 C546.8611428894382 82.91716866864981, 556.3448694577202 70.9664222124652, 561.1141746718519 65.43042868370217 M536.9886271119024 91.76550292371437 C543.3663661181705 84.19906425678705, 548.9807250178749 77.40328777421705, 559.1437162205476 66.48070673444373 M540.3932159097286 93.84656375037183 C546.9116212261594 86.87787540187531, 547.9308430146211 80.91182506567569, 557.920276727911 73.71099047302019 M539.4588700937694 92.43005739863317 C547.8869100011673 85.91728303066083, 554.4461587791534 77.45211777330711, 556.8889079060268 72.636598086172 M542.271892148573 95.53187713750232 C548.580982207441 90.69353642043961, 550.654521017007 84.11424438907825, 556.9274235663167 81.86020197546031 M544.3210395256327 94.37970488816345 C546.6962420728736 91.30338366234812, 550.9300251519554 86.61714853823453, 555.6910450244626 79.67242632108137 M547.1735594857572 95.86744416606201 C547.844228938731 93.87563000408177, 551.4596084288138 91.83930975062884, 554.8549785070718 85.78460622339783 M546.7409471309269 95.90071223534747 C548.6624003515313 94.00598461770736, 550.8469861615004 91.89267225873564, 554.6211279697593 87.27421105158064 M549.341277734798 97.55737347191423 C550.6850784852227 96.60939053506557, 552.0093306681429 94.71432920195463, 553.8218904984308 93.4933009489258 M549.5899054926115 98.16824352976418 C551.0341184683608 97.0826056635588, 552.0713336516905 95.37953194300012, 553.9969954084992 93.75112793060701" stroke="#ffc0cb" stroke-width="1.0" fill="none" />
  <path d="M512.8532085352799 41.82840283618858 C522.8614501313507 40.990856038449564, 534.6643256613612 45.35251359690277, 560.6182927700767 49.71965815088909 M513.9721640546787 40.24870149080593 C530.8009929165191 44.560760885636824, 550.0505639131094 47.890218692613786, 562.4195487428664 49.55189772711945 M560.9608793951719 49.90993589338363 C558.8087155328717 64.88204407893697, 554.928125355788 80.43527281587357, 553.9296644169928 98.86827908767766 M562.4735334147741 49.447908661943075 C558.6246830749254 64.51243398914183, 555.3823085805868 79.23910192669594, 553.1772582626398 100.42857339388176 M551.8911035878193 101.48193857383544 C539.1155840383595 92.1766715015917, 527.1761898211353 88.23143664296485, 521.6640650779962 86.2914770516689 M552.5839272598984 99.38214050048036 C543.7507784477842 94.92376773002792, 534.3064534607417 89.25154893996331, 522.2604150158761 83.8937009351382 M521.7653131045427 85.2879741026258 C518.7207330513861 70.36498673846461, 517.770098353073 57.32652533296542, 512.5740565467909 41.33008970169445 M523.0045347590698 85.56080617954639 C518.9721701018736 73.27195150183599, 517.5777935083014 60.22771934763283, 513.183015615879 41.102738465818845" stroke="purple" stroke-width="2.0" fill="none" />
</svg>