<svg width="600" height="200" xmlns="http://www.w3.org/2000/svg">
  <path d="M25.21481171387029 46.314738845324946 C24.996190105152223 40.75390973653729, 29.82751105773893 37.3706552053217, 39.96323006757842 27.191673083995354 M22.781466765685707 46.66514835142944 C30.102549355069783 41.484426716611615, 35.741694334663066 34.04302445780127, 39.595358314440574 28.055258142574658 M23.412784396781433 52.301564485786386 C28.213324835098746 47.83893540733783, 36.97699926238967 37.98916249801683, 50.167561501612326 24.524572549345656 M22.594434913473094 53.814404988409194 C33.18560655029158 41.63701452619011, 42.01870022105187 31.593359056664745, 48.459318380072105 23.865743960482448 M24.92963333610726 58.510861220457514 C35.09970067685448 47.804405112423574, 43.663471292114295 35.815586040347306, 52.16056372499354 27.448677564219956 M22.5419091129652 60.09338588571205 C28.271729944182894 54.955956583131936, 35.432541750677146 46.55819366504688, 52.60128605701384 26.79237268679495 M27.06340161011491 61.89433049295312 C34.84270296767944 54.768180331857394, 43.833393801065554 44.14371841935722, 54.938828499277335 29.813351371064698 M27.453860130806987 63.64973119421302 C33.641233460736345 55.005165989431745, 42.42019404428673 46.14109822019386, 57.70199022743283 29.1649547606255 M27.685021127702726 66.30868542602467 C34.60816782154775 57.542841262796244, 43.61334809161124 50.416689286672934, 60.067666257276656 31.278555013329942 M29.431068079460843 67.0750756005102 C41.29897843422218 54.60247623231875, 51.08871469092374 40.692650350277084, 60.74745775215503 31.224114777887955 M31.771386980852256 72.71690999456317 C41.06631937513406 61.6743306705028, 51.66218459910799 49.86256170045161, 65.13969315441055 35.118393885391946 M32.37815571242666 71.82132386842521 C39.561875807103476 60.687108791304425, 48.46939044313031 51.18859138817854, 64.44105687109159 34.03779048763977 M33.73322075418626 71.07605377139646 C41.122281249067825 66.87811425709327, 50.23161480881201 55.38273539787093, 63.0644401241651 38.23146112825885 M36.837774801373854 73.54260790367695 C49.151507479930714 59.92834047436516, 60.210849915229616 47.28247610918001, 66.23993621588683 40.91021591575597 M42.36490235993986 73.83829730353392 C48.70257120749601 69.80848703227832, 53.93340003909695 60.608640203972755, 67.3119077270196 43.509031999623076 M40.19438484763215 75.09732565833384 C48.9786798032233 63.43745437737887, 57.58078345547564 54.85185547377486, 66.17175855097541 43.31182019296572 M46.01258014292968 75.42697960947932 C52.54477575182203 70.08159052169623, 57.67245089756871 65.01049841124723, 70.49584732938386 49.102795338585196 M44.76727863438745 76.90640053321323 C52.07933858539995 67.34824184242329, 59.11744620903427 60.806588859414376, 68.78745186569161 48.767907229080436 M52.99011053963527 75.75963196246371 C56.789839990496446 71.10340810047656, 61.124061891720814 64.06942939800456, 65.63674513690448 59.23218750138875 M51.50692693170875 75.49231203805847 C57.564799168857306 70.79940916778067, 61.86460608753505 63.263766402086915, 67.40848145851636 59.78605850245776" stroke="#ccf" stroke-width="1.0" fill="none" />
  <path d="M49.63774459255849 24.063436138370534 C53.79833623126815 24.546395938759936, 59.93997440975072 30.506137303907472, 62.957411080499114 34.40568007839654 C65.97484775124751 38.30522285288561, 69.74502604357458 45.05287785488041, 69.75398906421442 50.060387968297675 C69.76295208485426 55.067898081714944, 65.97426443849302 63.77713214201198, 63.017164551431435 67.78908083451171 C60.060064664369875 71.80102952701144, 54.33606171206684 75.98207183818091, 50.039989817137226 76.8067125849625 C45.74391792220764 77.63135333174408, 38.44367963142648 75.81419635464903, 34.376685251900795 73.28668581305554 C30.3096908723751 70.75917527146206, 24.58126313427678 64.48485139904062, 22.92669395363268 59.956642307672595 C21.272124772988576 55.42843321630457, 21.898663076220174 47.654654923975436, 23.346224047606796 43.09862520393543 C24.793785018993418 38.54259548389541, 28.383114370069038 32.01804187030252, 32.57710042954352 29.58311084073921 C36.771086489018 27.148179811175908, 48.289625280414455 27.394006540579298, 51.30613111076998 26.865751673513394 C54.32263694112551 26.33749680644749, 52.794452727254836 25.916468086985333, 52.68713929858036 26.061411726966533 M43.70323010604173 23.7595540559969 C48.11136914994519 23.198639436003873, 57.05643966583342 27.706804563448394, 61.04821927156023 31.00566795650561 C65.03999887728703 34.304531349562836, 69.31113258423655 41.35372591442381, 70.3150941442204 45.75197667637841 C71.31905570420422 50.150227438333005, 70.1359029177052 56.084160647943264, 67.7412963381192 60.32733970286958 C65.34668975853317 64.5705187577959, 58.5581370462276 71.77440644254864, 54.35105028031366 74.03983704255388 C50.14396351439974 76.30526764255912, 44.31886369764902 76.97480461165691, 39.6940512320263 75.43021036957114 C35.06923876640357 73.88561612748536, 26.365498072267087 67.6387672762947, 23.518967176162207 63.74254209531536 C20.67243628005734 59.846316914336015, 20.0 54.084247265536476, 20.717178591327126 49.45537582970889 C21.43435718265424 44.826504393881315, 24.68340549560007 36.64967568421864, 28.300157785009688 32.883399189798155 C31.916910074419306 29.11712269537766, 42.832922345134975 25.625400473824463, 44.82886052072456 24.346865866905645 C46.82479869631415 23.068331259986827, 41.84602373477399 23.986462626967054, 41.60641228894025 24.359835143672704" stroke="#333" stroke-width="2.0" fill="none" />
  <path d="M25.214811713870276 148.6833855135809 C24.996190105152223 143.12255640479322, 29.827511057738917 139.73930187357763, 39.96323006757842 129.56031975225125 M22.781466765685693 149.03379501968539 C30.10254935506977 143.85307338486757, 35.741694334663066 136.41167112605717, 39.595358314440574 130.4239048108306 M23.412784396781433 154.6702111540423 C28.213324835098746 150.20758207559373, 36.97699926238967 140.35780916627272, 50.167561501612326 126.89321921760158 M22.594434913473094 156.1830516566651 C33.18560655029158 144.00566119444602, 42.01870022105187 133.96200572492063, 48.459318380072105 126.23439062873835 M24.92963333610726 160.87950788871348 C35.09970067685448 150.17305178067954, 43.663471292114295 138.18423270860325, 52.16056372499354 129.81732423247587 M22.5419091129652 162.46203255396796 C28.271729944182894 157.32460325138788, 35.432541750677146 148.92684033330283, 52.60128605701384 129.16101935505088 M27.06340161011491 164.26297716120905 C34.84270296767944 157.13682700011333, 43.833393801065554 146.51236508761315, 54.938828499277335 132.18199803932066 M27.453860130806987 166.01837786246892 C33.641233460736345 157.37381265768767, 42.42019404428673 148.5097448884498, 57.70199022743283 131.5336014288814 M27.685021127702726 168.6773320942806 C34.60816782154775 159.91148793105214, 43.61334809161124 152.78533595492883, 60.067666257276656 133.64720168158584 M29.431068079460843 169.44372226876612 C41.29897843422218 156.97112290057464, 51.08871469092374 143.06129701853297, 60.74745775215503 133.59276144614387 M31.77138698085227 175.08555666281904 C41.06631937513406 164.04297733875865, 51.66218459910799 152.23120836870748, 65.13969315441055 137.48704055364783 M32.378155712426675 174.18997053668107 C39.56187580710349 163.05575545956032, 48.46939044313031 153.55723805643447, 64.44105687109162 136.40643715589567 M33.73322075418626 173.44470043965242 C41.122281249067825 169.24676092534918, 50.23161480881201 157.7513820661269, 63.0644401241651 140.6001077965148 M36.837774801373854 175.9112545719329 C49.151507479930714 162.2969871426211, 60.210849915229616 149.65112277743594, 66.23993621588683 143.2788625840119 M42.36490235993986 176.20694397178983 C48.70257120749601 172.17713370053428, 53.93340003909695 162.97728687222866, 67.3119077270196 145.87767866787902 M40.19438484763215 177.4659723265898 C48.9786798032233 165.80610104563482, 57.58078345547564 157.2205021420308, 66.17175855097541 145.68046686122165 M46.01258014292968 177.79562627773527 C52.54477575182203 172.4502371899522, 57.67245089756874 167.3791450795032, 70.49584732938389 151.47144200684113 M44.76727863438745 179.27504720146914 C52.07933858539995 169.71688851067927, 59.1174462090343 163.17523552767034, 68.78745186569161 151.13655389733634 M52.990110539635154 178.1282786307197 C56.78983999049636 173.4720547687325, 61.124061891720785 166.4380760662604, 65.63674513690448 161.60083416964466 M51.506926931708634 177.86095870631448 C57.56479916885722 173.16805583603667, 61.86460608753505 165.63241307034286, 67.40848145851636 162.15470517071367" stroke="#ccf" stroke-width="1.0" fill="none" />
  <path d="M49.63774459255849 126.43208280662644 C53.79833623126815 126.91504260701585, 59.93997440975072 132.8747839721634, 62.957411080499114 136.7743267466525 C65.97484775124751 140.67386952114157, 69.74502604357458 147.42152452313633, 69.75398906421442 152.42903463655364 C69.76295208485426 157.4365447499709, 65.97426443849302 166.14577881026793, 63.017164551431435 170.15772750276767 C60.060064664369875 174.16967619526736, 54.33606171206684 178.35071850643686, 50.039989817137226 179.17535925321846 C45.74391792220764 180.0, 38.44367963142648 178.18284302290493, 34.376685251900795 175.65533248131146 C30.3096908723751 173.127821939718, 24.58126313427678 166.85349806729653, 22.92669395363268 162.32528897592852 C21.272124772988576 157.7970798845605, 21.898663076220174 150.02330159223135, 23.346224047606796 145.46727187219136 C24.793785018993418 140.91124215215137, 28.383114370069038 134.38668853855847, 32.57710042954352 131.95175750899512 C36.771086489018 129.5168264794318, 48.289625280414455 129.76265320883522, 51.30613111076998 129.23439834176935 C54.32263694112551 128.70614347470342, 52.794452727254836 128.28511475524124, 52.68713929858036 128.43005839522243 M43.70323010604173 126.12820072425284 C48.11136914994519 125.56728610425982, 57.05643966583342 130.07545123170433, 61.04821927156023 133.37431462476155 C65.03999887728703 136.67317801781877, 69.31113258423655 143.72237258267972, 70.3150941442204 148.12062334463434 C71.31905570420422 152.5188741065889, 70.1359029177052 158.4528073161992, 67.7412963381192 162.6959863711255 C65.34668975853317 166.93916542605183, 58.5581370462276 174.1430531108046, 54.35105028031366 176.40848371080983 C50.14396351439974 178.67391431081506, 44.31886369764902 179.3434512799128, 39.6940512320263 177.79885703782708 C35.06923876640357 176.25426279574128, 26.365498072267087 170.0074139445506, 23.518967176162207 166.1111887635713 C20.67243628005734 162.21496358259196, 20.0 156.45289393379244, 20.717178591327126 151.82402249796485 C21.43435718265424 147.19515106213726, 24.68340549560007 139.01832235247457, 28.300157785009688 135.2520458580541 C31.916910074419306 131.4857693636336, 42.832922345134975 127.99404714208036, 44.82886052072456 126.71551253516155 C46.82479869631415 125.43697792824274, 41.84602373477399 126.35510929522296, 41.60641228894025 126.72848181192863" stroke="#333" stroke-width="2.0" fill="none" />
  <path d="M168.42017603782074 28.441621663446192 C208.64913125919628 31.198667461208686, 249.7762697911706 27.22348321151535, 273.51858046604013 28.66795252645813 M173.753006951045 25.976229240239334 C204.24225829929986 27.223695665263897, 234.84592516186387 30.118979292690263, 275.1622052719264 26.007013203621916 M279.75736747548103 24.0417619873421 C277.6027554486791 48.27753315293385, 276.629008651978 78.37093450446152, 276.7168012175208 132.09041037952557 M273.7751024413504 26.2736811082576 C281.07854083139057 50.696946119112646, 277.65387698754427 74.281421133425, 274.9365509038143 128.2273169657875 M277.81129773051265 126.62436481931287 C247.71779318333984 133.85240104389192, 224.3610053292653 126.60875334351722, 168.40515432018282 128.64586218492957 M278.2285538872932 125.04320622251056 C254.80979039768994 129.12599134908925, 232.95481471400245 129.65555992514015, 174.30385838861156 126.66226386293896 M172.7966645206866 123.28613414448456 C168.53999059965298 110.47206892056406, 165.470158440749 84.7289881471681, 169.41540050977693 29.935980352948206 M172.77291920911858 124.96904812942908 C171.38534108294078 99.44556124461761, 170.63504825774424 70.38115978870785, 172.88731217376971 24.984468175023366" stroke="red" stroke-width="2.0" fill="none" />
  <path d="M350.0974897407746 28.466198858987802 C375.8352361218709 29.77514330334656, 392.5007868058841 20.0, 455.92841060279517 28.851255480320354 M352.96855632640984 25.929062240184045 C384.1971772010292 28.070970805509262, 415.0235346696495 28.998198841615547, 454.38092526591157 23.469600261154937 M451.6703366537775 23.132442972435157 C460.5402514000601 49.45730075573109, 452.0215645495784 70.0441136022184, 450.21706507101493 127.86207985877304 M453.41798687222916 27.072850871586915 C452.6983343131488 64.35522747803209, 451.11496404366136 107.46226638361127, 454.08534842051944 128.23768856026555 M459.88295058454986 123.76705446416123 C416.5874773754963 122.24368529977953, 387.9756869826823 119.58461183471486, 350.76792246242223 124.32667567837048 M457.2825888705849 126.14130427701947 C430.42438719907244 128.43660831642472, 408.0509433594049 128.03557932124716, 350.5245354846819 127.71451069017515 M354.4294758217485 131.70041097361718 C351.9632254326647 89.81664052930427, 356.7038379481406 53.202488334581545, 353.51768324078483 24.47329128821714 M354.48427120938334 125.38061878658324 C347.902159206068 93.38930630730756, 349.7445657389829 62.911418095584835, 353.94381892406835 23.48931108302388" stroke="green" stroke-width="2.0" fill="none" />
</svg>