<svg width="600" height="150" xmlns="http://www.w3.org/2000/svg">
  <path d="M65.01353573920836 76.66183338659125 L820.490979426629 76.66183338659125 L820.490979426629 265.5311943084464 L65.01353573920836 265.5311943084464" stroke="none" stroke-width="0.0" fill="rgba(100, 100, 230, 0.5)" />
  <path d="M70.94310687046223 71.26195128460947 C330.4559264701752 71.1686356370518, 597.5613825744117 64.91500760586672, 818.8406447514681 69.92906799526139 M65.55719603262109 76.991926106217 C303.7027995454631 75.52349766586323, 537.2286438047024 75.9067471886838, 819.8135008691188 76.06572044876881 M814.9639785249593 77.01704246789983 C815.3546374430052 141.31223739837287, 823.6053387213501 217.14983126020616, 825.5960077430452 270.1782785284248 M817.6891473189522 79.30174961549315 C819.3458942291222 131.16667455900276, 817.222983405123 192.4888864414762, 817.9937618692887 265.95967374959537 M826.7100383840916 260.7565443238013 C580.8849528627547 253.91333924994382, 336.756322498686 259.32944737803126, 69.81282321826134 267.74421185800486 M818.0299677022596 268.31856078852957 C562.4545671720207 277.70959584249175, 298.59434634863806 278.70552503610486, 62.47871257284888 263.9413460934663 M70.31669724755773 267.20965711315677 C71.59275251196757 203.85202564787676, 69.89718462830643 129.82587449882382, 66.30301941228326 79.06335890242933 M64.40087918509728 267.7494161472036 C63.729148855431085 207.40097367845397, 60.95778010154926 145.13279284229324, 63.398199884392106 79.0129800861452" stroke="#000" stroke-width="2.0" fill="none" />
  <path d="M65.01353573920836 76.66183338659125 L820.490979426629 76.66183338659125 L820.490979426629 265.5311943084464 L65.01353573920836 265.5311943084464" stroke="none" stroke-width="0.0" fill="rgba(100, 100, 230, 0.5)" />
  <path d="M70.94310687046223 71.26195128460947 C330.4559264701752 71.1686356370518, 597.5613825744117 64.91500760586672, 818.8406447514681 69.92906799526139 M65.55719603262109 76.991926106217 C303.7027995454631 75.52349766586323, 537.2286438047024 75.9067471886838, 819.8135008691188 76.06572044876881 M814.9639785249593 77.01704246789983 C815.3546374430052 141.31223739837287, 823.6053387213501 217.14983126020616, 825.5960077430452 270.1782785284248 M817.6891473189522 79.30174961549315 C819.3458942291222 131.16667455900276, 817.222983405123 192.4888864414762, 817.9937618692887 265.95967374959537 M826.7100383840916 260.7565443238013 C580.8849528627547 253.91333924994382, 336.756322498686 259.32944737803126, 69.81282321826134 267.74421185800486 M818.0299677022596 268.31856078852957 C562.4545671720207 277.70959584249175, 298.59434634863806 278.70552503610486, 62.47871257284888 263.9413460934663 M70.31669724755773 267.20965711315677 C71.59275251196757 203.85202564787676, 69.89718462830643 129.82587449882382, 66.30301941228326 79.06335890242933 M64.40087918509728 267.7494161472036 C63.729148855431085 207.40097367845397, 60.95778010154926 145.13279284229324, 63.398199884392106 79.0129800861452" stroke="#000" stroke-width="2.0" fill="none" />
</svg>