<svg width="600" height="150" xmlns="http://www.w3.org/2000/svg">
  <path d="M20.042191650183163 20.879056206109333 C54.279492489826936 47.32713649334769, 85.94064496755372 79.68797565260948, 120.85347216325087 109.21974144583837 M20.0 20.0 C46.050574083380994 46.39799756802133, 71.79079929021174 71.18889908874863, 121.08041346144776 110.84471273384747" stroke="black" stroke-width="5" fill="none" />
  <path d="M139.65044698749904 22.135578527318064 C172.12888093629232 45.996312396894254, 200.22645336418572 75.11502961854333, 237.728244925116 110.31201027668507 M140.4974770287792 20.16167638330056 C166.05338710903249 46.31337293002653, 195.6709129682854 69.80271813018703, 239.90510012248902 110.09341925724019" stroke="blue" stroke-width="0.5" fill="none" />
  <path d="M368.94657843974306 69.31520076925719 C369.43682904514736 72.28389903791489, 368.03768246097616 76.4771196007288, 367.1593571132665 79.29404976069816 C366.28103176555675 82.11097992066752, 364.7272479838676 85.71185398553101, 363.09107612167855 88.09473516905294 C361.4549042594895 90.47761635257487, 358.8299102959836 93.38702127775767, 356.25154469867294 95.17992431751102 C353.6731791013623 96.97282735726438, 349.05330849465054 99.4702146350416, 345.90197213960755 100.04742210074195 C342.75063578456457 100.62462956644231, 338.2520331533564 99.35231697824591, 335.24263566505306 99.02797408884672 C332.2332381767497 98.7036311994475, 328.4242596556193 98.98274719214209, 325.8393222175851 97.88513617141388 C323.25438477955083 96.7875251506857, 320.0664391259486 94.09310603486699, 318.0097194114912 91.71056728399205 C315.9529996970338 89.32802853311708, 313.5085151968841 84.98517260085126, 312.1278574545359 82.00154449891417 C310.7471997121877 79.01791639697709, 309.1963850297899 73.5740050144164, 308.8053344625034 71.81971327107809 C308.41428389521695 70.06542152773977, 309.41352579110765 70.53328326915496, 309.520853672626 70.30626620999203 M368.91153722052684 68.07937448259253 C369.3480655110239 71.02407303503077, 368.23007340160075 76.90369165683603, 367.113957377305 79.88203084692819 C365.9978413530092 82.86037003702032, 363.1365917905949 85.71779342830897, 361.47076372522184 87.93496908320688 C359.80493565984875 90.15214473810477, 358.37072107275003 92.97196726162653, 356.0084369414845 94.66320187958092 C353.64615281021895 96.35443649753532, 348.8971386336932 98.34098863808006, 345.72220285011815 99.20986653623612 C342.54726706654304 100.07874443439218, 338.01972478572605 100.69915154083913, 334.8421983843172 100.4557212006213 C331.6646719829084 100.21229086040347, 327.3797062777318 99.07318037883746, 324.53869350739234 97.58699760145055 C321.69768073705285 96.10081482406363, 317.79713731939876 92.97414555092473, 315.9021132487208 90.54783601804189 C314.0070891780429 88.12152648515908, 313.04842487851784 84.37063414796557, 311.9051997028727 81.41160071556499 C310.7619745272276 78.4525672831644, 308.63826398229025 72.4867466445406, 308.2806120777533 70.82094646870468 C307.92296017321627 69.15514629286875, 309.33481743339513 70.38346824879895, 309.520853672626 70.30626620999203" stroke="red" stroke-width="2" fill="none" />
  <path d="M438.94665973485655 30.345788634838073 C444.2813589562988 30.1328313172121, 454.4003418620412 33.90866129800856, 458.8029645270864 37.69101731101005 C463.2055871921315 41.47337332401153, 467.63614561371827 49.76732307644635, 468.29747750182395 55.56149538818131 C468.9588093899297 61.355667699916275, 466.1321955272034 71.35239329621916, 463.2118437811244 76.31883272257645 C460.2914920350454 81.2852721489337, 454.1645102200158 86.72034797179973, 448.8284658612973 88.67109156389645 C443.4924215025788 90.62183515599318, 432.93318191551765 91.41742098645642, 427.6382147230008 89.32379000322132 C422.3432475304839 87.23015901998619, 416.12418676368446 80.06506913214957, 413.52868457785155 74.71355167566236 C410.9331823920187 69.36203421917514, 409.3493589267889 59.4663387430491, 410.3348668174482 53.647006959973254 C411.32037470810747 47.8276751768974, 414.6031526215703 39.49800753496242, 420.0987371822469 35.91800645515668 C425.59432174292346 32.33800537535093, 442.0811914738063 30.146278726754645, 446.9720972219586 29.780333094601637 C451.8630029701109 29.414387462448637, 452.95025091264205 33.046522205598336, 452.7047755032622 33.47836890746994 M433.265060157212 29.73715896723585 C438.2385585122725 28.141074328614174, 447.6997530129798 31.475488555027198, 452.58387514280747 34.11660793995306 C457.46799727263516 36.75772732487893, 463.761080836454 41.9859821494469, 465.82587435606337 47.34462153340829 C467.89066787567276 52.70326091736967, 467.9383161837077 63.79783082991775, 466.3491652735367 69.84087049969565 C464.76001436336566 75.88391016947355, 460.07834916991004 84.33275240423072, 455.231534954923 87.63155266526098 C450.3847207399359 90.93035292629125, 439.91354818390755 92.95621455420681, 434.0370705069562 91.83287223989737 C428.1605928300048 90.7095299255879, 419.5247164388983 84.65252590008285, 416.05501710858033 80.14260390319797 C412.5853177782624 75.63268190631308, 411.09183456537056 67.38160099060138, 410.90574163816956 61.766725593998196 C410.71964871096856 56.151850197395, 411.73395222017416 47.530496273883934, 414.814397593907 42.710101259176675 C417.89484296763993 37.88970624446942, 428.8930927104369 31.210523418717422, 431.44204412972203 29.63075882928316 C433.99099554900715 28.050994239848904, 431.33004016744445 31.697961048429192, 431.8074070558079 32.17833732961495" stroke="green" stroke-width="4" fill="none" />
  <path d="M529.1814016180076 40.35913884861112 C536.1423565682 38.719010578254455, 548.9146802526674 39.694085137651015, 555.9401955811804 42.33990295411492 C562.9657109096935 44.98572077057882, 572.7162945174978 52.66391863538698, 576.0181704747612 57.997924291703804 C579.3200464320245 63.33192994802062, 580.0 72.25266477822521, 577.9527019629357 77.89994066289375 C575.9054039258714 83.54721654756227, 568.8173463405863 92.32035773586475, 562.3695168943324 95.64643018949394 C555.9216874480784 98.97250264312314, 542.8099492955467 100.6675466302253, 534.9671723212432 100.07375702042174 C527.1243953469395 99.47996741061817, 515.5493384186863 95.78378378886649, 510.08433706564125 91.6878327908035 C504.61933571259624 87.59188179274054, 499.2125190750248 78.72625877227, 498.5338299676096 72.76741703333528 C497.8551408601944 66.80857529440053, 500.7644114392272 56.89923060498521, 505.5597430162067 51.96222119790522 C510.3550745931862 47.025211790825225, 526.7107265472156 41.494131293799576, 530.5027071474727 39.85402098613527 C534.2946877477298 38.21391067847096, 530.6443703840376 40.48335609570592, 530.8396136845874 41.028152480143156 M555.0338356183328 42.53823060105805 C562.0238737787857 44.292773890636916, 571.1930479690561 50.52109002396895, 574.6222385725364 55.85024020194364 C578.0514291760167 61.17939037991834, 579.503362647885 72.08064789759882, 577.8951063082015 78.06589845422263 C576.2868499685181 84.05114901084642, 570.0940251903309 92.35160227240044, 563.900529641313 95.75191057943559 C557.7070340922952 99.1522188864707, 544.3728356048133 101.04447656155168, 536.6051359814161 100.73462050112349 C528.8374363580189 100.42476444069533, 517.6430743133205 97.6572728505995, 512.1158654853317 93.6862035099144 C506.58865665734277 89.71513416922934, 500.84981494046116 80.41967658951788, 499.75707712815665 74.26082489655627 C498.6643393158521 68.10197320359467, 500.66955857381504 57.68913538888753, 504.83094673663464 52.62719222350373 C508.9923348994543 47.56524905811992, 519.9620284194781 41.8892633125385, 527.4996648802878 40.514537127330904 C535.0373013410975 39.139810942123304, 551.2523853873678 43.29198176311063, 555.0818564753658 43.462350988786376 C558.9113275633639 43.632720214462125, 553.4459947723349 41.60759034911615, 553.0294721336081 41.650331965169265" stroke="#999" stroke-width="0.2" fill="none" />
</svg>