<svg width="600" height="150" xmlns="http://www.w3.org/2000/svg">
  <path d="M24.944842316928064 24.72271665837983 C51.53151628204097 23.47386809265346, 66.94085633675977 26.388257145674615, 131.1143530734616 20.0" stroke="#333" stroke-width="2.0" fill="none" />
  <path d="M22.58396217681633 46.8696329797736 C22.655403264362878 46.57700706153811, 24.323691690671225 44.47243241077116, 27.02003809554087 42.35388098150166 M20.62385712907357 54.10168820600681 C25.054783820819488 47.670931952246406, 29.579413057421732 45.85629602395342, 32.49120714724988 42.25805351724135 M21.975488357353235 59.0511083595612 C25.06273724602664 54.487621203439375, 29.120149596506142 50.951709195764664, 35.3693648818611 41.91209706619351 M21.1617751650814 62.798988215342405 C30.14460125338015 55.316450669357735, 34.915544745455776 50.588848170215215, 41.69826062002855 40.822359669985445 M20.590210465825308 69.06481272841347 C28.905407377380318 60.913276622639216, 38.27905590221667 52.04188667501505, 45.66520317282085 43.4750711019599 M23.35336349698312 77.39373201825371 C30.988056539625 64.01189507338115, 41.429580461417686 50.519300313495876, 50.49611577393175 42.310402968976575 M23.47204174139744 83.20264116223923 C36.507698753967986 64.80297009589142, 47.52990059882454 49.30102670285571, 57.15343618840237 41.40934126834168 M20.76092889125624 85.61058688340935 C31.726776689747915 76.59033210927387, 39.95997177947278 69.6532655816171, 60.96895308382172 41.260438185286276 M21.69392801105512 91.61653214325763 C37.508470248704924 76.13189655162337, 54.801887983176144 56.48510851042404, 68.46821221317225 39.61704310556077 M21.908563676256804 97.01488670238646 C34.704706198643876 82.84745324763276, 44.34064331915451 70.71106249070436, 72.92124600541474 41.40834251475033 M20.24993723768061 105.59969032604575 C39.5867794319102 87.49262435142333, 56.36514469758441 69.5270759134455, 78.20332242416472 40.43596978817931 M23.6150504908207 111.52499649786817 C36.03898970866311 92.46652068015275, 49.12432247851547 77.85754023333345, 80.68321077891814 42.90915343123616 M22.765363076866972 117.57992025029861 C40.58587368450277 92.71907251425729, 60.53931768872771 69.81899281297575, 84.91295671031314 40.42302838468369 M21.83450624385709 121.74194323777031 C47.74373848026232 88.2062142671019, 76.40163246686554 57.94101986017854, 93.21476216124105 41.664686274518374 M22.37274395910088 125.60788835067609 C44.654686805956544 102.7882584877659, 61.64502547188039 79.2948827489982, 98.19498621787588 40.19883036894096 M27.217274530513272 128.81757016599684 C44.988076747101516 108.57810070507198, 63.15334322653648 87.13446845781766, 99.43870391145576 43.041381546870724 M31.31278833017741 126.05469724938152 C58.725313587565196 97.66034525947468, 84.2467554926062 68.48620855528661, 107.9691263573311 42.3306729577003 M36.053032164064334 129.27843912707866 C63.452710827725326 97.55318033338374, 91.92442623784116 65.25018347761134, 112.62960257711883 43.75127259871961 M42.85851955123432 125.55943899937591 C62.98948484760389 108.46630132530595, 78.89953173087669 85.12441244965775, 116.29022577620711 42.834479749711676 M47.870628835828285 128.25315495752562 C63.24877071680429 106.79927533354443, 80.40028028141101 84.73948855270571, 119.68949374135433 42.87849384250737 M50.025294674898774 129.1522139253111 C75.25001393961749 99.3425655952157, 100.05793516854881 72.57931577636917, 124.32190234501799 39.93880386767593 M56.44241602430259 127.01079710951566 C83.68466344483626 100.79817625805015, 106.10906102650776 70.24630275070808, 128.84837279643494 42.460592973340354 M59.87881511879159 127.59752039087013 C86.26864059958199 97.70951082644096, 113.27596654969336 71.34035903890897, 130.93870087873563 49.666262696628294 M65.53667211495619 128.6770159901166 C79.90549381172843 111.65516097030934, 95.81714585878365 93.20608849101153, 129.95659203879907 57.7095271090152 M71.25293710976355 125.2129751857351 C94.44139371149822 99.28624525594805, 118.60618518601567 75.70759269058333, 128.58329738579465 59.99136034693879 M76.66526918611201 127.38199740686616 C92.83324046464296 110.61547970489428, 104.54905755151094 95.52685613922777, 130.8080736650945 66.3503700842616 M80.33726288162212 128.531294250268 C93.5924063942373 111.66835482439012, 106.71365278749968 96.60320454380741, 127.32450995357509 73.03906556653037 M87.1770905023518 126.43903310103116 C94.39417024639175 118.01454758459252, 102.87476617459409 108.29815244889356, 130.2817840066437 77.48651158935931 M91.0575904092245 129.08644888777295 C99.17678900738514 115.48938211992456, 108.35269127171027 107.60905956386459, 128.08556013968442 85.68350578286095 M95.83814323332759 127.55291415430585 C106.7956055892769 113.19649914053178, 120.88086328835034 100.17288129584253, 127.84259038631775 91.1818316370103 M102.69109426798214 128.13589094926223 C110.0725929321852 117.66620277979806, 118.96459096964136 110.27174960313869, 128.24006406026942 94.62525693286811 M104.88463139200135 127.39024219281907 C113.73898877314495 118.59317544742554, 119.346783658893 111.31619780366067, 130.04822608666706 101.65903658761265 M112.61626247356268 129.10801896360954 C117.49958080656535 118.45864067311038, 124.67516870509004 111.22524730238429, 128.33221568409306 108.12633430442676 M115.98967753736918 127.47550870609095 C121.74398181719395 123.13053036266068, 124.51598065095295 116.42665579880219, 127.42916237611774 113.78222932829576 M120.90047027030037 127.79811703546585 C124.15182449510093 125.04369494961074, 125.03795519467353 122.71865774530099, 129.84244083358112 119.02327633014593 M126.62341351333768 127.58799356952761 C126.99935253712286 126.118044033352, 127.81704942391647 125.5736492097127, 129.10154266107344 123.83038704044745" stroke="yellow" stroke-width="1.0" fill="none" />
  <path d="M20.133478515077815 42.59860705221104 C54.63182630800816 44.07786139702887, 90.4610659482816 42.02145180465746, 129.8567965432536 41.810452472799795 M22.560126903288047 41.53643962907661 C48.62672612764605 39.532958842224886, 73.94704307683486 41.34122447509951, 129.12933777667303 41.11814809657666 M129.4377178044626 42.62457506999283 C128.79091878022356 59.658027223441124, 126.95666079753599 75.69382718972741, 128.45651493964584 125.66999530326486 M128.77656123367944 41.20832018228113 C129.1100180218773 64.55442920671558, 128.3119252497222 85.70215202423378, 128.43950464710167 127.28532826808515 M131.0654277438216 127.77116502003256 C100.22509663624275 128.87158406256603, 71.97313581367663 130.0, 23.24010562997073 128.3603750607105 M129.32036028877792 126.88062003917656 C103.1832503437597 128.65161382151774, 76.55032832866303 127.46524215275264, 21.92229068159148 128.3984314476012 M20.0 125.32095509430916 C20.01945580302004 107.40795927989214, 21.487677478431166 87.16523743401379, 22.043833920109222 39.61815995141913 M22.299217991799754 126.44098841671402 C23.33298442041128 97.43844981065558, 23.50103656451888 66.9787260656516, 22.238123693796837 42.71878584945361" stroke="#000" stroke-width="2.0" fill="none" />
  <path d="" stroke="#eee" stroke-width="1.0" fill="none" />
  <path d="M215.18405331612564 63.43599330841279 C215.2983206101708 63.38773162762983, 215.25388607259615 63.532741755015294, 215.0344837932331 63.51462497595416 C214.8150815138701 63.49650819689303, 213.93626631819708 63.40342433449956, 213.72137145370547 63.31521478133857 C213.5064765892139 63.22700522817756, 213.55337821565618 63.013192215331586, 213.60185136328914 62.926561288214145 C213.65032451092213 62.839930361096705, 214.01918132045856 62.576411918788935, 214.04452577125858 62.7376752672223 C214.06987022205863 62.89893861565568, 213.83260763179902 64.05737388787702, 213.77081436862267 64.00165027776994 C213.7090211054463 63.94592666766286, 213.52109452896596 62.49777498320019, 213.63257068341613 62.36618453317509 C213.7440468378663 62.23459408314997, 214.2801953942467 62.99371252621668, 214.51398873162393 63.124380610935845 C214.74778206900115 63.25504869565502, 215.2385216964044 63.312813604308744, 215.19119293259752 63.23730509796957 C215.14386416879066 63.16179659163039, 214.25502894169458 62.52460255696384, 214.19846363957802 62.620990568674685 C214.14189833746147 62.71737858038553, 214.7637453271092 63.94898885877993, 214.81409091848707 63.879891842708545 M213.24682113448458 61.67198835757449 C213.26022691147716 61.693208049258516, 215.94321651270437 62.73893134933603, 216.03531558901426 62.96312577894568 C216.12741466532415 63.18732020855532, 213.96195974154142 63.324910617041056, 213.8608149765506 63.16661788830545 C213.75967021155978 63.00832515956985, 215.0321947772465 62.05821649226819, 215.36101715574205 61.90784092070834 C215.68983953423762 61.75746534914849, 215.96331037151214 62.19283521680531, 216.05296416652087 62.16411407790646 C216.1426179615296 62.1353929390076, 216.15265033540973 61.38600370348762, 215.95870912246704 61.71636666138262 C215.76476790952435 62.04672961927763, 215.18019633622842 63.931126651905956, 214.76002274690305 64.36653379720647 C214.33984915757765 64.80194094250699, 213.20872017210263 64.60792428706539, 213.15755186029793 64.61908096338605 C213.10638354849323 64.63023763970673, 214.22443655085362 64.4402912809019, 214.41890066820505 64.44091163934428 C214.61336478555648 64.44153199778665, 214.2237536175615 65.0640832084431, 214.45397930930756 64.62321668633524 C214.68420500105358 64.18235016422739, 216.00323056991692 61.74571262867937, 215.95373861317879 61.5018014919586" stroke="blue" stroke-width="2.0" fill="none" />
  <path d="" stroke="#fcc" stroke-width="1.0" fill="none" />
  <path d="M256.9193918812391 62.279232798897056 C256.96539981870103 62.05958238010301, 257.5252958606526 61.870313935779436, 257.5395187529673 61.88244867727886 C257.55374164528206 61.89458341877827, 257.04914094589424 62.17729262679623, 257.0142111633374 62.36013107555986 C256.97928138078055 62.542969524323496, 257.26820769146275 62.833252031544106, 257.3066535359216 63.10137166903644 C257.3450993803805 63.36949130652877, 257.354157245732 64.10619740669223, 257.270516793063 64.14759532550872 C257.18687634039406 64.1889932443252, 256.83850171058407 63.357602293652235, 256.74905051812857 63.37735779447971 C256.65959932567307 63.39711329530718, 256.60630683202385 64.48985941813409, 256.67417551002643 64.27929866435854 C256.74204418802896 64.06873791058298, 257.24070807472697 62.06732172854254, 257.2015083714789 61.97361943597602 C257.1623086682309 61.879917143409514, 256.35747236785994 63.510635946215416, 256.4128441550396 63.65461671391512 C256.4682159422193 63.798597481614834, 257.3011410778865 63.18121708020654, 257.57065361934326 62.93349122064076 C257.8401661608001 62.685765361074985, 258.2223296021921 61.94091817969908, 258.20959443141834 62.00311098347663 M258.010719976 63.81327376456022 C257.87988615897916 63.73985845666786, 256.97603519406573 62.10410867628531, 257.15365079857406 62.07800284615077 C257.33126640308245 62.05189701601621, 259.26605324902414 63.245013710967754, 259.19482400605574 63.639234896996555 C259.1235947630874 64.03345608302534, 257.02445185596133 64.83624597766313, 256.6787891787849 64.70614408634276 C256.3331265016085 64.57604219502241, 256.6450789289867 62.948437795709, 256.89040615821284 62.771888954860785 C257.13573338743896 62.595340114012586, 258.41669836207797 63.40557725026049, 258.3143040402923 63.529151814021404 C258.21190971850666 63.65272637778233, 256.2710399512769 63.8052196318248, 256.20777734630855 63.59571937993357 C256.1445147413402 63.38621912804234, 257.77645766866846 62.4318762171733, 257.8925533405031 62.13248346807988 C258.0086490123378 61.83309071898647, 256.99925624938896 61.67869606310326, 256.9817484918731 61.59976771931079 C256.9642407343572 61.52083937551832, 257.8095356385177 61.350427014153226, 257.77583495706386 61.606294509463396 C257.7421342756101 61.86216200477355, 256.6312363219166 62.942317481617664, 256.75707728218117 63.30555102137855" stroke="red" stroke-width="2.0" fill="none" />
</svg>