<svg width="600" height="150" xmlns="http://www.w3.org/2000/svg">
  <path d="M21.052777314456392 23.606370715488843 C21.41728042107016 23.21790433177464, 21.669835777857656 22.396733903873507, 22.062362868230025 21.91010762697192 M20.99471736867565 23.424456927090457 C21.37596688279436 23.003831993640294, 21.861921588679905 22.564880145236, 22.176147789588526 22.01970131360601 M21.16688090391412 25.23484874192729 C21.567663427571716 24.311963338875934, 22.108118541704982 22.9724809739674, 23.305481296031417 21.994027508291957 M20.90610184894976 24.757680582522468 C21.45390807152654 24.30652344614876, 22.084947429305345 23.276222700881583, 23.42232156221621 21.92690733198888 M21.017524848149122 26.182855699819118 C22.325424403070855 24.325366083845434, 23.86636957088976 23.49634826309807, 24.45598046107574 22.18867919178313 M21.199136341712062 26.58297516381265 C22.173122299083275 25.102356461975027, 23.171834262059377 23.85083693126359, 24.550828662479972 21.89868944499998 M21.221526216482147 28.204553977599723 C22.198591605431204 26.008670376316132, 23.30784570331255 25.29831333155703, 25.700216883810896 22.118972057149914 M20.941372468588355 27.622518909970992 C22.44414474639757 26.62142317504394, 23.49870927516548 25.182626837003347, 25.846848359124635 22.070406871318184 M21.149445245593682 29.13802736656654 C23.02614285300868 27.1826153625547, 25.048349481134125 24.20805700588134, 26.853335526361917 22.32696199526968 M20.90974006454607 29.44304958729867 C23.078811656079978 26.826063313446454, 24.65517814436737 24.821871354438247, 27.35637790825544 21.889885664176685 M21.500992039001176 30.439587890692557 C23.467930634248717 27.63395718803516, 26.217305424007208 24.397311440951043, 28.278258297459487 22.116359404329984 M21.202335261011342 30.863017938893698 C22.960381600659844 28.680387579958385, 24.51525700046534 26.34187706577218, 28.21446871072895 22.186462663607713 M21.34580787740694 31.63522701570827 C23.382763001957557 30.134922269300983, 25.088686369546565 28.21534748105211, 29.34278580826404 22.242147792809913 M21.08101394360895 31.855409329992987 C24.130031634299172 29.03342757587951, 27.035561520504586 25.514143750661773, 29.654652145355655 21.82211324407162 M20.65474013368592 33.024815663423354 C23.070867697782944 30.371886344367642, 26.575975978715547 26.96622932277816, 31.28722955305777 21.90793665682953 M20.817759026976404 33.49520487544024 C24.08691793829027 30.569132305965848, 26.40281430319891 27.055068829907835, 30.922962586127 21.860960596552335 M21.539529700203957 34.742235957798556 C25.105080477846627 29.81849444122134, 29.571108621684814 24.826387422724927, 31.885770003966044 22.5963301091008 M21.11866626036226 35.03259500559702 C25.460880221134346 30.374174964295232, 29.115014542685216 25.748521271779712, 31.958363123569512 22.278912526137837 M21.450964627127462 36.0063945713425 C24.39580932005157 32.389405724727524, 27.612878583645312 27.643715225321344, 33.45145888352124 22.459930822621555 M20.927122535313487 36.49500734575707 C24.929005986010935 31.61242934952208, 29.417945884686844 27.065442046257292, 33.322273441400085 22.103169398502146 M20.877886788449217 37.34202984643845 C25.711947852850216 32.7434654745895, 30.772489028341028 26.60531404028497, 34.50434330685114 21.544205746200042 M21.02730296802696 38.04339930880833 C24.194287266893497 34.20848592125748, 27.709034973514633 30.077603240433717, 34.94043332752254 21.863510078185698 M21.383900099884386 38.879480868116836 C23.40338453055773 35.30608958144367, 27.449902450069743 32.32311913775153, 35.54670522887605 22.147070633645825 M20.751948262800568 39.02497133167586 C27.22805966878127 32.26750107791128, 32.87385252411073 25.183089281716946, 36.162431525605356 22.121698625239738 M21.37175735341964 40.24748951031885 C27.39491089611566 33.310740713148284, 33.83154483595209 26.70482457391393, 36.98377008307176 21.836041458126136 M20.81112841930357 40.87819376221585 C27.400019346704468 33.97164936963567, 33.27018980274477 26.88181816475448, 37.08981802799508 21.8036956110275 M21.15574816099209 42.50120095996648 C27.589514674381448 33.79882148347875, 34.67528543188311 26.4957838724918, 38.96078473563374 21.697043831115998 M21.08083893060794 42.203771051330044 C25.503420666420027 37.13738774304486, 29.865087814329527 31.990376794735095, 38.52527300077169 22.050519471305467 M21.388643941176895 43.60846956363533 C26.35050612226891 37.174019772529334, 30.884239547418204 31.645736240892, 40.167605861855094 21.863388354388427 M20.992268837805625 43.40553967907538 C26.31946216154239 37.69685330422469, 31.35606944860477 31.450221994387537, 39.70622519995577 22.130944311907676 M20.85440996463811 44.955794845406324 C25.546047739808273 39.65476373661022, 29.81894488661682 33.1434643694336, 40.723284356355975 22.248785084696227 M20.7807834461739 44.93778410488069 C24.87509915313163 39.82354528502482, 29.218197958585677 35.01347801865751, 41.034324516514175 22.171170798110218 M21.39940864290648 45.91600086663733 C28.105427401640867 38.56806861534558, 35.48873184865225 30.04334096979768, 41.96907592735316 21.957489484694072 M21.182651606631737 46.53906712829927 C28.081943828549555 37.87202208105472, 35.310170153557024 29.56223271226443, 41.93072597012639 22.06329817150961 M21.194244869452746 47.89508405603492 C29.48227879882907 37.89034939830383, 38.03095133623465 28.95097899471802, 43.67337251389786 22.447178538581362 M21.2337343258246 47.71038108057163 C29.21604975698385 38.40217794214655, 36.94120687387537 29.74435893916078, 43.32309255172652 22.174363717036698 M20.934649679409574 49.66234592619743 C25.79257739631265 43.39908474405599, 30.825236446583716 37.366262612295536, 44.315106267587254 22.373747925086416 M20.78727614341227 49.30879826978995 C28.833268398444417 40.636886442965576, 36.3649406911797 32.167263056068435, 44.41166192926758 22.03344641074761 M20.504642711699972 50.939570522930666 C29.310039978982033 40.07534817579614, 39.71984525734875 29.073311907969558, 46.05927976380838 22.195572077276474 M21.15563899010931 50.876049592834086 C29.898809663989326 40.225214418023455, 38.12885369916083 30.592955880932067, 45.79110862158626 21.875746434450043 M21.22209609173794 51.767881301847986 C29.99578151323854 41.124687702696846, 39.70369450483541 30.694648015170397, 47.56800262451283 21.67767778828019 M21.26178640774515 52.40937325557107 C30.98610839515983 39.86549816888424, 41.5454612201529 28.24513296078467, 47.22747839264228 21.974360765124324 M20.592973657276303 54.06571335871206 C25.807531619815563 46.75421304206565, 32.41915267391053 40.94252523829977, 48.19413153365208 21.96810604221838 M20.841551558739326 53.34679431136898 C29.85353882866866 43.56565872146368, 38.69248574676898 33.060228716276754, 48.4455266948237 22.170324790145123 M21.103161177342116 54.749000165373886 C29.336895936169157 45.560843144317715, 37.33929497597866 36.79454988834881, 50.04838920807494 22.03456913243574 M21.198930579252192 54.89044090195252 C30.790469107310102 44.22999716978787, 40.603545326981745 33.034550775208245, 49.801572897653585 21.905614197783635 M21.181604549509473 56.43835900432113 C29.653170197041007 46.49378515192721, 37.693129188064404 36.805624177391806, 51.06044406869607 22.58612235594888 M20.779145318591617 56.53608449580407 C29.152963661469585 47.14554860018047, 36.88063783965738 38.13006444509401, 50.95601867612504 21.967333002545306 M21.088314675487794 57.7992838667211 C29.810373950464637 49.00578403644063, 38.59660901254648 39.328078222694046, 51.710507092333984 22.126446157786486 M21.004755096204548 57.6935465034429 C31.147278114375993 46.42748743965644, 41.82229611875535 34.908426815035135, 52.3049501571069 22.019042535620418 M20.876627344260214 58.856070012589065 C31.701411871725483 46.848666374314554, 42.283434856686554 34.64256181499603, 53.56675277687725 21.63110974316645 M21.15691434864013 59.12009233859521 C30.626607035680053 48.53808293697624, 40.01164912491075 38.267247082384486, 53.62903233545556 21.893482478030723 M21.417253895155255 61.29563894855864 C28.864515829364535 50.50083890581644, 37.200936019292314 40.995869947718454, 54.8689833727738 21.741116520483555 M20.873378349499063 60.5459920021306 C32.4888678846399 47.3342100208181, 43.25322663719061 34.837670024633425, 54.48286696631823 22.161990852141237 M21.09986811361196 62.06211815788869 C32.175659912012236 50.43366852115553, 41.51426356529825 39.04960231043892, 55.74944462990052 21.638227809443393 M20.843008765277318 62.0126378132254 C32.703771680894036 48.29254846734106, 45.24567531189879 33.918636129583646, 56.15181061090509 22.10546993670945 M20.87903402676133 63.917976013489096 C32.7512863198173 50.714289834691606, 43.66328880845509 37.09537310040389, 57.180967243517046 22.30385982927989 M20.967608624600075 63.784303574505316 C33.290049804110254 50.87234810463385, 44.57667618475173 37.30867171635866, 57.16716808088212 22.110856723599763 M20.831498593494416 65.40922998831267 C33.31753269899474 50.89580294908502, 44.431328762972626 37.47112626201784, 58.77846865806235 22.513888848781733 M21.235714361717896 64.97805710544091 C29.68183220315393 54.08145100224067, 38.61572186189436 43.83917792017771, 58.225321474346046 21.916833997257704 M21.203154058118287 66.76667917736778 C28.306572169975595 57.59348041826374, 37.296842467819346 47.32837755245461, 59.389780458388856 22.10999257161547 M20.848890866585805 66.7096202722825 C35.57790519322894 49.991205853645845, 50.386910847596326 32.79674825297961, 59.430456598324014 22.083801536701742 M20.875052010658436 67.68662666988513 C29.825153044275197 57.52600684629666, 37.98378720228219 47.5826185559871, 61.29961037031755 21.869858719268322 M21.179219615453405 68.14836884050241 C31.744461254302877 55.77485016876715, 42.29888562206118 43.75972361283986, 60.69354297103882 21.941422378720112 M21.090383066240747 69.38805260821475 C36.68715544279651 50.64575255242998, 53.81476636946499 31.6103407914367, 62.15522643580404 22.20072310326372 M21.1336934805322 69.58611659083496 C34.30163132581028 53.761248846534315, 48.29066428924526 37.94353350302591, 62.278636254743375 22.284571447120644 M20.785460701908107 70.91985946650891 C29.332988833899805 60.04261677555263, 38.15560317872827 50.46883955379223, 63.734848536227204 21.84347594777504 M21.046319224355813 70.63154356729277 C31.842965679017667 57.09286564061341, 42.79951145575721 44.397501008978175, 63.509333615774864 21.87818725296389 M21.168582112421433 72.33602785177763 C37.501183538304204 54.02695404819519, 52.42045863918925 35.46789958507924, 64.6472825907354 21.758682119339046 M21.199777373559527 72.32387828318137 C31.26892650693452 59.94210780734231, 41.74577375943589 47.9628096809548, 64.46690302239983 22.277763459155597 M21.052185594421758 73.73251092321883 C37.49232636229905 55.36724930322705, 53.1921148901488 37.27883249892686, 65.6214141225151 22.223936625475126 M21.04800677270643 73.7413427042356 C31.84381651476309 60.95829071638906, 42.12404757797704 49.06654090680898, 65.97318997857397 21.995119588747507 M20.66515982183313 75.1070229749252 C32.67345455473668 62.07673959287643, 44.061445623209764 49.554457264376055, 67.43702337979886 22.053583931446134 M20.940018016043922 75.26850422517862 C32.99232166980897 61.53067717777843, 44.925860031769076 47.452629381702316, 67.13556135906376 22.196039216327595 M21.183058904916948 76.4629944213045 C39.55466582766769 55.35131376373053, 58.289079438094106 33.750988283186956, 68.69493581384813 22.153835580566245 M20.854265622374783 76.6490551284916 C35.45752626205487 60.21053196344961, 50.25568613038486 43.17827429593964, 68.28051613880658 22.08364560792255 M20.84020662472136 77.67728739827423 C38.27896220254442 58.38326673518474, 55.227342779315094 39.12755778487919, 69.7548555613901 22.222516313812427 M21.026453361101943 77.87776877596929 C37.93634312345698 58.2336853574119, 54.15435789614354 39.58639800323921, 69.62279412183675 22.1524585507719 M20.797743847409265 79.30915732072748 C33.767127365156796 65.99451347940675, 45.813017776790375 52.23628255137066, 70.49721674339544 22.178884971398794 M21.036476978879136 79.2673257771706 C35.16434096873398 63.17961581188274, 48.535630446057056 47.77402544061694, 70.83161277212844 21.87043079183163 M21.151030762630512 81.13037215987632 C40.80047707935361 59.085186602073755, 60.33662442651075 36.57999260703364, 72.0733752249825 22.40708178946828 M21.156251222890774 80.78865775593255 C39.88868431373062 60.49981280875882, 57.907507612163826 39.7929294447593, 72.28616477507455 22.140085254992417 M21.29754212103083 82.49863896150345 C38.65233040100571 62.07525531877193, 56.47329794508764 41.97646182886489, 73.40236315542197 21.848931690349247 M20.967391352885215 82.39930409720681 C41.8251015813082 57.95983923603758, 62.180195330414975 34.75020652763803, 73.31055439043902 22.23794272486608 M20.692653787221104 84.02806455325668 C39.71096062149566 61.922065846809744, 58.46213612179503 40.13075101998353, 74.95180917326182 21.80949714865359 M20.909117863831625 83.72018026776433 C35.8051426362381 65.9170181459061, 51.330999129239345 47.95055903391832, 74.74720721066504 22.158439710030876 M20.635500444429624 85.00298692192533 C43.23135991778332 60.12563831263999, 65.37880245178962 35.42160742307286, 75.52666002117844 21.9201784421469 M20.853317128348237 84.94602406733198 C40.89334691621745 61.930441842951154, 60.50951255758102 39.382634281889, 75.76978742714778 21.98433509910685 M20.660564055580892 86.8167831701989 C41.82425474396861 61.96912056174858, 63.91787581097982 36.80795660582068, 76.9299029493506 21.979148187188276 M21.15988238944226 86.46092940890867 C32.97435439464412 71.8733633019816, 45.38981057110307 57.49459131662714, 77.02494358575653 22.09850584565239 M20.80665496456288 87.91783966767474 C32.840528791044306 74.60425391827737, 44.79762002248903 60.424150729015594, 78.26543884500704 22.249128047248366 M21.164860191475384 87.8398217845361 C38.87130095582563 67.35521063960498, 57.180159518183615 46.50080801153116, 78.36539458649983 22.07565649190428 M20.683504723456565 89.5014213448577 C39.610295927927055 66.15692427137213, 58.89522501936466 43.96671203232095, 79.78877898062176 22.198607285820643 M20.950795555253364 89.34206371129395 C38.733100191407985 69.85703862373867, 56.0392697481451 50.01301376647723, 79.50503974594375 21.960189701533857 M20.729128617055437 90.96779796367497 C42.676944694843144 66.74823821178337, 63.76598598255494 43.05742789019524, 80.87385602748019 21.910142111583873 M21.096793558667912 90.86949355373642 C33.24396820700022 76.20039579589609, 45.80658767689327 61.922730234563275, 80.79583122092433 22.131928236789026 M20.985581815990713 92.17728910462169 C43.138605844807486 67.48562318459129, 64.74493098417116 42.48416914974099, 82.36299791283982 22.33464165040866 M20.840559890881394 92.13129809075063 C35.440048528179176 75.36887444107803, 50.33554066846828 58.124782090010996, 82.18998707788228 22.2037793487187 M20.752130211084022 93.5002868256262 C38.17473620422744 75.31699685411894, 54.622689772467695 56.375726412466726, 83.47521940614097 21.802182719697523 M21.01868485429327 93.8355384370723 C34.32707405478571 79.19451583284778, 46.963599417301296 64.68389339066202, 83.20914326624867 22.169759795096123 M20.94763154931357 95.1602593009654 C43.255803215611806 69.38262454160537, 66.64847219735162 42.38838640759938, 84.6543478177134 22.250026618159207 M21.044597511305653 95.30949932628178 C34.45574006239721 79.63201628118506, 48.06969773236111 63.9160933647244, 84.57603431581593 22.029152893672837 M21.019852686504834 96.43173194501732 C38.13095697768662 77.6902556264184, 54.5773137465781 58.369579549665886, 86.09186348025484 21.88954338393324 M20.85737633120351 96.69460708257834 C42.89660652042184 71.09144199840452, 64.63996218721046 46.134680926811, 85.80414588714305 22.203240448677818 M21.0035517759228 98.05785508641725 C41.43801032373749 73.75583217714424, 61.88629729237363 50.690804115357274, 86.77569655787592 21.745355223268742 M20.913834201193794 97.95478252281207 C40.05886805405467 76.54585422023393, 59.46431865261438 54.56699009217589, 87.02845955394002 22.01782276395361 M21.04244010121448 99.41106859800169 C46.021870521212534 71.29286725581899, 70.72215688068887 42.37314821320287, 88.15478005856106 22.0593994934945 M21.060559371073538 99.36901104880582 C47.47854250957643 69.5966602148786, 73.65598888047433 39.63143292264735, 88.12456166227378 22.037350586679846 M20.74490733419421 100.87622229324703 C44.602510060086246 74.3600837511756, 68.00940338610441 47.236121292789875, 89.38099749735537 22.145976401765946 M20.885503482994437 100.73699724511937 C41.09322743652804 78.65647122546036, 60.291409972531596 56.23392027730161, 89.5381666094679 21.938603468247837 M21.29377053226358 102.46030728650808 C47.23955239850336 71.03260029378012, 73.64787758151391 40.30228548019251, 90.70489731897787 22.247856638368834 M21.038912470489095 102.21060185169256 C45.1418406647947 75.34826759476917, 68.77491108995498 48.05105060426524, 90.74262599267654 22.075345942959093 M20.948079337829768 104.05065969115091 C45.805557615119994 76.16840366696886, 70.3778300942728 48.66752928310189, 92.28609134371996 22.088802984079443 M21.087603165613217 103.69516677895686 C41.13253755863528 81.30852292469933, 61.21991635131498 58.328789798663145, 91.9326927208573 22.20292792806526 M21.245153418506646 104.95672101453623 C37.74559946378018 87.16644234826235, 53.97272355406393 68.1219441447456, 93.11401649285006 22.054269358578615 M21.05286167783578 105.17821791726169 C36.74728049845237 87.53813661262546, 52.32481434508824 69.86218671150964, 93.30174223168655 22.20137281997975 M20.87303338437306 106.67166971329655 C43.748249504344145 80.12975108873883, 67.02977649842686 53.1011010547259, 94.791693022289 22.351876003997756 M20.88917734718771 106.66881807319088 C39.1790956190689 86.88645159450692, 56.5235559312181 66.68580865349254, 94.43332850077479 22.142646389225757 M21.151178879807077 108.32636002295621 C36.30015725567853 90.02891194042782, 52.2102547791128 71.50221916251641, 95.78317272797867 21.878611252777326 M21.03175726928407 108.06529801363205 C40.758665428287856 86.2208744755871, 60.3444435117721 63.67294462498006, 95.77836240313061 22.04830331588781 M20.875554153291063 109.32564316713518 C47.18998600658945 79.12025735960238, 73.06174254166625 49.262579294321256, 96.78457247393123 22.191759365754905 M20.90197442841105 109.38520468168683 C35.93901746899917 91.64194656731385, 51.491931102466424 73.85661600712524, 97.00881748412534 22.12456287041598 M20.8316872368043 110.95136443612324 C41.470308661715165 87.71706708079981, 61.28839376973103 65.02994467854603, 98.51360861210439 21.946024014600635 M21.107388677441918 111.03893417701147 C46.33790764255612 81.27080280862134, 72.48888303088461 51.51863503460282, 98.15479670344695 22.087908410385086 M21.254737784735255 112.52328314862659 C37.57559755643683 92.79557959462598, 53.96042076686906 73.80874778979424, 99.57155042655614 22.034518850232057 M20.903154169019672 112.4287579523409 C50.7115589378315 78.57329288894144, 79.68971403408631 45.16778982654916, 99.5186127081212 22.11291933646158 M21.15454888384022 113.96811277366075 C51.98849520245412 77.92292126727672, 82.50484389282364 42.57666957641246, 100.5302911530884 22.27699577670548 M21.034208563016534 113.7959601527777 C38.77719465236457 94.0499923203187, 56.14828612563794 74.09961175346098, 100.82298491392177 22.061086829044175 M21.019299228210286 115.09019838555588 C52.407792671535645 79.56751541545566, 83.54097776827659 43.484570879342456, 101.80907490688104 22.26820987970167 M21.083754255919928 115.31530872305517 C43.19466556435364 89.74922636259785, 64.99769464735525 64.51320842322396, 101.99966887699321 22.03420614080226 M21.05249353057542 116.78103992189129 C48.89282209946239 83.23061027898561, 77.07360215841175 50.46417103003715, 103.34148148357164 22.17176524258633 M21.10862501790018 116.65414925299498 C42.07477496962302 92.8370075922499, 63.191021076215705 68.84066705668565, 103.13054092383543 22.124786677753487 M21.003827314667973 118.27551947732962 C51.0909942659583 82.7597135614918, 81.57170173991511 47.70095506233194, 104.37896702792959 22.235872598149196 M21.06829683124974 118.09491983727531 C49.90561719395495 85.23179507850753, 78.1574179943562 52.8120119627412, 104.36595261270082 21.99892435205095 M21.12684165982415 119.34505582367716 C43.825954378521416 92.22890448178043, 67.07669610176472 65.36242314464116, 105.67108249985648 21.938956033035257 M21.097378328946007 119.50182606758995 C52.99119474761493 82.06792894016257, 85.0378843166612 45.28361972392314, 105.69084549189088 21.948190090719045 M20.893336638955844 121.13457553943242 C46.078522312488474 93.56871607812151, 70.4531110927948 65.53445514277851, 107.0793481430465 22.060173806378554 M20.890589765824245 121.06545239140065 C54.44896913330224 82.60910071530662, 88.31727221774787 43.64537794701243, 107.07211937841939 22.144042867568924 M21.106023020611815 122.37350014870299 C53.88672100332235 84.82995588789845, 87.12834793580494 47.32382388289809, 108.11939315636741 22.21737162983591 M21.05239393349254 122.48216775968771 C48.00127725585283 91.46716071455916, 74.5901277088898 60.91378680833002, 108.21382003381247 22.117160828345284 M20.90774223056198 123.8835076767793 C52.598951946515086 85.97012416908186, 85.2210790378756 48.964441884290736, 109.66368705972229 22.12779094304608 M20.91228493594045 123.85946934831207 C54.32154382497299 86.38873066491624, 86.81831933170194 48.94030730781325, 109.49274917768295 21.974540980132687 M21.06900928257417 125.47074831089945 C56.27540667732629 84.4841874272442, 91.22958519254043 44.3159898674676, 110.87108233582816 21.99894538241299 M21.059765062360583 125.31295705655032 C55.127330215037915 85.55105168000193, 89.49834018696224 46.27584809062283, 110.77818076616434 22.06092299182701 M21.05864644024453 126.64269387790401 C39.98113863080806 105.37813275012621, 58.44598291225934 83.96155688853452, 112.08223962360245 22.081213865568067 M21.022884544353673 126.74275654090921 C48.76953896459233 94.94406759560978, 76.25808865206264 63.27510222196532, 111.89210258879737 22.018130470229604 M21.000808315754682 128.121451332783 C46.854581636474435 98.5926888554063, 72.66856332677337 69.22084769879964, 113.08893908818882 21.95681821585334 M21.049880277767016 128.08522029246566 C55.98880703570374 87.58893870970543, 91.03315446212302 47.30325494810942, 113.18345846366404 22.119127097947256 M21.05328640241268 129.67169161940205 C49.21149489819517 97.40210215932416, 77.22405959163488 64.77186442411536, 114.6356529230137 21.863437191784662 M20.92530023862392 129.42277288159093 C46.57066790156014 99.88597973764786, 72.73899593605772 70.06637618273882, 114.38078581393353 22.046768449831713 M22.138832753923054 129.4181232900866 C56.745783226752735 90.26018824034652, 91.51361999977003 50.32872396604567, 115.65615776682858 22.25600543439285 M22.249388244751515 129.42226758599375 C48.26918138249596 99.6283184338888, 74.86908119469092 69.0948256217634, 115.66417827216105 21.97305659067461 M23.334404928301893 129.53939312044832 C60.231126906682775 88.2367387990367, 96.40019539143248 46.68786610649106, 117.1252062506947 22.042086056517668 M23.422933782989105 129.46979004971521 C41.876745608553634 106.95781952450167, 61.00371755884906 85.1226851526738, 116.88640418444137 22.00948279743859 M24.931327248558404 129.52742941415272 C60.729521100574686 87.7542502910174, 97.24994543067126 45.48319903511091, 118.1672609404687 22.22367945675295 M24.734581592102757 129.41904583166098 C52.2548744158273 97.07268778693263, 80.41688300508079 64.600927329596, 118.27835513066452 21.997850409754758 M26.182940384563352 129.57343307354068 C51.32712916675541 99.5616246724822, 77.07599431111382 69.85150614677367, 119.32237292268607 22.259290865058805 M25.950928936847873 129.50249617128406 C56.225085214190315 95.75305872299643, 85.77114970678949 61.70970418173144, 119.3535762332837 21.974644095255737 M27.26970073273918 129.5172940149103 C50.98682442770627 101.64863260353059, 75.91707581759091 73.35597679356005, 120.47313493991942 22.04333339939108 M27.363317530385373 129.5909631228474 C53.350380948406254 98.90705896782336, 79.4919868580825 68.87602852621376, 120.65382502308779 22.14024456832044 M28.30663892835895 129.68107242057584 C65.17043504538891 87.7405830306912, 101.90160725836841 45.88904769612071, 121.81297336096426 21.96230687464041 M28.494167322391718 129.51003828025176 C59.02228264149795 93.81438681461671, 90.10980284106941 58.14773110979448, 121.89390496493323 22.167304574739212 M29.946624977984527 129.39801960130762 C54.92765079717732 100.59387649194169, 80.42889657434223 71.12875185777975, 123.03679229162258 21.894936612969257 M29.74350329696469 129.49241081786158 C55.68537056784122 99.17234918212921, 81.83254179267506 69.28257379691136, 123.1984693454173 22.12388524033294 M30.86326872666926 129.69050380399577 C52.20174414238227 104.26821697976348, 73.96669606312823 79.15521799291099, 124.31435797807409 21.87671980552419 M30.996808367590376 129.52780924069248 C62.404650110990616 92.93647108814687, 94.6433460822028 55.914268182255036, 124.49486474183281 22.158886500648233 M32.30455768697156 129.61036375646597 C69.65121879320895 86.40280591990816, 106.36394845854886 43.75769442022777, 125.69615715160243 22.0693332601384 M32.31499914168974 129.5683032901337 C68.55390454980082 88.46961903017294, 104.79428755886582 46.72479882191046, 125.56995020050346 22.02619128968405 M33.474079681147884 129.3279631838224 C69.13023178892382 88.11432661903214, 105.61602888263994 46.071594199467974, 126.91062851352191 21.885481107734076 M33.51970727484294 129.62669737076843 C59.570138311398566 99.23360464094108, 85.76452270578905 69.04558346726479, 126.9296841120417 22.02525634729168 M34.59570003202852 129.63640700712554 C55.00031130861768 105.64225115241089, 75.67339162983146 82.128248145655, 128.04340582486992 22.236280752296167 M34.83967734915478 129.5225769727681 C57.25388033991348 103.59748949016947, 79.73816059442585 77.55837405938732, 128.05717980497047 22.06345328030414 M35.92443533814533 129.32435670709418 C56.73067616756555 105.5226925194824, 77.32264566413647 81.8212129801289, 129.60387277625622 22.023964919431574 M36.08232172116156 129.51456164765517 C68.68568120258278 92.97554957423048, 100.72810400753102 55.851068677406815, 129.3924033416261 22.160219860322556 M37.35573902203244 129.52396228137292 C57.00983448711635 107.4729388651788, 76.86781327144097 85.18518600734713, 130.65266346263212 22.225323312659096 M37.31646993176351 129.5022421036333 C72.31700360766051 87.8429681450583, 108.29443855588926 46.45489235547427, 130.62766246864769 22.061508587962564 M38.514630904187655 129.39536401921094 C65.11722460943078 97.99180317040427, 91.9695639502046 67.1313100788292, 131.75249634285623 22.014682385405074 M38.50886725756308 129.54215012933935 C66.91297518504932 95.6300529197263, 96.06519797806504 62.074720289455136, 131.80451701313967 22.093016960087994 M39.75033489704796 129.45313350275302 C61.455323358717166 105.12226864052914, 83.06139845487733 80.21314733311357, 133.1091219506891 22.040990615966027 M39.65087672982321 129.54503967817956 C71.80196651867458 92.19944444207242, 104.33528511500734 54.696064856134456, 133.13800716724566 22.135937532598476 M40.9980840751098 129.31502893733966 C61.238867458222515 105.9326388678646, 82.32750121677378 82.43009212747909, 134.17899412791863 22.110902282417428 M40.948167099797075 129.45092567276737 C71.02855920391198 94.87379449119038, 101.11076212573198 60.070069615668, 134.39055436443059 21.994782480700767 M42.309374400610196 129.4097449470495 C61.937821344631146 106.29295265755974, 81.52355691010132 83.46573918814778, 135.72043321888583 21.914051573837455 M42.3140874959178 129.62592469364836 C78.87135140401254 86.94092692641281, 115.81704827203473 44.29937386487648, 135.53224669506093 22.104573299334934 M43.381187970613894 129.47118866376144 C71.74778618470053 98.08430702570709, 99.6126989054566 65.80436521516258, 137.0590230339606 21.944627448084837 M43.495720484849514 129.5144575753068 C79.98559439031072 87.05571429616185, 116.66569455455402 45.03704860290343, 136.86752366717 22.03526086838801 M44.497041582127636 129.6458074114575 C75.87805319054323 93.10936991622245, 107.44783148482728 56.730728027333555, 138.13745502003607 22.235238793626326 M44.758418656392465 129.54508367001887 C63.81939879090015 107.17514165634405, 82.91953263895442 85.30121464470629, 138.05027754280275 21.97518603960387 M46.100400413474944 129.5385574232481 C83.42009182189666 86.7720304219988, 119.88956407652391 44.893058041417696, 139.3051659533088 21.85236331121505 M45.92635596798405 129.449703444312 C70.48774401063092 99.75339687993605, 95.70368095637656 70.80351365678331, 139.32550772904617 22.107795039379866 M47.249492954971004 129.46393922778884 C67.14277175744519 107.23776084686654, 86.3214110956727 84.94868443503177, 140.51641582388964 22.05658859384042 M47.141171640966846 129.52199492790206 C71.6522264611821 101.8718616135503, 95.74538821179576 73.95897149728731, 140.64187716778036 22.040286235757115 M48.30538576487231 129.6442965997536 C70.55727998038579 103.00070258719575, 93.44493212315858 76.66751574384384, 142.0622680064235 22.057283373908792 M48.33491143785611 129.5827522109363 C78.60148109976079 94.54646155116362, 109.22224349376859 59.054638058542686, 141.90448759758925 22.07414489981016 M49.62104602874889 129.5548004728815 C83.08427439242 90.40919093765336, 116.83980587113822 51.26271941007183, 143.24225207054263 22.181192539184927 M49.75126485257209 129.4393534701428 C78.28639901521996 97.9961710728862, 106.123393975075 66.01895497503645, 143.17151489228613 22.043135506175027 M50.98027298516236 129.6360798345923 C75.93873381121735 100.8378491881391, 100.86711828136114 71.80650200755791, 144.19594644605172 22.20490883055206 M50.98285840540048 129.5372146177848 C69.65766271309579 107.22961317059922, 89.03011757266675 84.88314156772319, 144.33293820875107 22.151602023322436 M51.97184367459394 129.3637711408781 C86.60858177050117 90.84119893807113, 120.66647383487312 52.05661672645002, 145.5427845594962 22.00421775480997 M52.24984437943459 129.43754289917155 C80.40094914101195 95.90398766857246, 109.4101406962489 62.76092530929779, 145.49641633480564 22.083253845856056 M53.50686404195227 129.65298412313012 C90.04034047693 86.31218000808477, 127.42258339440758 43.52708455608046, 146.96939505870034 21.990526073012823 M53.43479713173976 129.5178181863072 C74.212248412625 106.83713924252731, 94.24794456999416 83.65148498853611, 146.88798669544073 22.027018112431747 M54.72594476887235 129.31471610075815 C89.03291964503883 90.00475967951132, 123.35308309552825 50.59667623448197, 147.98430016721852 22.18026540413964 M54.6692513951634 129.4709711342734 C91.01900172906622 86.95297697708213, 127.87392971771426 44.83077347090938, 148.05333168420142 22.151210194011593 M56.12883945888743 129.697155245492 C80.19711206756496 100.62797042893918, 105.21808860529109 71.98560391518163, 149.26833046209848 21.919793374717443 M55.90157775801093 129.5270735235185 C91.98521195046189 87.5281970535832, 128.45835179139388 45.626178388785036, 149.40805862550474 21.998903500043696 M57.28508928251151 129.6010865746433 C85.35837481041723 97.89234586850374, 113.58367008517405 65.62097479681714, 150.41131929425777 22.03175163495507 M57.23776164057654 129.62724863016015 C89.05577740966633 92.13444683714656, 121.59411903376483 54.81255469051592, 150.62411526716298 22.023744396395042 M58.523531981779655 129.67500168222037 C87.98934346603893 95.74402981627429, 117.39643115887435 61.29986106604641, 151.7148594781661 22.08651552754673 M58.495203278485945 129.45183347541257 C82.6242393312481 101.37190722498559, 106.91785198708854 73.6670072254005, 151.9243070609873 22.058910886884203 M59.78996113724516 129.51505527880408 C93.75633547165819 89.56494806582947, 128.55421143378578 49.72256158929427, 153.10338616054847 21.939100013098255 M59.73634947003411 129.61534090958452 C88.44039436791041 96.46556468660256, 117.03259041529202 63.34960485372699, 152.96745371337298 22.095521671025466 M61.03211302511656 129.641141081979 C92.49855233618388 92.87241261894047, 125.20885319821359 55.624503082005326, 154.3790552613913 22.129878896151464 M60.87445163457684 129.4849992422695 C88.37960446354275 97.10825483411136, 116.51015221305683 64.5857327949655, 154.267415739558 21.98874584723984 M62.074496586737766 129.47917191811106 C86.33089705458528 102.49130301840772, 110.57763496108083 74.63877082120713, 155.35642195635344 21.883084552608253 M62.17371166939289 129.62141480497615 C94.53245861076417 91.03242436646168, 127.45382619112465 53.28036324703624, 155.61566570683007 22.13341068323789 M63.25309766934457 129.58654000522887 C90.56230484151764 99.113314473728, 117.44079383573259 68.17575864952764, 156.72134353324626 22.1003533159023 M63.31136143351863 129.50743289488292 C88.84776673547223 100.51497677761523, 114.20287307815966 71.12958870971364, 156.76962237976062 22.12121119775398 M64.6810577877705 129.31499967080566 C101.11063808463086 88.05128842003039, 136.94474486936366 46.74911750716287, 157.85882044538278 21.876986144930395 M64.61177796751275 129.5005592827945 C94.76726057049667 95.15138441900761, 124.7808974070138 60.73454427563002, 158.13775758720536 22.01978056455543 M65.70526744700886 129.49147991403441 C96.54920725073501 94.31476909123333, 127.21955712698662 58.799700727536106, 159.38105714504957 21.993186896184444 M65.78680370299845 129.58050892578905 C96.20864973648855 93.19802008930432, 127.05333259592105 57.441061156622304, 159.35705641922442 21.99502026968636 M67.28250333303399 129.45816423956728 C87.87001665631928 106.29269206922623, 108.95789551614135 82.59823398576616, 160.5861661924818 22.146908831768613 M67.14187225484375 129.5538695996267 C96.68689004662728 94.44758202197784, 126.83641414350461 59.7688175667533, 160.45327302905966 21.98895005672672 M68.44227116817109 129.7014009833265 C87.9324473368866 105.67525193526563, 108.09559032663111 82.62478389062808, 161.67846014022092 21.931333764804226 M68.2720038606296 129.57576316019617 C96.25070329005149 97.07800248787979, 124.39627673645268 64.81851250959132, 161.7905807436574 22.09095976736083 M69.47221506111535 129.48857796525598 C90.15089988386471 105.15916379368025, 110.79757842503369 81.00295998767263, 162.83939025411007 22.01866082994743 M69.70178658693396 129.5541145318051 C100.55088539571713 93.36877768227176, 132.30444901733574 56.94208733082916, 163.08050757400804 22.14043064647709 M70.88104732497084 129.62140865663994 C93.45742325375323 103.91072624869531, 116.37170517608493 77.1734235069664, 164.17729385613973 21.86077048420581 M70.79651363984145 129.49111055130268 C94.04785898739901 103.26134126416298, 117.19330661277277 76.65552060713307, 164.31455376809612 22.168293722141673 M72.17769627967093 129.33275553628795 C94.79480337591406 103.46202725936679, 117.17733934966577 77.70193656204823, 165.4059589243811 22.145643610542173 M72.16750653234969 129.5743404324155 C104.89922188369414 91.60525242052884, 137.28362213431686 54.04349685930558, 165.62558424093115 22.01228320407775 M73.37957787763231 129.71419046926005 C92.63944723395517 108.03647578930703, 111.357752899553 86.48253461899114, 166.9170634644335 22.111917394167513 M73.44046348341298 129.51159637061403 C95.56931857641064 105.01794300260951, 117.0064770718891 80.57911445648097, 166.80614903020012 22.134644349585766 M74.51800498170263 129.61637183547145 C112.70712131242468 86.71985067146579, 149.9712896875677 43.87565613110564, 168.0000666463685 22.028523924566937 M74.55953153989267 129.60508904662458 C100.84953019130757 98.64799422171774, 127.21850805489207 68.02600084637682, 167.92283079276228 21.97966070780275 M75.79144655498439 129.43892892762256 C101.98897113580156 99.6926841109665, 127.82316147632164 70.08732996002698, 169.38185319525599 22.01396950581633 M75.8273164229206 129.5452081892517 C99.16162310572506 102.17408606392979, 123.03675667832721 74.4818895554067, 169.33696304490104 22.06733588666401 M77.01868910235355 129.60888615483262 C105.14856023071707 96.31056984046243, 133.99496532996162 62.97980690235588, 170.31609601488913 22.17194630694846 M77.16642738654255 129.60103708928568 C110.68566020922246 90.49211936767733, 145.0095215143658 50.9682052823314, 170.44063708635167 22.16189719186996 M78.30895310945009 129.45344014733138 C114.67465893358043 89.02723130606063, 150.61007053174285 47.26486444265475, 171.6122578932305 21.88988277708794 M78.33030410273665 129.5812234468548 C103.01171948280572 101.55996475595668, 128.02699007585866 72.83826309706342, 171.78482538561596 22.011201012113744 M79.78665775580376 129.5647040585651 C100.77530494541855 105.55881347995361, 121.78245047799231 81.07366667982535, 172.99402149371355 21.972801943335114 M79.57793730787635 129.4473867263596 C115.17668867551045 88.41887331103217, 151.3499199165983 46.53540688295082, 173.03983347303108 22.006496465779612 M80.87975908332486 129.46302692638608 C112.20537521818378 92.2107677134511, 144.17996897000612 55.451565050177585, 174.40197556739986 22.234387112007568 M80.9096084950106 129.5656021991842 C115.1114624692841 89.18263472957821, 150.19075764713824 48.899804587420434, 174.25185747938065 22.070357992242595 M82.11056660472333 129.65922566846677 C119.62603271287499 86.71309889637075, 157.19739722090992 44.01939267446333, 175.295287387688 21.932168052747866 M81.9975083335687 129.61954880396735 C103.15283610764584 105.72806410849215, 124.02517527937347 81.67794092250708, 175.50909701699283 22.070211013313973 M83.38696005139819 129.53583898734382 C110.4661274775402 98.49005811731661, 138.00668765647478 67.09291343625392, 176.7768385344202 22.119848466854005 M83.39251570917286 129.5192251704873 C102.41540891980462 107.0801602485241, 121.75602353690718 84.71009439272439, 176.7114686370276 22.12405590330993 M84.6207923617497 129.55647166329953 C117.46359316710328 92.3664414403774, 149.43334419042947 55.54430313261397, 177.9430934370091 22.09760195449205 M84.59996239813147 129.57671129739364 C105.19322348063507 104.9246810630606, 126.37585860887258 80.45917217615525, 177.94375338239917 21.982906590384463 M85.81218216539357 129.41652454749936 C111.53658481988344 99.4491119849394, 137.30627336388048 69.9199125013567, 179.20827000596108 22.040600860068626 M85.77566812315021 129.42142871252292 C120.35755177087998 90.78870688745866, 153.9274898885605 51.93116701821381, 179.2695950884905 21.957823640251068 M86.97590847540162 129.45290970145413 C108.91267929314289 105.15998748115817, 130.4527925288519 79.96784512638354, 180.51438980761066 22.10940619516004 M87.11845967842243 129.61734171191137 C121.92000848435781 89.90544969019295, 156.41210807289468 50.31198295636544, 180.37941691319799 22.07598749308468 M88.18745763351764 129.58317198753076 C112.03074490121263 101.8749399853327, 136.11857379278447 73.53380991447571, 181.5564051726947 22.19115829250392 M88.3184069874228 129.47278632424394 C116.50375430173983 98.6804723721335, 143.77425802159266 67.38369358019176, 181.77151982508494 21.969271180444704 M89.4933186982127 129.40531336929894 C125.03611813559264 88.83021030051461, 160.59257412762588 48.00392914433949, 182.90497730634658 21.871408191318075 M89.58763272489739 129.46938182713552 C121.5994235820297 91.51044366485873, 154.50982695227117 53.78009632058544, 182.92703670463126 22.07192850316219 M90.78403922818725 129.6735155642269 C115.39694589594498 101.72139329341599, 139.73226286770256 73.32742157539832, 184.02986594229048 22.012536188801608 M90.74322309110208 129.61543451641876 C120.8225190829015 94.48789535910359, 151.17298992912768 59.87203118954274, 184.18375620552914 21.97694187014879 M92.0753199253966 129.38583258325428 C121.58832678298538 95.5923700668248, 150.74876616477087 62.25317632694228, 185.4513079543136 21.889703160671395 M92.09859327606925 129.485862296513 C127.20892809109478 89.59289254902214, 161.8746039924454 49.615362052357554, 185.54108659381927 22.091925112784153 M93.2793052875095 129.50228135348843 C115.43850005477273 103.78871259552483, 137.96679076995093 77.70641294796118, 186.88125569385573 22.044529529121622 M93.32063635899436 129.4778646008851 C118.48219725095757 99.75006041437219, 143.9347348927014 70.61278420989444, 186.7384204243898 22.105356734313965 M94.42362730277685 129.63853654709015 C129.88778382066045 89.1519148901427, 165.77370926297553 47.663687472263334, 187.8075692381417 22.258876382739455 M94.56668023613335 129.48046118486923 C114.21472833880534 105.92679957428538, 134.4160832838132 82.71410012742038, 187.95140772408735 21.96151773314405 M95.74029813019264 129.3218794734991 C120.76536120475524 101.59789283791079, 145.35403239735862 73.32993677669127, 189.39385281810314 22.04534831695539 M95.87679987087571 129.5074603998147 C124.6340602371559 95.37807235817746, 154.14508708206606 61.57095814444628, 189.24003710554314 22.032251115552526 M96.86808488532364 129.6820780569878 C117.78801628755394 104.91099379793343, 139.44389939873733 80.07639684469132, 190.57369628012748 22.219459943317045 M97.07442496317583 129.48054096251573 C133.7019314013523 87.92654545960566, 169.69186818972042 46.54789505081012, 190.55159689255655 21.977257355264754 M98.12106981479761 129.42272699386422 C129.80166168782486 93.19970100388969, 160.75207622630006 57.58180421763711, 191.68093019295839 22.12308869293554 M98.2742081755988 129.51108950772306 C126.8494824775708 97.22500200843041, 155.24060604085795 64.50208791304362, 191.76368240993787 22.03042505814212 M99.59566083450466 129.43335680418966 C128.01060537487766 96.42528064364629, 157.24012843763433 62.98127098785268, 193.05379897472105 22.27690073350512 M99.50093813849101 129.50672521065206 C132.3777439518003 91.17924562709318, 165.7675474407967 52.7602098856151, 192.955277537683 22.148410053105636 M100.98223542321661 129.58200009160063 C124.61631872480554 101.30018701454526, 149.7746161055204 72.56253167135976, 194.0384517097877 21.87674865725476 M100.84324361773031 129.53141596670244 C137.52218966722435 87.10098219761471, 174.724563292666 44.2849053774714, 194.16178224603254 22.02175207300221 M101.89976875933797 129.44847583012734 C131.52933659608414 95.20762937411243, 161.62675700647713 60.82783978454539, 195.52061083774493 21.980336667425266 M101.93544114835709 129.51548783439864 C135.33598137226787 91.54903643106877, 168.99326210115223 52.971043267290234, 195.39289532405314 21.998369674068144 M103.4729450467753 129.67404426485405 C136.67327973269883 91.93998977794337, 170.212922113647 53.47225365492485, 196.8063173014458 22.097432287694158 M103.28320521780982 129.62631441645104 C125.90681388598018 104.09007022978987, 148.31606417966145 78.48390335200816, 196.78348310720426 21.975473124205397 M104.30852121843849 129.42599043455033 C125.42115667446535 105.88081411750812, 146.2946511645631 82.16564527079755, 197.8700434567283 22.253547015411364 M104.59921925585772 129.62022902977267 C126.9740417899855 102.47008098904013, 150.1785125365953 75.81341503269054, 197.98662790062602 22.052169009020936 M105.69766737109683 129.64937206687728 C139.09055953422472 90.46192011836196, 172.81750240866575 51.91263495581525, 199.25818548360726 21.864467604153866 M105.81176464201909 129.48116767046957 C140.23977637901663 90.54043749579046, 174.80869802938403 51.02447002744533, 199.08109559830712 22.11287762280829 M106.92840705729395 129.65763472771474 C139.97327997317026 92.1324692452831, 172.25760651247543 54.968636626093954, 200.4400614237818 22.17246249310476 M107.03441188544932 129.54119396527193 C143.5670190662313 87.92631450022844, 179.16540801693066 46.83141489373158, 200.35916986213508 22.151492264736074 M108.43508977617299 129.53936229643966 C130.2759779930583 104.3931931787346, 152.21638266241746 79.29326503292788, 201.8732887716142 21.869752881363727 M108.2141680649368 129.61211369002206 C137.22887211445607 96.84930946608037, 165.49630587162093 64.10184831151224, 201.62760848435937 22.14443439902522 M109.56224211901193 129.62324391744977 C139.1008583091639 96.32741813868226, 168.50879113126004 62.20740572610998, 202.70609248972266 21.995545662243597 M109.5667994173204 129.45569991183515 C143.83254042974974 89.80607570541065, 177.96620796032227 50.50714124676099, 202.97771870161503 22.019537369891044 M110.77572206002036 129.44122856749362 C143.5637094054917 92.61143823471508, 176.35476436106865 55.028979436796966, 204.2185353204263 21.96722378978901 M110.69297022982512 129.43323786421155 C136.00134670607434 99.65923654576642, 161.76645543759187 69.93167297710085, 204.076454130435 22.066746190458602 M112.1478691931676 129.68923403860364 C137.7455964540963 100.86032037542893, 163.2229397884354 71.37456383524771, 205.26865681217208 22.16855069125703 M111.93348081969437 129.42260731395325 C139.21579095091585 97.16749886153407, 166.9177170010588 65.18007441577332, 205.3193039909751 22.024876036935893 M113.14640031947303 129.45113727343102 C138.00389148856712 101.27928206078857, 163.15955656268653 72.57977158426874, 206.81149717406157 22.138562025460672 M113.2901075758942 129.59333152254632 C149.3697167633554 89.39162441531303, 184.81332646046718 48.69969831038516, 206.55873360811518 22.1378023289112 M114.34196612015748 129.43389975101917 C152.0137465841716 86.13968390883883, 189.3108464381626 43.290586058974206, 207.89688417581777 22.105310315255323 M114.4949355607091 129.5804471002404 C135.7823764053667 105.69903699137333, 156.7247138897938 81.81309365031223, 207.94333242565654 21.990799619123845 M115.78678495603458 129.52614580696707 C149.86618506120865 90.97319110155608, 182.99790176043604 52.41515989308273, 209.0503490971309 22.082695622576587 M115.73003564340345 129.43116604805257 C148.6709290975316 91.53648580899348, 181.33109199021405 53.97947632045184, 209.17287324693996 22.03080625950175 M117.15404895618427 129.66334817744126 C152.2297612504142 88.7723692989737, 188.15868406229816 47.30143060609674, 210.50994414570602 22.047368182341796 M116.96457968350418 129.595983381932 C144.40652316845728 98.63673616169856, 171.78955890794396 67.40554796710967, 210.288539605435 22.025880773022166 M118.16912127698389 129.53381783215502 C151.21951175644017 91.76181869270309, 183.79918473170994 54.23425740551177, 211.7258044072391 22.20204785477436 M118.2832324162489 129.4239338925944 C144.38506716418377 99.03463638982271, 171.1218376805723 68.45960359490479, 211.67224556433519 22.110327158503885 M119.63226729803193 129.42591586973458 C149.0675579749807 95.74171554131627, 177.8275970255311 62.13965906957574, 212.97650751784548 22.22821130928547 M119.40047944843349 129.58095035057002 C149.57035261799248 95.67806661690211, 179.1931272232859 61.71292812715045, 212.77958354750177 21.979422331500132 M120.576119146825 129.60834601555413 C139.50318306792155 107.45922691926737, 158.71611633562594 85.13980623754739, 214.25996969276557 22.262160611602418 M120.73498506506527 129.59431287825936 C150.7714608120878 94.63255869796062, 181.42359573598935 59.314797656276866, 214.18349013122327 22.125628174310286 M121.7350027343503 129.33480443480977 C156.05916610920863 91.03245667162366, 189.487289405208 51.83693480211196, 215.5182832467732 21.99610388301544 M121.9313300158795 129.49113887359408 C143.66728077030476 104.27771111335642, 165.73136336871207 79.03603361347098, 215.4380692502927 22.107204925807178 M123.01355963843145 129.34313642979708 C144.9366920996004 105.61668962674611, 165.94960407429954 80.99150720382806, 216.43829907882943 22.236876865889478 M123.232553302674 129.4272018882399 C146.47748815876824 103.19050255417878, 168.95650912176427 77.43271574123737, 216.5548819425964 22.10784605709319 M124.5989291340221 129.64875385080353 C160.4902345412953 88.5127696239279, 195.95613959222987 47.555130838152486, 217.92177903972095 22.128806303468068 M124.51361566196972 129.53220115856226 C154.10466179055626 95.77511320459226, 184.12427442548562 61.16516550130301, 217.7818001944445 22.019964421890847 M125.51483160088347 129.72904722487397 C157.45070229284377 91.91534028402914, 189.590131946937 54.95517267637822, 218.90384771637076 22.086017197361574 M125.64121931248846 129.49673252632095 C152.9242778042331 98.32660553699772, 180.3965168868774 66.81397921318553, 219.04296807960986 22.072110382966514 M127.05456647542893 129.61535243939596 C155.94110966591643 94.97469236085075, 185.32843927779209 60.98173585173097, 220.43893074746572 22.24572281944184 M126.85392063688454 129.61884718399057 C157.57665388709455 93.98512222916446, 187.92942676194497 58.91962828441842, 220.2605808917697 21.974075499689786 M128.00000955114257 129.499723711612 C156.37499520874988 95.88638704662253, 185.48741333590635 62.53081732551168, 221.40054763392584 22.08072682797642 M128.10092157983988 129.5805065639163 C149.89894220137236 105.50588855062506, 170.79253574215247 81.45769368428921, 221.5327006177746 22.12329868151815 M129.26357389931349 129.6235516549471 C156.61564536841755 97.98114458457886, 183.68165332761325 67.51835248765627, 222.6608002857183 22.21064478657808 M129.36865080230754 129.5009707488989 C152.76009288175013 101.76498972577379, 176.3395631024621 74.70701491005977, 222.82640962973653 21.959142276482343 M130.81834410005246 129.66450082098385 C153.8051226137423 102.41809493973079, 176.38813411110672 75.98516068457751, 224.2426559833687 22.141044933769898 M130.62181694677042 129.61137146846838 C154.86934967684113 101.3635752344814, 179.3704077343262 73.4548824758425, 224.0341708560127 21.97062548659009 M132.08235710456117 129.51464214070464 C159.19340101493458 98.51223177331369, 185.70691681831346 67.94353536421019, 225.21394697694058 21.961900133819572 M131.93848518005694 129.5173686919502 C163.63558886328286 92.54817890063288, 195.05833942495838 56.321689938348364, 225.3973092278332 22.149371657257888 M133.28759565980224 129.71436546550234 C161.40159222411086 95.91928545206028, 189.99973070509404 62.72793346661861, 226.4600857602782 21.893977243266633 M133.18057309414775 129.5339286920464 C157.42484963157884 100.59518549223867, 182.2117416826326 72.03738897991278, 226.51415259188468 22.14849424964929 M134.37451803845855 129.33207937235795 C168.6337971117351 90.45842027690932, 203.2008734131774 50.81296894665441, 227.84086913147218 21.90758185721582 M134.37014102722458 129.59590032211833 C166.07771433687427 93.85049200226433, 197.70650538116757 57.67058199500089, 227.71849850448638 22.10096738676239 M135.71844151986573 129.48817302198273 C154.3787798793972 107.62162316235124, 173.92880395690116 85.19198979962329, 229.28275470761065 22.105288223702775 M135.66757325208897 129.47039310245654 C169.39091073847587 91.5519854310796, 202.93138169339517 53.11493363120987, 229.0492025051027 21.96235978033249 M136.7879206988552 129.64133529132312 C172.73077853237058 88.68137723686924, 207.69077080910503 48.30115555525674, 230.39023919657456 22.201913361650686 M136.93989218509748 129.62570484143862 C173.36088219425406 87.04307843809684, 209.9510993584983 44.76782332008153, 230.3555329285401 22.025263871581622 M138.04010531070037 129.55934234255835 C159.18993788115287 105.05143483631669, 180.8148309360833 79.7201575582889, 231.7598820431005 22.01796148883606 M138.19618243356604 129.43993840516427 C175.23130107781606 87.51997416820222, 212.00829444535333 45.31851768414221, 231.49251624636182 22.0034358074453 M139.40040178604553 129.57087023566297 C175.86035736220097 88.7920769452333, 211.19107905036861 47.67203451323958, 232.7028004987907 22.121356974142774 M139.34024102037793 129.56119037405423 C168.36361028427973 96.38715448472166, 196.75711636911183 63.78271757800677, 232.88565092980394 22.021364247930126 M140.47315767210503 129.31855042997904 C166.84422352873088 98.8479015018614, 193.97646974299056 67.58403806961825, 234.1800151844468 21.894718018065877 M140.58701693484423 129.5296142690583 C166.39971170331526 100.41331711952577, 191.3501270565743 71.51878427818603, 233.9525075263357 22.10278155930379 M141.71714205370438 129.47231785954654 C171.56813554295206 96.6006467048403, 200.85497546036385 62.86723494759592, 235.30157074754774 22.06721955981352 M141.84631773704237 129.60006910116113 C174.10457889374598 91.11049012845119, 206.98538436984174 53.4260486500582, 235.25343214374004 21.989837457863402 M143.20191125989268 129.3337738967116 C179.8440485045435 88.68002961056429, 215.90471161866498 46.81345251519132, 236.58632905220634 22.072599766844654 M143.18232406006675 129.5268217907331 C174.01614687383054 93.51797462268769, 204.7465118559481 58.24263033092881, 236.57126602869982 21.984821552075843 M144.55987808658216 129.60945815132607 C167.00363355257676 103.99823316548174, 189.3585488420078 78.26910342709922, 237.84747681361048 22.1364432063738 M144.47883219988597 129.57043634339786 C175.48937572664423 94.85270637024864, 205.85480541431681 59.77581751423599, 237.82669935084843 21.998975435471916 M145.6286899033958 129.44976078491095 C167.8801286734532 104.60737358958494, 188.83317323391444 80.19066554514578, 239.24637777333646 21.969184483639218 M145.61082891285008 129.54787483763346 C164.77741705370582 106.73854789172663, 184.4197785768405 84.38322514735869, 239.07691961585806 22.00223492549475 M147.064564252856 129.64822463347787 C170.1848085015211 101.93999017090533, 193.91125238427992 75.13476709707258, 240.33504968219643 21.99812147051133 M146.8298705902702 129.60417547430836 C177.5512930618541 93.06681785177977, 208.72394837990427 57.09806166956291, 240.32344428553273 21.97815428178596 M148.26947353124478 129.3916400556074 C179.99192458975838 92.10868844401872, 212.2915880459706 54.66293565627392, 241.38743797204856 21.848534208180553 M148.07802334156153 129.5531856485497 C175.00939818987018 97.69694301014259, 202.7886772254176 65.884159971273, 241.53983725981323 22.03861547272209 M149.25704049437624 129.53697115261264 C185.31978464382033 87.5253780085796, 221.21616115495544 46.278853721955926, 242.72725119293938 22.125489865879477 M149.3599493391414 129.50720366524038 C179.076528279914 95.52814363770963, 208.21600174331297 62.03621470846058, 242.6916823833108 22.163530711371273 M150.40698358594503 129.68080418436438 C178.05124059867316 97.14152684965879, 205.8441109875793 65.27467793225932, 244.18628422702943 22.269787531690792 M150.66212057227668 129.55874109130804 C172.8450270594605 103.33747411633786, 195.3843713820474 77.39465985716568, 243.94897058010375 22.153335233936065 M151.94338685279232 129.73192236907698 C175.35962684511765 101.97238771869368, 199.0353530498861 74.12272399612246, 245.34742370335363 22.215042545029306 M151.79058595209403 129.5493628541897 C181.75254763251414 96.62494069781602, 210.82029668897556 63.03025938648504, 245.22088304598577 22.13045699016851 M152.93107612912692 129.6083666785143 C177.14630067426316 101.2141061033705, 201.99506386174937 72.69396451834498, 246.3050265508148 22.21455973670772 M153.00003136334786 129.605298442768 C177.78143372869084 100.32203487223592, 202.5280734470825 71.78335350748785, 246.43758583696916 22.09771142526021 M154.55207456765328 129.50203436426705 C180.6679794207049 99.22786721559353, 206.79635167787922 68.84191895761185, 247.61432651450545 22.10786854578751 M154.2954326755441 129.4991379709312 C189.54383838940964 88.92290954003577, 225.39317174305648 47.602339995849874, 247.799412275083 21.978569779636263 M155.4857024931108 129.6671163074266 C176.1474385327598 106.09992970063331, 196.24777726206977 83.24075173110768, 248.85625464487651 22.265322623227288 M155.64106448562953 129.4541703125724 C179.83805347359004 100.28156025232559, 204.73818953413223 71.6349835235201, 248.96606081811314 22.037209770702177 M156.85810466800135 129.4441530220709 C188.69563519216965 92.16740684032246, 220.7136934254586 55.53964335966812, 250.1630310160955 22.023661416337802 M156.91913971296756 129.50553616515253 C175.9819577700663 107.25187396921453, 194.7941980635004 85.75753342498932, 250.27524097132715 22.040333307330354 M157.9923749531977 129.57364894628458 C179.91634779881318 104.17442533564295, 202.0219720425909 78.84762636645749, 251.45534482987483 22.037062747057377 M158.12514734908726 129.61555580918576 C179.3517524625781 103.70685671120967, 201.18102433284656 78.65219596805375, 251.5189614079317 21.96831134380618 M159.51883028862142 129.60583354779436 C187.31077192743774 98.26288116493018, 215.14235409744592 65.85483056616543, 252.859355131136 21.928711098271464 M159.2733245587679 129.62925463607206 C196.00770947160322 86.77836105642714, 232.5902903334027 44.7612023776239, 252.69564451121056 21.956358732132106 M160.78317011142533 129.60012267463696 C194.93609121796368 89.39917367593621, 229.47963873305832 50.269064513692136, 254.16713140679835 22.03336111691362 M160.46565573942794 129.53714179913453 C187.75603412782718 98.91576417770565, 214.3535111590387 68.24604522513957, 254.0369807529462 21.98251845072907 M161.8127714368815 129.50887772584542 C182.64747799859242 105.15454896206404, 204.3785670494898 80.46717070398678, 255.33696325826045 21.985861240785294 M161.8954528052912 129.57354609812865 C181.47002491443294 106.09390256959145, 202.19499176605603 82.40619634316282, 255.14019977493524 22.077019291980754 M163.14736707336434 129.54848753722985 C185.70746702753257 104.34900925371494, 208.05313308896865 78.44602406262639, 256.28109022502804 21.96301052526763 M162.98336624449706 129.43781647524068 C187.878553423834 100.25789716870338, 213.0875167603462 71.31902226870719, 256.4793979718207 21.981601839896726 M164.41453617658743 129.42998247288727 C186.52561515266194 103.90706764287519, 209.03119406941735 78.45800572357842, 257.6339100396321 21.86256339832553 M164.26464516248257 129.46237166959978 C185.55529073946911 104.50644180781464, 207.6813171420956 79.03761416595044, 257.79385058451527 22.12632068255767 M165.52988201200958 129.69972828436508 C202.2239639107934 88.73640411963001, 238.24084878874407 47.348257850623874, 258.93029564852503 21.959390243126272 M165.49603914262144 129.5801011783784 C185.96710460025517 105.0551110133392, 207.33017443724282 80.61412144079411, 258.9120444903266 22.15583818982187 M166.93934849825428 129.64711250076948 C202.74838879939637 88.0784925500792, 238.35733615625844 47.58753833541221, 260.20717154812803 22.004521461774516 M166.80964942299653 129.4320820780451 C186.84065713913728 105.41348926991361, 207.48953571505479 81.5800529114874, 260.31777748198834 22.05230678746071 M168.0731001971548 129.52927105131909 C192.4047497195432 101.2433148655164, 216.74333060652873 73.3872236208583, 261.32794683912954 21.928391844044164 M167.97387867299247 129.4340953326779 C186.96656407890538 107.88499753148042, 206.14604118328327 85.73849081362329, 261.4303011292146 22.09004124562171 M169.21478280449278 129.66684742019714 C198.18667592617777 97.06431132242446, 226.87862450625363 64.14734977197747, 262.91015335060695 21.948809167044512 M169.21033715354199 129.54703021401676 C195.9223494284982 98.9868449590476, 222.35085191374964 68.42573709633362, 262.6358947902012 22.06735063966983 M170.37578280393245 129.63887983735648 C194.95774207444055 103.18301379850473, 218.17780950113684 76.02094042154299, 263.9848034474169 21.87350089886845 M170.49230039448952 129.4250728729761 C190.66262680982746 105.2764494085092, 211.07337071262862 81.62069550423196, 264.05030901146085 22.041131443786405 M171.98029972697532 129.56962457867303 C200.70160608901162 96.64190340589683, 229.75488439899215 63.26889099226657, 265.01155442786455 21.949909717339143 M171.85597608194556 129.59217727802374 C201.60780894334314 94.27051680465753, 232.17696309879366 59.21590151660359, 265.10294892011444 21.990937522938328 M173.21663107688056 129.6305236965248 C204.39814122070948 94.52231306462494, 234.65766524336243 59.562201651133726, 266.31641668820544 21.887628782712195 M173.0510318895399 129.5518935134841 C193.0273045513464 107.13915869055629, 212.75512709466312 84.53720957146851, 266.55246996548135 22.009599398905813 M174.13590236407023 129.54319780294162 C206.45349318331324 91.92912582726402, 238.27983603486803 54.90560368509082, 267.81647013567556 22.076747656625763 M174.2199618307415 129.47503585964972 C202.023899226712 99.03604608264317, 228.9791679510197 68.11549561969062, 267.6087714308191 22.058844659730173 M175.56063180483662 129.71417518080835 C211.84187090382153 87.41348625329144, 248.36401967754577 45.32249848887751, 268.77454120858135 21.980406283493675 M175.6237490152545 129.4438586770101 C209.46160046928793 91.2818254982902, 242.8989834439139 52.978296144750146, 269.0401610644052 22.162019978783082 M176.6521475689598 129.54318144183998 C207.4459764159762 92.84071922151313, 238.91290650497183 56.619820971596575, 270.38641323523166 22.088141152812977 M176.8152884082082 129.48014562093823 C207.96744504837642 93.04100981903916, 239.5084148868773 56.831967941355, 270.20660165602004 22.047789571726685 M178.03013934012344 129.65325810586097 C205.51982534792674 97.79751498551298, 233.43571216152222 65.83845350151887, 271.22126137719727 22.053373146291964 M178.03183058792217 129.59716662475896 C209.87662673601696 92.42961160554788, 241.9188350829549 55.4059900546463, 271.34467522847837 22.106937212127026 M179.08729536329878 129.63361905970203 C212.3497586222566 92.9803909465199, 244.69535205706023 55.48165441207272, 272.57984552820216 22.103781122855537 M179.28496476000555 129.5228500520812 C211.20881147223054 93.56848233815505, 242.58881326222115 57.62546648726972, 272.7702248065024 22.050802406957168 M180.34661108133884 129.5612543444105 C212.83640734784544 92.24708875567214, 245.21780533249515 54.4385522160188, 273.7605113981992 21.999373599128152 M180.5998611619358 129.58591086866383 C206.38807572859884 99.24914085310787, 232.15070113095317 69.58083867844508, 273.9773423225113 22.017462191091802 M181.76965617035685 129.6170277577744 C207.01411098390483 99.86090182629925, 232.87232535341008 70.27402510946675, 274.9820832555813 21.912089096717576 M181.75178561287527 129.42849764045275 C207.88570433243865 99.19476379150257, 234.17960659475116 68.97503789831919, 275.1913719320155 22.067808186691998 M183.11107384368577 129.64430006673027 C206.71119665868378 101.50748287935988, 230.14817805241393 74.82165801376688, 276.520693409507 22.228650769267308 M183.09057895248853 129.45114994450705 C219.48039007011184 87.99576545815466, 255.54830179366587 46.50295954169592, 276.3729753182704 22.01467340161099 M184.43781290629667 129.71057931073634 C203.54136412245825 107.85073722047255, 221.93163199684298 86.02196428734291, 277.5362743422857 22.215999995589897 M184.14914172357228 129.42161786071824 C215.28195932634424 94.51910064395051, 245.81519468704983 59.416324221223135, 277.5832141185671 22.10912705637162 M185.57781670310874 129.40252378764626 C218.15401547843143 91.16324024686367, 251.2514308899272 52.712036699031735, 279.0059609394131 22.277860095115503 M185.40277736115556 129.53816693607328 C207.94792659850353 103.0186227513468, 231.1996738805152 76.35625129444392, 278.9964014752991 21.978609745810775 M186.64513282716356 129.41670389493254 C208.2651929700551 104.8856948894709, 229.75692771026442 80.24147393923066, 280.15895377946566 21.993239607502947 M186.81948321380824 129.4911794045886 C214.13243021944348 99.13485754536322, 240.70752091824764 68.42102798043666, 280.180006278425 22.057537854929354 M187.78233031999326 129.54712627384737 C211.59255611237148 102.87738740286837, 235.058459152659 76.50791633605084, 281.4796821823445 21.97002699333578 M187.9391121939197 129.58684671503357 C214.69683028537008 98.48745482868648, 241.54562802208426 67.49953858508034, 281.46221650607197 22.027229259386708 M189.08486252384395 129.4803817914418 C220.26257640240829 92.89755988431705, 251.7948387780499 57.05268148922316, 282.82529189473377 21.930817907856948 M189.2458865695167 129.5996685972574 C208.3026207573612 108.03454351878757, 227.59774931421285 85.8084426234998, 282.6247882887159 22.031192414670056 M190.56073120618674 129.34819444866793 C213.37583192409522 102.28442507744037, 236.07550021717105 76.20726657179806, 283.99446796624335 21.959386077284545 M190.4577035363838 129.4873900256586 C212.82300696720318 103.7584433869323, 235.93300201298769 77.03050384519526, 283.92482757050755 22.102702013448454 M191.56374440765273 129.57387026193214 C209.54245072007438 107.56304563262042, 228.52313588210035 85.96676282687605, 285.0105805393017 22.096589995167193 M191.67519557443413 129.5896073800726 C225.0746129709616 90.58458833130558, 258.93779167167384 51.50513214685829, 285.1140722309051 22.144267673305734 M193.1071238002512 129.34367211393467 C229.30224109278393 87.54415608724153, 265.07963335610776 46.587035103836726, 286.2961563693118 22.104973338438533 M192.92369804117286 129.5629149469957 C220.28576253354044 99.47854261463124, 246.92425357915465 68.76731621998528, 286.2982279750597 22.076281339458898 M194.31507773757772 129.7043402782316 C218.85100512004524 100.68753911393333, 243.79422384420113 72.12504129934484, 287.67632690757756 21.91195406570645 M194.14251068235015 129.5401374508432 C220.52025797039724 98.32662289988454, 247.62999400145884 67.39864850158438, 287.57857059184545 22.057496955268014 M195.33685109411425 129.64095358267343 C232.9900393620753 86.82090637116445, 270.15069271483765 43.86253678003496, 288.811866434695 21.94171697881684 M195.35988429483479 129.54000830760674 C224.22899782181318 95.90228680213536, 253.68078134364532 62.10502388538216, 288.9363087400741 22.000898834778813 M196.48991403532028 129.32056221223843 C229.19241815283874 92.06110767199158, 262.0802876113827 54.57971490493109, 289.83772796689505 22.465445846472363 M196.6427090497496 129.60064085902854 C220.14884575132157 103.00995056843067, 243.12616467997344 76.60961388577641, 289.6634746589078 22.496560537867957 M198.15394303394123 129.40741049192525 C220.7166663342681 102.59049871322006, 244.1630149548015 76.35727784385978, 289.67658426192696 24.22872429798331 M197.85034838779887 129.6058788334309 C229.00985562729932 94.49255786227639, 259.14721412538927 59.94423722667084, 289.6396289680148 24.11823585562875 M199.0711081678277 129.44727265946975 C226.5644795141651 97.13509007667125, 253.99911274094669 65.58454056301014, 289.6312839898909 25.380303574719452 M199.26472004402694 129.56716567342775 C233.6585504358906 90.00324605904831, 268.652788007274 49.7718665091701, 289.6119974904841 25.50002605831889 M200.45569481978 129.71556015367034 C226.7755273813604 99.94267563253447, 252.24621366109415 70.508053985559, 289.59258566408255 26.810553496048094 M200.40965207127624 129.49892435297815 C219.4535547780412 107.51004344557651, 238.35107396677233 85.60979141577721, 289.55392966347813 26.949628804241026 M201.60581823156377 129.38118267359982 C225.41021289870767 101.90814660998511, 248.79965245468418 74.99755281778857, 289.83686301303567 28.138381391506073 M201.6457059965313 129.57262481014456 C236.35392101261493 89.46108303537936, 270.73858189400954 49.991626839466974, 289.7020010876503 28.247457475870284 M203.04764317359607 129.70482337005325 C225.34947783695162 104.48012717513203, 247.24950077485653 79.33669548129596, 289.5690422835014 29.885463353011033 M203.0202493974632 129.51826014903676 C235.7306354353933 92.43387074066004, 267.85458784677246 55.593239676013205, 289.7020233844805 29.64975079489959 M204.23579083285836 129.68542072605214 C223.1208405772353 107.05786803187706, 242.43498330455475 84.92502300454498, 289.6792370527877 31.32685866315187 M204.20167434944187 129.61744723587918 C237.43553011797877 91.29253352306833, 270.3984455915489 53.55970280345723, 289.7337026185759 31.10191964820953 M205.29147328645786 129.35779685710787 C231.43489379899964 100.29952595395011, 256.49735002295915 70.99062662367939, 289.6121778871485 32.55783934456626 M205.34380426084311 129.46635277128354 C227.11182463606326 104.67202820539842, 248.09313825370845 80.70522344997434, 289.6971130765411 32.64443444697529 M206.65697567609215 129.6377556016593 C227.89623766953284 105.8876761313602, 248.30565099853953 81.86735036701181, 289.71880932126976 33.97969397717563 M206.70657313805646 129.49363803852162 C238.20275565362743 93.59933727646381, 269.77847100070454 57.28047245695936, 289.76913215951635 34.02743108990322 M207.70488270836802 129.47910554262003 C225.61260515959611 109.10130775974199, 242.66114207703666 89.60996238992371, 289.50572098293287 35.48971212973763 M207.93995750931003 129.62846540761655 C236.51609350549842 96.12214001822657, 265.6882857233529 62.547166371499316, 289.56529480181484 35.383682825053846 M209.3499082726559 129.32568386934275 C230.3731791699915 104.62624102920236, 252.15085546115353 79.16440785047023, 289.5915695896836 36.69341404711778 M209.04366180458229 129.5245821794128 C229.55209031442848 105.67283492685887, 250.30989641130813 81.869182634023, 289.70704753967243 36.84107611265216 M210.30869140165095 129.700448692529 C229.41601561195233 107.17935393808392, 248.50771571911923 84.7005096678235, 289.800681183916 38.48302195700834 M210.35580269653042 129.5975554766893 C240.58889262756736 95.85381335570176, 270.5042027967977 61.1420614503651, 289.5642675838133 38.37506457771154 M211.64215219348557 129.53281271509667 C242.04939763429934 92.74333923975081, 273.42845808599486 56.91011368429043, 289.56912863596546 39.708407760746006 M211.5332865756301 129.63854187016906 C243.23860184612724 93.86377088619945, 274.18025973566216 58.06295324741332, 289.68359875447 39.77553890808004 M213.14243555804347 129.65886442295027 C229.57458814176954 111.46899906154434, 246.04516856129453 92.46497205280855, 289.8355864454659 41.26833208213604 M212.8807967644547 129.60863516162527 C240.71098548218754 98.39775422268997, 267.7671569356385 67.19116537988835, 289.699512952071 41.262124323547475 M214.26521368324228 129.34633759423704 C232.27698786988043 109.72480860419027, 250.11115675631163 89.73873626945144, 289.82412978670857 42.74071108185714 M214.0866317705405 129.49123142081743 C241.0158438369292 98.72518572159083, 266.8147548045347 68.81673562264668, 289.54689253103993 42.68455007233129 M215.11581769415523 129.27416614493106 C234.54826864028166 108.06186300265628, 253.03329942439774 86.90093308338766, 289.5073515533779 44.34553285899948 M215.5166171218591 129.64742022730513 C234.8330804706707 106.98685286252717, 254.58199640188795 84.56041974079147, 289.58661261853314 44.005661391375284 M216.56904137270018 129.54793479486798 C232.5728649156743 110.0132579863791, 248.98838927738583 91.05147551540904, 289.8701071621023 45.53360697094531 M216.59375653539124 129.61901875633356 C242.21976778443508 99.61961859777455, 267.9350482551578 69.84366984619102, 289.59590377697936 45.60294122285431 M217.84469935677666 129.70912848966452 C234.87771354307972 109.12073286029892, 251.71869445519275 89.24045518401965, 289.4696830308093 47.001167982956645 M217.74413889616187 129.49860993295795 C238.8753455090885 104.68997070982894, 260.07643924061324 80.36804043349437, 289.54155633303196 47.0199769738691 M219.04493021761414 129.24540392146724 C244.56833345281186 102.18869058400105, 268.7055134858608 73.91041437823954, 289.4953519102878 48.44252883237976 M219.1852365362423 129.45816864450353 C236.15749280371313 111.03769835812656, 252.2857323407664 92.5232114812414, 289.7670088531622 48.50339259022307 M220.1556597817633 129.76282902636984 C242.99700595917955 103.28734718640986, 265.1695116082044 77.97948759548296, 289.78488236880867 49.99047101947403 M220.51065289655395 129.51717936563801 C237.0184356389608 110.2975709647394, 254.12802978889596 90.39920339310568, 289.6107185675894 49.83985934168685 M221.83850956283686 129.4431884755677 C246.01202368814296 100.90750646503636, 269.64740086279545 72.86753924965033, 289.56136903270664 51.31162356595611 M221.68611035365038 129.6311350051335 C237.35275841139088 110.25431311550258, 254.10903344213676 90.84378492452265, 289.50306631563006 51.236533639022724 M222.80921936599998 129.78610136231651 C248.6201175244999 100.65694235671411, 274.3928425224136 71.09826850859542, 289.3935037360555 52.662361466982425 M222.8810702533723 129.52443341778644 C249.43449896121706 100.14771996876541, 275.5405298653979 70.40140316898307, 289.7780639576094 52.82531788875298 M223.9680992051453 129.68199467653602 C248.42412007943472 99.92256734448611, 273.9107679168967 70.61728569779261, 289.5888060838448 54.042997772753495 M224.026478050136 129.6366774315641 C239.3629983942868 112.4132906074806, 253.54701154446457 96.1418647572435, 289.80153089051805 54.23740276650396 M225.44535063155382 129.42738659800028 C247.6124889525504 103.35285678648177, 269.91370992694743 77.1545065138942, 289.5626813443505 55.324239321639126 M225.20339471952582 129.61127100540924 C240.9532858368849 111.31353025802042, 256.6343200395721 93.34472222386643, 289.6501974880576 55.506010126343064 M226.53583899727644 129.34597478476138 C244.41075387058075 109.4013764530068, 262.1715547376481 89.39210653876785, 289.63665044807254 56.78291030352609 M226.75275265081393 129.44570362057564 C248.68641505871136 104.82799171997272, 270.1678576241309 80.11645701862155, 289.81794700990065 56.905847861540735 M228.1324805376322 129.6275789005984 C241.32242627198625 115.65795895449277, 254.76222456970342 100.67288296909453, 289.65633038235876 58.711389831144686 M227.813263807804 129.66938285946821 C245.58976188187177 107.749283100896, 264.36783897717055 86.57271999035785, 289.7166212645097 58.318650768443874 M229.12343284930517 129.47991067898542 C252.05870960270275 102.11501882295806, 276.22902764680896 74.6474059382532, 289.8230409247502 59.62324567613334 M229.04517585687108 129.40971134702292 C247.7798607545618 107.79413135196326, 266.21850261189593 86.60552029853389, 289.6878831399662 59.69171834072673 M230.14179470589724 129.77711915247613 C242.81433328105362 115.36698871129242, 255.54200932295146 101.39593140140174, 289.6770160490664 61.18088838525869 M230.19211167723128 129.4482468641618 C244.37088523190664 112.86006215972125, 258.44515839164313 96.95372162874307, 289.5225240440907 61.46186938752912 M231.8474812495316 129.80210770664416 C253.43012762809911 103.51512453668485, 275.46630435438766 77.84475993454137, 289.9378704801579 62.540415059926886 M231.44422696964654 129.60387255485705 C254.16379645193166 103.01891915936456, 276.63422179858765 77.40678627956503, 289.5778218020024 62.74869300046083 M233.11028388516814 129.85754653391524 C249.81612372633595 110.88663623194512, 265.9671550166371 92.1189095377657, 289.30528342193475 63.81230300764869 M232.80059644889366 129.39017525774423 C246.1519641839897 114.04368499430795, 259.95555692643654 98.44106727951157, 289.78692845576876 64.02781153275221 M234.09034771828752 129.45308053242314 C247.14985481988273 114.0580291450836, 260.22459154301544 98.6155875606384, 289.96062750767453 65.83674305735396 M233.92709109010104 129.405475986449 C250.17018996113947 111.37251320576787, 265.6222927678017 93.34674025668821, 289.4933031174563 65.49079886547105 M235.04471366633067 129.37661826001536 C254.7105214569885 108.82823519226567, 273.71982685540695 86.97495444252347, 289.32509563356757 67.36279578989702 M235.43608368235897 129.39641016070422 C251.44267131011273 111.48054615514269, 267.5701975607824 92.47417244926365, 289.84005289615186 66.90435130202384 M236.67469032030544 129.85500967368014 C253.84739491434317 109.61190542442125, 270.9458638127056 90.5377808499978, 289.6669652386376 68.31023177111909 M236.76020849584634 129.70422505216357 C247.36966175006972 115.90492747381245, 258.9663584702165 102.63384585391228, 289.66401646324573 68.41340008573576 M237.66968885405558 129.17924063030372 C255.7398346242262 109.95549975230401, 273.218599458759 89.21778364980639, 289.6247009556909 69.93627524510175 M238.01719422750773 129.52977553910227 C253.40908922502828 110.95746967349449, 269.495705844649 92.56929800595907, 289.7615628338932 69.78676821668734 M239.20871101699956 129.82793258343185 C254.522405123804 112.36078400764907, 268.6530529531258 95.63342909929997, 289.3780423071954 71.58152262568326 M239.2467226507939 129.40642408782594 C254.41141770127436 112.77162520692329, 269.63087948471457 95.42447283986982, 289.58312271751754 71.51000953960983 M240.1819321225302 129.1568173307832 C255.84817962971334 111.9056284163972, 271.6550009044096 93.61183955660633, 289.40201905405354 72.52578657179671 M240.28919101656598 129.6005794609364 C258.5353630039646 107.19017383220762, 277.89222748196346 85.31202910511058, 289.7445628502872 72.65202862809065 M241.52430143832083 129.594877167027 C257.49550307462425 111.61746084879887, 273.95258057934916 92.63286999455534, 289.818224983025 74.22365899479864 M241.5375864890368 129.69571648295013 C260.71266061267954 108.29733357119866, 279.67693433671286 86.80298146356597, 289.7436071655626 74.33751294002244 M243.1153490302204 129.60509118776028 C255.58075001914895 114.12024101697006, 268.8813044665852 98.80890017610292, 289.58263965311414 75.80825384352589 M242.98038660182686 129.5688808617923 C255.59247609444722 115.54824614408862, 268.095708735267 101.42352539489673, 289.868100437651 75.66872159712312 M244.03859769293888 129.32009903333253 C259.80437974625613 112.01427135252862, 275.633933854564 93.71352589144956, 289.60020442737994 77.087597424662 M244.22285772735904 129.35798469269545 C259.7831136520266 111.55750295483705, 275.59732572145333 93.24387175113482, 289.713830902408 77.25946234121567 M245.15913659078876 129.94764500413027 C255.15554411150327 117.56223110407622, 266.00015183350905 106.30206692690084, 289.61813806089197 78.0604249981728 M245.26793282709815 129.46295258348326 C260.12785659002515 112.57650977758624, 274.86807927189915 95.6084772280291, 289.57614385382544 78.58466113578615 M246.95478545606284 129.9298828397782 C260.9962538735582 112.27687352967357, 276.02582527586117 94.91095451187871, 290.08379907271194 79.90517468021781 M246.67667031673733 129.3793816667512 C256.70391193343323 117.61472973637508, 267.1424116241593 106.11058784760255, 289.67281787900964 79.95294291876623 M247.70311823639813 129.89853150005666 C262.62480175608874 112.040370515543, 278.280596644089 94.33216392190558, 289.3019322192748 81.48297784641522 M247.71050189888643 129.55519536209408 C258.26732751748835 117.0802749209957, 268.5174402288626 105.26919950579489, 289.65062704220367 81.48502054161185 M248.59007347188276 129.80598256506062 C261.71636444892135 115.37015735500738, 274.57429275941075 101.904116304486, 289.4073013427589 82.95623656804366 M248.90918523661702 129.33021318731727 C257.61096444909776 119.51664464604555, 266.7347122227767 108.99004301214322, 289.8824860503113 82.7724151618109 M250.24737609588604 129.81781171740369 C259.0840426390638 118.0011520999684, 269.33606669213435 106.39894736000963, 289.81156534072727 84.65793182157734 M250.35890524967647 129.29796763068668 C258.79135327518316 120.03694487379995, 267.75889975436525 110.0904934102355, 289.5287406528218 84.10041341734518 M251.49322641297493 129.76681208525412 C266.01089007755456 113.17887434199531, 280.9420299317418 95.83793923498166, 289.76902589912265 85.9798312897688 M251.39589457883727 129.3617078425039 C262.51991342239 118.17670517066891, 272.6963526941107 106.14665903558262, 289.5162926077776 85.62321679641309 M253.0993567846213 129.49256736034863 C261.89551388641615 120.40128866018104, 269.8608508323053 111.07800045565415, 289.2579147699999 87.33152982602897 M252.62328729448387 129.4138363719448 C265.0012969721714 115.49701369830449, 276.9134120266447 101.7840115199169, 289.64459629622587 86.88614642636725 M253.8217113273679 129.93967474368273 C265.17057945016626 118.05017773300874, 275.53482138205277 105.56652806434013, 289.2828808358522 88.76916958063728 M254.0267162540312 129.46917795130668 C268.3427090639784 113.90931938658451, 281.8827809468249 97.56380910143275, 289.87394760372507 88.58262775732632 M254.77606990059115 129.84605702715209 C267.0760674151477 114.56183816528916, 279.9831750803788 98.9505227585197, 289.628435908051 90.40149220405496 M255.14886847905225 129.48707988271892 C266.1006727828671 116.95808010674837, 277.0605771885189 104.43161398303015, 289.799643364468 89.88771034556314 M256.5042996050944 129.49351528763444 C266.96850678829026 117.23156521168018, 277.7711285073202 104.02514502624459, 289.6116480437673 91.22621928403771 M256.41626435278476 129.32903596196067 C265.6908772180155 118.46977108683203, 275.68948582495375 107.14073845757785, 289.9081872756685 91.53070506825219 M257.9594199070411 130.0 C268.57330467519546 116.71971725682972, 279.8534036626869 103.84215002971351, 290.16166227356905 93.32252582734017 M258.00535536955726 129.33729821630476 C266.4152333006963 120.12131501665876, 274.6095153294253 110.66534659526423, 289.78947525643935 93.05593414643559 M259.45177334534105 129.6577124884497 C267.01350197830567 118.85172770831919, 275.8360571310001 109.88699270537157, 289.6276863036005 94.35540812623469 M258.94855733561513 129.66748480464412 C268.2309468715079 119.06513270453445, 278.0680462747419 107.77997986700842, 289.6244930311424 94.3528572913275 M260.2279838510814 129.63908262757414 C266.76629014353466 122.82662257800229, 272.4961674594744 115.87054905989051, 290.1668267011215 95.22540709241642 M260.08687307754917 129.78073549926415 C270.80465624535805 116.22895401614383, 282.17645639324667 103.52156078831423, 289.78412937532494 95.85621186397137 M261.1808525969605 129.53719929486715 C268.2784027166106 122.73727234188695, 275.1239681939329 115.19645313667806, 289.3920397105004 96.93264434991009 M261.48240372142413 129.28154961803162 C270.58058734031584 119.21275300390252, 279.5150446653285 109.46305295302307, 289.44441804016105 97.10548154971573 M263.03483447256735 129.0452057696357 C269.6533286191176 122.35127662600867, 275.87998715870094 114.38799674285167, 290.0155606817658 98.16793572941447 M262.48960022944624 129.78758328698365 C269.35844687439374 122.34359598351918, 275.84773108759975 115.34023569338477, 289.757666494824 98.34815795039216 M264.0862819863989 129.44469033273413 C269.9471820096195 122.05112675038826, 276.05953066177227 116.07363038136505, 290.16229340340516 99.99112612167127 M263.93904412794006 129.74776072714195 C269.53456410418454 122.04490671206617, 275.68104448238273 114.98940077268814, 289.5477964770023 100.1868591134425 M264.89897947096165 129.43528805802686 C271.3089878188714 123.14773274483586, 277.0448289805216 116.12445820017653, 289.34995718940445 101.80765497843193 M265.039400433957 129.75695111727845 C270.7842769607711 122.88521168801084, 276.71424936541155 116.31445359820543, 289.7400222845501 101.68621828383219 M266.2588692293498 129.6171126940265 C274.14617971655775 121.03890351903974, 281.57958072463464 112.96622289054886, 289.15451599941855 103.30483063054984 M266.2374843313303 129.74224578354477 C271.61004215137444 122.9451032411443, 277.5075235481932 116.62405521615614, 289.72995824473355 102.85361071284572 M268.15439864411945 129.25446184787842 C273.2973861593446 123.6368371395562, 278.8831650382675 117.32951221379216, 289.8066679284799 104.79564148512998 M267.58110165690545 129.72466344593013 C274.91868162281025 121.14318021090732, 282.0839880372239 112.70300917814095, 289.9071926184205 104.53083839560853 M268.54301505077075 129.50638141182685 C273.9919018641101 123.15914394006629, 278.63074433151155 117.52773204778185, 289.6541349490275 105.29536008195484 M268.7269765600978 129.32660928670828 C273.5898653692845 124.29123405269998, 277.88772376879706 119.15007657752359, 289.6564747368469 105.79874418731536 M270.5410238838771 129.1387865027446 C274.7944885905996 124.35502824537868, 279.2888267598503 118.70390902938622, 289.59543183411745 106.7406103072988 M270.4536025029794 129.44031789465225 C275.12176333137097 123.64520098558212, 279.9128924309661 117.97336196249763, 289.6675162906861 106.99507286913654 M271.3909805283772 129.98176694830124 C278.2947714392734 121.77100331293344, 284.5727097004827 115.11319691176227, 289.21860007101543 108.71122162109835 M271.53095359738217 129.6205126546368 C276.04063369405935 124.4091546726799, 280.4390907671037 119.67824314075928, 289.4872051059393 108.4480173113551 M272.2502090602382 129.6300038029752 C277.0802473565843 123.87383978775702, 281.64305960694355 118.9475641858869, 289.41279378615803 109.64911837191222 M272.54138916558907 129.65685837798242 C278.0810833291717 123.06525890503008, 282.87459050887816 117.25192283503262, 289.92182882561417 109.99477140723867 M273.6454386775647 129.0263736628193 C277.92134015812394 124.89600443852818, 282.282224519699 120.31914181605151, 289.638411822506 111.68362999622299 M273.97446450438514 129.41034391856005 C279.28596008514114 123.83182801177043, 284.48191847618676 118.15232658669647, 289.89056787138117 111.36657159988857 M275.5505969070602 129.7206319605107 C280.60625313105214 124.49049161058184, 285.06296654652476 119.10867727716507, 289.5700741707644 113.04487884058798 M275.201482341774 129.3618029981123 C279.50105062200424 124.6934678364193, 283.4739068767354 120.24432395947997, 289.3967205413561 113.11248920409561 M276.34675764377073 129.40580608493792 C279.00809730451726 126.29093153042679, 282.5419730917498 123.03952670554025, 289.7437422474079 114.69280594165161 M276.69573811765315 129.75167863732872 C279.98694043094895 125.64586306055602, 283.05286012373796 121.6608232973524, 289.5192234517922 114.47778018909077 M277.9010442407018 129.35778935346147 C281.91265425062215 124.90569999119177, 286.0997542135487 119.83649373608208, 289.368587265694 116.11028469638315 M277.52258382703604 129.46322852132062 C282.22993923012393 123.93762026953559, 287.01096661589327 118.8236336710945, 289.68293022926605 115.87974632972755 M278.79338001272424 129.81546613787634 C281.9919073518678 125.28930111002826, 286.02389443211143 120.5944823900036, 290.1189879907357 116.93108643336942 M279.054557353453 129.43697816276952 C281.53400460266363 126.23687365464002, 284.08927118884765 123.42800421431978, 289.56596656169177 117.44051183124297 M279.84316045700984 129.74045311948683 C284.1699316354851 125.42810453868755, 286.9354606925191 120.65219606246447, 289.84896932479967 118.10199661144756 M280.441465078308 129.3398373978393 C282.7196931949047 126.48704575204901, 285.36110670242044 123.88863973006924, 289.50218688579764 118.53705017305342 M281.6108823687569 129.29875190800033 C284.3562736978863 127.25928668342527, 286.42594798459305 123.78156203129963, 289.82661991788444 120.177139981699 M281.1904202652179 129.49662147297215 C282.8612462385518 127.76933251407651, 284.653915233514 125.48268495753503, 289.74695461351496 120.13264129134954 M282.8944251692431 129.74857503606944 C285.68026718109456 126.78508882762543, 288.4924232453078 123.5275513351676, 289.1577865023527 121.91660111952652 M282.6883600775153 129.60846907775527 C284.2513170613354 127.56307032021925, 285.88611785525507 125.4439093682566, 289.4292061429545 121.49159407758381 M283.55940708997036 129.47910320869204 C284.7074500906691 127.8617556422435, 286.5453685767374 126.3900659996728, 289.945945684726 122.85444961002861 M284.0194638322049 129.46344011658525 C285.7190759338411 127.23804064118676, 287.70347349855285 125.07829532154932, 289.4423709730004 123.02667191695221 M285.33903300368434 129.7562666846988 C286.35288594710573 128.47617459399657, 287.8154797697748 127.02510669113, 290.1169307782117 124.84662766165157 M285.3974702339531 129.31297968782596 C286.57578119618296 128.34532855994496, 287.7032225889098 126.50299385971935, 289.59854205724173 124.52140707220714 M286.059390247151 129.4461919335484 C287.5659958944941 128.477943724966, 288.3259255709097 127.44987304832449, 289.55912502447393 125.66288975670771 M286.4602601436055 129.75963637324523 C287.3911846698664 128.6811200491279, 287.85695853957094 127.53969788601843, 289.4194655206636 125.62684317277525 M287.60624502459143 129.60881302697635 C288.04201942163195 128.53828967834067, 288.86882327574307 127.88523347502554, 289.5832342911789 127.17875591035529 M287.72151382138884 129.52098059566032 C288.1010911892345 128.9829447467282, 288.67519953076123 128.41045215189445, 289.616170948525 127.16711834900187 M288.9451567072147 129.53505864962557 C289.09396733490894 129.4527200678557, 289.30178840687324 129.1653829401982, 289.6150098693726 128.6313668793764 M288.9556059812112 129.48520326106242 C289.06718138816973 129.36887855836284, 289.2345761140387 129.21952865768412, 289.68295902055587 128.68007988551508" stroke="lightblue" stroke-width="1.0" fill="none" />
  <path d="M20.90405935343898 22.00346602049504 C103.19249706101547 23.89750105748486, 185.06281760509486 23.910734285730197, 289.52138013926026 22.15519944407667 M21.012968965452757 22.097184182860154 C103.26816434759586 20.00928511862305, 185.4947500367777 20.0, 289.58190379291375 22.08943551322749 M289.85729043860886 21.911709923277026 C289.0470811394533 43.851541727656674, 289.13930069783385 65.29867611533832, 289.62495832362083 129.61073463789148 M289.8070989470716 22.021342341589627 C289.94149195279925 59.74095652900498, 289.93934215977674 97.6384191785363, 289.7214817662027 129.49216446838247 M289.6352974260487 129.33422531904748 C211.18092163463382 128.56603287603127, 132.8188351779923 128.63864246053464, 20.81086015360708 129.71724638390046 M289.5558394289971 129.548350107163 C200.5056244390856 129.8602965484182, 111.40634199762644 129.7996380736838, 20.918797132318105 129.54884196459756 M20.912907057741535 129.3731136721603 C21.66196827047341 101.95496722476594, 22.002512291128653 74.49666934467285, 20.834540487162826 21.865147357203536 M21.107072616324274 129.46191610084202 C20.0 89.11386945406304, 20.072337767565898 48.50614666478609, 21.152853414247602 21.98550838514209" stroke="black" stroke-width="1.5" fill="none" />
  <path d="M235.71375799665634 65.40797524619002 C235.83757002618478 65.40065244925415, 236.38079666125333 65.44364716311861, 236.46201607889208 65.41047827654486 C236.54323549653085 65.37730938997112, 236.3603202841204 65.19334585736631, 236.25522078091473 65.18684933569835 C236.15012127770908 65.1803528140304, 235.80579537614028 65.41446368612249, 235.7613527241877 65.36716813209183 C235.71691007223512 65.31987257806118, 235.9842024666314 64.95379260870715, 235.95893643456424 64.87154564216067 C235.93367040249706 64.7892986756142, 235.5735745835143 64.8025543499329, 235.59291251040656 64.81885502178201 C235.61225043729885 64.83515569363112, 236.05317641898802 64.93580895742716, 236.08785594717935 64.98021678782138 C236.12253547537068 65.0246246182156, 235.79944829654056 65.07929022157846, 235.82410936501537 65.11490722441016 C235.8487704334902 65.15052422724185, 236.17167733541396 65.28936408926413, 236.25226307034484 65.21766347336595 C236.33284880527575 65.14596285746778, 236.386469110959 64.65139937528522, 236.36134759788803 64.63690311842237 C236.336226084817 64.62240686155951, 236.1270201702227 65.12410971427208, 236.08478631653819 65.12102176094687" stroke="red" stroke-width="2.0" fill="none" />
  <path d="M263.73179192618625 64.83046883025747 C264.9766714333714 63.30571358062488, 265.9749792374171 62.831535165612564, 268.74284432705724 59.00969179420123 M263.935996453241 64.99773003784718 C265.2919768943891 62.960379812279754, 266.5535404151412 61.33666617560332, 268.83114025967063 59.08281215937804 M263.66167257336576 66.4899534223051 C265.8967018857203 64.6947904023859, 266.65146995699666 62.98879915097325, 270.09897781376674 57.942782064033096 M263.9385510305524 65.8539389197213 C265.47028742524157 64.21682433092448, 267.55181391703843 61.793549218800756, 270.27243039031464 58.21600233876462 M264.5586855610012 67.08784601436632 C267.9506952447607 63.155310489408954, 270.24925090217243 60.3742984170096, 272.4951873760056 57.7587925289715 M263.95976519972385 67.30028777522561 C266.43733439936 64.41640296401764, 269.11266532224613 61.74817860558045, 271.9605148478262 57.97681222757896 M264.3048520381185 68.0920665886813 C267.77057472268655 63.941114073391404, 271.84649267412766 59.94015070748161, 273.92851784045723 57.212898711261246 M264.4507917901607 68.52271769211265 C267.1775663807585 65.1366345903393, 269.91766492840213 61.42319723210048, 273.6837576074103 57.25773737170888 M265.00728949088614 68.67868003831373 C267.8878232359258 65.8028359278199, 270.8041786088829 62.348547217940215, 274.90642742056616 57.58412017145819 M265.0852369595771 68.8916485428269 C267.25267215305854 66.39866790975819, 269.0047253830825 64.25034396280999, 275.19873669600753 57.05202026783988 M266.3695361242994 69.28047896871482 C268.87107820326094 65.74278782763457, 272.7928992032319 62.66354230395804, 276.15295495937926 56.880076112457125 M266.12615326285004 69.41433100102782 C268.4844581228723 66.7657511153204, 270.4678087451981 64.13495455502634, 276.52361820328946 57.53530826301091 M266.72709213408234 70.07450686765985 C270.5076261203242 66.38737131975051, 273.0465995354216 62.033167913849574, 277.90296430561386 57.215655555297765 M266.99747450767654 69.66956117459068 C270.38651971421604 65.94524848028682, 273.66796546547465 61.60792088931547, 277.5137266185502 57.34497928440743 M267.0617737098614 69.9812886540254 C271.55472088449875 65.2477110451804, 276.8544313240951 60.03572766738417, 278.37842476432024 57.5955423243731 M267.5488847613273 70.20548590800475 C270.5665265234769 66.91662733355982, 273.9195619298529 63.49484127374642, 278.98274841146053 57.542908800073256 M268.53089860526325 71.09604853121832 C272.3881864142337 66.0358756163959, 276.85505145806263 61.20851903661232, 279.424826966468 58.1288249622696 M268.32792433532705 70.75500924282102 C271.6196783504135 67.25571580561052, 274.9546948859979 63.48154183146963, 279.66102697130725 57.76737072362154 M269.21334316001304 71.20598117063801 C271.2068138674788 68.45710619325277, 274.4572217699113 64.97393277312796, 281.206472628758 57.695799403732295 M269.003432084241 71.50799674144312 C273.20624570951486 66.66503853130695, 277.46321805534615 61.428468576156895, 281.2377351922872 57.63692700366874 M269.73609322674497 71.95976319827562 C273.03571645683905 67.50711799534717, 276.3253214237879 63.84399256473242, 282.3116239582273 57.94874274782737 M269.85431827191127 72.02308064776172 C272.66792242753877 69.41873452281854, 275.1104334117601 66.27134909118422, 282.07724760804814 57.667302254079544 M271.15117183198987 71.96084665696725 C274.1625948651566 69.13126739864597, 276.8731195845705 65.47784225622219, 282.8024211678329 58.07728027726524 M271.0912941289277 71.81219921704138 C274.0029783836429 69.35162601032431, 276.259105244465 66.25022487597262, 283.1379659144987 58.31242391996453 M272.44541064346356 72.60662420179025 C275.29936537565095 68.59987540370999, 279.27179542226145 63.69318081542136, 284.3336205310768 58.38925077545739 M272.10417448828764 72.16741532014427 C276.08693224528133 67.54953779779318, 279.97723321845035 62.84746902231681, 283.7607770609179 58.48660539274706 M273.7206239312834 72.62712378972651 C276.0767381019781 68.4659701449777, 279.5006742262328 65.69707143566205, 284.79614067518764 59.4789763106526 M273.0582064999194 72.15198792462158 C276.7597732115892 68.08684924573106, 280.19724347858227 64.22908629249277, 284.88451798720223 59.43549778031829 M274.6023853072272 72.41869119570673 C277.8097330832198 68.65046576379551, 281.51071574850687 64.45584789142548, 286.0298684449957 59.26764560303273 M274.49181009948416 72.82076493099551 C277.92166139300537 68.39932590399907, 281.19773571232986 64.384107660709, 285.4092498878287 59.99225509989938 M275.04395726002565 72.66462848349252 C278.69585756178816 69.09134789887196, 281.84993021117356 65.80180473742718, 286.2767822999176 60.15516465735129 M275.5992201952933 72.90902017265961 C278.22575464166897 69.89037398791137, 280.7209487588246 66.7980572097998, 286.4643839371431 60.2037721083829 M276.09678191649675 72.71714302765247 C279.3088940329724 68.72003876856664, 283.65837988856117 64.41484885139114, 287.5354914847776 60.96100729030051 M276.5910858641617 73.15382016481846 C279.27293549617616 69.34422155645555, 282.5832781567599 66.04814057674893, 287.08357382364363 60.69129580425022 M277.69415622639946 72.8555778505919 C280.8618579701824 69.49854560073476, 283.5153461957267 67.13506071219769, 287.3676939018245 61.844819853438686 M277.4717395231896 73.29909700545615 C281.1065197161626 68.96901865012765, 284.7522381911738 64.5407309074692, 288.0471641766155 61.14901119283403 M279.24225358491594 72.82993716211101 C281.49057176407456 70.40788002400765, 284.1468165204144 67.67995406770741, 288.1363798199666 62.5593511663498 M279.54726603595793 72.80069478998618 C282.4302567218225 68.77093686100878, 285.70042238615554 64.87719781319369, 288.1591801695604 62.45363311876828 M281.42238704038806 72.47453623193522 C283.0648656664256 70.16357020057082, 284.5888314440166 68.1174812515384, 288.489346465817 63.44598704249221 M281.174320437053 71.78257843602046 C283.99518416481146 68.66758864577942, 286.7734738934671 65.1570346636472, 288.5795747559058 63.59585286762426 M282.59792503665255 71.14013976218881 C284.7744140838487 69.80490866066573, 286.5975633615216 67.03027700968167, 289.2526685604963 64.86528735044568 M282.64723767163747 71.32815750104382 C284.25387458875815 69.81073342211361, 286.1406016907115 67.87368347965972, 288.77919472395774 64.59462496422984 M284.70204538135476 70.63296551451842 C285.4324298607514 68.95422399367226, 287.52367161299287 68.23275013250732, 289.43333709156 65.97872798397692 M284.46388273999685 70.98428666943965 C286.04416378385633 69.31174982286413, 288.0357974427933 67.41859169310023, 288.8205470799147 65.5453395886667" stroke="lightgreen" stroke-width="1.0" fill="none" stroke-dasharray="2 2" />
  <path d="M274.97284817592003 57.13194473657659 C277.1672456075788 56.90496128765151, 281.0194367593541 57.28774317985476, 283.0105922458621 57.968050752486384 C285.00174773237006 58.64835832511802, 287.31857129618214 60.36328133491933, 288.24721808597326 61.66732855412079 C289.1758648757644 62.97137577332226, 289.68782516932276 65.30033901554964, 289.20157084446953 66.66169888049615 C288.7153165196164 68.02305874544264, 286.71633289891554 69.77739091616786, 285.0055225869521 70.74306098709744 C283.2947122749887 71.70873105802698, 280.1367864195946 72.93749667116553, 277.79616876471334 73.0994993533599 C275.4555511098321 73.26150203555426, 271.41980669845793 72.55946716754487, 269.4014048877436 71.8230788683932 C267.38300307702923 71.08669056924153, 265.22567228588827 69.42462421019616, 264.3401566932845 68.19024402568206 C263.45464110068065 66.95586384116797, 263.01615438259785 64.92509947109359, 263.49796760371817 63.59387763829925 C263.9797808248386 62.262655805504906, 265.6437272001459 60.28737440198527, 267.55224483408693 59.31543180705314 C269.46076246802795 58.34348921212101, 274.79309086965685 57.418712829440594, 276.22141849665843 57.114260338751706 C277.64974612365995 56.809807848062825, 277.13049826315154 57.18303674115784, 277.07442901409735 57.285748535793914 M270.2829306110077 58.35476604924783 C272.162244518438 57.678963526312685, 275.9267742010902 57.23308627796636, 278.2657424507328 57.355187041644044 C280.6047107003753 57.47728780532173, 284.2441476758521 58.18909322752391, 285.87605227529116 59.168771140432405 C287.50795687473027 60.148449053340904, 288.87659497002426 62.41769872720959, 289.14510644699317 63.886373127700686 C289.4136179239621 65.35504752819178, 288.7434757251491 67.7599148052166, 287.6661287884174 68.95993381037303 C286.58878185168555 70.15995281552946, 284.0280527041972 71.26170618422469, 281.96279353544816 71.88649982874361 C279.8975343666991 72.51129347326253, 276.0889281979384 73.24205623775337, 273.89773433009054 73.12522477383246 C271.70654046224274 73.00839330991153, 268.8990106471859 72.12802945563743, 267.35483441646255 71.10762340260412 C265.8106581857392 70.08721734957079, 264.01501728563034 67.73287581226056, 263.6032261252683 66.32251775361033 C263.1914349649063 64.91215969496008, 263.6781828348092 62.983257295950466, 264.60956001404907 61.7052363449359 C265.54093719328887 60.42721539392133, 268.91610394454653 58.347593042699415, 269.81240732020046 57.802378080179864 C270.7087106958544 57.25716311766031, 270.437089122286 57.91887988427649, 270.5849158517419 58.070469928138884" stroke="#000" stroke-width="2.0" fill="none" stroke-dasharray="6 3" />
</svg>