<svg width="600" height="150" xmlns="http://www.w3.org/2000/svg">
  <path d="M20.0 20.0 C50.13491912630961 41.99026750033519, 82.82503413831365 64.9248411967938, 99.05271926977899 81.26993008215982 M20.805872943385328 21.306294155882835 C41.36175980898615 33.92722106891365, 61.02042399829043 50.65223082754396, 99.66422508551796 80.01684378790944" stroke="darkred" stroke-width="3" fill="none" stroke-dasharray="6 4" />
  <path d="M119.11636359713884 36.21711987059912 C120.40974941277244 34.38509294029001, 121.74109268308266 31.516824446496816, 123.68815987803376 30.676975980653886 M118.65909445421742 35.89260591639351 C119.44966839678519 34.41676860745264, 120.52257828332708 33.446886576948614, 123.33697959133154 30.388038437844568 M117.51157947273587 41.40422247291629 C121.37498918927676 36.89830760765672, 124.99512047239324 34.625501913717784, 129.18741503381997 29.696732389030423 M118.40039626933606 41.23579094655864 C121.50231295143062 37.514244003473806, 124.44868374294508 34.7229704606963, 127.26147586878514 30.650705461326954 M120.22205715390473 44.77471714783982 C124.36033045043021 41.18777849052938, 127.98897814120606 33.867665827801204, 132.774464253362 32.03050737429578 M117.87253137142027 45.394359673137856 C125.19639512865119 39.98629298668055, 129.1644406676975 34.53763689476615, 131.74897350965517 31.007090720022436 M120.32856483893447 50.73694376003881 C122.80114549073589 44.457434485849916, 129.60151971101408 40.15104978259552, 136.0169003516358 32.08815512993141 M119.36345179619067 50.9858767288588 C123.66295986552339 45.188680833688025, 130.47325974992182 37.67912809292497, 137.433990982383 29.712831950385457 M118.04290009552416 56.57049263619659 C124.4456055802039 50.36362542134786, 132.429461834169 41.64050328302456, 140.9891810985291 31.902653362343795 M118.24018832997493 56.55449802376015 C124.68665190363832 49.16226648043717, 132.14853296795232 41.45351580218184, 142.1018603752922 31.145390234213558 M117.0281444438836 61.55182438441038 C131.41740514440377 51.3733229773042, 140.81890186358055 36.61442440171456, 144.21885016839724 29.367041998331974 M119.0700383748632 61.84483724250411 C128.002108066586 50.50439426798799, 136.4351323677383 39.863808296414334, 145.19768089804754 30.134625468213553 M119.08069409077338 67.6857311849836 C125.54612104083958 59.67781764777749, 131.01525286992893 50.71137141416348, 150.0557827985807 31.165740454627244 M117.86410437861488 66.3644383980675 C130.25115095045695 52.6538032857644, 143.85669872040464 38.72889737423802, 150.77105858144785 31.270292542088395 M119.33640244441183 73.38165340450354 C128.02331788853002 59.245305772175314, 138.56202885489284 49.195971247530736, 155.46754913396626 29.36942631678731 M117.82580337234874 72.37254120844821 C130.80485749262368 60.717271017866835, 142.06629637685324 47.65495915570641, 154.82424754707736 29.589960450676188 M117.7468126646966 78.31855158849324 C129.57783220270153 68.85380376823912, 138.05760273885312 59.119212546036636, 159.02135490398987 31.62767816922731 M119.34055161009454 77.6268623882625 C133.33623702568696 60.18721385856901, 148.42967134198142 44.08982840317783, 159.0868665558655 29.980713897261875 M117.1774607126105 83.27303909755207 C127.80002998600466 70.583662013263, 140.04604634386496 61.35710396921466, 165.47491265561632 29.668755819345115 M119.26900572474932 82.40106359822282 C133.2484877926562 66.99845818317347, 145.79901146949592 49.56939735316247, 164.74885722672013 30.05649868780911 M120.35353656657847 87.0207538428632 C132.8615318054828 70.95377853542425, 144.56785397089908 57.15656010823781, 168.12922274937142 28.686988626048862 M118.47670154664627 87.79844696866424 C135.84918145272772 67.0037616860387, 151.59832878040282 47.96125199149827, 168.24296751747252 29.57521858778324 M117.50562145224484 93.94265159743924 C133.13689001877003 74.42361657970423, 152.71756226178508 57.20414032711281, 171.5308200576191 31.605686383722233 M118.52628936772521 94.01594631923183 C136.79889836125912 71.69497912407098, 154.97703670457926 49.857072172511536, 173.03456371379838 30.94862605857713 M117.72333717260618 99.56179221120463 C138.39225182353812 79.76831021559765, 155.46853566733517 56.60538315160656, 178.0163652470633 30.792838611877926 M119.06439894634758 99.09578339729114 C140.94900653627883 72.01813387074964, 162.96478610302574 47.70105583359603, 177.3387978372053 30.875474181112104 M117.6008297896215 105.2412402323852 C140.90744111678433 76.0589184313957, 165.79602036676627 52.890873662069666, 181.1169243698616 30.997091570855677 M119.33723751136108 103.80233683765057 C141.2070668634592 78.1445462625841, 162.49686818664705 53.44813807857139, 181.41385355122654 31.03133954997618 M120.50825191348562 108.95692550278324 C138.27850586853143 84.65828762499365, 160.7134642607398 60.83150715785305, 187.93860328137856 29.90684207911427 M119.0709021797606 108.41509299328432 C142.14411391877746 78.69205231116726, 167.7350740992229 51.038038835894255, 186.75617777719003 30.360202879025447 M117.76786231852229 112.8488525780111 C141.41569665635313 91.17389270292438, 163.6693417095508 62.884668113825896, 190.11895193665768 31.689702641337476 M117.96997210730497 113.30324137587709 C145.67428017765366 81.29705247174334, 173.96837644925552 49.172458675993894, 192.35060098566404 30.671901650312286 M117.49002108662972 118.15494364989529 C142.27819177910374 93.25776345882699, 167.93803952738637 65.14480937053672, 195.57839345852597 31.505497551238136 M118.32389964794444 120.24321024811995 C143.23331105719015 88.28767226150532, 171.68025489536961 56.18900451485946, 195.43666907414968 30.239540755520554 M119.5589625715396 125.93375231317883 C141.78859772911895 94.29513518663092, 166.1052269633171 69.00809785104094, 195.3663892103507 34.7438274443212 M119.65584876786194 125.25435539057509 C135.9269842118667 103.96550366495478, 155.10145066056995 82.62477738535081, 196.28396693086617 34.292218472493246 M119.24906340336793 126.52306161847112 C143.72396043519817 100.65263651940253, 170.91561421669832 70.32460774034982, 196.44315144161467 40.27624341776422 M120.12941322125481 127.66953096795517 C147.59810295361538 96.30151686258452, 176.1266642710611 61.83777195968334, 196.6125131300276 39.21958717043236 M124.87104359746928 129.91303177367635 C145.27364294173705 104.07269886049366, 164.28599903123896 78.56503261390904, 197.1280318286612 43.96034847953767 M125.34096263438704 128.56609735571968 C137.8301471077056 110.83660427791838, 154.78356851356423 93.59470375143484, 196.99395868558312 44.041358854040766 M127.44812043850388 128.1325543114214 C143.64493341608298 111.49344553836845, 158.66980392203286 95.67844126397056, 195.96187258224214 48.81428663807095 M128.6051602154343 128.41797861987004 C148.5033537858581 107.19266832023592, 167.4004272190604 86.68862598005717, 196.44901393982315 50.82345393698547 M134.23875544123504 128.61175539645464 C147.42560297235198 108.62462002880658, 165.8690857427992 90.8093942634056, 195.7564189072759 55.86469062185799 M133.46898844494913 128.76004549083325 C149.85560159241803 111.09389183638069, 165.80009929813502 90.59657620749883, 197.1197116802311 55.36649802948507 M138.4144427803332 126.71324651607837 C156.2311110302317 107.05832775179157, 176.28724225880106 86.01904429908804, 198.02231036223583 60.98415170920437 M138.71252766750553 127.64443170977286 C154.91406393162282 109.53908589568685, 171.38799669632903 91.27419303364758, 196.7708270077529 61.023895783722594 M144.54962123770318 129.9689348727801 C155.2854514265127 115.71951546498197, 164.25589365778657 103.25995496211767, 195.28504407185392 66.49156874432167 M142.03824924217284 128.30397573720464 C161.4435901610328 104.74002957859679, 180.67715242970343 83.52331359049595, 196.9233310730099 66.60832817260457 M145.89106231978707 130.0 C162.39379667285706 113.43318465703538, 173.91574176097396 95.8762036747354, 196.76619658992368 69.62479913994763 M147.49431634287225 128.00748833351955 C156.5538874778897 115.10861176051931, 167.7084913976362 103.48386005496177, 197.35435734657852 70.22659033496858 M152.6170856469581 127.12753068317807 C162.56978090241128 113.0827438942762, 177.36014479144276 99.19358199469156, 196.89639914969706 77.14152099755765 M152.1106296791372 128.861303157184 C167.9857887811879 109.72332937961993, 184.83762253796553 90.98712866555422, 196.45045149414187 76.84604020169387 M157.59792553904384 126.52628737646151 C168.5981821047418 111.82625817230613, 183.23920092915853 97.76259911572035, 195.52711944949735 81.15506893132866 M156.05759429438618 128.24225695591232 C169.34198310950865 112.78350501514406, 181.30898522335733 97.6934356844079, 197.67616650980563 80.93362080999592 M159.44886391334038 127.12392407411754 C173.13350904093804 115.08224058560167, 182.0399513234063 104.30293818886064, 197.06827393916257 87.13595680505237 M161.20418720025214 128.82206287257253 C172.34364374648322 117.14165158927334, 181.2904623717127 105.268699107838, 197.89871927353104 87.37250838610275 M165.35931007027602 127.36712058659101 C174.89174666103847 115.58258055196465, 185.56657760163182 105.1781444255964, 198.31958544560896 92.92270568760212 M164.40126865676996 129.0375703937121 C177.05857416930908 115.51922529927178, 190.05418706267685 102.75464279523031, 196.6049393540887 92.82340861981831 M170.17135626075893 127.9084825888179 C178.59493109515128 120.30186186871263, 185.23299097928725 110.61319043889075, 196.85915600935303 96.1170195898491 M169.9118660121176 128.5881038532729 C176.4616598821619 119.80546546388264, 183.81286833130204 111.13791066155457, 196.25246454521653 96.82815491938202 M173.06611476513888 128.74672122399994 C180.69428528054607 123.75746437293645, 186.3702970751596 114.61893355357655, 196.17092548408212 101.81910343115656 M174.3808489312387 129.06130367621734 C181.82829432611464 120.38307834576652, 188.4192462240034 111.07132467987523, 197.7116459095052 101.72997988663637 M180.84866155537242 127.5881123911244 C182.0823906838776 122.401212383077, 190.52498570884296 116.40247485499357, 195.7509748835197 106.66374222750899 M179.53429011280133 128.00998595943713 C182.6879332566747 124.13581847369535, 186.44695941624258 118.00763858418522, 196.77311106336825 107.8419573122128 M184.22568775850817 127.3567509602383 C187.1220281653629 122.05055499798452, 194.92715334493886 118.58751231973775, 198.9285836955872 114.40922709960283 M182.9706874316589 127.58918832317526 C189.4542233895779 122.47461396540429, 193.89940528172266 115.97289504574364, 197.3514011643696 112.53574361252487 M187.72196433775522 129.76226276836303 C190.40870409235242 126.7260097290349, 191.94170338780992 123.84533895692483, 196.6477716479312 117.55282709229475 M188.08445728562447 129.05427732711084 C190.94869212207624 124.73285324070939, 194.17648757130974 121.50895947606202, 197.78613295564656 118.60833141471468 M191.91994576402624 127.93555323568245 C193.88650280881058 127.55329913855734, 194.3954304733421 125.6197135157134, 197.1441552613871 122.83412056925835 M192.35315237691702 128.17202243229852 C193.4352487703261 127.34020322420669, 194.47318723233667 126.02414113320764, 197.43568633241838 123.5220022961257" stroke="#ffeecc" stroke-width="1.0" fill="none" />
  <path d="M117.15039094243714 28.962443926766763 C145.8959374051619 31.697184024096057, 169.26611732795004 32.793489779574195, 195.73679523843572 28.673775543681796 M119.32455188094181 31.43976516236397 C148.2765626822525 30.158905586308133, 178.86878261066843 29.894363606950325, 197.4885461983012 31.234951812862914 M195.92443573638474 29.96352194692028 C196.64914432799065 59.06426407813936, 199.51969020816213 86.92830517325766, 197.3653403985773 128.91207528544734 M197.96952962433596 31.209543737579303 C196.6978801287277 60.18828263304455, 195.56747092517213 90.2063525697388, 197.7579664779342 129.3493196726094 M197.59542787570427 129.00606654699587 C173.62318813935488 128.23055329333505, 150.08336065671938 128.38982503318925, 120.36988743661324 129.69853971074977 M196.81088446007846 128.76864842893758 C174.67167448356946 128.81553367840468, 154.31708959325604 129.1418285924136, 119.58849553602218 128.53365159438172 M118.04928399452258 129.00454104193517 C118.4890336319613 97.64929927391242, 118.98560169980493 69.40126686295194, 118.57900091487173 29.383112933016616 M118.52373808056521 128.61584835323274 C119.84945664247019 107.69499155933828, 118.74084490839196 89.29393107853485, 118.54324836194792 31.10518281767734" stroke="#000" stroke-width="2.0" fill="none" stroke-dasharray="8 3" stroke-dashoffset="4" />
  <path d="M235.2807446087558 27.420033365234563 C236.6880008480525 25.19346051973386, 239.0050015602441 23.218877889748, 239.51653019475603 21.78742533673799 M235.06683759799066 27.23092609809555 C235.83691826749788 26.396805379307374, 236.95864469868334 24.932398101432312, 239.72200839314593 22.066330242681975 M233.55241077214382 33.53539406447959 C236.71372565416027 32.38746449412862, 238.37685038034152 28.475959115753557, 241.77787410560143 24.150605526682565 M233.36041684612061 33.708502082548364 C236.20659602880775 31.284732282418577, 239.17120231559278 28.26975591389024, 243.1025132274097 23.22973993815715 M233.4455206756535 41.144320913924176 C235.73986193080341 38.187394155654914, 236.21838151470058 34.71768332325877, 247.06915951727646 24.30989953469938 M232.71923426022946 41.43563174661453 C236.06092850536248 36.76833057947775, 239.47052417983693 32.13504564090907, 245.66482471588827 24.788375132332096 M229.26703121485517 46.387209741310954 C236.0921112183915 38.31030496904424, 243.7453759195052 32.00584311551661, 249.70436277840935 25.3745460157681 M230.61779012677175 47.44710925505453 C236.08465432139513 42.69698147144783, 239.24674612327053 36.50983436451486, 248.52746082562132 26.476328362909218 M230.3030831800107 53.34897619008957 C233.76521058037446 48.975014330275215, 238.62158161257813 42.6693660905984, 251.52250358605212 29.620308091050184 M229.35257537544624 54.00667938643002 C238.59358569183647 45.00425388455304, 244.66696043592412 35.79481351630551, 252.65628740682985 28.623553763692733 M227.03569052012284 63.084869615151916 C237.50718801576963 52.8091796068456, 241.86661085152778 45.25353313883623, 255.70349351110528 31.904273220935977 M227.92262519093552 62.28533420897088 C236.59964093414825 53.11666819008488, 244.1269808324365 43.623293319062896, 255.67547692085543 29.345799141656123 M226.33783325051957 66.61913716028837 C239.1674209647421 54.9164627308422, 249.71439586850337 44.15523399310196, 260.007212098638 31.70977684665914 M225.85738800619944 67.55462659255481 C240.0639616649867 54.936442875899886, 251.25546000341885 41.15670539110778, 257.8001002932069 31.249465367279353 M228.35505804924517 72.10661122664695 C237.76242245879843 57.117536175479216, 247.82787888417258 47.35294032275982, 260.2819051181078 33.19237410926354 M229.05085968010744 69.76574150822331 C240.17232877935967 59.79322503736445, 250.19899320780365 48.591128523859, 262.2493984587133 33.490353942702924 M233.5373165333625 69.66302586710924 C243.78508084224543 57.65813907304319, 259.09189800071607 42.34375040894609, 266.1266372104823 35.49217558785857 M233.6626079628475 70.52803810423066 C242.34093435598194 61.62187856190653, 251.172719592275 49.95115440320561, 263.8179580092102 34.208385733693106 M237.2856622193744 72.93186449594877 C244.18277895352446 63.18183240180991, 251.35081920541634 53.72665631896092, 268.65182608424055 34.69064457526328 M237.1953651385522 72.78294058614705 C244.84708503087634 61.86784733198803, 253.26012915130343 53.43900875004411, 267.67421831295707 36.037680715799326 M240.96298584052337 71.98518295974496 C248.46678118741713 62.08384448882333, 260.6177244149555 49.62171808343216, 270.72419594427606 39.96531088844618 M240.6151401325472 72.33435232839449 C250.20157341554557 60.04645249416933, 261.26800840149883 48.6436841139883, 271.761789758966 38.45571132311508 M244.9257025755585 75.57607075680328 C253.56175506554763 64.80093107573109, 259.23782256686314 56.34718782682934, 274.15385067655 38.49635607400619 M243.80082052907184 73.697469882667 C255.41926164227507 59.9737420604156, 265.72815797071485 48.15329642502182, 275.05270740534957 40.48347942608579 M249.6457879580101 73.93103995120181 C253.5624637012149 66.3944113416207, 260.4098686378567 57.938278382524274, 275.9688932439833 43.293674302139024 M248.93139626992988 75.37815719712091 C254.91338038859996 66.16688762718736, 263.578465533481 57.819950573030226, 274.01651659188343 44.56985041548957 M253.24358690837778 76.71639551968677 C259.4223634476198 66.70576995424332, 264.883290214399 60.39741461062803, 273.9476373243333 51.084379918823544 M250.90332569634057 75.18865360938919 C256.85687517890824 68.98471147789883, 263.54678803018766 62.97701722677982, 271.48887300171424 52.25244495109146 M253.9241122920619 78.81157371079802 C260.185054562594 71.72891749164957, 264.37447040876805 68.14918997847477, 271.22361828170057 60.70201286336274 M254.58081423392278 76.42045962436119 C261.028852179408 70.48064093129697, 265.92539194902037 64.67244712813813, 269.8460020810427 60.34822545033376 M259.52417945266393 77.94833175432262 C262.32391790375436 74.46938285163183, 263.63402530926356 72.49640506767645, 269.0057341468759 67.16431019705495 M259.3734656028787 77.80813072187907 C262.26097512823293 73.77753719583323, 266.2605338445969 70.05392853549162, 268.7979796303051 66.57445041247017 M263.3558835538589 78.77046258889463 C264.8971171643214 77.5750977621971, 265.28230343419887 76.07301864015075, 266.9117925734579 74.24522017665154 M262.9265872870814 78.61706616587048 C264.2441850628292 76.89836168749328, 266.09115408758004 75.65971601748359, 266.947935944597 74.065154922662" stroke="lightblue" stroke-width="1.0" fill="none" stroke-dasharray="3 2" />
  <path d="M234.42336628125503 22.616021851711327 C250.05628059250475 28.38626588456731, 264.4505872554 33.935541708219546, 275.06377045999255 38.53356709129123 M236.55832398112094 20.912243664651992 C250.43010721535174 26.01897060155955, 262.8867199066516 33.00130546814624, 274.80291603758866 41.23418916862683 M274.00358114366753 40.27489196972067 C272.0663225225581 49.66669456659332, 269.7942038397625 64.21486051601528, 263.94991278297385 80.44919857669291 M275.2487688424089 40.6766289006889 C270.89574948509295 53.30649352633124, 268.55548996323205 67.26758298563894, 264.99336249396765 78.75835078565144 M265.948175136671 80.58867255952502 C257.77482338694404 77.81265918257489, 246.12934476647152 74.51309578872736, 227.66515157010377 70.3913542875111 M266.12475084039943 79.39279558158296 C256.8464393746177 77.6881664565955, 248.8405935897791 75.04386778617585, 225.7218160177492 69.82299342858111 M226.31470386238436 68.58479944278396 C230.67284171561857 52.64169353857824, 233.84362623009676 35.93703723264372, 237.66413508935298 21.739011964306783 M226.66947023265647 69.72343249810412 C228.7587762665724 56.4718215192959, 231.3941715314462 44.34193129926864, 236.9594671755536 20.37967546199956" stroke="#000" stroke-width="2.0" fill="none" />
  <path d="M359.71792330072634 31.63321861583208 C366.89185063002685 32.06348947695873, 378.89326933394216 37.26806602240825, 383.86304882014247 41.43665983165839 C388.83282830634283 45.605253640908515, 392.60679479208846 54.09458511810685, 392.8497865420618 59.423844010832994 C393.0927782920351 64.75310290355912, 390.2044931001759 72.69390426219985, 385.4829938199648 76.96505244983267 C380.7614945397537 81.23620063746549, 369.0518143641056 86.85062097843544, 361.37312467398766 87.89816526171846 C353.6944349838697 88.94570954500148, 340.9386084418384 86.55336535344973, 334.29172921917854 83.9486810050528 C327.64484999651864 81.34399665665588, 319.7260688823136 75.59728653075776, 317.06059652292174 70.53360293907225 C314.3951241635299 65.46991934738675, 314.09969321756154 55.47012203685226, 316.5219134898995 50.19079039381609 C318.9441337622374 44.911458750779914, 325.8078644843066 38.05051200465769, 333.20873167184106 35.338058652164406 C340.6095988593756 32.62560529967112, 360.37154980756605 32.071667254321895, 365.8610280734629 32.107768043860844 C371.35050633935964 32.14386883339979, 369.93483806577706 34.96984843876801, 369.8052534444866 35.57873058242404 M351.3781280544577 33.232779731986625 C358.8794704305061 32.62477603009117, 371.2734672757254 33.52594883396762, 377.35981752711115 36.577944034344426 C383.4461677784969 39.629939234721235, 389.8643591807314 48.33092981735871, 391.9537963970294 53.57941440116534 C394.04323361332735 58.82789898497197, 394.712230027147 66.8500282246735, 391.28939896909753 71.56784125972194 C387.86656791104815 76.2856542947704, 376.24747772960285 82.72535957872645, 369.1349226767 85.03150130148833 C362.0223676237971 87.3376430242502, 351.2113511175224 88.49337146130294, 343.87236528307847 86.94211941146774 C336.53337944863455 85.39086736163254, 324.7593504586212 79.22673098657886, 320.2083504470738 74.68982096925362 C315.6573504355265 70.15291095192839, 312.8791367514718 62.132879466761054, 313.532365206096 56.69605262929956 C314.1855936607203 51.25922579183808, 318.84837583371944 42.137431898284675, 324.5632068112356 38.444308719510374 C330.2780377887518 34.75118554073609, 347.86051196009106 33.19475157896851, 351.6312383895375 32.07523143747091 C355.40196481898397 30.955711295973313, 350.036589688289 30.527575074199536, 349.7013830075455 30.9808411095264" stroke="#666" stroke-width="2.0" fill="none" stroke-dasharray="1 2 6 2" />
  <path d="M521.3324197185872 98.12481514976665 C519.5057006876426 100.62576865750393, 515.2787183510951 102.39768098464684, 512.110005506091 103.94087878389715 C508.94129266108706 105.48407658314744, 504.0783195570918 107.85600631279718, 500.2076674185604 108.41280047810199 C496.3370152800291 108.96959464340681, 490.3743064956305 108.22439848350062, 486.3056579158822 107.65283988592923 C482.2370093361339 107.08128128835783, 476.59779924814313 105.82709067938136, 473.0833435535719 104.602409827626 C469.56888785900077 103.37772897587064, 465.6939845257898 101.62841945703093, 462.87595328540783 99.48830087422688 C460.05792204502586 97.34818229142282, 455.8044217142977 93.20949376666674, 454.29646861769214 90.33495260893233 C452.7885155210866 87.46041145119791, 453.1704581680837 81.95176056951318, 452.822932641371 80.32469315599741 C452.47540711465825 78.69762574248165, 452.10612690320517 79.61336501440272, 451.9796317729406 79.48783651882718 M518.2876594828577 100.42816420794833 C516.137837061228 102.64964782546602, 512.1324442426773 103.4449107318774, 508.7018799779308 104.64188722632377 C505.2713157131844 105.83886372077014, 499.44736139753917 107.94202967235145, 495.41723105121525 108.40800750425745 C491.3871007048914 108.87398533616344, 485.6902825140247 108.20460821932683, 481.8343443357718 107.74840610569707 C477.9784061575188 107.2922039920673, 473.1755674499175 107.07702561382649, 469.71097652952903 105.36666008005899 C466.2463856091406 103.65629454629148, 461.3425756741107 98.8650319873787, 458.73707153318236 96.34596921391369 C456.131567392254 93.82690644044868, 453.3545648873761 91.10162816122187, 452.34094892333985 88.5729082569589 C451.3273329593036 86.04418835269593, 452.03382934550046 80.85059727954695, 451.9796317729406 79.48783651882718" stroke="darkgreen" stroke-width="2" fill="none" />
</svg>