<svg width="600" height="150" xmlns="http://www.w3.org/2000/svg">
  <path d="M68.59408510234695 28.07303823931889 C70.06220890077597 25.110593566693673, 71.33901638553289 23.747309154335028, 73.42705983588948 22.305243889989157 M67.60749704116822 27.83866638114912 C69.36846897295474 26.298200185381422, 70.58245053162673 24.45265578057575, 72.50232242635849 22.060033668817223 M68.77083346869351 32.90889092400295 C70.09984492645495 30.951977040797804, 75.8777450421203 25.975911419170657, 77.65777731443083 21.308581828806492 M67.74325286000838 33.58996988675426 C71.61315792989565 29.56837982286479, 75.42243315784538 25.1123717390965, 78.21366811749246 21.43890590815361 M66.87945045737207 38.78729795621554 C72.13014787712075 33.313189272521846, 74.70159840899939 30.891290402859784, 80.79808114099234 23.399851071605884 M67.74588277989739 38.86818477300116 C72.68193670806758 34.0161216120353, 76.295476945214 28.040990081746422, 82.21372721054723 21.43082442370264 M66.9163143175455 44.8017796105952 C72.14674254168455 39.72184542685784, 77.9194169793331 31.772929160718657, 85.71162075468847 22.63002556516891 M67.45454770393758 44.404915578743164 C75.19933746379559 36.04353573001501, 83.38230161852371 28.354410305539076, 87.779423408517 22.56927195039575 M69.62140680636244 52.009151817863035 C75.57032911231425 43.52751254099713, 84.13397761630458 31.164723572526157, 93.70208036433257 22.23622011872195 M68.51295683893512 49.929170899292906 C77.41924166462914 41.067574118903124, 84.99364678383554 29.91399597375379, 92.9338151627588 22.223037697020178 M67.47813773605442 56.93839009452071 C77.82861516583274 46.69608591155974, 88.38288916173337 31.429443241577697, 99.05035098516524 22.328121469453233 M67.42878565069381 56.17796005227397 C75.5465780225194 48.49236737745969, 81.62202148535657 41.54887062400924, 97.86212094772822 23.01014960379389 M65.93808029439903 63.31391227278161 C78.54485291705294 50.2176138746223, 88.86643345069743 36.85370948437408, 104.51497085484554 20.017634768112178 M67.44452794931327 62.64570558570277 C79.59923357138513 47.811916584025134, 89.2477479308292 36.243164676221525, 103.10780064955961 21.632309495401472 M68.46471931432623 66.21041452810579 C85.1132058359642 51.41275455275382, 101.25999025315201 33.17324060469002, 106.17529454740992 21.72348777249925 M67.79565081406913 68.73432133935512 C79.36211091634654 56.329011299944746, 89.69749377835564 44.89541004433717, 108.26765695986388 22.006264834783632 M69.55414174736732 75.43850189891629 C83.70861961936676 55.34609524006689, 99.92627976097049 39.932034157821406, 114.88141287243384 23.2585579509244 M68.64787078863648 73.5791156350673 C79.1854729102266 60.07241738753772, 92.46551636697541 47.02389463099116, 113.43374163769458 21.414939546051592 M69.61353765379725 79.92842269611702 C81.35165211149919 65.00342876562377, 93.37914355569107 50.667782359311445, 119.18543880807883 23.463506359164672 M67.53466697366626 78.69431268165565 C81.87270721601355 63.27316583492337, 97.70354155911906 43.82905022153249, 117.67122795783726 21.28156071379412 M69.08982771120863 84.19284855901606 C79.82845252552504 69.45125635410986, 92.41824582899685 53.67780829220107, 122.40002844831218 24.114890816206366 M68.2156764592144 85.04697766841542 C80.53194352875624 69.83616213289648, 95.36246657132634 53.99963582252162, 121.81284638903205 21.718906402930187 M72.33850541574488 88.30360023383025 C93.5681063125723 61.219495765500106, 116.54712135839269 36.99619493993318, 128.12524955601214 23.32273779945242 M71.52044377615118 86.85740452712247 C83.78248550237288 73.99049209988436, 96.21170769389664 59.26752059349638, 126.89467952711045 22.055459150881493 M76.83436193902833 85.18035782885138 C100.37441004792757 62.50309948480838, 118.01598716675996 41.800581225373136, 134.53064600314912 22.29292322668026 M77.6963642840957 87.42405523436159 C95.49195303007734 66.2335220195161, 114.39942221972322 44.26552964294131, 132.35115810581382 22.112624714755146 M79.75700449488673 88.57423237700658 C94.40865075514384 71.08496672427637, 108.58859562160009 55.53474733072981, 138.80744320783685 22.855842696338694 M80.98081515479015 86.53822558773783 C98.42866803347033 66.71569008501905, 113.11832581577255 50.50516756386259, 137.88961899167813 21.33891979503917 M86.499438621966 88.40892571191657 C100.71006250251025 70.31369759670864, 114.1042346877447 54.055911627695714, 141.77725609467547 21.72156302214149 M86.82268523302693 85.75240722350603 C106.72183522133544 63.16835716074854, 128.8383060464938 38.52076121276896, 143.63814300548518 23.116914116380162 M92.12640756722251 86.63922442611803 C105.16843675284336 69.18814395053423, 122.7994497015699 50.380244190465625, 149.59486060457175 22.811843311995325 M91.14369574960993 86.04618969120858 C112.9353926382384 63.329694835236836, 133.35200341352333 40.532504096361365, 148.74629950562704 21.711399931609048 M97.91950893420326 87.31536387298334 C113.38404537012143 69.08539400280827, 127.543130428756 52.63747082386088, 151.38560786569496 22.489642527118846 M96.7773729930303 86.24979425551027 C112.36662667586779 66.89222246141637, 129.07495720416964 47.04898877561232, 153.33671344939398 23.180924348820394 M101.37999196025991 86.32075205574083 C113.53122188761398 70.91202216655074, 130.52751958222078 57.11945848267622, 152.51778454588413 27.34480843607896 M101.5993994347649 87.52917897514601 C112.80557230555323 70.90686271570053, 127.33745301588712 57.75174732246774, 153.67439935781948 25.85081703186641 M105.55940718251948 85.5047421212208 C122.18904415338451 67.0140502298479, 138.67708251341293 45.920881022870034, 154.58280598747928 32.34596328664774 M107.6532660035383 87.19620560455766 C118.44889667883594 73.83495216972372, 130.80693265365778 59.17962414507501, 154.6628764696 31.824946413769275 M112.37547487773125 86.72346687249922 C123.47191623929601 71.21173855879672, 136.62502537754216 56.97108663016558, 152.15597786760583 38.72637648867582 M111.64967288142196 85.96838508312197 C120.46160183050519 76.80169585935775, 129.1413092420952 67.34708214840569, 154.43455246749397 38.16593351916464 M116.72898696942947 85.5855254507627 C126.79633201598703 76.30389298358193, 136.76673628067252 60.86864062755764, 155.53664965621147 41.540949826982576 M117.328381826024 86.24960040370976 C131.48777765569568 69.70061227802512, 145.43650811008098 53.94548361682106, 153.28224273186834 43.62805676756243 M121.45841429180109 86.89590966133332 C131.02869555343852 76.25036111899064, 137.2759199926927 66.88812461502457, 152.7592903691887 50.11408035082458 M121.50964662738956 86.70944011812452 C131.7485194705921 74.26302618946602, 144.43366169373255 61.19832555205069, 153.71854996535473 49.39977192681357 M127.6477673677635 86.02715831778929 C135.74875113192505 76.12505351767243, 144.16351749981084 66.78471491279839, 152.8173261147707 54.29889426334292 M126.20217721671605 86.77766941633354 C133.9425708269771 78.45969804923052, 139.76221728628389 71.98311551381647, 154.81297849688417 54.172925283686446 M133.37227810923855 85.555981720445 C141.03811979056042 75.51629243663427, 146.78242608523544 67.25785538701655, 155.70229153630032 61.055064197248676 M131.14996872213993 87.62577216310305 C140.94194298520438 77.87435143108041, 148.81830257763662 66.70663264660433, 153.35302855918667 61.11816646638257 M136.25481595549607 87.86645436682875 C141.89619483671777 78.33580763833871, 146.32171790547278 73.07774255452748, 154.00802529748518 67.78441738298991 M136.16821027160432 87.35871502607813 C140.62563268167764 80.91915987486783, 144.35685102024604 77.96662139382934, 154.73953689621206 66.65374705805169 M141.8807491502875 85.64298876531132 C143.9520842819124 82.59052936324792, 149.0394646222167 78.56518281829835, 154.67147455038503 73.10124893062732 M141.6549386968962 85.81605669541818 C143.9246070986809 84.05799307458676, 146.33797450288995 80.9497217079842, 153.5801280251478 73.14452330742529 M145.54728919221768 87.47490348661114 C149.51658066282835 83.75291495242345, 150.04942013477958 81.27091789765367, 154.9357335302356 77.79646201332162 M146.8271673153784 86.3144572794466 C148.4462691066548 85.18720873643946, 149.92149438501 82.09148074470988, 154.48175681966381 78.13698595015444 M151.38852221258722 86.7294800990743 C152.48973116055348 85.40006623482469, 153.16680838980065 84.32713911081734, 154.34782860285418 83.74811439097434 M151.51292870525793 86.62425488863767 C152.28191852886658 85.96416011739825, 152.91924237010784 85.17328020513017, 153.9752659121831 84.07185614346488" stroke="#ffc" stroke-width="1.0" fill="none" />
  <path d="M69.38933716276838 21.196727370189908 C97.26704019536498 20.0, 126.68294889763256 20.51276579506661, 152.7120224483969 20.48850074184525 M68.09176293110004 22.062507515662862 C98.67201726601675 23.268867196758737, 128.48554040718798 23.618981800595595, 153.0274341072502 21.78126696797555 M154.18660120564184 22.730271722114598 C154.75910491475088 38.96069050183099, 154.34015902563715 60.23746510942863, 153.51945725016162 88.34492694323683 M153.7070463445865 21.37496989290487 C153.3246826093824 40.970888506547006, 155.27160950675773 61.692250834200735, 154.60849440951677 86.74466612250512 M156.07662908822067 86.48991159005016 C130.57817251319582 87.74490966473397, 111.93680673645453 86.72892450824935, 69.7391992961271 85.15759057954207 M154.26079946638566 87.18947676139567 C122.89037525817696 88.11167750078786, 94.64717151030342 87.66852224709532, 67.85345990780513 87.08826886191974 M65.94919292972767 86.19288970377622 C68.03294947794011 67.92614503926757, 68.48904662984897 53.36752185509311, 66.172127652278 20.03119177485855 M68.8315198438186 85.95150721652124 C66.294345183877 63.7088962589674, 67.00641500807606 42.766022008013124, 68.53202858286537 21.832321031538175" stroke="brown" stroke-width="2.0" fill="none" />
  <path d="M51.8458579919247 34.69210742002891 C53.55206815610463 33.96385702553092, 56.28572739809894 33.23755027462839, 57.96949913311043 32.039348487594296 M51.521405440241544 35.134015299463606 C53.35554792534589 34.0750421721142, 55.61588611016138 33.99042703377462, 58.58358478344617 32.94277105064842 M49.16062363489113 39.366512296301124 C53.133408547850216 40.46110008871961, 56.25336217174461 37.42455500583926, 61.50639725743643 35.16449589759942 M47.80554242292181 40.092400487450995 C54.179741975970884 38.54380179030952, 59.18606300141188 35.26066173284632, 62.51185204697473 34.78426068900426 M45.874474264632056 47.34269948852183 C55.439395200200465 41.982590000773286, 61.25195946854946 41.1818314926621, 67.54892509401805 37.63963294688551 M45.17780765383814 44.096885245138424 C52.53158945116823 42.89609182624517, 59.55674896101833 40.33585796933693, 67.37839637507456 38.34517421140353 M41.027304159875634 50.689377630041506 C51.12142303251676 49.16325464082512, 58.189172678332625 47.33010752781993, 71.07109997293313 39.99010546096114 M42.5991085464949 50.26152368913067 C53.03970860969598 45.45520580569306, 62.227172669438886 43.21722281508008, 71.57201241946649 39.627447734695004 M40.4595061976229 56.089871551015925 C49.592377048643776 52.1495809548871, 61.99481106153892 48.585934055702836, 77.35136057447863 41.105264158604626 M39.809465176075236 55.750288503148596 C51.628703581828255 51.50067867911011, 64.2767894348386 47.020269928531896, 75.23347855236781 42.42893900307013 M36.68181594181361 58.09047279828609 C55.82774421528014 55.80389435819337, 70.59131645373407 48.132421159739536, 78.62669978981762 45.714913659605415 M36.91879617844341 60.465484967930315 C50.543309684645045 55.208688369568584, 64.22064695535866 51.42852207050396, 79.04373710710891 44.944978796015036 M36.821770924849176 64.04977549298728 C51.22023327250329 60.08808399470619, 63.98800566494412 51.9490475009617, 84.88464130964029 45.65816363017492 M33.89438747684988 65.6776422352736 C47.86258632145315 59.64518234337367, 59.05273271271 55.874553455496965, 84.31269751191795 46.47114882925395 M29.607233846517296 69.4378478996588 C41.69474515509772 66.39450124078982, 54.04738553002266 61.7319573311741, 88.15965776754497 49.39668054813387 M31.647012609361898 70.2332716446441 C50.471179564467235 63.64971537156358, 70.5936373250793 56.77515088227703, 88.88862545753895 49.58083851744587 M26.765007672769965 73.60774253038733 C52.388816747981814 65.00211055690744, 74.77100552630878 59.02823351544424, 92.2365355000982 53.18233216338385 M28.976763307426054 74.17949319691903 C51.1025544970174 67.930136368576, 73.1632577859146 59.70020346593513, 92.74618325016901 52.71401307175778 M24.53278958896613 79.5708629248308 C46.295216611365824 70.77335493474197, 69.60211673352177 64.35097946895742, 97.44316359162866 56.19006088355539 M25.010973695634355 78.703867177955 C46.36339725006493 72.34736125228915, 66.87560527929097 65.61505750175232, 98.38325478154661 55.03661408948357 M22.85244163303018 82.76286017870359 C47.924589796014644 78.18651138183162, 72.56140322403476 67.76575393796145, 101.90431160082879 57.896514805355096 M22.30977956455007 85.0284032746971 C48.28416315933948 76.76821456115209, 75.60569471264617 67.06437774821705, 100.76060301463588 58.04568368465721 M24.600727482081087 89.61008407559245 C47.38575083498091 77.64171634818803, 72.1142237036686 72.39110226761093, 106.51092885899718 61.61165115919646 M25.631056990350153 87.9954761239365 C42.68532250365034 83.1910842391656, 62.38727764119851 77.66207372637078, 105.84926344650088 59.54657906077879 M28.71052195525805 90.00161026358597 C44.672194187216455 85.32993127072626, 62.89549039549851 80.73599936413578, 109.63512079060342 60.63840231397956 M30.144245985553365 90.98797822912863 C55.37215529897028 83.56600108174433, 78.3662108331668 74.08485652934246, 111.0459520564781 63.17162719816124 M32.764595578691925 93.2167304265314 C55.82531706207267 87.58334801997998, 77.575838807993 78.83009336718183, 113.99609101294564 62.882437272173526 M33.90085028593244 91.81024225911273 C53.284423256915595 85.96299385173961, 71.85649134573995 79.55864545825463, 113.77323570870688 65.08401050520146 M38.99936668602649 94.03726474919415 C54.20558251065223 90.05043308285016, 76.70176406919465 81.64503638206946, 118.06889238449284 65.93110090293288 M37.13057652368668 95.6137313392629 C58.76833622119753 87.82634699901146, 81.31246678908539 80.09623583935775, 118.94818400103559 66.27723900394258 M44.33600682843463 97.74723819452856 C67.24146590390316 88.14846569536124, 86.86977754112291 82.5686905515004, 122.56137006452842 68.1029585974928 M41.96477867983941 97.80748091969812 C58.644000810324584 90.48286036283918, 75.63546539893224 85.82805769319725, 123.76308349010687 71.00302334282617 M48.25820673232472 100.11629633024535 C61.920364037340995 95.22979952558072, 78.46711293250654 91.1072934436582, 127.30849681987858 73.22377300701265 M47.78392337113679 100.55944105713797 C77.64231393831041 90.58730147658741, 105.37688057391043 79.40587030311337, 127.18960074607007 71.7958285021709 M49.23901885033849 101.761225823458 C71.83035314827168 93.5369596469524, 91.98344445386769 90.23789169397614, 125.44552401032506 75.60709798363092 M51.907376958617775 102.3718040446677 C68.18988518593085 98.45663890485167, 84.54287874023439 92.90061858460496, 125.56825358810893 76.92614819954287 M54.70982313168267 106.1691337812224 C82.52840195943361 96.88247551083401, 110.32314120852205 88.48459178783926, 122.70091342126572 80.34927915593491 M55.33577959814655 106.03102840832076 C76.41841339280538 98.35021711703902, 96.79576949819992 90.62640054736417, 123.16437592548466 81.87277610639427 M59.47832493366588 107.46231346906634 C80.11221699743413 101.6173677228648, 96.63959819654852 95.43031073213072, 118.30666393599518 87.07224109136754 M59.43557685100414 107.21477000210271 C74.66423680811207 101.98166813309103, 90.67804613107249 94.69636746010892, 121.74240615411092 86.60040254696915 M63.21093670218957 111.71704055449663 C76.8695448538985 106.9982704908183, 89.802612223276 103.16003629143691, 119.07257556219511 94.01772831504499 M64.94301637775476 110.53090892834396 C79.84460320591482 106.38373780198043, 95.27178687413789 99.76100083149132, 118.21143675528386 91.40173717401166 M69.35026771086297 114.48153390151617 C82.66619359828252 107.32220780063284, 98.88514547851915 104.38574406831307, 112.40445281298709 97.32425248324523 M68.20352064232033 111.91386522908115 C81.23354715902173 109.61240794896227, 93.36935815524743 105.21076414507829, 115.6696845203557 97.87638483548974 M72.79167631624846 113.98931193521472 C84.93118280555957 112.00535896006627, 93.39151741643906 108.23208932433909, 110.71819641590629 101.25133630626632 M73.12505950984348 114.76701007718395 C84.52851908076082 111.40569399505407, 95.83884343774236 107.27485494046911, 112.41564414842705 100.94313688611746 M76.65444814411694 115.37232111344838 C90.19838849120188 112.60292316469017, 101.86543779359812 109.84005626467044, 110.21060385887026 105.81321435186379 M77.44635049263431 119.23758313936864 C84.98257800335954 116.42014163954434, 92.22703075407966 113.4323860639044, 108.2951210708009 106.99086839715423 M81.34977443450654 120.20359575590331 C87.51977838881251 118.24251951076326, 97.3414044829957 115.99877386905334, 108.66113174402494 111.97260931555022 M80.26942478287043 120.51114266733859 C89.70773976356458 116.85895392393408, 98.42912454343892 114.70282958217834, 107.48680380103065 112.14731095927124 M83.64046576407614 123.1932318663577 C88.99043992731015 120.87646546590793, 94.23122196228118 120.3119793321259, 105.16141610628594 117.61131578246395 M85.3862290018337 122.64882264240538 C93.73141538891284 120.41980380440452, 99.98603969448945 118.84145788310846, 104.50705429188804 116.97569726107318 M89.08760297294535 125.85998345126848 C93.78285195722134 124.56557362191768, 96.00115696690457 122.24145863479768, 100.26587808570177 122.17975387913938 M90.23227053176055 125.69877386632496 C92.72490138529871 123.9977960229381, 95.67442441926272 123.95916122195538, 100.8344869812016 121.49586513148188 M94.46754447283271 128.20065392537313 C95.29894930656155 127.7826621543986, 96.385710381399 127.37690563638671, 98.16922976873778 126.32302873384185 M94.38007911129029 127.73063988641081 C95.54763181551564 127.3140141383276, 96.36529245989456 127.1545572600233, 97.90580019076235 126.43579044048914" stroke="#cfc" stroke-width="1.0" fill="none" />
  <path d="M54.01101522369745 29.617991404617374 C77.20549871825956 42.99829109257668, 98.30097055763613 59.24280015566682, 128.94955663007354 72.06452939331018 M54.62070175023542 31.11851599035339 C70.60509354398995 39.94173461546444, 85.76295768841374 49.05931677112136, 128.53392945633487 73.50623554341675 M126.6243194913901 73.58436737670982 C119.688094869802 87.4332911336133, 113.1647907995801 102.21358076957321, 93.93028494433531 130.0 M128.58148155933858 72.70975149137396 C115.77058220232647 91.8509723740267, 104.71317055606062 114.92663650049664, 96.43300765956701 129.59242364726026 M94.59889515029683 129.29001718951562 C83.53866660105975 120.99631796474694, 67.31622678103687 108.95550693526556, 22.321682841101246 85.6098720877421 M95.74083433447584 129.00237848965054 C72.03380825698679 115.88742225397922, 46.60382836887304 101.33004432422945, 21.703701371059758 85.31172548048983 M19.999999999999996 85.2589518307874 C30.867181889962147 66.71463753542656, 43.69784413932677 50.862287463866025, 52.58668360937064 28.654674066588807 M21.374970727762786 86.8517145352474 C34.10688330419739 65.33467023316322, 46.36036286988192 44.62092895164923, 53.378448255838975 30.366969459332804" stroke="purple" stroke-width="2.0" fill="none" />
  <path d="M261.76362622280334 22.11158315925843 M259.7343262498117 21.35278903238942 C278.61644770211126 23.455473961784932, 296.9330596901211 21.405383911885465, 346.36555709351074 22.235256235822106 M262.6092227671211 22.730566915106486 C295.80931755186344 21.778913234775203, 330.79943097788964 21.040923227982606, 347.52542209425314 21.637393486972964 M347.4203607833142 23.00271406231007 C346.4393245538016 42.20662477149348, 346.2701877376182 65.58622159449081, 349.65905817485884 86.47058527829844 M347.77010503980387 21.267999821524626 C347.79722522285914 39.4492673657176, 346.81736200444266 56.39898588741243, 347.0955559852812 86.44707021598717 M348.6007024414338 86.80160799328442 C320.61842659902135 88.44095692480064, 290.9149225215735 87.6479890285845, 261.09709628452157 86.02836208458356 M348.87636395406696 87.34514486589879 C325.2468580865954 87.41087094055936, 304.7170982338566 86.96202941590371, 261.32511311937094 86.44479912119954 M263.26979099659235 85.2541921471697 C264.1737508307082 68.11143482818278, 261.04802931279556 46.563513616675934, 260.610574239378 23.64229813751535 M262.38503900805597 85.85547921771376 C262.4986582005583 63.39069824972691, 262.2447544449398 41.401330804890605, 262.817358800469 21.44011840257467" stroke="blue" stroke-width="2.0" fill="none" />
</svg>