<svg width="600" height="200" xmlns="http://www.w3.org/2000/svg">
  <defs>

  <linearGradient id="roughGradient1" gradientUnits="userSpaceOnUse"
                  x1="0" y1="0" x2="186.070134" y2="113.137085"
                  gradientTransform="translate(20.000000,20.000000)">
    <stop offset="0.0%" stop-color="#FFA500" />
    <stop offset="100.0%" stop-color="#FF0000" />
  </linearGradient>

  <linearGradient id="roughGradient2" gradientUnits="userSpaceOnUse"
                  x1="0" y1="0" x2="0.000000" y2="77.250709"
                  gradientTransform="translate(332.690540,59.712426)">
    <stop offset="0.0%" stop-color="#00F" />
    <stop offset="100.0%" stop-color="#0FF" />
  </linearGradient>
  </defs>

  <path d="M21.77508033763275 29.94011335661035 C23.909562453398657 27.67583178633407, 24.585524747229925 26.809893837400296, 29.235169737667185 21.987481396280245 M22.00198707131353 29.513353238101505 C23.413331418155046 28.147676610485057, 25.20877879135425 26.949886308620417, 28.609874378820365 22.338571913856924 M21.912911738957696 37.05210640196812 C25.744526817401436 31.323785674049944, 29.889372793776793 24.8113688396404, 33.97242668912622 22.18337202057012 M23.158147296120227 36.23274730529333 C25.108906416297003 32.41573883548574, 27.042005590670776 30.79624430460528, 35.22881266690781 22.497327129842034 M20.1568637874508 45.693539688847224 C27.159419579558616 36.64456289209626, 30.230884780374495 34.58514538938991, 41.128320750379174 20.772829140090778 M23.09502043863608 44.40184376637502 C27.072160814986596 36.688690234661564, 31.048221604484624 32.34741406019435, 39.47297461715905 22.86448426472947 M24.13498648136455 51.23951868919616 C26.761676011497684 44.24601105217643, 35.54560168889096 34.51854465932753, 47.8677948882806 23.15857963392401 M23.338642028707067 49.99106623711562 C29.37059215916544 42.918162591661286, 34.826256052437984 38.64785482629293, 46.38285487163591 21.606649983946554 M20.468079598718376 55.76389258162129 C32.15339733682246 45.698888516420254, 37.94900975611113 36.7586778403404, 53.01264463516802 23.842094225747346 M22.501174585170045 56.22927271948596 C31.00269914955105 49.55847128784683, 36.638030567048276 42.84720701844459, 51.640334240315454 21.844425989694926 M21.33079606883278 62.79555219705858 C32.32751516539258 51.7314949648368, 48.18403718930157 36.26741612030368, 60.0566939655317 21.933865716346975 M23.341636882237985 64.5897493771601 C32.546461144052614 54.03121927890287, 42.83583642612637 42.79898368973744, 57.68095831586302 23.74044380616006 M24.671475361246255 69.47592883006524 C31.13828647699402 58.67785483086105, 43.396543819046656 42.103126983214324, 65.74129610017496 20.422478515656486 M22.9348378997449 71.07924213729507 C31.67392791994098 59.65269131771589, 42.24472642923003 49.91530401996761, 65.12728545848051 23.436077554949243 M21.22221556911785 76.4688289813679 C42.755538276380584 53.54365531132812, 59.91648319564926 33.011442489030614, 69.70784440708532 20.92502972551924 M21.851973584578538 76.76103081230812 C32.44842737344167 64.6573483434963, 46.52020159641904 51.69417697789987, 71.06790335809875 23.39731013466877 M23.75999482171398 83.88585464976772 C34.8374137664836 72.59984325524388, 47.09719129015361 56.05238283512604, 73.91988883513503 22.676161243658292 M21.72849267598364 84.31554756108325 C36.82495833342503 67.26776369891418, 50.34917240723081 51.89348625774606, 76.57113696153014 21.639485046010165 M24.50064928860566 92.4828353201967 C41.294155394153464 67.11515039719099, 63.98579852705763 44.59260079467792, 82.28146179709731 22.518428862815373 M22.909392332682934 90.48674382067331 C40.357041353275356 70.44834539884563, 58.275037670620414 52.4253231189458, 82.28333787525622 21.893485292000403 M23.064793042412234 97.24841796585581 C48.14853126867235 68.82913940307559, 73.87401332789442 39.63173661243718, 86.07157470052992 20.789985752356685 M23.18772584740824 99.19957604494526 C38.04425794154332 82.31814499052265, 51.67859116764705 65.48491001132328, 88.61462781498403 22.665246481232113 M20.64810553118324 105.63540323279955 C45.76370410843422 82.05273415751147, 67.15964564641848 54.69685166405107, 93.91959380703022 21.723406407916944 M23.085103197503706 104.31399761507902 C52.588084618158135 72.68948396160602, 79.37958224108785 39.33261530023264, 93.34875907436353 22.61901008028142 M22.013940377267367 112.571651079902 C51.453641828213385 80.04213198967071, 79.66621367052772 43.09519547434206, 100.26936190602113 21.582839002400505 M23.385671353917747 110.96320431883548 C48.69507147551957 76.80956777636403, 78.23643471306868 44.309528184582334, 99.66626627069192 23.256245483071623 M23.078593252255196 120.49149718784996 C38.904095638125746 98.99735029646743, 61.47233157756577 74.55648680246142, 108.73242048275732 23.389946967722135 M22.19498128258246 119.02974548699021 C44.39259835002781 89.58010292218952, 66.91568604702648 63.04374893296195, 106.2012880739406 21.307959097452247 M22.89678031697169 124.59236703004754 C52.60368179123206 90.15331343864987, 82.76501334312553 52.91729885108728, 111.94107597948638 24.236071708789 M23.188471056988142 125.32856006599303 C49.42811356129409 94.67798768681993, 77.47159599278021 62.21513218780329, 112.6019486521426 22.909913758529264 M22.72796015191694 130.7460482854738 C44.0526254802857 110.43200111967442, 63.55009577389176 87.15655201709497, 120.53570394438589 21.360910112154215 M22.9959715627229 133.5497184944505 C48.04078062556972 101.18073328188191, 74.50585539909466 71.34496177742781, 118.3184838344787 23.790305522619498 M22.68384716679368 137.68319886609694 C44.34361648228908 114.80707332393109, 67.97247611416664 83.08148082815052, 125.35292719660957 23.217971060984127 M23.24063184276738 139.15621588038746 C51.68089261775393 103.70274747494942, 83.68490607473831 67.34907976402896, 123.21011100935169 22.957219969378357 M23.52043878060865 146.58820895739044 C44.486783305087116 123.0070568267848, 65.14638281998111 96.61367254906746, 129.6067460929336 21.635272169285088 M22.98287986441767 147.02696201512947 C53.40537298214459 115.10828540406064, 83.76357581507008 79.10707891594069, 129.61854898915075 23.077402995886445 M21.302607373901164 152.35027085303102 C47.797090818892904 121.73993682241962, 77.12926119071008 90.84518900832025, 135.97619740953198 20.045501776700647 M22.925148226820163 153.23804931144952 C58.63975146698665 113.45227256427246, 94.81123189617823 69.66212713904109, 137.13501046398085 22.494544921882664 M24.57072977513164 158.77735966940776 C68.91006146987912 111.34888305888842, 117.9900385861429 56.202998657930124, 141.13516824623196 20.97704586292848 M21.243113275300217 161.37325246737512 C63.54575537984534 115.05914269622687, 102.56565294935409 71.85033679678837, 140.91039934719396 23.691073185337945 M23.869849153097746 165.33944572608462 C59.501803900339524 132.40484964726986, 93.03790892423653 91.83362776833702, 149.33628440823782 22.24533082518871 M23.679825766498485 166.78957548421832 C57.83110447745648 126.89225336830137, 95.72504623175277 82.55790106194601, 146.87967148465245 22.26781673684323 M20.0 175.2094355763905 C57.24337754176996 136.79419187995836, 85.97441282819297 97.86223046097194, 156.00035910278106 20.18206243373844 M23.546034673167654 175.20792790243627 C68.1817489139032 128.61956535586506, 109.3888288980053 79.59890088941823, 154.1382118227003 21.715413014845012 M27.57865325471765 175.94619944077002 C61.10659513778319 137.08621313830602, 91.91455510055764 96.22337190086401, 161.94571479641687 24.63371875138985 M24.402156745400383 176.18873918659767 C62.95589919832588 136.80048150343066, 101.19480243754406 94.21276874932572, 160.8960401826864 21.6649349391196 M32.35378576961964 179.87369361850898 C71.89351118680297 126.47023903149744, 115.56613360984662 79.0550282125399, 164.41858735932556 20.951829458224836 M31.73075903986753 176.35358015074968 C75.9499754062113 126.26189489162194, 119.12561116148686 77.32556888343103, 167.1228227843184 23.34103090918268 M38.840318835970834 176.15480233713592 C80.81596712672905 127.17766036242674, 125.98997883140458 79.22753500234839, 171.16387613711538 21.855325770703693 M38.06947652671525 176.86652301624176 C80.47132954815157 131.8919188202124, 123.23969110836146 83.51797063307583, 172.22199420949494 22.666735050512678 M42.31625347976657 179.73462405627663 C77.89135435505239 141.6334418653959, 102.52112226425264 107.4427144411339, 178.46379160336264 22.005640083585206 M44.25269713096769 177.69068755490386 C79.99592421931571 138.56193288443168, 115.46206091038685 99.09109840523082, 177.51457459993264 22.262251969820117 M47.47286045242136 175.96516850943976 C97.1568492875797 120.8111086283645, 147.0574298162418 63.36536849291643, 186.04569978197515 24.549982021654365 M49.59760600297941 177.54280515588368 C94.06442631014542 130.602002328002, 138.18735993000462 82.56160591588373, 185.01043400837926 23.56495551366774 M53.92390685807227 178.70864692792236 C89.22891564804064 134.89068447167804, 122.82268171134427 94.73490243403376, 188.68933799035244 23.507243155884847 M54.25242228241638 176.3718307958056 C91.80797649472407 136.56580793884422, 127.41734765488859 95.13475653805143, 189.41452933301346 22.942080198863966 M60.141114220250735 179.4727313976001 C90.49353485298828 139.01687336000174, 122.89182806082017 99.46876355179293, 197.05060234287754 20.38052870174372 M60.25415818328544 177.0249850155984 C95.95778682065013 140.3651103216422, 127.37142611002662 103.19631462345905, 197.258151715601 22.694509757038034 M68.30774763714997 179.95384400204247 C113.87167341975162 122.41909118546798, 159.20794664813985 68.37306718777049, 199.43901799918132 20.0 M66.19961740330423 177.69734899990488 C99.97796886698674 141.4276221999263, 131.35889030878113 106.19116085188237, 201.3629854412628 22.708236349684327 M74.53740753267034 177.8653371086716 C114.92231624925074 133.43349819865506, 153.10961216899696 92.85004797077674, 208.92594463310203 23.244976543420133 M72.15526778509695 177.49402357962143 C114.27085524037504 130.2719326770018, 153.44681301661765 84.55122167911676, 207.12668135220446 22.356747431131225 M77.89729404320481 176.07081927065235 C108.69953830451217 150.0025058331203, 136.17073814648202 119.23238354134592, 213.54222798634052 21.16077046895623 M80.48804956553086 176.53871411617794 C123.41386421372802 124.93679213174588, 166.40555678493675 75.82556440160941, 213.69599748680926 21.372925661018222 M83.9580828956184 176.79180465182483 C129.7627360589993 124.03558640443336, 181.97103485805872 69.2247624954649, 218.53658959656673 24.42668364058108 M85.18070449385468 176.32310795134234 C114.32497723203403 143.3352640521382, 146.38829402128468 109.17911924870342, 218.9099590107913 21.615763987570325 M92.30210480862569 179.2315558548801 C134.87104582373286 123.44818687190336, 177.26018648201017 71.47161572127389, 226.12475829137483 20.183443305510387 M91.4074514538219 176.16621859280252 C138.9119026078239 124.33871736277203, 183.98405863659883 72.64766573034562, 226.57147272172597 22.385489990024936 M99.42110045206385 178.04602458249963 C133.1004093106801 133.79730583368007, 164.33232605463897 96.90523285624181, 231.27712642066962 23.244151839856254 M96.5304340247024 177.04875427867165 C128.32602623937606 144.11987188585704, 158.52146696760113 109.24548258577589, 232.53741914736116 21.734868230658492 M102.82187528214098 174.9247948461923 C155.1974545318269 113.8831827450021, 207.45031440694908 55.77117938104034, 239.0069660783392 24.48722635679767 M104.15991181808934 177.91023099646412 C132.8394184620218 147.0881774313428, 160.67202582840335 113.59005471183417, 238.73056918547138 23.111812967907156 M106.96850034958867 179.67125810430747 C145.30988478723248 133.94033112518954, 179.01070794984997 87.79584702563218, 245.33956217295338 22.03939105214434 M109.87070785340705 178.33575861758592 C147.8921235586403 134.15343063939255, 185.30657026742003 91.754875836319, 244.42135882809956 23.683691667488674 M116.9834811071083 178.95254335263047 C155.60628964417637 135.88433727886067, 197.01238435905367 89.52241222543503, 251.7730713536399 23.24052255287274 M115.61563852982607 177.31859066350205 C161.4237531788919 123.19332513500686, 210.75877485409603 68.18826418231514, 250.02558403424533 21.73352548131678 M120.50708612459762 175.29348903370413 C169.651792232324 118.40399245536456, 222.40040518765238 58.15410851127271, 254.07285082444062 22.451669985727563 M121.64152077548286 176.5226667249445 C151.46555061996833 146.19175845730368, 177.36279605671908 113.15932089563572, 257.1638024695032 22.894172706858303 M125.14536199428754 176.95738863479315 C161.52478118651254 134.61641951361852, 199.64523174515793 98.08580005818371, 263.9093081582633 23.05171547334298 M126.97250965164464 178.085814801442 C163.82186681029683 138.13812485334685, 199.23276620041918 99.21443682006388, 261.81679479285367 22.547626346226863 M131.8796604225932 179.10816414009747 C181.32192698246973 125.96688603167591, 232.9132150459938 66.88999749465775, 266.34444249423495 24.8847421461857 M132.04765457337362 178.00708286832713 C175.68240707110272 127.61643601554967, 218.79765354101303 77.90444585292997, 267.9122346201812 21.805967365360345 M137.18662026132395 175.4963729177648 C188.45235442392195 118.61536933635342, 234.11401667376938 64.30832813085215, 273.05950734259875 21.23005503398223 M138.7070295040509 177.71441986523482 C173.72080680984882 139.15591159226508, 209.18920773425802 96.30358174535806, 274.1686273505563 23.066736123268985 M143.03856181682352 178.3015994973537 C197.55202398720309 122.16008375209525, 247.8055775291338 58.98384088696764, 279.8448947879115 22.763868307388385 M144.8517247704816 178.66714045788063 C196.2113909204899 120.79332015937962, 249.52149542990657 60.01540846570998, 280.04859597709356 21.769360826155363 M153.1388609955713 178.281802100466 C187.14104954024464 136.11025932716683, 224.62625504133325 93.28132049428508, 279.4234274535649 30.15957376015665 M152.04337703292202 177.6210158515235 C192.09149273099536 132.8986954561889, 232.20281404694097 86.7186614738313, 280.5472487939129 28.78216043600525 M156.41186170379515 178.89402528009612 C185.9281555930015 143.47614556947195, 216.8790611624322 109.83748650484984, 280.5476820259299 35.98333395881582 M156.07496369351765 177.07494832847587 C197.97111888313574 130.76033662301617, 239.7507327835881 81.39484326045988, 281.05890350923977 35.508691111171814 M160.9614337665888 176.54445721116087 C198.6835522979467 133.2852616956829, 239.37901369330118 89.31504179180259, 279.1547051345447 42.333778428166184 M163.10425933724574 176.1973142678959 C191.8533187578483 149.8016541638693, 216.40414501580145 120.81475364473397, 279.9993361960833 41.85847269835499 M170.20927002068333 178.0271738719722 C196.61069628502582 142.12504583817386, 222.1382510892244 112.66229110721677, 282.5420303965599 49.29754529165622 M169.43092670220514 176.42469208069303 C196.4077375955645 148.71957548642268, 219.29916683585068 121.44593881544118, 281.82293234111734 48.00852060738424 M173.58489006667708 176.22407902178773 C200.57994784628326 146.22311055726743, 224.4636558740599 115.56545837743703, 282.92366955540786 56.717104195163586 M174.30891465023328 178.61902774985424 C198.0575142929804 149.58723559497744, 218.10626874426666 125.62623155293458, 280.52710278184895 55.62146721065599 M182.32013053110515 176.19838680848716 C203.0235634402586 152.462107800212, 225.1098354517333 122.30743158242946, 281.0331048533908 64.15176753461648 M181.11928683464842 178.62662162998222 C211.02609547530227 141.13283407855045, 241.8395175025656 104.3620592219655, 280.5423258455289 63.6697947723933 M188.20521759802443 179.50458357656223 C216.74372349231328 138.06939284140554, 251.70694819042808 104.13918412712482, 283.1429072915705 70.11856495474518 M188.22328449837198 176.18790256273107 C212.07646039360773 154.0954234333228, 232.47487510308667 128.332260463599, 280.2013533023133 69.98385938079021 M192.29449907289506 178.58116371860274 C218.30983418938513 150.77663467931467, 243.4631672370845 121.8306806639555, 281.9100412470897 77.09610661483102 M192.6065856529666 176.98628409575505 C223.04641068284798 145.54975931868591, 250.47526502501648 110.31976059545235, 280.96202563716247 76.29048599367317 M201.00165855884393 177.17169476866073 C232.36182874682805 142.25922002581842, 261.70276185611823 105.26568580803644, 280.2717595403517 82.27480161839573 M199.71034836211382 178.446992107808 C216.37617281602 156.07402343062594, 233.82893002423322 132.67827205486117, 280.50857633823455 84.2503791804794 M205.10065552600793 176.03666252200674 C221.92896441516507 157.4961588908259, 240.5173739213023 133.93179688654024, 281.991715724919 89.65360656694284 M204.5609395713858 178.62501080460208 C225.79968577460352 155.162805786822, 245.16067263808304 132.65340244098545, 280.0722694484647 90.6588528714523 M208.65232974464476 178.21167552045472 C234.7627669898597 152.60130420338464, 252.88327320332286 128.68467615527706, 282.29939526269595 94.87759695598982 M210.27283114804143 178.5652918310477 C236.18366117214688 146.621650564817, 263.3488089635135 114.41103897731877, 279.98466296772506 98.30748824999878 M214.55684173515297 176.7735880596512 C240.17051069032985 150.10174261612704, 267.6702761055989 120.46711602470953, 280.63676807796037 104.89476548232955 M218.29263042106615 176.50804620812005 C236.9772503017461 153.2779212714405, 256.7641298067592 128.63927063184067, 281.69874254316744 103.783341682863 M220.89948326917838 177.44252732722066 C243.56039191563357 152.16938394443417, 266.37678873749206 129.17598636535234, 282.1357337466758 109.33774721667388 M223.3916961648459 177.13443880983985 C245.03006589768736 151.8295293377538, 268.59910444180866 124.74320992978149, 279.37620858533904 111.25020614303229 M230.42358207527528 177.67557156548423 C240.63391205538795 161.48826188119523, 259.25804108933465 146.09530410625865, 281.900321948508 119.10132666228834 M229.5404219114494 177.50192089705843 C244.29923516379955 160.85142808754654, 259.51215516249925 145.91733942377763, 279.9727368805414 118.70739797305565 M234.65684081809238 177.09669075297484 C246.22377728877947 162.72579103880884, 258.8982110301194 151.3031820769592, 280.20856764562507 124.75975195070494 M236.01425034944896 178.05171130421223 C243.64194498244265 165.24728153752625, 255.64102706549963 151.45516259663688, 281.26214585711205 124.86113667104871 M242.69309230457247 179.05164659123 C256.2853877498095 161.70392965898094, 273.4169253340496 144.17568419343758, 278.2071219732787 133.52616183832822 M240.8729899544055 176.8541839501693 C253.06294149931742 162.55550299587816, 264.78223905435726 148.1403864160661, 279.48361531176556 132.48180851934603 M249.05380609090682 179.93096686844584 C258.483293795083 170.03136485419347, 262.9316152322662 157.58054907527503, 280.7102999252187 137.46052147508863 M246.68560315672045 177.3874243869127 C255.4081791386972 167.01624952174205, 265.6563002557315 156.26225390795156, 280.6795304742232 139.99345370799062 M251.6040461300781 180.0 C260.09011844093817 164.19940789108156, 271.2810968593553 156.4903186212825, 279.6410584520207 146.05042673852085 M252.68247238162195 178.01711056065014 C260.85123043154226 168.6037023527204, 268.4296369631271 156.91314001392644, 280.22311536660845 145.8802070587578 M260.43424274968214 179.5919675271398 C267.6481314318163 168.1056197052502, 271.5790142473887 157.71009795903976, 283.13075857005896 153.89097075177284 M258.4111872409378 178.36266773493853 C266.3611058485509 168.57636501739375, 273.95109747117056 160.83152099938056, 281.2693797932351 153.6559429709138 M266.5432159214482 178.1425591419984 C267.85250688129065 171.53963121964875, 274.3038577102119 167.78556637807665, 280.2649591855997 159.77552927741368 M264.60892675017976 176.98109501596866 C269.1097880233187 173.09072569815024, 273.18628380859684 167.95063096923897, 281.50705944544814 159.72656770298573 M270.72904588876685 177.46335872437956 C273.691038011383 174.98587180872326, 276.43905409408956 171.58169027540134, 279.3519309339565 165.60318080652516 M271.62036224449605 176.92943610160302 C273.779162900717 174.32212270496433, 276.6835868975176 171.3341503768014, 281.1893434463227 165.91820132467078 M277.3594957433444 177.69736448867803 C278.2300616351523 175.6789807836795, 279.21958160851756 174.5542885077721, 280.1976370602485 173.33138269832233 M276.62911669801946 177.70643538203896 C278.2695352763216 175.8510097975617, 279.21443290339306 174.88580582891282, 280.32566881316046 173.32916804442686" stroke="url(#roughGradient1)" stroke-width="1.0" fill="none" />
  <path d="M21.998085396572264 22.719341864746177 C110.25460201510042 24.331054305851033, 193.22283809083604 21.877034099086075, 280.5426270634968 22.10967008615996 M23.218955416649003 21.623593395044566 C113.43756589047494 20.555528508751753, 202.7415737179882 22.503711558091013, 281.6590681845788 23.332766212550986 M280.1833988813844 22.28161497223463 C280.3037495748269 74.85160175675071, 279.0125430760256 125.86294160162278, 282.62751637264006 178.9404561939813 M280.1833236441003 23.129694862365785 C282.0303812501393 71.30437186030481, 282.2053771169861 119.75710590835362, 280.6444676947864 176.5301400570755 M282.03764005211593 176.7568599287441 C227.2112897217012 176.96160699083916, 171.69469058575646 176.82675749552507, 21.902711297512877 175.44385927208847 M279.9921646892746 177.65322433338844 C222.3480486807102 179.23948458327564, 164.73547240644535 179.59804193459308, 23.243583931756685 177.73094677943888 M23.568047562519897 177.87101377845525 C24.87902194420462 124.40420906683875, 26.104676263762755 71.30176993989583, 23.07892632208117 20.572201988355722 M22.374193889009035 177.74024244749225 C20.448518417061834 130.65202014243934, 22.171714510525607 82.22728588353866, 23.320967290039825 22.86329300760618" stroke="#000" stroke-width="2.0" fill="none" />
  <path d="M383.23848176812675 63.469649598550575 C389.63771245278417 65.12135508071954, 398.807651389748 73.85526921690031, 402.3185775203958 80.10524193963028 C405.8295036510437 86.35521466236025, 407.84387199101167 97.89225977298555, 406.6446559724459 105.13613441675035 C405.44543995388005 112.38000906051515, 399.6149318690531 123.65054517867486, 394.3238040632902 128.39773956472897 C389.03267625752727 133.1449339507831, 378.5991944440973 136.70453576739848, 371.3704706006931 136.7840969904445 C364.14174675728896 136.8636582134905, 351.7757417380558 133.4092077603785, 346.1323117739292 128.92814771836905 C340.4888818098026 124.44708767635957, 334.8046682729278 113.86314019343355, 333.74760417318265 106.910363377048 C332.6905400734375 99.95758656066246, 335.40734795608205 88.9791002111099, 339.08521777562805 82.5763022757988 C342.76308759517406 76.17350434048768, 351.259302576232 66.57300724469019, 358.26673630348927 64.22504380830732 C365.2741700307466 61.87708037192445, 380.9952653075883 66.50252318337911, 385.8014426240101 66.92321269991301 C390.60761994043196 67.3439022164469, 390.52338661391997 66.51358124833634, 390.30791841296815 67.02964058519999 M353.4307629239856 66.38812104552773 C359.7264803473966 62.75523895472392, 373.2846259595466 59.71242625964649, 380.32177864090545 61.42714267975842 C387.35893132226425 63.141859099870345, 396.2640052328096 71.82188639058347, 400.34511413304455 77.81956384627388 C404.42622303327954 83.81724130196429, 407.48248904929017 94.37925684339314, 407.5291713091385 101.4116590510278 C407.5758535689869 108.44406125866246, 405.4358168957566 119.52774311472432, 400.6563291987002 124.70224523050489 C395.8768415016437 129.87674734628547, 383.0742795408555 134.85354397547795, 375.66591999542896 135.90833982289828 C368.2575604500024 136.96313567031862, 357.08984573310414 135.61053613130085, 351.267265562523 131.73421754664045 C345.44468539194185 127.8578989619801, 339.10773818055173 117.14842963552101, 336.84871885822133 110.06621592516251 C334.589699535891 102.98400221480401, 334.0060170079603 90.81717285558932, 336.2071367469872 84.5194594775838 C338.4082564860141 78.22174609957828, 349.1549935803164 70.63179121936945, 351.5228504517343 68.0814600717924 C353.89070732315224 65.53112892421535, 351.51523100098586 67.0805100367105, 351.9928492231067 67.51725182707015" stroke="url(#roughGradient2)" stroke-width="3" fill="none" />
</svg>