<svg width="600" height="150" xmlns="http://www.w3.org/2000/svg">
  <path d="M130.04479535598801 97.04419671979281 C134.3719109456389 97.63669836384514, 137.61384804211244 96.85262428057352, 145.52856991636764 97.59407185167746 M129.790863784945 96.51257781105213 C134.08397087309976 97.38507577710055, 139.98450421992928 96.55990338454356, 146.9199916954969 97.52211800993018 M146.70793589381668 96.37542582131344 C146.31514337516842 106.62616066400419, 146.90386012080114 116.47617270742866, 146.0886162903581 130.04350947228315 M145.97338648923883 96.68341006543226 C148.42881469965064 104.26549806184804, 147.37531872701592 112.6300376168032, 146.8391755025777 130.58627546122344 M146.2057691901683 130.4773233447067 C143.20651418668143 132.17860353770863, 138.5233596648355 130.70183477328786, 129.34619340439272 130.8957982547319 M146.14748788866132 130.53136236516804 C141.65167707030082 130.7222539164195, 137.71467098929617 130.4620069045491, 129.97283123563108 131.42374413584042 M128.66750141691801 130.44342298480052 C132.10521643151256 118.66829105324963, 131.3732779788731 104.87897852231461, 129.17700807185878 97.03351065039253 M129.1254735575863 131.41781929402012 C131.218416628526 118.2293676646108, 131.11671317838835 105.87205556535106, 129.84786269577816 96.73368500528939" stroke="rgba(248,181,0,0.8)" stroke-width="2.0" fill="none" />
  <path d="M126.2710611923497 104.71020164085989 C129.24495124383077 106.94841810250712, 130.9206396562272 109.56827769845138, 139.7458512365442 115.77753268842771 M126.33341321811527 103.65297711732916 C130.26941418769852 106.73084445499829, 133.91528546154308 110.09253734377445, 138.63948100381978 115.95879645287283 M138.6021265592277 115.52327762701975 C134.91596419590724 121.47904404304859, 128.82140321545845 127.32026690564379, 115.02259774491623 139.31538831175314 M139.11734638052164 116.0557443686591 C134.1517275074606 121.32498811634255, 128.61840631674923 127.8330325902809, 114.91360783048884 139.5913032667542 M114.6481155977532 138.5201880361076 C110.48823627395555 137.4201119224897, 107.9403583211592 135.16049693793872, 102.75944283179864 126.94666638781975 M115.08200030917946 140.0 C112.7395005780885 136.36882977977152, 110.27149551927795 134.24831286311598, 102.36972682783085 127.6128423525456 M103.61251643005707 127.14554390434579 C107.28465721255094 121.01414442086491, 114.91326461899848 114.61157852410985, 127.19118619233741 103.58734990253124 M102.21805467536736 127.77752319727307 C108.46014960963005 122.07456260792571, 114.06377809401152 117.05646163624708, 126.0974319640278 103.72850313496309" stroke="rgba(31,138,112,0.8)" stroke-width="2.0" fill="none" />
  <path d="M112.34053794641473 103.84637679122638 C109.80447890809745 107.44667426438349, 106.29535235062457 109.285685739495, 101.57659364214751 114.41384179324572 M112.94848199942025 103.81254795940612 C108.87266841529416 109.49712596537249, 103.99762571348239 113.7859198820584, 101.5193065096457 115.34666315996456 M100.04214602787337 115.94622927569121 C91.74756593385446 108.57115448661008, 82.82984173933087 98.478490101858, 78.1647002346082 91.4008775811576 M101.15330420751148 115.4143201304452 C93.82189080131326 108.92741111643755, 86.6336412268272 102.4533857972273, 77.44266392847402 91.51447133844711 M76.9678135820931 92.47518387756212 C81.15460961280398 87.35638602048287, 83.88102677505056 84.51229484011084, 89.37912090327468 80.60864823577305 M77.74093285189787 91.72558190217457 C82.10750805358721 87.83651050998698, 86.06864112978712 83.71411788348077, 89.33083656079027 80.24062576656162 M89.7055966622114 80.69140414820303 C94.86619459186494 85.51068146193172, 100.3898696013572 89.83121169697492, 112.29849888227567 103.97697622967279 M89.34980729657056 80.24276793703004 C97.61003626091517 87.41893637374828, 106.99414653142392 96.37130615615247, 113.00898193517779 103.32522128747962" stroke="rgba(232,116,161,0.8)" stroke-width="2.0" fill="none" />
  <path d="M119.46217020150033 88.52767871442363 C120.5789995435922 84.21575051387843, 120.01608072236803 79.91043184554502, 119.40011437631829 71.36905935962892 M120.29779962557363 87.26997183333631 C120.59534367144742 82.84461476989006, 120.29954245035162 79.30505112409932, 119.71896520903486 70.9295707865136 M119.74742409682689 69.89863024818244 C129.25702064753372 70.75235661781204, 137.23231288538364 71.59392600922209, 153.50232881921482 70.71069837868339 M120.36848435616925 70.43764027609326 C130.65679211923955 68.720189780835, 141.88276127599386 68.33335784179812, 154.59072889388904 70.62496289987865 M154.91699908830307 70.35445183707117 C153.36010908338156 74.72093846122394, 153.97163476533203 77.19066711966657, 153.0157315498904 87.44764628042878 M154.12862108699102 70.86479068185739 C153.95309413714585 76.997384525417, 154.51244105429805 82.94715421329259, 154.04691835232344 87.51557163766348 M153.55348761674455 86.69729017775039 C146.09880900636264 88.22081952304228, 138.89201823745884 86.52638733079681, 119.53311407038815 87.95387272503241 M153.50979906564191 87.21725052575248 C144.45535738020152 88.18374262149177, 134.6970579438945 88.54654558667458, 120.16089136155148 87.82732500844659" stroke="rgba(79,124,189,0.8)" stroke-width="2.0" fill="none" />
  <path d="M119.25104159255103 106.43069996129792 C119.57872007001623 111.54891606045464, 120.4305044036403 117.68927612937594, 119.61329211198971 122.91498545574632 M120.47939871455367 106.10502679599732 C119.31438336980487 111.13416338160413, 118.83922013546186 116.90131738960373, 119.74844624758484 122.85492719777905 M119.86348682329738 123.35680546448671 C113.2295307145019 121.54803612051995, 105.40298298172466 121.96928144441783, 85.38991293736528 122.98794051217526 M120.07336485281841 123.41494969193144 C108.96894933590447 124.81102315392782, 98.40302744068889 124.28354871727466, 86.1647503735793 123.10048421159104 M86.45333423880845 123.70556102178602 C86.50514399070698 117.55031292611613, 85.49361134305607 110.38703025780147, 85.36038988596425 106.11436679062254 M86.2502406379503 123.67711383043441 C86.81174507231528 117.16611666296349, 86.52759987579381 111.73611990260079, 86.0020931027683 106.18067279615988 M85.99335389468067 105.9882448740803 C97.62485563317487 107.16775606838195, 111.96610043060704 108.28427600545297, 119.19075972545758 105.70395564892695 M85.54310351169124 106.0679020885384 C92.43589880628973 107.7467622427322, 99.77905262377648 107.97448097026461, 120.00145130336583 106.06545976708136" stroke="rgba(252,89,94,0.8)" stroke-width="2.0" fill="none" />
  <path d="M127.23386790599145 90.27386300295943 C130.69498937104993 86.76801000024405, 133.98520018908553 84.19836846222408, 138.11855202443215 78.37798570960581 M126.52551689496656 89.8395612118012 C131.49392542928834 86.26203039614367, 136.4162182811781 82.10115403942457, 138.82309604313107 77.77214043001811 M139.13512312926957 78.1357333621527 C144.7237731380493 84.51110491344735, 151.07967936460676 88.33214780686048, 162.42415473518145 103.29143026309123 M139.1670922706355 78.24792719679357 C148.77171220999168 87.02638806264082, 157.83763193607757 96.15003644975141, 163.19584226573699 102.54921345599972 M162.67462264153545 103.41918964034937 C158.58943264752952 105.86245096710357, 154.0154887163573 110.94832930139461, 150.92042030713452 113.44624459979524 M163.25666801675567 102.43226822175262 C159.96678955189907 105.97616402884658, 157.19373066350752 109.29214689929854, 150.3815229722999 114.29387247747621 M150.81739534720026 115.1944186217904 C144.598816285863 106.6619682925368, 137.1420063482468 99.85887129974307, 127.8744868024319 90.2341734571906 M150.83573971460484 113.83789573729999 C145.29253593156548 108.36751901478875, 139.48032509891277 102.05479414250429, 127.16134177754348 90.08650055639403" stroke="rgba(125,206,130,0.8)" stroke-width="2.0" fill="none" />
  <path d="M113.16968726501267 89.51374986607325 C109.76664640704976 85.90800403649466, 104.46498349372008 80.86948356319073, 102.64222858357556 78.02796633758969 M113.17585825990714 90.28889610716247 C110.27457740886314 88.53307235379667, 107.15307416284409 85.09396318748718, 101.35563160042628 78.6743840698548 M101.53263079903817 78.35834084426759 C105.94766998038718 72.82465878863161, 111.01994993455142 66.53599965920989, 125.16615628958131 52.960398955978846 M101.22869664012227 77.99850729614252 C107.73665563782302 73.36980429072528, 111.83652439818555 68.1718909600117, 125.13495798286961 54.070826577087075 M126.25395959850866 54.34753439039123 C129.58727411849367 58.07683052898568, 133.08475046662303 60.94967744550131, 136.48814522093068 65.81633184653285 M125.37651180055411 53.529645319403365 C128.13193070156456 58.35767998760777, 132.08171917637242 61.477811983536064, 137.3305977517406 65.93659830819308 M136.59237551170196 66.42731365308373 C130.56010395376228 75.48076538417155, 122.23058926063386 82.21064213869751, 114.17330014162302 90.94476808769768 M137.9802775222056 66.35020997548853 C131.48349135253625 72.82609695017524, 125.67069976987618 78.43643091684943, 113.47274677558826 89.60204462764588" stroke="rgba(180,122,234,0.8)" stroke-width="2.0" fill="none" />
  <path d="M110.08484004764155 96.78557577651175 C105.41011229773027 98.24455979603792, 98.56255665421344 97.32071956431693, 93.77232184558865 96.24498886741017 M110.9787295431272 96.9578075494006 C105.32813320924626 97.92961284505614, 99.49800141719415 97.87630330235959, 93.17816472843528 97.38127494427334 M94.6461620461255 96.59475494815972 C93.7355013640019 90.26424846043014, 93.41031253599783 80.61885555671837, 93.60291205280029 62.296361297317766 M93.06338918725234 97.49050430609094 C92.87426998652089 87.43906353996064, 92.5891694161655 77.40382770823592, 94.04532089595509 63.07832722931467 M94.21691615479904 63.08154404452101 C98.96042543184355 64.55382302409652, 104.36944391945983 64.41267551056302, 109.90555782761122 63.95684604807697 M93.2734924741475 63.44038429949887 C98.40282143827584 62.18619002207974, 103.24577468977313 61.83092625852283, 110.76651695380704 63.02817918702908 M110.31686981014809 63.067341863200085 C110.79005591380147 70.45631927365787, 110.75392926147293 77.2501569920351, 109.5413479406263 97.66364604973205 M111.14129013866659 63.47137190998617 C109.86741338237157 72.63866468812779, 109.71082951919388 82.49729141337127, 110.8518756857276 97.19277041796143" stroke="rgba(163,211,156,0.8)" stroke-width="2.0" fill="none" />
  <path d="M59.27869546688499 79.31063188069618 C55.65888379528391 85.82604841934813, 46.536502341858935 93.3931648628791, 42.56532167540662 93.60457312234603 M61.64131983615088 77.02581464258164 C55.25927847509415 85.21741287494817, 49.411780804782595 92.16346212583672, 42.568615120966086 94.98755950105563 M55.25191949964379 75.12538653005575 C52.435787232685016 79.22037925510486, 45.81381006948165 86.52148042524813, 40.8166182533875 93.13601504531549 M56.23764471054558 73.30360130432746 C51.151047623810854 81.05302126129976, 44.94637055986736 89.35753432552302, 42.216068042803016 95.82706854055368 M58.45170980302129 73.01366887930514 C48.04040738789055 79.1631816305764, 37.83206041153768 87.77813516865285, 31.741820606370766 93.94897474850411 M57.21581894669478 71.42471508383244 C52.42915579208946 76.98912268454458, 46.39698048772536 82.18333503224527, 33.77855054927551 95.1270958687775 M52.723343356147794 68.67454122940538 C44.652351169229476 74.2582222796607, 38.77911126535234 85.04246376478456, 34.920133360554104 96.18443610792119 M53.69194886496196 67.68094168492897 C51.33728566483944 75.538833176636, 45.42306007060017 82.03636416744746, 33.17721627242476 94.8258454272994 M53.67143836443094 67.2916916147797 C46.43396495307729 77.76457041993235, 37.49140033855312 87.12001311528371, 25.321134427355915 93.57521879616999 M54.14249418481708 67.43894775047282 C44.67698708183269 76.52585842286138, 34.26988768047322 87.43086622169325, 25.830463898547677 93.59820988065339 M47.650949656198165 63.75361439503955 C40.04882593298487 71.69152056039928, 30.254534372420764 83.97775706051267, 27.373368671756452 95.30222598890117 M48.596276047555165 63.81261092808552 C41.46603805244489 77.35479997289643, 33.1430435392776 88.78526368039707, 26.146033214856104 94.92453959560164 M50.18687526498098 63.82347254091624 C38.249679387468035 76.69916121769646, 27.264542510114865 85.97408259097398, 21.35938138153473 93.34297602773377 M48.84061992871732 64.41308527619816 C39.35519337466158 74.08178977090087, 29.694055617996014 82.94142960083119, 20.38339298468688 91.66537017761505 M43.464858850592165 59.6244055182927 C38.842464914763056 67.82707213287559, 33.6955109608092 75.55104051166936, 21.677333368589217 91.1604325842421 M44.65150084183156 60.3553580104319 C36.48955160696201 71.31259272537767, 29.34602669698519 80.65038934529994, 21.12387733319862 92.09170198141577 M40.44613817874098 62.36751955245193 C38.64908695269108 70.36374971534161, 34.20714170795901 74.87151342410996, 14.620285480432983 88.07119812528303 M41.69542197302536 63.10680065090801 C39.641702555268324 69.92893253465469, 34.765907438769986 74.4174499773517, 16.440664127865887 87.60424079729411 M36.76078393267258 59.06190661818534 C32.98801523309933 68.67563222254373, 29.90368689675985 71.51822273882769, 15.427983703450067 86.4584513630754 M38.279325455307486 58.5069370370835 C32.684844137966635 66.70113747869168, 24.54621487976216 77.87926475420969, 15.445556455604233 88.36846095077885 M31.96998609847965 64.64600601085735 C25.937670021851105 71.52870735384036, 21.527760044014556 77.22489847909192, 12.457119669515677 82.82578498637355 M32.91704019209064 62.54133417731557 C28.955815248334574 68.62891524598808, 21.705669698785997 74.75032633907198, 13.186101924248874 81.89842206698175 M30.364404403616348 59.14943481968928 C23.7677614420176 67.49199255356622, 17.634201460472198 77.93246064601755, 14.303391995880872 80.62407039518254 M28.68053449138749 58.70046131231268 C26.678241424611528 63.488847419119075, 24.057896533739935 71.38543533827283, 13.450382260144195 82.16205692652872 M26.979183413585503 64.70826355403304 C20.063104076935005 70.5120383103374, 16.239609943983154 71.45722788354868, 10.26820107497474 76.0000512020347 M24.70472025988711 64.61237285060434 C21.57229541358265 69.954081598941, 17.498613546318055 72.16356273434846, 12.263503985893621 75.47543105245296 M21.53457050442833 62.12558200356351 C16.434937067783423 67.55350778904418, 15.575532982981457 69.97450910109579, 10.999225992721676 76.00791705053481 M20.436104800158574 60.12434782364898 C17.24309773747858 65.47533236899096, 14.152613175693489 71.46927050026278, 12.714927027545627 75.67912890610128" stroke="rgba(248,181,0,0.8)" stroke-width="1.0" fill="none" />
  <path d="M28.90213395459591 95.59851115707721 C26.575674692092463 95.41513833209189, 23.4344905310345 92.95989933118462, 21.6584700258705 92.0088640407574 C19.8824495207065 91.0578287503302, 18.259370299832625 90.40801875491034, 17.061997253502668 89.2582758875625 C15.864624207172696 88.10853302021467, 14.485216565475255 86.18965314770747, 13.675983050337393 84.34391159177181 C12.866749535199531 82.49817003583614, 11.941438123499097 78.78152210538408, 11.667107152583526 76.95333218132471 C11.392776181667955 75.12514225726532, 11.22048370094295 73.73123003704009, 11.847109910900258 72.15597876470925 C12.473736120857566 70.58072749237841, 14.299755870868822 67.91301267852013, 15.844615218965572 66.45165703245249 C17.38947456706228 64.99030138638484, 20.16741322355439 63.163315248053465, 22.14617223154508 62.413607790924964 C24.124931239535798 61.66390033379647, 26.762996098682237 61.63914237000179, 29.036341938903618 61.45360731826253 C31.30968777912497 61.26807226652327, 34.8695639255067 61.26530847912647, 37.301811166354256 61.17670744599656 C39.7340584072018 61.08810641286665, 43.280129191834064 60.24651275657107, 45.25132354455397 60.86293376406314 C47.222517897273875 61.47935477155522, 48.91449793661107 64.04995414086794, 50.443106851153615 65.28618082927707 C51.971715765696146 66.5224075176862, 54.20335614458784 67.49670907547997, 55.44204964150421 69.10444502012402 C56.68074313842058 70.7121809647681, 58.36598511800235 74.14044527445128, 58.7010634972627 76.0044204602375 C59.036141876523054 77.8683956460237, 58.054183162079 79.78890220651054, 57.67590550323991 81.53094625869875 C57.297627844400814 83.27299031088694, 57.110458997164606 86.19437484136068, 56.17921243833544 87.6180474748255 C55.24796587950628 89.04172010829032, 53.33494599151068 89.95248586916632, 51.46759511104551 91.02209714846424 C49.600244230580344 92.09170842776214, 45.80101533047096 94.09347019213878, 43.73020656856761 94.7487893368116 C41.65939780666427 95.4041084814844, 42.3492084905083 97.57392932711006, 37.66220336502322 95.39089144628295 C32.975198239538116 93.20785356545582, 14.477543201568992 85.17690066442051, 12.483505732000339 80.19520346463081 C10.489468262431657 75.21350626484109, 24.04402385397944 62.20543967401483, 24.368620234565483 62.1795767810182 M15.559384505402974 86.0627261126546 C13.941699767502243 84.99644629111988, 12.468645131483441 83.92185694486034, 11.716918202652195 82.1483677691867 C10.965191273820935 80.37487859351307, 10.0 76.2002561021825, 10.547871646528009 74.23946494149708 C11.095743293056003 72.27867378081166, 14.318163646913149 70.50341939508665, 15.369395846172253 69.07642669795058 C16.42062804543137 67.64943400081452, 16.133499069809957 65.91181333439566, 17.556086308255445 64.7261802939233 C18.978673546700946 63.54054725345095, 22.69071863021368 62.03861557271332, 24.853310769142198 61.1722064281349 C27.01590290807073 60.30579728355648, 29.862861777781248 59.11806261589938, 31.973367234445604 58.95011933006716 C34.08387269110996 58.78217604423494, 36.51092088592664 59.695956849360364, 38.92334714690456 60.05258452258672 C41.3357734078825 60.409212195813076, 45.96025028441551 60.25171705012292, 48.05620897429847 61.32763715157617 C50.152167664181434 62.40355725302942, 51.33020593029373 65.86804496199731, 52.89640507945764 67.22538519894172 C54.462604228621515 68.58272543588612, 57.786315579397794 69.02755513391047, 58.4975366353911 70.37657206453885 C59.2087576913844 71.72558899516723, 57.73800802639779 74.3237645364738, 57.637878786079646 76.2188314031309 C57.53774954576151 78.11389826978801, 58.245012639884656 81.13245669246301, 57.83000836660349 83.01035117558621 C57.415004093322295 84.88824565870941, 56.35289058709096 87.42606733515534, 54.87118363087177 88.73812795728556 C53.38947667465257 90.05018857941577, 49.73532263467132 90.87447891604847, 47.95196199180886 91.75742198978766 C46.168601348946396 92.64036506352684, 45.0936227350973 93.77599166293777, 42.98211267845538 94.62441511554678 C40.87060262181346 95.47283856815581, 36.528161192876965 97.430094719198, 33.87522828086274 97.41357834051445 C31.222295368848506 97.3970619618309, 27.21593915523603 95.48910158807877, 25.295893265027146 94.51430592432314 C23.375847374818264 93.53951026056751, 22.866793365818793 91.86522607414449, 21.074922346136844 90.9149405821436 C19.283051326454924 89.96465509014271, 14.164521965386825 88.65650679048983, 13.350086467147563 88.17906931098388 C12.535650968908314 87.70163183147793, 15.169374331521738 87.99251197605786, 15.645352357875197 87.73202405210397" stroke="rgba(31,138,112,0.8)" stroke-width="2.0" fill="none" />
  <path d="M55.44385368839983 79.9634308389484 C46.135323104095804 86.5413479480228, 38.4274195506145 92.62642405524448, 36.60108717181623 99.600434375327 M55.87908338772276 79.29368996989683 C49.19599987138632 87.08417374451444, 41.097842449722734 94.23330911877049, 35.11753504397238 100.24978634784227 M53.2642776300373 74.69630657335885 C47.64901447807246 81.89269083945817, 44.141069287842086 87.40212487995602, 33.55594927872488 100.94799898226961 M52.09714329833734 75.48676676092548 C47.753156359123835 84.22187825373017, 39.88075545454703 92.70643549516997, 34.713539222343115 99.03257462833463 M54.44865493632045 73.35637219742955 C47.02238606361904 76.75517143848873, 38.99576098927187 86.09032054189717, 27.905185913126658 98.15372229880752 M54.83192586433995 72.41934215841944 C46.32400562177412 81.41341607156407, 38.90690637305933 88.38113438874693, 29.924667283186125 98.80370366895124 M51.75899292653047 68.78258477440608 C41.87848249057896 78.353252155395, 34.664996450686715 87.09258178887417, 28.542813798885845 98.59285828095958 M50.04183986791996 69.8576714143795 C42.47748484699633 75.17080750264829, 38.28498460180309 82.33135919014966, 29.15818914337595 98.0518982948071 M51.889247216301726 68.54887813317174 C43.101188864852986 75.01216777395945, 34.395934923762766 83.41712582546484, 23.344048699845644 94.14586311610316 M52.13297929026852 67.85928079538108 C48.09567393036744 74.70026275508928, 40.86030649779504 80.61676992921412, 24.949377557913778 95.165845280842 M49.536988510265786 63.80813300400439 C41.75385719755063 73.85047933179096, 34.137606061525744 79.84399526820741, 25.068543144111246 94.1910390131204 M48.88451567161914 63.395814813585 C39.55895895209548 74.95747762378188, 31.861002872796192 84.47732595331395, 24.071248762462773 94.96509458947583 M49.798279977358064 62.86535844749225 C43.56220765030358 69.77893470332134, 35.31117198296204 78.33515965204512, 19.254473320930458 92.07425277657778 M49.74738487785818 62.72112906942762 C39.569725478768305 76.97724109213951, 28.27097436712124 87.59723412022717, 20.56904735231781 91.9104541095377 M46.36660559511385 57.60486209026284 C36.568861439469856 68.7046961823361, 27.06523556210591 81.43030201487964, 19.50512109993936 93.18452100117082 M45.30673506976629 59.293753668470764 C42.97626054211214 63.782410602813115, 37.62240557799652 71.43983739655707, 19.798961070807408 92.70539102424266 M43.24110138470367 59.495020429121055 C38.74309896684238 66.86148182582326, 32.232655818125934 73.96816319445983, 19.455837343460388 86.79340354762091 M45.028802960068745 59.59351498106838 C39.81107371019654 65.21658168421631, 33.231363456646335 72.53645695579246, 17.9042385086466 85.86428307391647 M40.23218690666204 57.67054950013958 C31.44509477064247 70.4009294383826, 23.033666864418407 80.82748878432527, 16.84634382966972 85.70955945424039 M40.682360505247274 56.1482916606519 C30.983555149825307 65.45742357178833, 21.94748106029988 77.55729789461589, 17.756247123198733 86.55390966100609 M39.300300702187926 58.04027919239449 C29.39181004195339 67.31290078486245, 19.922824299074165 76.33828048999709, 15.323137723917668 82.62271482517096 M39.01342731629532 59.58581408900553 C33.952620294927186 65.41051143699448, 28.74406064135971 70.9522633493656, 14.98874849428212 80.55415002866125 M35.298336094381966 56.22704341935217 C25.9774904632646 62.33671194300847, 21.528892794314615 68.20312167168834, 15.394414394667223 80.6610733824757 M35.096511970115 55.26454502283805 C26.883413612182594 62.48877152315887, 19.851389141476744 69.80182730464388, 14.656159648957 81.64041228371931 M32.1720052814879 59.776550869865545 C26.51621051453337 63.853553591708476, 22.220937705934887 67.26391915845792, 17.77675903635719 71.01952485767323 M30.915992112555656 59.884958219477745 C27.341713492122835 62.60777210411223, 23.18339932038657 64.63829343555341, 18.318886074544764 69.62697668263533 M28.187010894794582 55.69719083317876 C23.870326480798255 59.335683718759874, 19.24241606395917 65.12238588660824, 17.87871361792547 71.0350924604596 M26.458606267966957 55.377616153505215 C24.115462240925936 60.11715083629011, 22.52201585336745 64.47792826818959, 17.311590751904532 70.37779525972415" stroke="rgba(31,138,112,0.8)" stroke-width="1.0" fill="none" />
  <path d="M40.68561079779886 57.19234963944966 C42.543177662558904 57.3153907596422, 45.65679317717128 59.03598883128962, 47.17718573136813 60.3492826244268 C48.69757828556497 61.66257641756397, 49.98700591871041 64.26732138681317, 50.82156115911121 65.94764159369748 C51.656116399512 67.62796180058182, 52.23172623772243 69.56981560151239, 52.74088733404008 71.551417336989 C53.25004843035774 73.53301907246563, 54.25998991830586 76.8427424183037, 54.21596846789558 79.15831983020828 C54.17194701748531 81.47389724211288, 53.29862708168001 85.03899532571765, 52.4474109979716 86.98860008301965 C51.596194914263194 88.93820484032165, 49.72212505394988 90.7884296170759, 48.5411945765062 92.15568487888832 C47.36026409906253 93.52294014070075, 46.193567113309086 94.99629602365691, 44.574541148347095 96.10363516176912 C42.9555151833851 97.21097429988134, 39.46569197153502 98.9744712027509, 37.74768814342623 99.53794579963643 C36.029684315317425 100.10142039652195, 34.80770627025477 100.24548325851391, 33.12118229428842 99.86013247433931 C31.434658318322064 99.4747816901647, 28.366800055088845 97.97724693629092, 26.50419497031723 96.96894057180572 C24.6415898855456 95.9606342073205, 21.943628085047933 94.62335353662702, 20.703815062477588 93.13809004443787 C19.464002039907214 91.65282655224871, 19.05689429551525 88.91448569776392, 18.238774819848203 87.06718395721138 C17.420655344181156 85.21988221665885, 15.418950329042218 82.78955176598097, 15.249685224697288 80.82274510742096 C15.080420120352358 78.85593844886094, 16.567827463977295 76.12085307356529, 17.110340790882034 73.95513956681125 C17.652854117786788 71.78942606005722, 18.054117659398784 68.20795775997334, 18.866440737395564 66.38465506239409 C19.678763815392315 64.56135236481484, 21.20834408208536 63.044642641262385, 22.525827977527186 61.79978824961619 C23.84331187296901 60.55493385797, 25.868077944796156 58.781960077882054, 27.649666707007697 58.085625784752814 C29.431255469219252 57.38929149162357, 30.71010600059097 52.78051900788508, 34.403086392270836 57.15755962875457 C38.09606678395069 61.534600249624056, 53.5929598346016 81.53885795371717, 52.26953598487344 87.26589659054937 C50.94611213514527 92.99293522738158, 25.824730836033496 95.52565596084997, 25.58026072741636 95.33781720763595 M33.10053382670509 99.4355293960866 C31.196306187797674 99.69603356302932, 27.770130539515904 98.05323366083131, 26.322118146672935 97.15615865818928 C24.87410575382998 96.25908365554726, 24.666780692308336 94.83341941603791, 23.447117874418666 93.45502937847307 C22.22745505652901 92.07663934090822, 19.33259879291147 89.67971386434348, 18.191032694075247 87.96689174109028 C17.049466595239025 86.25406961783708, 16.162599836856117 83.88294277745302, 15.836677215510576 82.03621522345169 C15.510754594165022 80.18948766945036, 15.62680551978859 77.7230294324694, 16.018215218438314 75.6553747144147 C16.40962491708801 73.58771999636001, 17.55247186157827 70.4114364017989, 18.446075206508596 68.25185043642038 C19.339678551438936 66.09226447104187, 20.53863426317237 62.64139613292312, 21.975570851307182 61.25813494522462 C23.412507439441995 59.87487375752612, 26.18299771120857 59.60141222740824, 28.025652460740673 59.03010918509705 C29.868307210272775 58.458806142785846, 32.31755960825056 57.88027395446019, 34.259935848187894 57.44944799648329 C36.202312088125225 57.0186220385064, 39.28032643660393 55.62950487389152, 40.974827393656184 56.157936131917715 C42.669328350708454 56.686367389943904, 44.098580498131156 59.803105301665134, 45.55660889520297 60.97232304999124 C47.0146372922748 62.141540798317344, 49.75968654480178 62.60436613768642, 50.69501670746831 63.95272112075841 C51.630346870134844 65.30107610383041, 51.26091531528857 67.81487721526175, 51.79214331297986 69.9613562704712 C52.32337131067116 72.10783532568064, 54.192465696839776 76.17014671932567, 54.23653669207695 78.26258148882138 C54.28060768731413 80.35501625831711, 52.69499675989843 81.89119469417219, 52.08594994789435 83.91092140044263 C51.47690313589028 85.93064810671308, 51.25219209690036 89.89711249893168, 50.176224612049765 91.72742619729102 C49.100257127199185 93.55773989565037, 46.53659027234458 94.92166542251772, 44.912833382223795 96.11301272283826 C43.28907649210299 97.3043600231588, 40.89230536528245 99.33004575446819, 39.351178677911136 99.66974153276126 C37.81005199053983 100.00943731105434, 35.612055505277326 98.54386155511436, 34.63865546641502 98.37765124479212 C33.66525542755271 98.21144093446986, 33.03777332671051 98.6081209767241, 32.861845085495716 98.56167279727957" stroke="rgba(232,116,161,0.8)" stroke-width="2.0" fill="none" />
  <path d="M59.319408130766966 78.72833582061713 C53.71803377236131 80.83966740304132, 45.73069523968465 88.26569968122254, 41.12558585353396 94.42696922023465 M60.170809863436176 78.34015073333035 C52.86408097181872 79.59121411412909, 48.81247520233039 83.66341697810925, 43.22580366648022 92.74031559919368 M54.11562813353031 74.70991169512016 C48.72984984942917 80.53266913240701, 46.23447611942187 85.91696520216071, 44.010784603671 94.62174006150643 M56.06423357924127 73.79846550346176 C50.947972553988194 80.23364146393456, 48.232492981001045 84.19384790963147, 43.43810155305151 93.60906719412372 M57.05954394638288 71.7201024808511 C49.14054401704436 78.9874002356488, 44.5959601367539 86.12634717861008, 36.71652110763806 93.56609716986443 M56.51516400745539 72.44522613934501 C47.642159875419395 82.1483163088975, 40.576545501802 88.743522560447, 35.59423001932686 93.88328185806529 M54.45489354882348 69.6397659060471 C47.70533486371241 75.99424791484049, 43.55592055177668 81.04273730192244, 36.95145702147673 95.27769357751765 M53.37761928333225 69.49024095600136 C43.9262571685358 81.24345013077789, 37.85807769644849 89.47386885781434, 35.14311512787077 94.39148196173042 M53.03445511266824 71.01255534359423 C48.25279731339607 77.49629800642668, 40.75696407614231 84.8932552834582, 30.202229346024637 92.3248054733426 M53.465143842311775 69.97732583629667 C48.70088916087799 76.64630468759182, 41.534317618427224 83.44456564114824, 29.927549290980934 93.8033216869427 M50.436992372564816 66.78452313423213 C42.38013833295847 78.34158328801468, 33.0438757850019 86.31656786680286, 29.934626647243505 94.27193393910525 M49.29447508855306 66.97135260310361 C44.180216941695264 74.18018818601844, 37.76213747743634 83.15699768181052, 29.73876581757594 94.21617728190101 M50.58509618158439 67.11102944965043 C39.922795736466995 77.46247499249384, 31.00130003505525 85.78803097408954, 23.45338126269438 92.31134958907815 M49.33479166289912 67.47833555603484 C40.45633162150585 72.34149499951076, 32.97927956307515 81.12414484266357, 24.25757194268992 91.3943759263578 M47.11633474724873 64.11412165308596 C43.25110905609881 70.58883618544515, 40.95831689713145 75.66069702772215, 24.332485491388837 93.15272060718974 M46.10584822807837 63.53498723569006 C42.83800490626331 70.6207331806088, 37.69052589295417 76.79003297397722, 24.86587875172596 91.40501391573818 M44.88395640488278 64.97301523303872 C34.22756513730425 71.45054035506419, 24.952319496330375 82.25192253248092, 18.83619388065415 90.18564307620055 M45.073893200795254 65.51306416404283 C32.596011290580776 72.41730905924284, 22.767417318213134 81.79377649220365, 19.913996250593527 89.61036957421713 M42.383921607105094 62.30729522866152 C36.037342580487035 69.52929276033692, 26.40487402537198 81.46039016453841, 20.78372626360793 90.93583169600161 M41.004230481389115 61.74206039774135 C30.795014217869053 73.29091762603413, 22.447404921950138 84.00495369048244, 20.424377637205396 89.97408903301185 M38.80337764454163 62.71142397977969 C29.752916285985563 70.28830279583173, 18.933665444404937 81.11218956857951, 15.48510577276727 87.26480028087153 M39.970140021177684 63.19150661897812 C30.331659793137902 70.04072522275713, 21.645232705919582 77.77408556948961, 16.01433026858382 86.35388690235818 M36.09281009390806 59.14800475490219 C32.621068249128484 66.54222582932042, 28.086341143269436 75.90393362999782, 16.18172290252835 86.75575218212401 M35.969577861832846 60.345926611306915 C30.44024689060089 64.95052370764265, 26.189877968099395 71.57107157390027, 16.97020600297796 86.86981938278674 M33.129744228960504 62.96140667234149 C26.734717476986475 70.0849356583838, 18.78035790243753 77.1511952827963, 13.831068574611635 83.54140135626655 M34.20489225482521 63.7712017593228 C27.386867017154245 70.62350074007816, 22.657358674565202 75.01993723436657, 13.582587164686444 83.43273036128625 M30.016700008251462 59.86160791626759 C25.4789163662592 68.28954595868443, 20.616300883546117 76.19107836034695, 13.03326569880194 81.6375834352722 M29.469431729169173 59.693385385702854 C22.57986793279842 68.4824391598989, 17.492860296638824 77.13962282038001, 13.623881916222544 82.68341662340833 M23.879836929244178 67.7834979025598 C19.935216308727234 69.36298504327426, 18.540870991198233 73.79797763192474, 11.25232913536746 77.28449250734583 M23.998400119364973 66.76523724126353 C20.05814345766173 70.09531346324572, 16.21512736719201 75.18133829382091, 12.070771437187048 77.79953926176057 M19.45758179891196 62.75510406233568 C18.207091136550346 68.27893772445917, 14.569155233125358 69.70391169709465, 13.11210484576469 76.92980670174997 M21.087658740509085 62.788923467247784 C17.60677593395023 67.69722712320862, 14.486831147967052 72.49997093387161, 11.67175710016194 77.21607774865714" stroke="rgba(232,116,161,0.8)" stroke-width="1.0" fill="none" />
  <path d="M56.9455323143205 74.17495360018026 C57.855953241026974 75.50354670306393, 58.40757920107607 77.38325861415488, 58.34749003401512 78.87490318943107 C58.28740086695415 80.36654776470724, 57.43908678363387 82.53373734590028, 56.54493786724743 84.11925076868809 C55.650788950860985 85.7047641914759, 53.841910440195335 88.16926246235586, 52.38649725810551 89.44499267468314 C50.93108407601568 90.72072288701042, 48.78937024942073 91.97597406696579, 46.842183319981885 92.62411885086999 C44.89499639054306 93.27226363477419, 41.656457299838024 93.48082271086889, 39.4052510618466 93.76595790071113 C37.15404482385519 94.05109309055337, 34.002476712894605 94.79708135189446, 31.834141733372434 94.52502011648491 C29.665806753850262 94.25295888107536, 26.891658094673517 92.67937036018766, 24.949684531698765 91.9522163313141 C23.007710968724027 91.22506230244056, 20.538215245873204 90.85395883157925, 18.88765131354083 89.67732659066121 C17.237087381208468 88.50069434974317, 15.063878826122945 85.59745019277136, 13.945924982816294 84.10800139186055 C12.827971139509643 82.61855259094975, 11.621118194465168 81.26576704443127, 11.434625691496521 79.7476679179225 C11.248133188527845 78.22956879141373, 12.200380119662071 75.49105441648665, 12.702641629691897 73.98734054846875 C13.204903139721722 72.48362668045084, 13.65750786335343 70.93384899279832, 14.78303575836199 69.72290879780317 C15.908563653370564 68.51196860280803, 18.291760794165185 66.98818953755432, 20.206160929749032 65.91440591516778 C22.120561065332893 64.84062229278123, 25.472672870475193 63.291573029420604, 27.54570332892105 62.56435131522621 C29.61873378736692 61.837129601031805, 31.929429719739687 61.00727471301116, 34.02636398605476 61.06626115387178 C36.123298252369835 61.1252475947324, 39.36800157628602 62.27452223926043, 41.52526510435489 62.957594254297035 C43.682528632423754 63.64066626933364, 46.57693173116046 64.6407822062684, 48.4081208398472 65.62007458744915 C50.23930994853394 66.59936696862991, 52.244092182831665 67.5136737875496, 53.73319249559982 69.48621012883542 C55.22229280836801 71.45874647012124, 58.10379941651034 76.58427060690411, 58.33545625830171 78.7703168626879 C58.56711310009306 80.95636311847171, 55.58592947131636 83.96487443807284, 55.27757144087556 84.05985183406078 M42.52156163232084 62.23783225403065 C44.894528257979744 62.67417129974804, 49.49838894687359 65.57779544164988, 51.311616943840804 66.54962547786344 C53.12484494080802 67.521455514077, 53.75095054539409 67.54669767290363, 54.60974827876889 68.71669916212103 C55.46854601214369 69.88670065133843, 56.604863677773935 72.77562940485193, 57.03693516633945 74.34963540597948 C57.469006654904966 75.92364140710704, 57.826521156988264 77.46197040248722, 57.49022486920565 79.21007250297141 C57.15392858142303 80.95817460345559, 55.75065230273766 84.27503687310647, 54.79495991445535 86.00364940920736 C53.83926752617302 87.73226194530824, 52.740133933767694 89.60533851731583, 51.118942280656825 90.73415607697733 C49.49775062754594 91.86297363663883, 46.10215466691558 93.05300567304607, 43.98701556038286 93.52909980695068 C41.87187645385012 94.0051939408553, 38.943689407460326 93.90435081719582, 37.01801490377197 93.9081169696748 C35.0923404000836 93.91188312215378, 33.35961557800299 93.71149911470314, 31.149185535793748 93.5542074901439 C28.93875549358451 93.39691586558463, 24.384791495259023 93.76802148740481, 22.281814622377027 92.85950613927973 C20.178837749495017 91.95099079115465, 18.467411221315004 88.86058536619929, 17.129339716580404 87.49743850264336 C15.791268211845804 86.13429163908745, 14.094497006368485 85.12019042837056, 13.361337924146326 83.77186038224025 C12.628178841924196 82.42353033610995, 12.274113397021566 80.02104573442145, 12.241612501766099 78.50857152844132 C12.20911160651066 76.9960973224612, 12.598025648375014 75.21320806785451, 13.14466528910998 73.68869900903942 C13.691304929844918 72.16418995022434, 14.629473254519183 69.70874154848734, 15.885876773332413 68.34517780300739 C17.142280292145657 66.98161405752745, 19.63976790596567 65.48301248020184, 21.520688747864853 64.59827403917309 C23.40160958976405 63.713535598144354, 26.33866828499329 62.72821325240713, 28.425349052660323 62.446921529482445 C30.512029820327356 62.16562980655777, 33.191874635867876 62.5100500401357, 35.431893865645094 62.72299588634186 C37.67191309542234 62.935941732548045, 41.99656937739023 63.68124840026733, 43.35881058450855 63.86656050419027 C44.72105179162686 64.05187260811321, 44.635613923656635 63.7192810148371, 44.513501913100555 63.95840991249482" stroke="rgba(79,124,189,0.8)" stroke-width="2.0" fill="none" />
  <path d="M59.10366249780014 76.77182448262745 C52.18519452625873 84.18164400523494, 45.59645369660643 89.59153157410981, 41.69723670416337 93.25714036443668 M58.2881440111644 76.7836797608341 C50.181808135108966 84.60758606001117, 45.28999313542502 90.63343337235568, 41.16277830776174 92.13731626814915 M55.474846800481885 74.28120846613416 C49.91707085634259 80.05134704165275, 45.519664156351325 87.40326414544329, 43.24356142798254 91.54115465112976 M54.612998086298276 75.05279411938392 C50.30029220840841 81.0536968752232, 46.44439682419146 87.14341951513899, 41.99805437086937 92.94338101903244 M54.76559715437274 72.22413909916979 C51.27832482269315 82.03500477676043, 44.259648311191114 88.56489156746298, 35.05448840467625 93.44707760165458 M56.29379848985461 72.75899421277131 C47.4904177364501 81.87723261684859, 39.46353640922649 87.85542267690353, 36.47093267531636 93.26216794415741 M53.002609396745726 70.9482149247078 C45.82376332178919 77.55880220252989, 42.22250238420193 82.32245893207795, 36.63949982518922 93.36952774533272 M52.82230544761191 69.97234206071438 C48.0249689586027 74.78185093200202, 44.03911293455843 79.84500152525708, 36.392773424205544 92.31729579317701 M52.7943647987032 69.88102388970643 C45.953309401853005 76.29327295896152, 38.46032557311567 84.16296317665532, 30.532077827143482 92.23024118197307 M53.29640622543981 70.51774940147031 C49.45917816955715 74.92224618567124, 43.17462253506888 80.22211923013035, 29.954638864859703 92.03403039006457 M49.655947944094734 67.79975236402011 C43.58634451911553 76.8730877645929, 37.612076581447155 84.48575296121466, 31.30750676348586 92.2817010097242 M49.18666993232766 66.93429513705745 C44.24986845954521 73.04649465154125, 40.311893492544286 77.71658426788491, 30.596629165747302 92.68585664241436 M48.35984640615557 66.6191947761178 C44.529095308705735 75.5568377636253, 38.36495419421851 79.72303532425548, 24.954726005468515 91.1821561433913 M49.12081475635762 67.09147551745879 C45.10248849537598 73.53833205238257, 40.070595756158696 77.83473848627155, 24.691503198958884 91.63056230763345 M45.213349788940334 64.41012721605634 C37.96189337844625 73.89323955652071, 32.26951051417713 82.96447378262903, 24.850829023833853 91.31447348164306 M46.36700504193746 64.07516272000295 C40.4168960442709 74.54465779376093, 32.796884805829066 84.44063624529184, 24.635455019418757 92.08127549589301 M43.963746487772454 64.97915881809348 C39.52203953258264 69.681345170616, 33.51260338869402 75.42440169213978, 21.906226274819787 90.76248248014346 M45.28642399121584 65.38459401203191 C36.81524938900955 74.58575071805375, 28.47768436605773 82.25374247914803, 20.882999914431736 89.50449724763865 M42.090533799750844 62.92912142134658 C35.4911490768048 72.60744162010432, 29.45900148262092 81.69404578381369, 20.012765145577774 88.89748741496388 M41.82614594370273 62.96911080194031 C32.63574635077343 72.91065301065598, 26.455000747027 83.10649896692875, 20.573826390741047 89.50635801448384 M38.85081674713686 63.70603820982798 C33.96647113259519 72.62532177599795, 24.47004695016146 78.5275122820652, 17.53124171167326 86.61357606579712 M39.35804088551939 64.43587075201002 C35.914026359233134 69.57045401173205, 32.58842678820909 74.05708068627848, 18.07890501343509 86.81083235353186 M37.592486225116204 61.042362112976924 C26.299190569411437 70.72045786204254, 21.36093572304749 80.74304365444218, 17.386241540969877 86.93658122698 M36.19100553305094 61.577338046045305 C34.08565558797741 68.82969816196533, 28.341386755851573 75.81951401974214, 17.517557640890217 87.35620893081689 M34.9456834481894 65.88840016308558 C32.35577711044267 67.8301625564369, 28.032216438006017 70.43299514905523, 14.398482223114101 82.50282569301034 M33.550818618565884 65.25894840884162 C27.809969507651402 69.90535508006367, 22.183334817235448 74.91074876450688, 15.122362614151413 83.25069612465009 M32.00116541018238 62.09048518987112 C22.259242253039318 69.2796840619267, 18.812728992315655 75.42664979493176, 14.559792706745739 82.52257969110393 M30.946920467003807 61.81626828371877 C28.11488844597396 67.08799355486616, 23.716590691286072 72.51121732349138, 16.014198139531246 83.08141199051795 M26.91838708956655 67.33311794209021 C22.087534916809204 72.21140434669138, 18.25880063952269 76.29536678752928, 13.963961615780008 79.05581697243557 M26.258888132707042 66.41798401129478 C23.716268133898268 72.14474685533473, 17.92248796886804 76.99991453091931, 13.897154682165109 79.12736309789986 M24.718943450103694 63.553320959968104 C19.933273404715237 67.62227682830893, 19.65407639443673 71.67723715543497, 13.982163713845793 79.18493904528061 M24.084307727948385 64.18775722219854 C21.109338681081326 68.1896828798851, 19.194341505754508 71.90284710775512, 13.191184784065939 79.2998061785718" stroke="rgba(79,124,189,0.8)" stroke-width="1.0" fill="none" />
  <path d="M25.52110299044557 92.53809213304571 C23.447049337564223 92.18674539367547, 21.001489463514005 90.27245781589235, 19.626991703402794 89.14104608706253 C18.252493943291555 88.0096343582327, 17.256163455877314 86.34925710789769, 16.35778458970408 84.99534727418018 C15.459405723530864 83.64143744046268, 14.16876060661265 81.52295330164816, 13.637799262247938 80.11498052894584 C13.106837917883254 78.7070077562435, 12.474890156906795 76.94021900820896, 12.818042293939385 75.60886212283131 C13.161194430971989 74.27750523745368, 14.771641439072823 72.49240819543132, 15.925480175798583 71.23926795976155 C17.079318912524343 69.98612772409176, 18.933433324831853 68.22627530697628, 20.510300538777784 67.25459388503276 C22.087167752723715 66.28291246308925, 24.437511164187015 65.36537117086812, 26.437928268771458 64.76139181347145 C28.4383453733559 64.15741245607481, 31.775694864771708 63.40585950355432, 33.84641456934071 63.22806483572175 C35.91713427390971 63.0502701678892, 38.1688218026908 63.222892663040234, 40.24272629923151 63.576094027921066 C42.31663079577221 63.92929539280191, 45.885926537727954 64.70474545208947, 47.67244454627871 65.58274060159403 C49.45896255482947 66.46073575109855, 50.99423712091648 68.3665504359582, 52.15284635623655 69.42939502461806 C53.31145559155662 70.49223961327792, 54.68225872278069 71.38608394607859, 55.39650611507915 72.66837119265975 C56.11075350737763 73.9506584392409, 56.928537653199044 76.46527794959384, 56.914495638226356 77.9779766684924 C56.90045362325367 79.49067538739095, 56.08716855025008 81.28175217769072, 55.30289268192789 82.75302931865009 C54.51861681360569 84.22430645960945, 52.98170330298318 86.61010093906728, 51.685989849411726 87.78649094155483 C50.39027639584026 88.96288094404237, 48.26534812873878 89.8445820140832, 46.664802991451495 90.59562933523375 C45.0642578541642 91.34667665638429, 43.05852829880878 92.48510526195957, 41.01568893416308 92.79347308255845 C38.972849569517365 93.10184090315731, 35.050376398718996 96.90745424639738, 33.045873893813436 92.65141480589287 C31.04137138890789 88.39537536538835, 24.364755149629957 65.66253040506453, 27.652338901459387 64.41987681252832 C30.939922653288818 63.17722321999212, 54.89626903932401 84.13444547208907, 54.963098906009634 84.36705752231818 M52.1179811534371 67.54450314928181 C53.47592795295081 68.4053742431271, 53.7866957429287 71.44717328242739, 54.4001193763026 72.91537884994014 C55.01354300967648 74.38358441745288, 56.05360018731287 75.97202155799741, 56.20747204259634 77.33254026603342 C56.36134389787982 78.69305897406942, 55.91373610133424 80.59417027396607, 55.42593174485914 81.98550357018014 C54.938127388384046 83.37683686639421, 54.13657786636389 85.37625165326484, 52.95544299942907 86.60809557412723 C51.77430813249424 87.83993949498961, 49.32225976590186 89.2832940118732, 47.55169929862694 90.19779637592936 C45.781138831352024 91.11229873998553, 43.22696070997111 92.17415877073321, 41.1517065509296 92.70477800116835 C39.07645239188808 93.23539723160347, 35.83725583368795 93.95402168794185, 33.71667157168358 93.73525791216359 C31.596087309679206 93.51649413638532, 29.000913328153487 91.96520054282806, 27.014478137567096 91.24635282931321 C25.028042946980705 90.52750511579836, 22.053334306234703 89.70195033570147, 20.473770301107635 88.94293982206459 C18.894206295980567 88.1839293084277, 17.62789956329992 87.46227473348695, 16.48405143672001 86.18628273840062 C15.340203310140097 84.9102907433143, 13.239699859537282 81.95967315861213, 12.848116123908241 80.43632652148912 C12.456532388279186 78.9129798843661, 13.423779253814544 77.18136165094427, 13.873493199193064 76.03063849091383 C14.323207144571597 74.87991533088339, 14.949549360386854 73.93114641222063, 15.846209093098338 72.76483878795285 C16.742868825809808 71.5985311636851, 18.488409858118814 69.58456752684697, 19.85122475060284 68.25525432912873 C21.21403964308685 66.92594113141048, 22.999054594009152 64.53733964617714, 24.93164170965845 63.90275080316457 C26.864228825307748 63.26816196015199, 30.74008718048448 63.958012110798244, 32.73513885493145 64.02466204237822 C34.73019052937843 64.09131197395821, 36.19481589874512 64.16241402165025, 38.23198620597164 64.34708368036445 C40.269156513198155 64.53175333907868, 44.477421089511864 64.709818184377, 46.31627423644157 65.25579310047299 C48.15512738337128 65.80176801656899, 49.749378136317006 67.45029027991869, 50.49100718550304 67.98691645433772 C51.23263623468907 68.52354262875676, 51.43451540360003 68.6240064408694, 51.26046789768178 68.83330092993322" stroke="rgba(252,89,94,0.8)" stroke-width="2.0" fill="none" />
  <path d="M49.5829738015227 82.44230795607993 C42.88835488381301 88.65933442773867, 39.25726770955475 92.70317960743039, 35.0959835362319 98.22790740562321 M49.97581360937045 82.90060647367633 C47.84785117249912 87.21127992955094, 43.19663224699164 91.05613051120001, 34.53805412346297 98.56698125140453 M46.85519951335988 80.62281923911472 C44.660731835510944 87.88607614696416, 42.92870411883223 91.55315130800982, 34.64545478030186 100.03750499885165 M46.68614383868133 81.00341587037951 C42.32254241367828 87.85119966802371, 36.63753650020341 94.6233963542743, 34.552249884460906 99.0096353939303 M49.99470731957081 78.35039503381927 C45.17376151164967 82.35456322913353, 40.55966636233816 86.29996913704811, 30.50650406164452 98.56935389210388 M49.598294378290234 77.70725671285454 C44.23007664003522 81.97914301619804, 38.41981255896428 86.8157658568967, 29.14954664520394 98.64696531141996 M47.198023583574255 74.50301164769579 C42.44351727353319 81.35668008431304, 38.214551542380036 87.5236205145426, 30.051892737591984 97.53037975905461 M46.783915073798 74.8753494785007 C42.67095923482054 82.79945800349832, 35.50338844796224 91.75895360243264, 30.074931658642086 98.39166789539073 M49.41301968338881 71.78620553865551 C41.2523611114172 80.43138379593432, 33.9442044940338 88.39706891442951, 27.02801825669276 95.01115960688692 M49.865237057328486 71.96684266832979 C43.14291136362465 80.67470146086485, 36.79295388670715 88.10775609492931, 27.410999993907083 95.46341957879014 M45.601543624312484 69.63779710159812 C39.569527925264865 76.5070374705257, 35.16359225234697 82.21565677732781, 27.042718180939787 95.48266726744484 M46.32121221623861 70.18902543601979 C40.50884595749645 75.73052080955435, 34.867379334519114 83.70269060479347, 26.503619759487677 94.95563013412144 M47.9139261525704 67.68701271380135 C39.79496754515564 78.31880548373925, 31.386620002439088 85.93377018107185, 24.14646184352766 91.30182158202417 M47.66474768943921 68.69106355937862 C39.173235320077396 73.00891778311248, 32.21873327763956 80.10210491480666, 24.49466293813454 91.75976304839473 M45.182846813698035 64.86148540960095 C38.39331182750291 71.05743856017119, 33.87770324020184 76.77757886367569, 25.5795514405025 91.00306964211993 M45.368162787403534 65.86102665740742 C34.99503767215181 75.18741926930615, 27.48030141641688 84.73067049557292, 25.028252315271672 91.49419375387907 M45.237679046921926 64.18254432426598 C42.392295406163214 70.0687149415666, 35.74251591980955 74.69179327413974, 23.142395207116124 87.39365490326189 M45.931739496057716 64.02509672343635 C38.052375781153046 71.33077767680624, 29.552714217998442 79.71679284434148, 22.418505748374614 88.33035751786906 M44.07666991530857 60.9749031092304 C36.438846176183645 68.53100017588403, 31.125867296897752 75.66009013653182, 22.597993241380166 88.06626321398515 M42.73882346434429 62.06318756013061 C36.73011244594596 69.56489063521005, 29.968575137338235 78.76021202250222, 23.056764426745858 87.79093351108497 M44.186402494249506 59.795194276004175 C39.594054895035086 63.73637206320031, 34.77048282523661 69.40856697879224, 22.263089776828423 82.63656973392332 M43.953868760768216 61.104672305091164 C37.065961289066934 65.89201209961632, 31.07891115243052 71.59206501344715, 22.203175355771435 83.75224791388985 M40.57751283697347 57.38493494519409 C35.68308224867852 63.78344264861118, 30.316266416919518 70.16331567375083, 21.504958400254424 84.35918057936844 M41.08257566993953 57.597283390939204 C37.220037596968695 64.12308307903638, 33.38685729103129 70.47289894982107, 21.312024314591156 83.13617543941112 M40.7207914502456 60.299321584754956 C32.28504757572094 66.71824678099601, 23.84929534602577 73.91650234430305, 20.75188844448944 79.51849026600865 M40.61143497659876 59.033628622699354 C31.94916262654388 67.18492914523783, 25.642182122962268 73.68535735012689, 21.062523411339413 78.89106732341287 M36.24475036758993 56.592355101274336 C30.640424186862518 63.21846766437831, 25.173499185177718 70.19875218999863, 20.159259424827 79.00884556924373 M37.71516957246753 56.54400709366823 C31.419195428795277 63.531399380328835, 27.191255668189513 69.30676041357334, 20.940461246729186 78.88067676942418 M34.60824731390524 58.8673122723118 C29.74221424125166 60.7187872840051, 26.403733917007173 64.53184490434124, 21.990740014695078 71.09018824569297 M35.6839511404081 58.6081977047583 C30.945551061279673 60.26439632835517, 28.425702849984958 63.48748362937393, 22.127224272393306 71.82616826925378 M32.46182540208292 55.22111005606642 C31.011227641067762 59.15165207725249, 27.3088674920554 61.456426933617784, 22.987353510259254 71.04016411317387 M32.72289645525592 56.06494732699703 C29.529310946258065 58.8815221663892, 27.641904638598348 61.23163673547574, 22.386479303947 70.9194809604634" stroke="rgba(252,89,94,0.8)" stroke-width="1.0" fill="none" />
  <path d="M21.544467319530128 82.33481099344213 C21.007244893181493 80.56526798674807, 20.211743330426387 77.59900540404331, 20.436230069482278 75.48737496483606 C20.66071680853817 73.37574452562879, 22.371028677886883 70.12207880265487, 23.041045579902757 68.25727473206038 C23.711062481918617 66.3924706614659, 24.015237452151524 64.43981747661694, 24.903009416254676 63.055347827539464 C25.790781380357828 61.67087817846199, 27.741909299356053 59.906716145297395, 28.95952534059046 59.02747707154391 C30.177141381824853 58.14823799779043, 31.660706888569763 57.38542952152932, 33.02044969115066 57.19375400251624 C34.380192493731556 57.002078483503176, 36.50102214577625 57.39975278312378, 38.024477357796414 57.749640278123444 C39.54793256981658 58.09952777312311, 42.033102202165225 58.39881509444182, 43.176817771285144 59.526337302514 C44.32053334040506 60.653859510586166, 44.93696282700701 63.596854185506196, 45.64924781859595 65.26645499860459 C46.36153281018491 66.936055811703, 47.46731009375317 68.86754395419419, 47.925384381878175 70.65700938983666 C48.38345867000318 72.44647482547913, 48.578846028392334 75.03545915996266, 48.703076406096 77.1962245695544 C48.827306783799685 79.35698997914615, 49.19647540578788 82.96076640713414, 48.753586899902714 85.06211212044832 C48.310698394017535 87.16345783376251, 46.70168408701561 89.66135658769652, 45.75048636686154 91.20519599164894 C44.79928864670747 92.74903539560135, 43.452764890932926 94.2180082585417, 42.41226876554222 95.35437481346443 C41.37177264015152 96.49074136838716, 39.98524941716397 98.2410027090032, 38.81384553092349 98.78097302446716 C37.64244164468299 99.32094333993113, 36.056699013881655 99.05560740956373, 34.60290952393896 98.95417691655754 C33.14912003399627 98.85274642355135, 30.395996653543094 98.84652154630056, 29.12191559797222 98.10476973775923 C27.84783454240136 97.36301792921789, 27.06290856761646 95.44464544577934, 26.109035820133144 94.00916485961532 C25.155163072649827 92.5736842734513, 20.984275350212187 94.00791067230742, 22.762763948083403 88.53489916333244 C24.541252545954606 83.06188765435748, 34.51646349826825 57.16535913532826, 37.96562647260784 57.52242146644886 C41.41478944694741 57.87948379756947, 45.76743905713728 90.67762350981826, 45.75718377701395 90.91531470413649 M42.6751270706869 59.405450427392324 C43.815097388465034 60.07322178050238, 44.3523748939773 62.40324292988995, 45.04221434413874 64.05145456915707 C45.732053794300185 65.69966620842419, 46.779031722607684 68.31310528481828, 47.27405673842986 70.39352802250647 C47.769081754252014 72.47395076019467, 48.02606595745898 75.72605715990062, 48.342381116286504 77.92093948707836 C48.658696275114025 80.1158218142561, 49.79226274209638 83.17332082069292, 49.382824463946704 85.0260768703581 C48.973386185797025 86.87883292002327, 46.55961265923584 88.66636099937128, 45.612792595288624 90.2726464848462 C44.66597253134141 91.87893197032112, 43.976642024035726 94.38847585163266, 43.07069070429857 95.73464677352425 C42.164739384561415 97.08081769541585, 41.04007399741718 98.73846548509609, 39.57311713037423 99.24711929745683 C38.106160263331276 99.75577310981758, 34.81926813952441 99.38452579142684, 33.29097825734553 99.12567218926259 C31.762688375166647 98.86681858709832, 30.473051505189446 98.37846328758764, 29.384517915848363 97.5214286163618 C28.29598432650728 96.66439394513597, 26.896731588179392 94.82868568961803, 26.034087661738297 93.41210771442366 C25.171443735297203 91.99552973922927, 24.369778717136896 89.80232940710246, 23.633558406241093 88.0775754483993 C22.897338095345276 86.35282148969613, 21.605852351933464 83.88508976573802, 21.125952255766208 81.91374798973587 C20.646052159598952 79.9424062137337, 20.09478268004368 77.02024078521094, 20.434224431792757 74.93529694171829 C20.773666183541835 72.85035309822564, 22.755525849818596 69.76756017834981, 23.388897267426785 68.01412236645153 C24.02226868503496 66.26068455455325, 23.70574898093416 64.76081385055275, 24.656700549180655 63.24571152906307 C25.607652117427165 61.73060920757341, 28.41275237220806 58.808386317475545, 29.728574389070104 57.913440223187074 C31.044396405932133 57.018494128898595, 32.296440963679174 57.48360060910208, 33.42884732826087 57.27940423380657 C34.5612536928426 57.07520785851105, 35.97569309823869 56.14666795121432, 37.27795015294821 56.5521310545503 C38.58020720765772 56.95759415788629, 41.30590574484347 59.40220589976407, 42.11056102632435 59.98249158937983 C42.91521630780521 60.562777278995604, 42.729064704218004 60.157546204162344, 42.64231869615399 60.420702318655415" stroke="rgba(125,206,130,0.8)" stroke-width="2.0" fill="none" />
  <path d="M52.09433710803823 76.14436183144865 C49.05636327082702 81.30192340692804, 45.75498932047199 84.45657006894619, 39.255493066547885 87.95041863296106 M53.540423995737385 76.49042499021435 C51.436547510664056 81.73850924884383, 48.20335316829484 83.75269606555788, 40.94484309752292 88.57737188647631 M51.36293972980148 75.00671057792037 C47.484054489996794 76.02715038928116, 44.14394600493718 80.32433029063118, 40.703343769058435 88.35612812826948 M51.04913540015383 74.80595014293627 C49.22761961246432 79.74240025969489, 45.78449094704675 84.01418134494615, 40.74288816464758 89.47531493767194 M50.89306574603654 73.37984703611815 C49.654129123511396 77.71964701880653, 46.21140729172876 79.95259920179629, 35.68806209633749 90.89094671375294 M51.30773096935626 73.12768405800774 C44.561274654830726 80.13897168072933, 38.365700063806884 86.92764793881683, 35.4199543980329 89.60904115870426 M49.766830775793565 71.13012078126742 C44.531946079173196 79.54893377238321, 38.25268634403973 86.05771550770231, 34.1487120525086 89.24943837477079 M49.1523898045055 71.1996916944409 C44.73600334064692 77.95842660330975, 39.950882655161905 85.41457515270716, 35.38449342686937 89.74387118797235 M48.12247194824576 71.65677439391877 C45.79415634123664 74.42212096263732, 40.28104816996495 79.3373053514091, 29.71081449545528 88.94446228385553 M49.30453907368499 71.54804518389427 C43.86802814667614 76.57020002710699, 38.72085533053345 81.66899365595742, 30.706888526200814 90.06388866007974 M45.767091042376435 69.1208836177835 C44.708816635030104 73.48530982652166, 41.37128399459094 77.67693329373962, 31.27009145054471 89.39406149280623 M46.49301154305064 68.7057433397459 C42.097208038321156 77.53437942254058, 36.09665776634593 85.40849418911753, 30.29283608029725 89.63522764721922 M46.14164487752322 70.29019918305491 C39.66716977485325 76.23987734131188, 32.65486577986775 83.82275098360088, 26.30029495845848 89.2011865239591 M45.46256532525584 69.58983666016701 C38.967291114838986 78.88162738776663, 31.787161631237026 85.49177805418572, 27.059082539505937 88.78537114361565 M43.75495776649481 67.95149298884203 C38.98098664845297 72.93377135850997, 33.40242516319961 79.72300632295874, 26.599418435876018 88.76524377317139 M43.294399262509444 66.95442380721721 C37.5976110072736 73.58050725337614, 33.59700893176145 79.33014218259318, 27.492615438881685 88.66093303365435 M41.950259935863315 67.30050422942571 C36.699974676601684 74.49140234487714, 31.103522897659232 78.92804644792068, 23.00140993348724 86.37995182554798 M42.31243934721071 67.78091919787843 C36.7632186037666 75.06704614798204, 31.009608362204503 81.58480110618041, 23.461751693388536 86.2603729836995 M39.36877704206158 66.58083607874005 C32.96609255075775 74.49525069489954, 28.092085916593234 81.906115953501, 23.04937949787606 85.98548427939085 M39.54024396575774 66.00769479186272 C34.6244532281537 75.01244651293287, 28.854748071286764 83.3818548593102, 24.302307784486985 86.90988268254834 M39.10661296181753 67.10108633719283 C32.456236185378415 71.99572172933826, 25.639192564513323 77.9145384745045, 21.296895302722632 84.48516466937926 M38.18903394230556 67.4899582203921 C31.52265635263167 71.2189094393374, 25.111367983573615 78.13390591389256, 21.241035730945924 84.69394313940155 M36.83924956066768 63.964857746630294 C32.38295137950989 69.0914537222895, 28.172050916112497 75.54601373573072, 21.167554211487612 83.81909510256533 M35.635906319183846 65.1853227635236 C33.31527666937198 70.48910887889998, 28.511780557781208 76.4583299571965, 20.75830323970918 84.61012899654473 M34.438168170368 67.9742380439373 C29.486161050954664 72.97864372570723, 24.920262736145702 78.62980777484177, 19.425475962024024 81.25744150287682 M33.756743804226545 67.50419117320908 C29.239620859496256 70.94995827517513, 26.155193925354382 74.60793067582995, 19.27769797500673 82.15207401205313 M30.78103144186231 64.50393358136785 C26.338162361166752 72.16021245914077, 22.25227614506005 76.55954012953649, 19.50402718694174 82.02992469673383 M30.665409691907044 64.74018614027283 C27.519837116584128 71.01838452718533, 23.74261439458533 75.96541880936492, 18.885030466207922 81.86619823703424 M26.65396201280103 71.10891443139117 C26.312942627032953 70.27421612475075, 24.198737811673894 73.33236445537366, 18.148620703243594 75.16820934594779 M26.46361809792866 70.459267363885 C25.02012393215422 71.08174356697285, 22.53111523879093 71.77776216292918, 19.59788184012028 76.14202141225559 M25.12956824453336 67.03143015368116 C23.32673487403494 70.0353084008141, 22.497222595730392 73.59902404817353, 20.432574263177187 76.43458514962877 M24.22455261479986 67.59929880273836 C23.38759999499875 69.83457439954562, 21.854000742061018 71.73452827202965, 19.388556939036903 76.1296345535468" stroke="rgba(125,206,130,0.8)" stroke-width="1.0" fill="none" />
  <path d="M36.38336088667319 90.07987669427946 C34.927842167481785 90.37696206876598, 32.40187103586433 90.12314181100695, 30.834682506014474 89.80010173621264 C29.26749397616463 89.47706166141833, 27.280406214451006 88.5755108029926, 25.93543735434085 87.92627619565077 C24.590468494230706 87.27704158830893, 22.9172980315722 86.34984111082473, 21.86822343861347 85.47187102060045 C20.81914884565475 84.59390093037617, 19.43067907924332 83.12373958769419, 18.941606734615974 82.07314226082225 C18.4525343899886 81.02254493395031, 18.502428145391747 79.60614466991018, 18.607741141097748 78.46788884145421 C18.713054136803763 77.32963301299824, 19.245804759861343 75.60116832104572, 19.64369337265599 74.48477007111578 C20.041581985450662 73.36837182118583, 20.281573870570483 71.93444691845093, 21.260331893062187 71.02523384192124 C22.239089915553905 70.11602076539154, 24.696679624743112 69.11950520093006, 26.168746855934074 68.42334956091779 C27.64081408712505 67.7271939209055, 29.52965107657245 66.80478553293797, 31.074113434335345 66.38419624183936 C32.61857579209824 65.96360695074075, 34.903075692426356 65.49550625333043, 36.46516257435337 65.61942095359373 C38.027249456280416 65.74333565385703, 40.04140870295686 66.72228091227745, 41.488025980515516 67.21029424359467 C42.9346432580742 67.69830757491191, 44.81309168193782 68.16619410239439, 46.10927775807784 68.87284316237525 C47.405463834217855 69.5794922223561, 49.230292722859986 70.81351565667285, 50.12926648811565 71.92128797680037 C51.028240253371294 73.0290602969279, 51.85532798690511 74.97385750710565, 52.102436193115494 76.25799196322535 C52.34954439932588 77.54212641934507, 52.167044775776404 79.31298708247427, 51.776654529518154 80.48218435093173 C51.386264283259905 81.65138161938921, 50.35449836885532 82.98305513891654, 49.499834551393874 84.0526404196085 C48.64517073393243 85.12222570030046, 47.31019511570696 86.88323386173462, 46.07889574644186 87.61275288887813 C44.84759637717674 88.34227191602164, 44.01599214676581 88.73232560610019, 41.2911720896265 88.91610060056527 C38.566352032487174 89.09987559503035, 30.975897463513718 89.48738852390015, 27.91342869884639 88.83791951864538 C24.850959934179045 88.1884505133906, 20.86845127699459 84.65489620508654, 20.87471365851094 84.58630723220011 M35.34452032115348 89.4254107606458 C33.77177513040776 89.59017715260208, 31.443313039522778 90.22538977098162, 29.8556872457945 90.14724954448081 C28.26806145206622 90.06910931798001, 25.917188022809015 89.74849054658321, 24.760348362964976 88.90447591730711 C23.603508703120923 88.06046128803102, 23.143597003833364 85.67779280098706, 22.143422846834227 84.52048534930685 C21.143248689835062 83.36317789762664, 18.66691919468937 82.25114029667091, 18.092520649637365 81.1890929061057 C17.51812210458536 80.12704551554047, 18.03716033281924 78.51165131902962, 18.31409921315415 77.44016941220538 C18.59103809348906 76.36868750538115, 19.341281432721203 75.18512392879023, 19.938779851870066 74.0458801939441 C20.536278271018915 72.90663645909797, 21.427440970994837 70.9404853586934, 22.29742200747991 69.84521117989783 C23.16740304396498 68.74993700110225, 24.322593350596676 67.37733544248279, 25.73865342843719 66.74405233530696 C27.154713506277716 66.11076922813113, 29.979991294157088 65.70474101845332, 31.73782252641675 65.62332379872564 C33.4956537586764 65.54190657899795, 35.9254549570215 65.97172813864987, 37.4575283101682 66.20127087045574 C38.989601663314886 66.43081360226164, 40.440187151981206 66.57605148380931, 41.951644880728054 67.15360867743156 C43.4631026094749 67.73116587105382, 46.3905161630193 69.33613713499244, 47.53391316848055 70.0516521612708 C48.67731017394179 70.76716718754915, 48.943244585677306 70.99868695572474, 49.574291583803046 71.92370885262058 C50.2053385819288 72.84873074951642, 51.4124520539342 75.0174198456551, 51.7408931559855 76.21846480724307 C52.069334258036804 77.41950976883105, 52.174257897118835 78.81225322023695, 51.763898930811706 79.93067526320704 C51.35353996450458 81.04909730617713, 49.75575444029032 82.44599584867028, 49.00516671393798 83.67461176037703 C48.25457898758566 84.90322767208377, 48.009599994097115 87.28383112383659, 46.75998075512952 88.1214480079187 C45.510361516161936 88.95906489200078, 42.43098515826418 88.98391215163731, 40.67437178748736 89.25872432092434 C38.91775841671057 89.53353649021136, 35.76531764960413 89.83364512039624, 35.04922494995084 89.95352913649887 C34.33313225029754 90.07341315260149, 35.66602580857854 90.1885515439053, 35.90042045646541 90.05795109494184" stroke="rgba(180,122,234,0.8)" stroke-width="2.0" fill="none" />
  <path d="M48.62888339579837 77.55189896876769 C46.538494782816514 81.85932740844112, 43.92495225336883 82.70145990316796, 36.594846725361066 87.67901822443301 M47.77776693701321 78.12863812819599 C43.908092389811316 81.37535271679668, 41.55686383082286 84.05053238029838, 36.53276857622089 88.56456761486984 M45.90502015632214 77.44217325783548 C40.819378070221475 81.37659118834787, 38.19506885036914 86.878948994881, 36.278055485724266 89.36238039549129 M45.706646335002006 76.71440872256942 C42.41226019689077 80.74885855859328, 39.39833835095891 84.70266396671477, 36.60413599232719 88.19970912560322 M46.4762460630175 75.54396852622277 C39.99039690138224 79.25293885393438, 35.19755179886805 83.14729891114435, 32.43160483841909 89.8825318886995 M46.878697844058465 74.39562406413069 C42.87153124449186 78.59243516380835, 38.553681585718536 82.80720295228627, 32.08246051216943 89.44877369416153 M45.251133453273965 71.92824547853213 C40.22838177765739 79.23835789451694, 36.96242155773088 84.88278015517497, 31.7209222278848 88.3542739919763 M44.12883983026835 73.03179820323393 C41.10442769177425 78.72139880877656, 37.37600582281142 83.45989860556993, 32.08597466228623 89.03100485668448 M44.43119833073119 71.73294223330285 C38.52862946061448 75.95327424709424, 34.549667840140046 81.12003800007413, 28.244494228729664 88.76515127780726 M44.88393846093918 72.24647324033538 C41.82027442468251 75.82166668935488, 37.824934507592204 80.13743708533309, 28.83727691233109 88.18011657825566 M41.8861692066351 70.5161838086888 C40.411380546670586 73.66656669026207, 37.50527110280811 78.43312927828825, 29.820517044333286 88.53623296471713 M42.80975323001532 70.27960020102854 C37.55129289316203 75.36701639087147, 33.658174743438366 81.9020689235179, 29.0569474269588 87.66774821063483 M42.429635695913234 70.03498985171137 C36.64445415697274 74.81589265428225, 31.792464280567913 80.36528959145836, 25.93005442706854 86.7841487009955 M42.385339349657215 69.53941063473515 C36.03808042431062 77.50789065941817, 29.587089524767478 83.20588140595764, 26.56359499061182 86.02481998631168 M40.803966639555085 66.98663050075346 C35.51981085216539 73.17177449060448, 31.014163684378985 78.368387305855, 26.555477921973264 86.55614375037872 M40.44010216632469 67.64468348664803 C34.00952253535367 73.2726009328022, 29.555106443450725 79.48028938746769, 26.797518770635406 86.31105174407143 M39.481049198336024 68.51046680330604 C33.36294233482114 73.27727376416958, 28.299617059876212 76.72853492354851, 23.57895499456049 83.5009223670545 M39.675312926943604 68.56020496974963 C37.13992036464943 72.49599680196907, 33.88615518385107 75.34851391374004, 24.398074208083358 83.64000486507365 M37.861136102276106 66.09762316256459 C33.820514842857264 71.84319211087539, 31.100852678454842 77.91921538690222, 24.391608372204487 83.95017061822003 M37.33234935467969 67.09661190834794 C32.25725858675061 70.79277815312895, 28.21950967025404 76.63863628603627, 24.6557297341555 83.21441249974963 M36.073156274582786 69.136535355658 C33.442045674730494 73.87738674113173, 31.465795475917673 75.08871579751242, 22.616944865048595 81.32386722126496 M35.15339805373975 69.07468955545849 C32.29954638415609 72.82567398297454, 28.41210969795158 76.72882034085328, 23.46713312400601 80.4097326029895 M32.77389523449976 67.31387592054033 C31.161901868625364 71.40580947285908, 27.891484571248725 73.97466838270127, 22.90024507374035 81.09966296294796 M32.78665846765895 66.2961351790417 C29.06646454799376 70.08282080440118, 25.76180796995017 74.35548184514366, 23.321837145411862 80.42964802510414 M28.965203066060567 69.7827043090081 C28.523343764456314 70.54883890857899, 25.729357147190598 73.4934601701045, 22.45813560312179 76.11184297374311 M30.110493030348053 70.2167598288544 C27.04843860224372 72.67477969558473, 24.991980341428885 73.84380273677117, 23.218251562246465 75.11834985889041 M27.719225470362318 68.98850408430667 C26.167216330646 70.97393014928267, 23.955267675730582 72.57554830661547, 23.956701460344604 75.77772934408928 M27.088283211941842 68.4803145287799 C25.51701918911617 70.76996627842172, 24.219161578714036 73.44812861816399, 23.466852154406013 75.92260388753725" stroke="rgba(180,122,234,0.8)" stroke-width="1.0" fill="none" />
  <path d="M25.80556646222287 85.53458046452133 C24.87771324827932 84.79112190336326, 23.889643102898887 83.02336269405666, 23.407827117766715 82.06869148903837 C22.926011132634557 81.11402028402007, 22.644026835833998 80.15217095995736, 22.593459894675092 79.17010576439938 C22.5428929535162 78.18804056884139, 22.756870931024864 76.58308942002304, 23.070714176707398 75.52159018531842 C23.384557422389918 74.46009095061379, 23.903800629653205 73.02701585561877, 24.685748199225287 72.09344419970185 C25.467695768797356 71.15987254378493, 27.220444740892717 69.91793148092789, 28.283697973854615 69.29777914587224 C29.346951206816513 68.6776268108166, 30.720722051688497 68.21263324378042, 31.774103085637933 67.95909529933087 C32.82748411958737 67.70555735488131, 34.129360403200394 67.63842619106458, 35.30623820018411 67.60752618287522 C36.48311599716784 67.57662617468586, 38.494263649208904 67.42807587582566, 39.61995506552944 67.75309524473512 C40.74564648184996 68.07811461364459, 42.02335747811033 69.0472151607405, 42.81084764232101 69.774321975605 C43.5983378065317 70.50142879046949, 44.34251882720214 71.80940514699455, 44.86988949360072 72.60047401049839 C45.39726015999929 73.39154287400223, 46.06678644760723 74.14943961726438, 46.32665208497822 75.04811439896389 C46.586517722349214 75.9467891806634, 46.70384864671047 77.49041744261308, 46.60232707607399 78.59163922182846 C46.50080550543754 79.69286100104382, 46.094841422249544 81.34385254372832, 45.64984161406845 82.38959292706635 C45.20484180588737 83.43533331040436, 44.32532525340599 84.69091353709493, 43.635661688200074 85.56324177741526 C42.945998122994155 86.43557001773557, 42.12863683982586 87.7600705799383, 41.05208451269566 88.20511452920182 C39.97553218556547 88.65015847846534, 37.721594802410365 88.36626567940019, 36.45864617399879 88.53020143917206 C35.195697545587194 88.69413719894392, 33.80106406211438 89.40968896838798, 32.63242698995177 89.29801959434755 C31.463789917789143 89.18635022030713, 27.84211008940791 91.01100527099138, 28.667732359581308 87.78573894556922 C29.49335462975469 84.56047262014705, 36.557378232025144 67.73389068385751, 38.13657545777437 67.79624409153314 C39.71577268352361 67.85859749920877, 39.302955651476324 88.09397434279586, 39.19571386457622 88.20142833007344 M36.476623543415215 67.02930077085566 C37.631611802605676 67.01248218460478, 39.34671957986082 68.03925916027909, 40.40520579595169 68.49483253431538 C41.46369201204253 68.95040590835166, 42.6303013138311 69.21498008916639, 43.53319831735429 70.06645659776422 C44.4360953208775 70.91793310636204, 45.95104065672123 73.05865632462738, 46.42451915277303 74.1713425916342 C46.89799764882481 75.28402885864102, 46.62443054939895 76.49284270059997, 46.68972162436624 77.48436504447636 C46.755012699333534 78.47588738835276, 47.205968749879645 79.75087776803642, 46.859792985888305 80.78149155081019 C46.51361722189695 81.81210533358396, 45.15765747825269 83.48130139056826, 44.381883197757276 84.35512359630147 C43.60610891726188 85.22894580203466, 42.58936353192219 86.10937563851917, 41.68796444925225 86.60697292236487 C40.786565366582295 87.10457020621058, 39.27426621700968 87.25255264733802, 38.37255597995765 87.6724388219395 C37.470845742905624 88.09232499654097, 36.66333261109726 89.3847960522825, 35.67656286890539 89.40621408637469 C34.68979312671351 89.42763212046688, 33.06091250540416 88.12328906155297, 31.794091032011806 87.81522571588745 C30.52726955861945 87.50716237022195, 28.351045731849993 87.97155176949894, 27.231086379622994 87.35245844860462 C26.111127027395995 86.73336512771029, 24.81796400556118 84.56905006737048, 24.32769535049853 83.68793690992526 C23.83742669543588 82.80682375248003, 24.091348942395044 82.45969983339033, 23.962628679205324 81.47837073230308 C23.83390841601559 80.49704163121581, 23.557185851764984 78.25494504598409, 23.469560262567015 77.14574290267686 C23.38193467336903 76.03654075936961, 22.9017673442129 75.14419710831127, 23.37845808455218 74.0836897769215 C23.855148824891444 73.02318244553175, 25.740725739539002 70.82009312932007, 26.6474985314955 70.07569402674507 C27.554271323452014 69.33129492417007, 28.5107048370469 69.5072167034499, 29.423610030928856 69.12102909308817 C30.33651522481081 68.73484148272642, 31.64409169577064 67.89268239194054, 32.73353315737519 67.5011099576668 C33.822974618979714 67.10953752339304, 35.98471180402481 66.39757783420667, 36.68655310829244 66.51054619792984 C37.38839441256009 66.62351456165301, 37.38565716781012 68.06023187605186, 37.41247518582614 68.25423238248788" stroke="rgba(163,211,156,0.8)" stroke-width="2.0" fill="none" />
  <path d="M48.547023061781545 78.84514279928423 C46.892246207998554 81.03724861266821, 45.57512265368642 83.77353257286217, 36.36613564324294 88.48196749522495 M48.44082622652162 78.83230959791818 C42.889300466691125 82.76095870462049, 38.53862554800412 86.69548606325624, 37.49708169122141 89.07402735572944 M45.508107481112745 77.84779715047841 C41.29159785793598 80.63379917065062, 38.54544378180378 86.7547763724886, 36.61934749840839 88.97131121230989 M46.248474618091876 77.25201210474083 C43.9105704539018 79.91435695755057, 41.780170100753594 82.97600641935996, 37.5472645239644 89.22752569170218 M48.303845749390035 74.49965038419596 C45.04187736377804 79.74693471396397, 42.46453888054461 82.10039509349559, 34.03054088651538 89.63172688463918 M47.682236819360625 75.33817518206605 C42.96424946521924 79.698345943259, 38.161689340881765 85.00584681823291, 33.660395334486225 89.10046155555126 M46.31046287898158 73.49216705833248 C41.44255149148556 77.35944102445148, 37.6875185623345 82.31815295498149, 32.908701698781286 90.0542534199428 M45.450255894264785 73.46404141876093 C43.67163232806571 77.01502810153714, 41.30179104412967 80.28151125256753, 33.5991493493196 89.48994807907408 M46.63964303360338 71.77236272299773 C41.98642204773181 77.31075272126915, 36.184431805142296 81.101306307355, 30.121600850779345 88.42945706214176 M46.736971884417386 72.36770003232846 C42.33762526969832 76.49827839915926, 37.47604979539385 81.3632068051777, 29.989960869268828 88.65796711294063 M43.691932314697084 69.99792959012629 C37.52964707529485 77.52270111238417, 33.51658208962209 84.70694222332078, 29.58643060754636 88.75471352662998 M44.62431892438069 70.2966522122078 C40.343535351314216 76.60866005886231, 35.36029022626455 83.06618471273609, 29.99316252823938 88.97069971038498 M44.76770076491478 70.3480294450267 C38.411300914264274 75.0954524448595, 33.282410040603594 79.4226624725116, 28.303401885844977 87.46367470774707 M44.835829310979804 70.03735472273036 C40.12628622953157 75.3784204646554, 36.66398580716525 78.72605811131892, 27.969450662602583 87.76265982829332 M42.24089029340034 69.02052434316576 C37.124742910914094 75.99204793876193, 32.54140543686006 83.72293406371882, 26.987935779241667 87.17147708985422 M42.52248762542969 68.72771842851998 C37.81768602966221 71.0039425500707, 34.60807576671051 75.12989689184403, 27.316149852374807 87.83420391700646 M42.14332822161555 68.22201979463742 C36.32899853682463 74.05770794990087, 30.505865584689744 79.92468345249299, 26.005808880264624 85.512503062646 M42.186598990417764 68.49230076133048 C39.54834871970883 72.68648015494465, 35.99880492669594 76.09779491424959, 25.349221362946892 85.89375618131838 M39.894398270649646 66.67371121606045 C36.90252638826446 71.9660842136026, 34.17625618686105 76.11167199931486, 25.21803201922384 85.6025909184115 M40.09286243380163 66.4543586430661 C34.218547967731126 73.19448965545094, 28.47524797707969 80.12841609600238, 25.373213243221713 85.92192478881753 M39.870946499925196 67.7773520274892 C33.95330247044731 74.05750853967719, 29.58873055295537 78.51635636467606, 24.419790275639244 83.0125628280907 M38.973212196745095 67.74736905452896 C35.58408617075105 72.45423903726224, 30.696372109468697 77.30315701931836, 23.77723033111353 83.20683845094274 M37.17454676192685 66.54940043232263 C36.23282133271252 68.44442775162996, 32.884718475661856 71.74794608978611, 23.865061171554558 83.9388310639837 M37.3416156487138 65.86280721050665 C31.544610906784428 72.72889065786427, 26.613466224506638 78.86674778136107, 23.39486365794413 83.60495984166384 M35.644810977353714 66.99916769808291 C31.536589886526258 72.12701011939734, 27.65200374661147 75.05012153756968, 22.368782793817516 79.91096170987555 M35.71404309410369 67.84499518727847 C33.02182346864038 69.75620390065498, 30.23550302240372 72.28566315117386, 22.795326083813208 80.27397474045054 M33.21488128920335 64.94132705074813 C31.555389766137708 70.53390404118944, 29.359662462180523 73.46428227911645, 23.57439224046834 79.39069130003132 M33.71151809896391 65.22327465790075 C29.915587237685045 72.10411418915922, 26.013703610209703 77.92139176877188, 22.619846550649186 80.16444876835581 M30.69271027113004 68.7341017163932 C27.683616250894488 71.37258195158661, 25.36130729761679 72.35987022655202, 23.61938438772671 75.6786551088556 M31.041349626682944 68.91939243338979 C28.125168123613676 70.4206979372479, 25.778278042740865 73.30309636030114, 23.138370051493936 75.66145230814988 M28.128414043241335 66.33398850257534 C26.13523540457726 69.76864169664482, 24.25548364168361 74.03836768015367, 22.59017372890699 75.7285634696259 M28.64493749887191 66.41307046942828 C28.31994251328352 68.77169005513916, 26.97315360936301 70.1412171307245, 22.614969010845883 75.11796710035564" stroke="rgba(163,211,156,0.8)" stroke-width="1.0" fill="none" />
  <path d="M39.9261092956921 66.96226130905289 C41.10730174520792 67.31790076194426, 43.077785537516405 68.9261679723345, 44.01136379006638 69.73986366639508 C44.944942042616375 70.55355936045565, 45.631754880531915 71.37396302362481, 46.14996431269202 72.38689926945673 C46.66817374485211 73.39983551528866, 47.36500807194221 75.31136382721817, 47.4660933378004 76.49277197194122 C47.567178603658576 77.67418011666426, 47.1115159336228 79.181704944908, 46.823866085079885 80.26295356761034 C46.53621623653696 81.34420219031266, 46.149558649499184 82.62613206062154, 45.54842768084758 83.70109612329009 C44.94729671219595 84.77606018595863, 43.66198072380948 86.592406047047, 42.816326294069114 87.42938065206727 C41.97067186432875 88.26635525708755, 40.98099245306723 88.9653547552306, 39.910731482578456 89.28092682342525 C38.84047051208967 89.59649889161989, 36.948040634557216 89.52057588692007, 35.68125315747723 89.53319444003155 C34.41446568039724 89.54581299314303, 32.66132862970716 89.65564475359595, 31.465481635378524 89.36505051083515 C30.269634641049876 89.07445626807433, 28.731140000684334 88.19195690964625, 27.70893986195297 87.59589948829282 C26.686739723221606 86.99984206693937, 25.334112157542947 86.20973812228009, 24.650814043836107 85.39133436847887 C23.96751593012928 84.57293061467766, 23.427133784453247 83.31069470621854, 23.15361910390739 82.13987446295137 C22.8801044233615 80.9690542196842, 22.80775355535964 78.81602014933907, 22.827382840196933 77.58586608003107 C22.84701212503424 76.35571201072308, 22.88952873613742 74.94160039256377, 23.284481002822744 73.93884733423145 C23.679433269508053 72.93609427589914, 24.618327742688862 71.77427523610488, 25.46039795143244 70.90084569114896 C26.302468160176034 70.02741614619302, 27.946362991836352 68.75599102190398, 28.89828239444661 68.11598370119192 C29.850201797056883 67.47597638047986, 30.66691580859394 66.87248303400872, 31.806527302167538 66.63413021973518 C32.946138795741135 66.39577740546164, 34.321893282555735 64.10111649607026, 36.49569235160392 66.52696493936836 C38.66949142065212 68.95281338266645, 47.37759069322075 79.56843482827414, 46.298521095822196 82.80645317505581 C45.21945149842362 86.04447152183748, 29.505859345627172 88.17098175610647, 29.301895035613484 88.11375391791286 M23.095859716251113 79.76854953798332 C22.809663549446654 78.90247555772413, 23.37963941337577 77.3664590227523, 23.601336709334774 76.0767128825504 C23.823034005293806 74.78696674234851, 23.96399931126507 72.35551512337793, 24.57384168931121 71.17024193663738 C25.183684067357362 69.98496874989685, 26.669656542124173 68.92279669398152, 27.666952562975723 68.17489163761346 C28.664248583827273 67.42698658124537, 30.11980718737263 66.46528189778692, 31.222481828321563 66.18420822751689 C32.32515646927048 65.90313455724686, 33.88777648737182 66.28112016146673, 35.01811683596851 66.3010671691466 C36.14845718456522 66.32101417682648, 37.61800908990722 65.94936999086801, 38.758084152299546 66.31718827871606 C39.89815921469187 66.6850065665641, 41.58874955093822 67.99107050641064, 42.61861725191736 68.75318908813358 C43.648484952896496 69.51530766985653, 45.01610032960164 70.4075289153998, 45.62386882549383 71.39797882353565 C46.231637321386 72.38842873167152, 46.31950921905988 74.21375412070908, 46.67040722453187 75.356188475706 C47.02130523000386 76.49862283070294, 48.03948183416448 77.83299828177184, 47.96318886197376 79.01420785684849 C47.886895889783034 80.19541743192515, 46.65858965494559 82.30083231014957, 46.161787409927086 83.23091897621708 C45.664985164908586 84.1610056422846, 45.356705160664845 84.4861316535816, 44.65117389518373 85.2147856306319 C43.94564262970263 85.94343960768221, 42.65224231762906 87.31747916891673, 41.458245640053036 88.08861215655246 C40.264248962477026 88.85974514418817, 37.89306476072343 90.1482067029913, 36.6911960446769 90.35567221486998 C35.48932732863035 90.56313772674866, 34.60496915853466 89.76127255205462, 33.445787533076114 89.47171556907699 C32.286605907617556 89.18215858609935, 29.993215638424118 88.86784690867417, 28.963318541619884 88.42529232835244 C27.933421444815664 87.98273774803073, 27.364614733614715 87.290803133427, 26.57980688771461 86.52135170026553 C25.79499904181452 85.75190026710403, 24.301727541481625 84.32396413279459, 23.731266235619216 83.29561610727589 C23.160804929756793 82.2672680817572, 22.944442806964886 80.16142182610946, 22.776731515298522 79.66569819680754 C22.60902022363213 79.16997456750562, 22.488398740442747 80.1725577679996, 22.61319095784333 79.9907919119297" stroke="rgba(248,181,0,0.8)" stroke-width="2.0" fill="none" />
  <text x="0.0" y="0.0" fill="rgba(248,181,0,0.8)" font-size="40" font-family="Impact" transform="matrix(0.18898083229064302 0.0 0.0 0.18898083229064302 201.31374915931934 74.28036779608684)" style="pointer-events: none; user-select: none;">-=1234567890=-</text>
  <text x="0.0" y="0.0" fill="rgba(31,138,112,0.8)" font-size="40" font-family="Impact" transform="matrix(0.1336297166765162 0.13362953937740768 -0.13362953937740768 0.1336297166765162 202.65004278010232 70.27147806878244)" style="pointer-events: none; user-select: none;">-=1234567890=-</text>
  <text x="0.0" y="0.0" fill="rgba(232,116,161,0.8)" font-size="40" font-family="Impact" transform="matrix(-0.13362936207806395 0.1336298939753895 -0.1336298939753895 -0.13362936207806395 206.65893428039075 71.60776637058981)" style="pointer-events: none; user-select: none;">-=1234567890=-</text>
  <text x="0.0" y="0.0" fill="rgba(79,124,189,0.8)" font-size="40" font-family="Impact" transform="matrix(-7.522164116087235e-07 -0.18898083228914597 0.18898083228914597 -7.522164116087235e-07 202.87932515677196 73.4975897378095)" style="pointer-events: none; user-select: none;">-=1234567890=-</text>
  <text x="0.0" y="0.0" fill="rgba(252,89,94,0.8)" font-size="40" font-family="Impact" transform="matrix(1.2536940193078568e-06 0.18898083228648455 -0.18898083228648455 1.2536940193078568e-06 206.65892926556143 71.60775634106429)" style="pointer-events: none; user-select: none;">-=1234567890=-</text>
  <text x="0.0" y="0.0" fill="rgba(125,206,130,0.8)" font-size="40" font-family="Impact" transform="matrix(0.13362829827706144 -0.13363095776368905 0.13363095776368905 0.13362829827706144 202.65002712751703 70.27149995315995)" style="pointer-events: none; user-select: none;">-=1234567890=-</text>
  <text x="0.0" y="0.0" fill="rgba(180,122,234,0.8)" font-size="40" font-family="Impact" transform="matrix(-0.13363148965466312 -0.1336277663733844 0.1336277663733844 -0.13363148965466312 201.313786696596 74.28040740998705)" style="pointer-events: none; user-select: none;">-=1234567890=-</text>
  <text x="0.0" y="0.0" fill="rgba(163,211,156,0.8)" font-size="40" font-family="Impact" transform="matrix(-0.18898083225804047 3.5103432538558296e-06 -3.5103432538558296e-06 -0.18898083225804047 203.20366522604147 78.05998895171533)" style="pointer-events: none; user-select: none;">-=1234567890=-</text>
</svg>