<svg width="600" height="150" xmlns="http://www.w3.org/2000/svg">
  <path d="M15.576756687053404 18.91692733424341 C14.877838942756455 16.68430154192771, 15.662341327035023 16.674394103216983, 16.276585482773214 13.380339561848942 M14.624396081195187 18.971528851959107 C15.744213396287904 17.605321231481966, 15.870852814400621 16.45698705535655, 17.56923461381973 14.378056795921651 M11.000535844461268 24.65417057419623 C15.509232640565301 17.951442056827403, 16.875575348855392 16.486149256783477, 24.096794895046685 15.8399021279061 M14.318042554530365 22.977083096079113 C16.72681672143071 20.76311261807861, 16.689551810958818 17.890927664198685, 22.338365740659384 13.861854969107142 M12.312330825372214 22.00819202604694 C16.89320580576947 25.926526389141287, 21.043506022123893 13.377074740633162, 23.976745446589263 13.580564190386 M13.143263090509976 26.67794324342553 C16.954400051166147 21.711875918085966, 18.61994292009547 17.498346183560002, 24.14179653773428 13.226202606623843 M17.380642956822413 33.27984675574673 C21.289154043578804 25.801740627149698, 22.49212113311478 23.81804129327405, 30.17648490479573 12.695517991476834 M13.543011785170137 28.727712938273825 C16.053721269283727 26.50607053939649, 22.89642910123942 22.46952387358668, 28.549005495165545 16.136316176678932 M12.777534385642753 36.70303538435859 C13.242097427989506 30.707682470017765, 24.503435791214514 23.264358246162885, 27.941366847912548 13.709716047283038 M13.025040242810064 35.06164944545447 C18.757730312446228 29.456024711404588, 18.54722723456851 25.208039140812133, 33.95000143379934 14.224354239926015 M18.859482431222347 37.056404562602474 C22.830345923306197 36.89331428880623, 26.342477768625344 31.48219900707703, 35.94334444092931 16.275491845450148 M12.83320508604055 38.407890813696596 C20.881457634481308 29.87621311051589, 28.45681494022722 20.5032494589654, 37.686602588040046 14.626847377606921 M16.06670736005188 47.166763279834925 C24.927265632588075 32.28768154088166, 31.153852201370427 24.57618479605061, 36.93014944804574 12.014375108359431 M12.666453570246375 43.826367354687996 C26.267331542544582 33.28182747976687, 34.639000331030104 23.33756027138, 39.80942366907104 15.405049182383252 M12.843780121757959 44.97977182964695 C24.706908022586816 31.125458328812798, 38.32276661039583 21.572789647138478, 38.66777137295702 15.91182003829843 M14.979248762316814 46.48326948143088 C23.580428268055442 39.33274836612972, 30.677642946544353 29.463114831383876, 44.14151116863013 13.73435264465165 M15.980989549617902 51.39346061034783 C25.579353472523565 37.79130791546571, 33.9043012124761 32.631680954946454, 50.80005349331884 14.863878714235454 M12.433394813681929 49.79407789091808 C19.040476528760053 39.731059487896104, 25.642707355387103 35.68626301894068, 47.183445071175925 12.860662868144118 M14.139646257127453 55.93967074710129 C17.57821275520638 46.46784424298296, 33.510682000088906 40.08814176258587, 53.82068703127737 10.0 M13.669440542745065 57.11969238555962 C22.936191844253557 39.88719418809628, 38.99981453977716 29.009439288299617, 51.019826093766966 13.230436582009105 M13.264125921710786 57.5714734342682 C29.51686146886459 36.69536080803326, 42.15176100559455 18.51638786586234, 52.579080919428776 15.983412715728804 M14.455211443925236 58.87158716868324 C26.763768877269257 43.64882385227393, 41.26740646221708 24.850526514598997, 51.65818227269028 14.47495465733418 M10.555259742233915 67.38422496301501 C29.759128279353575 47.175273653056486, 40.471134770072325 41.699118934523966, 52.895577482960704 14.438038674592704 M14.25037539453902 62.089401248648116 C29.80853467456771 50.759282585163795, 37.9463371219164 39.85265897379289, 56.97158967457952 15.167429742535262 M10.385517116001836 71.43768798515804 C28.241606968901124 52.87719504897893, 46.60321940355641 30.459881342562667, 56.211059456331185 14.131337992025735 M14.06081835051475 69.29164217021525 C31.696361110353877 45.72727601612242, 46.41826601380734 29.179748306350767, 59.51445601222525 15.564061911313246 M10.0 67.92429531160089 C29.66665390105652 51.51950416036783, 43.58828942025693 36.33293635530144, 61.621394196568076 15.5019841161659 M14.503114869475354 72.15450636340348 C30.884258400994298 56.91198795659191, 44.110639516750865 41.21731146233507, 63.926699573279706 12.369867777100765 M18.719976605402564 75.61735044223592 C31.485779990383605 55.167065232768266, 49.08907565973115 28.89260435396585, 63.83230495837222 10.185399057362176 M15.247743450930443 76.34924710356961 C36.833155676830046 56.45397073360612, 54.08699505326595 32.583350584142735, 67.97135300651689 13.41407578428354 M10.414308732109077 80.26338284256359 C35.89950450849625 67.8378545867507, 43.4146598032643 44.23345000661225, 70.75416852444516 16.481948705448673 M14.854895379204237 78.81724283717888 C33.83161427454823 54.01540715276479, 58.05150540798573 27.99050020225873, 70.28984152205655 15.395520132911415 M12.152997156820817 83.58034787253526 C26.16017658309255 70.52179552468228, 40.77173256140898 50.850589822445876, 71.82269448683107 17.033638629764084 M14.303804378192666 82.71701455164711 C26.794549897399833 67.0161376899688, 42.04654052054545 51.89221582587496, 75.85025962771397 13.612620587833007 M15.362819634844186 88.82930343951028 C31.928428866471734 58.79314043602034, 60.45166259985578 38.71180099288799, 82.84853976516428 13.190209034731794 M16.209394794459342 87.36769974508006 C32.087347611593884 67.7775495252985, 47.05980812356157 49.782285357662786, 80.39497953672725 15.469811472364285 M18.175404928110453 92.7988477048098 C42.311712968681206 68.8406641435482, 59.96129557245979 47.776639781412754, 78.39787339131769 17.911591751531475 M16.54410677739392 91.83217099871653 C26.444060490942405 73.10080766825715, 43.19887017257642 53.64663059603554, 81.46078383917481 13.822596322305074 M15.600537552175979 93.49670578594433 C44.61241350980865 67.44350343840429, 70.91224381945528 37.19158958716434, 86.40821583225798 18.26786741176251 M13.840766693104001 96.19784305981939 C39.00545174099153 68.6703852483708, 64.12407333805004 33.69308761690316, 87.81810010991924 16.259750287658107 M15.164106152699674 95.91545428528487 C33.82830260914048 69.75955969530803, 57.45961634065057 44.27243814104166, 88.54132957950006 13.010529280829672 M12.574099755774824 99.8974898667591 C26.7952286600015 79.85146124991662, 50.336136767340975 58.77498016966489, 86.9476802437116 16.27950044877936 M14.379035367801379 108.4819862249347 C32.8151362274796 89.09318349371871, 52.71755333419384 67.53008111503269, 93.28329470465192 18.415864450513737 M14.505184686197595 103.38610850475655 C35.513478301010394 79.41014704202021, 54.61728880829304 59.119557955259985, 92.40793806047284 14.620088989424389 M18.515024537385187 106.56299562581589 C50.48962739315519 67.83884531307424, 78.1887135042765 37.72119356033972, 98.69079225613947 12.010914262536545 M13.042139256612643 108.46714191798037 C42.45358683374823 76.88543430970792, 72.03390277583304 39.16527832005516, 94.73526915112359 14.384841235158845 M12.767294454587244 109.3833931931368 C45.09248182825047 84.98853971261244, 71.71905420776713 52.850552362360084, 99.41971088483135 15.79938467358744 M14.99533832336823 113.70591555891878 C40.05248631235344 88.1696165489538, 58.74105279262312 64.24385862802649, 98.43665190287777 12.532320280993446 M15.080192556154543 112.39432743835675 C36.788386446892275 90.77201278045038, 71.17508919184166 56.95055870410355, 106.14828739413758 11.231076157659459 M12.359327867719003 115.61398548907786 C32.70316700274233 98.19697503046586, 51.22075215727659 74.82613534029161, 103.03038381217632 13.51601452209853 M15.702632667225373 119.11152757085036 C47.948925348269114 77.62411951936764, 87.73505398394994 29.510977977311846, 110.61817920029111 13.440972323788117 M13.500708746346277 120.74968995601901 C31.63546995071573 99.87243955630782, 54.68621644811071 77.61789551424324, 105.29581249015118 14.7453149076634 M11.006427101936566 122.21060360038882 C32.34457529707896 98.4021523489915, 53.506739588045434 70.3974665662094, 115.04800573250446 10.108132831690014 M12.14718452006278 125.44373821281019 C39.64694146487207 91.31457616771183, 67.05218232185501 61.7286988333158, 112.80284165016062 14.421491119875938 M16.42546067244166 131.56704165438336 C60.08560978920681 85.80651736736748, 93.81765097532724 38.527832123272184, 116.16137248336923 16.045810338734682 M16.36606562445826 129.49976126712875 C36.619446015576386 100.83215262880847, 63.817297802138626 67.67973667967513, 115.47645572175094 14.857288754367076 M20.696033568421967 129.1859036822703 C51.99043972140382 84.02615810847954, 93.44892914071761 44.54235513684249, 116.553345938046 13.170804873548477 M18.29604622764552 129.30201801208455 C49.683303736456395 93.5181066544405, 85.27601704399007 51.40746799486042, 115.63011433803939 14.38616479582916 M20.560798774413826 125.57486217258688 C52.38056315855388 93.71007483193159, 74.64950042700531 61.602869989653435, 124.09736973882505 17.79957360618002 M19.26093153554922 128.06290829035137 C46.67624207939198 106.30029054225155, 67.04459202481337 79.8760597337007, 119.26243212285316 14.267950640288731 M25.81005203886886 129.7631725696044 C54.381089501249875 89.11890061210892, 78.32181773263238 58.35477562529529, 128.78502609671784 12.914313820892701 M22.892149833080822 130.23349002528488 C57.18922863947972 90.45865958063506, 95.23773014908679 41.965709421686796, 126.90830514681302 12.643046196978162 M27.777117284701234 127.46283941641477 C60.428126618108706 103.20970683154862, 80.54493350466393 69.75824007100846, 127.85092832502315 16.3505305752753 M26.62189210007284 131.7235157181742 C55.92806771649694 97.92619572760768, 82.8293482497944 62.82550970708252, 129.7470162849708 14.943761867487595 M28.34833322137078 131.07980548568858 C60.41481329081577 103.36997218779031, 88.3020597099866 70.84346237258073, 136.50555575621746 12.688268249223952 M33.91715908918556 128.35748004397126 C67.27926477543596 98.76042630410029, 94.82677732435926 65.17696296585461, 131.50604698799805 14.224088557604304 M33.60983443892337 126.73247288988465 C74.02606386394163 92.91720999826191, 97.25665966458936 60.8015309213362, 131.71590198053923 13.663064720219907 M33.79205251286314 129.22685266159974 C63.36975346266348 105.08956193719459, 81.34485119885679 82.56788754463605, 135.93210115736014 13.336010169962137 M42.10547783004043 125.63592516885379 C65.1453086265247 94.90872363250236, 100.11020629264286 52.71021561239772, 139.72418901148524 16.299913114224324 M39.85395181307672 127.34414311563779 C68.30288786886754 94.41434433680762, 100.2834328812634 57.73118594288623, 141.20421690238058 13.876190154074166 M40.907488334377774 133.27545120648938 C69.61586578590092 103.80114408493853, 98.78837526990569 61.945752332659865, 139.89621198454262 16.5003109203286 M41.138746932033825 131.65967666400286 C56.12543246753461 103.53906812116038, 74.71689459578985 77.92648391759523, 143.23069545381315 14.524450808325852 M49.10519894839288 126.36985837243802 C78.86901097763257 107.14498303865308, 100.83691619118653 77.64249174544088, 149.49602404098795 10.209362533340283 M46.56238392029576 129.2514281635709 C70.70140162216532 111.3339995588438, 92.68635836913106 85.42197140564349, 145.24670846259482 12.863332774715559 M46.271836994036306 130.13930004367816 C96.45181128986627 77.54119882184527, 137.34510954730519 32.858578508094254, 148.17117305312246 11.634985509360945 M48.12154347915893 127.40578066235892 C73.4916245008618 100.73845508071567, 97.23873137994167 73.3344109019664, 150.03573057398393 15.294932334135709 M53.15585303717296 127.22187976184824 C81.85555433335986 87.8083267025566, 116.22736068175237 52.807003524372355, 152.32702159205246 14.663443166198888 M53.9220564339623 130.71219136635096 C77.39647123216997 99.43261341252193, 108.44072363842358 63.89124283466061, 151.02451091624008 14.114973978078865 M57.28338569567765 129.0140868094512 C88.87687585113542 90.951025798989, 129.8555056720383 45.353010546971674, 157.1001748471905 12.318996856674588 M58.30653853945242 129.97682804902496 C84.61674093205013 87.67494335229154, 115.62905450444336 54.008901216106395, 158.44865289140444 12.658934379642218 M61.74645851773889 134.23768079131034 C84.81480047166849 91.4014185455374, 115.39276016181063 60.93555756167047, 160.3759803392243 16.009943867654954 M61.06845840992307 130.13656376540092 C91.1860088052841 89.82434283397613, 124.35635625002472 50.39405714681822, 161.19993697234534 16.131840939084967 M59.66764702792915 132.62020667921158 C95.06301981240642 92.78570048859754, 121.3948532450603 64.035254021426, 163.03486693865608 16.016812882150248 M63.17131619146497 131.49038728469202 C93.24509222156854 92.0688930511153, 128.06184817589167 55.37968012124612, 162.274815536988 14.224676500772873 M64.08486372447345 129.58160098845477 C99.03647776160383 99.11348120749537, 138.12400543611585 55.08713076500015, 164.05495182267467 12.706385902054024 M69.49197001833147 131.1698882693981 C96.31447076322843 96.34497947310788, 119.03982609015895 68.57949937014999, 168.8560945287363 13.493721814092467 M70.61955911968573 131.60781514030833 C100.36801754273046 85.32597277091806, 132.13807712988506 48.26308326554557, 163.538344464011 16.078607535948663 M72.32580555536458 128.79607242257623 C99.89743054023793 94.54684319175726, 125.20842677077127 64.04798305570381, 165.83988897360683 15.94616294573774 M71.22527324059837 130.3952137186722 C103.89087613948936 99.08898048981948, 132.42191439389413 58.66687261172399, 165.03712071456812 18.5106546139597 M74.85918512490062 127.99462970389769 C109.95314377878884 99.48971140813666, 140.5847190716558 62.053777381937735, 167.7893761251859 21.934055190560088 M81.35278232609471 129.9801696032298 C101.78478984108216 96.29528197751289, 137.57845173370475 66.426922164546, 170.84274270651133 22.606392617684122 M79.64028565627586 130.96515363212 C104.85593978177602 99.86957505699358, 127.24791803048186 70.56007488155551, 168.3531286615251 23.826318611270125 M79.46271964911713 132.38354223184695 C98.29201935620688 98.46176529799138, 121.5256809031895 71.67608823703878, 172.07464210147614 32.77885097969523 M81.75861942177889 127.35770912967058 C99.98707907337129 104.82713251127015, 125.18411798242693 77.31325013371246, 169.8526219959062 28.578133507848996 M88.69707581011508 127.24174594374901 C109.44012846845578 109.79213358933123, 131.2922026084873 80.38173040601106, 168.72494611026295 38.081598841537456 M84.90188439081967 127.51299024964594 C115.8772202484034 96.48314243765287, 142.11950473674176 68.41077482946457, 170.1290957883258 36.06935695046011 M86.70688645922394 131.39123548501917 C113.34094992712951 92.1367457777684, 138.2585768624731 61.87544899177736, 166.72285237448534 42.970693973661405 M90.58427334921703 131.15705883102405 C116.99734588391462 98.56849725166877, 143.79851024422888 70.85501511717638, 166.51669051619726 38.0639517836283 M95.649067863856 130.80210500098025 C114.60394264697635 92.42337987923165, 146.93644348443405 55.742540353837995, 171.69294798885545 46.69637756004755 M93.69023665047797 129.99329545047306 C115.35832254339311 104.08748377875654, 140.41994407091158 77.89344185696116, 165.79003163610395 42.14855740611424 M94.35507310125826 126.9106226690341 C124.94910392307784 94.78904208556578, 151.6970277917972 69.99614587968493, 168.07340091966591 45.34918981190207 M94.46142908346417 130.59466506010503 C116.91824414788755 100.2689528880491, 141.65151182824317 72.43588287254165, 168.3895434862738 44.36864033975255 M95.01107044970945 126.21227664880843 C125.26131091640568 106.05992022867048, 150.09745218558834 83.65605379624144, 164.30076404410622 54.27753950016005 M98.8399640331865 128.82190253873355 C112.05105475553077 108.29301786711005, 130.67351585717353 88.60465014308484, 165.9433574004461 51.46713416333112 M100.70070528550676 128.9951654390788 C124.61812876626387 108.21155082447218, 150.87790645582913 76.49875137277829, 172.57197285002263 55.32644734594328 M100.82618825728383 128.64216772517847 C127.44151879961117 102.2246871855435, 146.2378091114163 80.48067865170404, 167.6051802444481 53.669467533247825 M110.93303674025265 132.05132801592265 C127.30212298060066 106.40348489973438, 145.58285130647005 79.56413599575284, 163.81492740254123 56.53023963900907 M106.57137614533639 127.96233719916941 C119.9430358652915 111.8117740673321, 134.68218914125617 94.54855006568128, 168.7405350461085 58.57167980219474 M106.95344091091488 131.2037820531598 C123.53296595120797 111.34535123062984, 142.0937973635721 100.60065049207665, 163.78819355100228 61.946003547361805 M107.80361091009502 127.95521511736985 C134.08486730165748 109.8006601605879, 150.38944084735755 92.67051809240488, 169.36465161823648 63.1701118918662 M115.53538625308326 125.37367800747924 C131.02968429016784 110.25727985444752, 150.91990248278785 89.78417607386257, 167.98699911404867 65.77313370112563 M115.0138099963408 128.91581698253617 C127.95405567800286 113.43288785707267, 139.67006557210652 97.03076581406364, 166.82525612457295 69.13168232272739 M117.30543052158686 125.7359199522443 C131.68078295179834 116.91729556231667, 145.89588107461816 96.90452245491748, 166.67302977984048 69.82732344451915 M119.03666292208587 129.50851113381322 C136.80691217684551 111.35543210819098, 149.9632751583742 98.00515699182516, 169.96666345514137 70.57428340988434 M124.2995700255432 133.04903834704078 C143.32553121735936 106.005865891837, 161.09595766132946 83.83695815217614, 163.4996848751063 71.22983180632363 M121.98448158678849 129.90769975564226 C134.6211911987769 112.77060662375543, 149.71643036168473 94.4458014743964, 167.2969478877962 74.0727158891066 M125.20662128967889 126.66417518970306 C140.7913141604089 115.60142466551525, 151.39628761350008 98.01523388261772, 166.43194006942815 75.66788621444296 M125.68991792046732 129.95811917681692 C133.55408207173582 116.35772973715501, 144.93740166915964 100.16620584974325, 166.54966810316574 79.28427540769098 M123.8122921221565 132.94547496168883 C136.73766009475725 117.82013671552579, 151.86432174166765 108.76135729763044, 169.4384121569836 82.5441209287203 M128.33652585421814 127.7910796580062 C139.25803511700877 120.12670933299373, 148.83772556723054 109.88462634339933, 165.79382490224538 81.73375365342969 M130.82547218605748 127.43599654122023 C142.5619483126853 114.69084381191136, 155.90938107362618 96.96405562326859, 163.70774738277555 87.91885651654519 M132.87335124792972 131.49363563235062 C142.39997983116848 113.16425146291589, 158.1000047235333 98.25691675563958, 166.42014717322326 86.69269415631538 M130.68901930813513 129.61599731158802 C138.5518415880552 119.06203605398585, 150.69669436097496 116.45124107331696, 166.74597524602572 95.99208692201184 M136.86025452554622 131.44145496611608 C144.566429260916 117.4395566089088, 157.80939371951916 100.61522194063464, 169.58660065633813 93.01143867210752 M142.58761421118402 132.90324846800658 C147.95338249181273 118.24586486524862, 163.13224081364604 108.22865222920198, 166.75411260256163 96.13046789214933 M140.76304372193718 131.00920200544192 C151.10749369922274 116.62484443006102, 159.3993940223833 105.8406815122789, 166.68857178532903 97.27905355806563 M138.05731381241912 132.05277094018027 C156.66860753094443 121.02108243670023, 163.4622339307006 113.2123547145083, 170.78740424704614 101.03837842592107 M143.7321320107153 129.30119211729 C151.46433441412427 122.30391692994104, 157.05849148879625 116.86413769954353, 165.7708885576592 98.22476777256428 M143.4358893911869 132.06298665521456 C153.4779734080368 124.4406375987052, 163.35171838042487 116.11400094166703, 168.91843138951435 100.56937019528019 M146.23521952683598 128.75540874522906 C153.9633624015936 123.45950595696958, 160.6248212584636 111.21157086528328, 168.7618199018723 102.32275821429387 M151.6442921090118 133.78959400511982 C151.36244571720357 117.28734827013328, 162.1307478754823 112.37847260622146, 167.2787651071457 105.7557782285004 M148.89588756137087 131.71071188794184 C153.85518093217064 124.88982005727554, 160.34429694094146 119.8720915908601, 166.77994451150374 109.720528817043 M150.1634382339787 134.05177305141547 C158.86606275402391 120.79940707571507, 158.27146186301894 117.99025363640801, 167.9772689955495 111.79185688387692 M152.6337284504362 127.36727384148739 C157.92719912250044 123.74542581933262, 163.92902971904024 118.49126518234252, 169.31003055410378 110.09731714787065 M152.55598199780246 130.6686343524703 C163.91891481041097 123.64551573712822, 166.56374658341767 118.24628895120614, 164.82074681382275 113.26587902769269 M156.13582758871473 129.6819115200175 C158.96253004584722 125.83941027292289, 163.00105296243055 121.23489672910536, 166.33981539519053 117.67585743601433 M159.20752148181185 127.83116358823031 C159.5997989296565 129.9520025027586, 165.1358356543476 120.99280673954658, 165.43256034254958 116.86866620355534 M158.86716070122054 128.0246800401054 C163.55276456479052 127.56323572375098, 163.68813992602583 123.71269759359669, 166.46010466445512 120.9795210607993 M163.3081263354709 128.99714810219575 C164.79698526127373 128.65425635286428, 168.56453497508346 124.81398739422286, 168.6216905147736 123.33254432699339 M162.8943229898166 129.9813499662432 C164.79806661053885 128.29890901728444, 164.99936178862356 127.54960985148627, 167.48933981820122 124.64788712039402 M167.10343668049876 129.88770946969444 C167.15712770654247 129.7369464656501, 167.82693432331087 129.5168232619687, 168.2422599432402 128.85048407179977 M167.15268806209838 129.5295885735046 C167.26628603004238 129.22172925500467, 167.72837715423796 129.08098104663662, 168.19046518866983 128.51673503150332" stroke="#ccf" stroke-width="1.0" fill="none" />
  <path d="M13.811964039802689 15.575086435817568 C48.910031790762844 19.405147365043447, 77.61466308778105 14.531268464141817, 165.7675550317333 16.462517475569115 M15.743666802683634 14.261580988832648 C62.82338586342149 23.78813210565839, 108.75811344165052 22.974856188304457, 167.9401166425816 15.931563209607276 M166.963495807172 18.151471490138874 C162.7190409097237 51.523644500388436, 165.612912773711 94.7247274210406, 167.2465967739763 133.83288685877346 M170.07834278243558 15.953461861799013 C171.28393701195387 53.786609051228844, 169.9794518785962 87.69571092658097, 166.5588446969559 129.57270951618685 M164.3604543837518 128.73220062482687 C118.64447867740722 121.71266258859806, 65.6514839257216 124.82378304496652, 12.784494422556605 125.90512406381828 M166.67395380565856 130.36710801610405 C130.22707659897173 127.96442702806311, 93.93958311140645 124.55511070356825, 12.763644244014785 128.39212726804055 M14.860973066673779 126.63282317620343 C17.81196586609721 95.44630954075191, 14.87142258382687 68.5117101976975, 17.02877207742236 18.664201166201423 M13.134383882006944 130.15782967930352 C22.185990735657356 98.31878289888249, 19.255623858205155 65.2410132558312, 15.583983853223884 15.142358497447319" stroke="#000" stroke-width="2.0" fill="none" />
  <path d="M201.1942473405159 20.836720207010487 C205.99358403080302 19.52227738227029, 214.2055674121369 21.608849767470232, 218.9825540683082 24.12235613289012 C223.7595407244795 26.63586249831002, 230.58126884353294 32.66589992088624, 233.04082504832456 37.59342930980977 C235.50038125311616 42.52095869873331, 236.17636068624827 51.26259635135609, 235.37959543358554 56.972552059047025 C234.5828301809228 62.68250776673796, 231.33178490920517 71.50700551516718, 227.72905669723968 75.65980069441602 C224.1263284852742 79.81259587366485, 216.54159042832987 83.74589992680534, 211.36140735381557 84.65785325403924 C206.18122427930126 85.56980658127314, 197.7364801513096 84.28076667289474, 193.19450286714428 81.73948954264203 C188.652525582979 79.19821241238932, 183.37705676119003 72.71278961358878, 181.0815587927136 67.71600571902118 C178.78606082423718 62.719221824453584, 177.1277142602552 54.04214318888026, 177.89118307730152 48.4275969121914 C178.6546518943478 42.81305063550253, 182.0326038606185 34.39991605975228, 186.17135090635568 30.28569720776207 C190.31009795209283 26.171478355771853, 201.75279138865506 22.387734169145475, 205.4828300488826 20.999471232256667 C209.21286870911013 19.61120829536786, 210.95508717120637 20.54807338633401, 211.03827530787257 21.030610961836672 M206.05188441679238 21.422228515564996 C210.8234701281775 21.001462549873153, 217.96842559156676 23.93888825598357, 222.29491283320016 26.781491390374384 C226.62140007483356 29.62409452476519, 232.93434872136254 35.08522392063433, 234.8951326943484 40.372916078170356 C236.85591666733427 45.660608235706384, 237.00723152171614 56.40837991954235, 235.36680598643918 62.032772440614565 C233.72638045116219 67.65716496168679, 228.09232718282178 74.49965835381755, 223.95896245916853 77.8688662186518 C219.8255977355153 81.23807408348605, 212.98079701812975 84.38487597603266, 207.81104116208428 84.49415820617625 C202.6412853060388 84.60344043631984, 193.88378958437917 81.69944523947808, 189.49392341886534 78.59741441960911 C185.10405725335153 75.49538359974014, 180.07630713218308 68.800240426176, 178.54526672532546 63.81395274038314 C177.01422631846782 58.82766505459028, 177.72340369683732 50.6034350098222, 179.28698737314784 45.35549651432335 C180.85057104945838 40.10755801882449, 184.95608298797328 32.60125274211456, 188.96915790072902 28.82769610372415 C192.98223281348476 25.054139465333733, 203.5375669527555 21.49442470602328, 206.0408201248528 20.19845225838732 C208.54407329695005 18.902479810751345, 205.8614729377919 19.646055095816436, 205.65751238137753 20.18787978615103" stroke="none" stroke-width="0.0" fill="pink" />
  <path d="M220.3713124861311 24.57545895408626 C224.9340632989998 26.7529847415274, 230.88253114157257 33.47202267057037, 233.2014486069382 38.56335687177554 C235.52036607230377 43.654691072980704, 236.72549304749168 52.966975175135275, 235.8307622552351 58.517686962120706 C234.93603146297855 64.06839874910614, 231.09324592009716 71.60286992572964, 227.23657665856106 75.56810211834507 C223.379907397025 79.5333343109605, 215.38720755251722 84.12208527199093, 210.11963384499455 84.95256824622362 C204.85206013747188 85.7830512204563, 196.57930409475912 83.74896476672839, 192.11941860841 81.10465527989633 C187.65953312206085 78.46034579306426, 182.53194311721148 72.38821224679825, 180.38706393600035 67.32383833400986 C178.24218475478926 62.25946442122148, 176.99720482605088 52.96295811524388, 177.82022406700253 47.342162527973805 C178.64324330795415 41.721366940703724, 182.17448705130664 33.80329832643575, 185.87385887567794 29.851867752209344 C189.57323070004924 25.900437177982923, 196.68515491314673 21.185670542710426, 202.4827028961445 20.99929203313107 C208.28025087914227 20.8129135235517, 220.5259202766042 26.865375742870114, 224.52417876232965 28.609344355013633 C228.52243724805513 30.35331296715716, 229.3938277794059 32.43578290503706, 229.13775946764753 32.625749447421214 M202.8021053948923 21.374126493857986 C207.89877530145674 20.17343397068653, 216.7435808894977 21.94149324651798, 221.40642472684064 24.72358798346066 C226.06926856418357 27.505682720403343, 231.65932030013997 34.94270164505479, 233.88773097717845 39.921424740142534 C236.11614165421696 44.90014783523028, 237.2438517182089 52.613985975598425, 236.26249590709725 57.91507528404561 C235.28114009598556 63.21616459249278, 231.24749587351528 71.19619857231623, 227.34535890310065 75.26202012979039 C223.443221932686 79.32784168726452, 215.54921720995742 84.15363516693125, 210.24824943766623 85.02055233387325 C204.94728166537502 85.88746950081526, 196.4207109990624 83.96422432340867, 192.00557375449264 81.04146790940372 C187.59043650992288 78.11871149539877, 183.10097180016822 70.6795608362454, 180.8140011405344 65.53550957384027 C178.52703048090058 60.39145831143515, 175.880295032147 52.082852215544904, 176.7591026902672 46.7477928267029 C177.63791034838744 41.41273343786089, 182.78275630138887 33.82844318746467, 186.67271886133594 29.968446981560234 C190.562681421283 26.108450775655797, 200.07935937683203 22.351674310628212, 202.69218642324762 21.01448478733998 C205.30501346966324 19.67729526405175, 204.0117126513556 20.511127685717426, 204.09156583743996 21.053850159638642" stroke="orange" stroke-width="2.0" fill="none" />
  <path d="M360.29449917968975 19.041546977637267 C360.28657728149403 17.85841051720648, 361.1080078937836 17.438905563214476, 363.7084220289351 15.70596152357031 M359.7687584331926 19.765195100884156 C360.643491132063 17.662049640501124, 362.164623478306 16.307666290405592, 363.13773158772943 14.938244691611885 M357.3511486708632 23.139303628471865 C360.56895461545804 23.50591793152431, 365.65199820430524 16.083899492938613, 366.96017663080613 14.249642135555206 M358.0375227056518 24.675109489100493 C359.6411802395394 22.74111644964529, 361.4064393967572 19.51313465175558, 366.69803585813116 16.146959786300556 M357.2764419627631 27.828533344085415 C360.56230225003105 23.698809573505557, 367.91135880869456 18.409786726906077, 366.44573303226144 18.96018981117473 M358.78889276118844 31.123853649582657 C360.14233150008107 24.127044950304665, 363.77219425825933 20.00319922123235, 368.8550406850041 18.158495476033465 M354.3277344504942 35.193152285273094 C360.6050535690223 31.244938081453462, 369.6581013842405 19.92698807348205, 372.1558589373912 19.032596566094085 M356.3917774498163 35.203140755978225 C360.6788921725791 33.16383034704996, 363.11830955335387 29.384621111508473, 372.8229926438345 16.852857575241174 M352.7083066656716 43.49171376006692 C360.3133318951575 36.529975949711606, 367.6505713609871 26.256413275814737, 372.82186468385675 17.101084132916725 M356.15736166301724 40.39694864619308 C359.7610060479844 36.90561903468309, 364.47754810187524 31.031854033486262, 374.99644739804 19.753536868828093 M352.1779847197921 48.43311090267774 C361.73497709688763 36.6908092797047, 367.29930549146275 34.66653771649876, 376.7780606151168 20.395753105032966 M353.92339565335965 46.12867812303618 C359.2442737818817 40.96620554553584, 364.82860339825794 33.89409270462638, 377.8748085129002 19.9231092674801 M353.65363546285073 49.13661647910831 C365.49959611188376 38.312957491069064, 372.13769405633457 28.221352411179907, 377.58313797185593 20.467515772222114 M354.1550040990257 51.29268787257194 C360.31282612268683 41.94743487668753, 368.55036245719776 36.12194811410555, 381.1175130714457 20.60651705391669 M355.16822953817996 53.51208306853018 C362.2017468337787 45.491804616078085, 374.9270657135991 32.961542208628956, 382.92977078258116 24.165199617113487 M352.41720952525844 57.43609300455912 C357.8845638973171 50.81371714349635, 366.31044057626787 43.81244182507821, 382.3025066368475 22.440400914542423 M351.085566580294 58.42221566348105 C361.4874174767589 48.4626363439424, 373.85742342185495 31.323521449686254, 385.2834880706946 21.283280342482826 M351.29926955973815 61.34111538766662 C359.9993591829425 52.82203827330707, 366.1108607212156 46.505486562298316, 383.8246126412557 23.633435019730854 M351.34309980057935 66.27705024992073 C363.9054562743686 48.291159553133, 377.2473401216355 32.53800587315227, 389.6199913964649 20.61760412166909 M351.19399782135804 66.05445485902865 C361.90042452772565 55.25146726182674, 371.39783500345925 42.412360668288514, 388.21592841549614 23.73912663855181 M347.3349377557119 68.88123335930445 C361.87178750772904 52.349088855815374, 380.3464035465944 36.72695817796993, 390.0288003654087 23.115306358888816 M349.98992702818566 70.65063194906574 C361.03833691931317 57.297495455469786, 372.5090315457023 44.5225277824226, 390.9769936071556 24.23450614190807 M350.73193908062444 77.3519565145299 C361.7089213930277 55.86706159149482, 376.4679486875349 40.4586646773843, 393.47961931961936 27.610469107239453 M349.92748889838924 76.13162243451043 C357.83302265466585 64.9059070397551, 367.3590024481433 54.5465734160396, 393.85820640056204 26.727762231408832 M346.34419553180805 82.04785044509345 C356.8936553257216 69.44824835893962, 368.566037739251 57.09396170192968, 396.1948685395572 24.857587597214206 M346.1601332301838 82.80100026674478 C364.52093476975983 62.25514454867439, 382.82577369883495 42.27594255848537, 396.6028529722782 25.128363326036265 M345.4896170141015 89.98502616071059 C360.3268144610241 66.33275054979846, 377.2513935699966 49.51468838458715, 400.80315782459763 28.894582963093015 M347.3611444004931 88.68744864168195 C357.9844816958706 75.97834531168346, 370.42237247017204 63.56858962643014, 398.3837238203554 26.843783245755546 M345.71591063031724 90.80223752348009 C359.88520849432746 73.17111145991561, 378.1458570089012 59.167662940446036, 403.998155940489 30.42072630308015 M344.7586017809707 92.5607152104247 C355.3434768255774 80.25046366376304, 365.68093802836387 66.62373344694436, 402.9619756245508 29.584373877464657 M343.01902619890274 98.85196319594559 C361.8743140168863 79.36467509207864, 381.88688466183237 57.02123325616658, 405.8455578191446 26.499677282618137 M343.23063727245415 99.21406732866288 C370.089160712839 74.87885271550208, 389.25999076275417 48.45656329168134, 404.17009592276537 28.22314833767141 M342.35726708288144 101.231168245139 C352.19895784796705 83.6913087234144, 370.44405819515214 69.13252384822475, 404.6132750373922 28.937758163124776 M344.4693970879097 103.39020622007865 C356.4940057811949 85.3470651046893, 369.9608162508175 72.11019708175115, 405.77603924926706 28.739513896468402 M339.7345188060108 107.82173693395202 C359.7787308476681 89.60157256720797, 381.22190640560234 69.33357387788061, 410.0793914900445 30.264387365517152 M342.8153478961327 107.49457688223232 C360.34719749067006 87.83188090269438, 380.3960752859623 61.967138135546506, 409.573082855716 29.55229989257257 M340.2906512509889 110.59626102213089 C363.72582002685243 82.2310525962596, 388.1597136001361 57.38555278373269, 413.4499167432948 34.2525653064403 M341.38971143506706 114.0913707427205 C364.86149590463907 89.521861206575, 388.142435315571 60.25636738456585, 412.2899253918872 32.969865769704334 M343.07050505759145 119.725288657004 C363.18440005484797 91.78615479370413, 390.2495465069185 63.22652612447435, 415.66491558433427 34.11221252495512 M340.40368065302374 118.73774248161945 C360.5578215475686 95.20421976618434, 380.54348428956257 69.63440061980506, 414.353262229407 32.058976890428156 M341.6771403476311 121.66897920566147 C367.16483931749343 95.45289269197178, 400.01776314946835 57.921706933725574, 416.5111137158726 32.23897151845245 M339.1469083529457 122.96254343047354 C365.7936649019909 90.85772599688104, 392.4042912017877 59.03628274941092, 418.12306084409016 34.11758188195146 M340.0424808573171 126.72848848229388 C367.10457184151625 100.5685622051132, 390.9806598759467 66.05631304126507, 420.2538730102649 36.24433885573934 M339.5198536824703 128.75255651934197 C369.3403716259991 99.34617828052997, 400.4592308753911 63.45649147997931, 420.192526302857 33.776587939675906 M340.5461091327607 135.581633863511 C359.79791323051313 106.34040462226261, 377.2534875665299 89.25362035130496, 425.2960051370267 36.96372519327448 M338.7584399846428 134.1365129637003 C354.1721336905325 112.65528129189393, 372.4543044722501 90.2271353051672, 424.7132765387434 35.11764880080419 M339.86452148869 137.4282946847909 C364.4496981973468 107.46468345373613, 389.4284369416059 72.05011688659647, 426.47635427063926 36.05482811325394 M340.3699183929698 137.18970824685283 C369.768644341114 100.50677821022364, 401.44594781715864 63.88673270655238, 427.7425689729125 37.6949974215918 M341.61087542324833 139.83718351784646 C370.5760900718484 101.02530279741438, 399.4706511504842 69.73125415818386, 432.3402073312616 38.16312809267711 M342.34021511270834 135.4681662806499 C363.6338314807503 114.94202421206697, 385.9073926319508 90.5213171833771, 429.65808315768356 36.80238520910201 M344.8900146412951 136.7400339388484 C379.2440330236807 100.63634362465044, 413.0321560348376 66.26210579112342, 435.11239374499644 40.323602334867175 M345.3143780557642 137.19221275784616 C364.61407241268137 113.22584562288372, 380.4327910914336 94.9341893300287, 432.95952101467014 36.82867186983719 M348.33030210820993 137.12409853774625 C381.1714307325984 102.57956191990411, 405.42801848903866 72.47129281409404, 436.4882111360565 38.692658893756594 M351.98548703637744 137.39490489035387 C379.92174276319645 101.61705640165377, 410.4470233633913 68.11602882494168, 436.16908011041295 39.97401808775286 M353.0653409628793 138.74036469049423 C379.2383542663515 111.84350578998229, 395.6566697407853 94.53805654922525, 436.66162100060205 39.78292223570625 M355.69551742124327 136.13223771291806 C376.74991127219903 114.37444812903712, 400.83956865167994 86.9429419273915, 439.1689960674495 39.32984932161778 M355.5607784491035 136.37701928757048 C383.6344674337089 110.94169434244503, 408.27661112984606 84.95043820441865, 441.57794594441077 39.04584522809033 M359.33319459265056 136.2741821071528 C381.33217038873295 107.9974939259916, 403.91967518098215 83.15320298627073, 439.8852916826702 41.308845261889815 M364.4588889493816 135.18428427717197 C398.26001094469507 102.94381550661522, 427.78588635138044 63.142913481106646, 444.6400416146353 41.09567693042343 M361.3718252678559 135.97761356244632 C396.6282125174424 100.87509659900522, 430.6849802793056 65.36795098130929, 444.31758039338706 41.56025394697561 M363.6579940836021 132.52233500056064 C392.8313875595864 102.9385222315991, 418.66707330585575 69.87130271767772, 444.76171258633167 42.145785173722494 M366.4192431097456 136.40640311881302 C390.08547327474844 103.81075049760068, 415.7369539463512 76.62683854804342, 444.7225407995037 42.82446824802759 M366.99418860798664 133.88860201950723 C387.6111161558024 112.65935391788325, 401.92421976550963 95.86079318169544, 446.64965921127833 45.382358028950186 M368.14396035301087 133.9686506191859 C398.573464080108 104.84219703325024, 426.09802540124315 72.23190057923141, 447.38571595210954 42.30627301321443 M371.9989746787073 134.06560999510415 C394.18318231679376 106.80162824348217, 416.2947027711658 82.95584932260131, 449.2437835652068 45.744548411513904 M372.87550111404187 135.89055302516564 C403.2261826768176 96.56515950491226, 434.4781066857582 62.014238081116595, 451.6756915659571 44.01969699169008 M378.2521063231652 134.5110290977141 C406.2278050119303 102.22924508566747, 430.01414495857637 75.52507662332906, 454.14938684699393 44.175491189653364 M377.39956460367125 133.9985777433385 C394.4030000490726 114.16449544832322, 414.2398356878842 92.67916726778978, 453.4835259826349 46.283094334053054 M382.4712553596961 134.27310483021512 C404.3099180309873 106.28006164290598, 428.6461088584685 74.55548371363636, 459.43604754966935 44.093864024166685 M382.5790855290746 135.30144090831303 C411.62919284879956 100.12043876287856, 438.8126419966303 67.31092124035963, 457.3825770191635 46.94117496656759 M386.21878901845264 134.83418631295373 C400.13731066951357 117.92035488249138, 421.14619878691457 95.4836694343656, 459.0897420977634 49.36114578430831 M384.5832288533692 134.2060260340765 C402.6887514079848 109.21296849878516, 425.102919525916 82.27632914619174, 458.6796557980408 46.05274178080736 M388.09873131590393 132.9211995451398 C413.113658508777 104.80184174339328, 439.98103638600594 74.202905498227, 461.77169845053925 51.181871296619306 M389.8347649432775 133.16469060962754 C407.2018638513061 116.29684106662762, 425.4963056582807 97.0482241540109, 462.81228559825126 49.44316393291084 M391.2896876262221 136.03219067168257 C421.0875360070499 106.4278201717703, 446.3612117328297 77.23672264646413, 464.6542743991284 48.73547069602153 M392.81395428904943 134.5399130048282 C419.82005302878173 101.99777707702293, 447.64868252335407 74.18879430387031, 464.6696985387766 48.96081285228346 M394.5592367011898 131.3604652697784 C419.0466244672041 104.39269901694064, 444.6576145037592 77.90524733264073, 467.25271083470653 48.100267651084984 M394.8468568024974 131.47430591062525 C417.1931240949607 109.66621283803441, 434.69514116845227 90.6888452040141, 467.4558520196901 51.75280459141707 M402.99225088030346 131.92928752372575 C424.13122431913075 108.5542985615519, 444.1167170989446 80.53092425661626, 471.056361240024 51.03533692305862 M401.58462361266027 132.1612422507137 C423.27000412404715 108.7604881801369, 445.00272163523374 83.45460308498599, 472.04142115702376 50.93010576666069 M406.8077819035758 129.97045985348984 C429.1781124185378 100.40204095488336, 459.6298238475255 69.77694503365502, 474.5729110835308 54.329858164268884 M404.2757665911305 131.3003870322415 C423.253383534144 105.5202504591474, 440.6926183783404 85.85242035649532, 472.11730375592975 53.139855810949356 M409.2749975935153 130.91239939744742 C431.7501899245535 100.12590957921408, 456.93515986865157 70.75624628580584, 474.73598048578646 55.979494925502905 M408.9755351631947 131.23300869317234 C429.8902427226596 103.92697688722417, 456.29213358607007 74.00077104649304, 473.5816071925847 55.226700209145264 M410.8040894158085 133.9129519813398 C426.963468681572 112.0925824276506, 447.181255967226 90.90532849930568, 471.5282352637262 66.64194609928607 M412.24364186531056 130.75269867689804 C429.9284693361321 114.52137897751028, 445.8252525148787 95.39465550044153, 468.26965902662624 64.99360540336893 M417.3460705464413 132.30235255838392 C428.69525515162684 112.45778090243147, 447.9101184238924 96.04993442452455, 463.0549751179453 73.24804647519959 M416.8327200813311 129.99827996699435 C435.29435528202373 110.01824784237647, 452.0563225783361 89.25849633698881, 464.80232856082466 75.51591134124135 M421.9788280999761 130.08031879639387 C425.61830538973464 119.22590634027662, 436.67183174560876 108.34707649068395, 461.15307242187737 85.35561701703129 M419.29735638690215 132.53342366001033 C433.7084398655496 115.43410022217245, 444.1696834363905 101.38073591816891, 460.0456372654935 83.5812933815214 M420.15697622018325 129.41542072744875 C431.2565352896088 118.03502221067089, 444.3724869955448 105.75348625900509, 454.4783098663148 93.24185007797688 M423.7337986521685 130.13018396761998 C433.21441069308725 120.66020378564971, 441.508894756485 109.3617103084862, 453.68191938979805 93.5365453049471 M427.3865226470208 130.73808890552516 C432.92835157599086 120.49087462963297, 438.82588959637945 115.39299626410181, 451.1765976507692 101.56822122954304 M425.38810743557997 130.70200014560675 C433.3417333699922 124.12418950073906, 439.84973870547435 118.5550965179756, 451.34203459953545 102.92338145229603 M433.04792042474776 128.31426588296 C436.42951628609137 123.04066772455914, 439.23479510734086 121.75297351052447, 447.27812605661916 110.49285100183191 M431.89945612574024 129.83244785797146 C435.99001663203376 125.04583011801668, 439.1048423739983 118.70568626934454, 445.9552765786665 112.38600128577993 M435.7271371723091 128.12008062286708 C436.841916631065 126.30675108358042, 440.695735106549 124.36014743672152, 439.07476174960357 123.03019208274215 M434.9533902898387 129.83855008049036 C437.4944381002887 127.50114367057796, 438.47869330233607 124.66654992889482, 440.5689876490794 122.8885645065316" stroke="lightgreen" stroke-width="1.0" fill="none" />
  <path d="M361.2944795396039 11.57959449233583 C382.2307112735623 16.73058291384011, 409.1955075926449 24.41292938217849, 475.30263641557235 49.75378954933763 M361.201091290837 15.650377134414171 C406.08724499874234 28.09013861265889, 449.0168440516952 44.44565824869368, 475.7317612916112 52.446544229691995 M474.17411529260903 51.26280840347779 C462.0863676267244 79.3873270610124, 447.2308815788043 102.21880237836427, 434.0839905908538 132.34059342314728 M476.4108896904977 54.11141564060957 C467.3310679134413 72.17657228936238, 457.3995301956754 91.58586165628448, 437.9039763868982 130.94337263687174 M437.7586116452666 129.65615945032926 C408.6181695734971 133.4925893499985, 373.18875848931975 139.13034239311506, 335.55856965076225 140.0 M438.05410134764617 128.25983761724382 C406.1661559245013 132.50625118527634, 373.23164129031295 135.09889715680245, 335.8428743842667 136.93713646495513 M337.7329797627764 134.32077343064861 C345.97198751811476 90.56624337318739, 357.0775904059012 46.906382646727515, 358.44217857222714 13.817916994768083 M338.42630448974035 138.4567907656077 C347.83257918047644 88.5302575891439, 355.47040163648603 42.70786923061371, 360.3447592992631 13.642515704668511" stroke="#000" stroke-width="2.0" fill="none" />
</svg>