<svg width="600" height="150" xmlns="http://www.w3.org/2000/svg">
  <path d="M127.81203370574775 74.03359766153709 C128.81636123429357 79.38584067223525, 127.88296027774322 87.37433323561385, 126.26185176891391 92.47459110586126 C124.64074326008458 97.57484897610868, 120.52377901234885 103.89754053574268, 117.00464364688568 108.03531679651996 C113.48550828142251 112.17309305729725, 107.3938222072012 116.97207335972021, 102.80094933249279 120.05976617770983 C98.20807645778436 123.14745899569942, 91.8403641654196 127.36662512363313, 86.38549114882963 128.61993558311744 C80.93061813223966 129.87324604260175, 72.03639178473384 129.35405979436442, 66.43512922189292 128.4151692409385 C60.83386665905201 127.47627868751255, 53.707402660591264 124.87585660105358, 49.0437407298902 122.36066522694458 C44.38007879918914 119.84547385283557, 39.20961524142655 115.71858736751952, 35.34404968388584 111.64722674687829 C31.478484126345144 107.57586612623706, 25.5095333711998 100.50152722837632, 23.273303679618863 95.21826108933647 C21.037073988037925 89.9349949502966, 20.87170348002585 79.43997459414956, 20.435851740012925 76.42545248661258 C20.0 73.41093037907561, 20.377859361938064 75.31704785621834, 20.367625412866033 75.12144703908994 M127.04731605769163 78.72138103137011 C127.69305222113772 83.95025826039388, 127.19793897248451 90.0818081916041, 125.13076833598069 95.13582953480348 C123.06359769947687 100.18985087800286, 116.96823449082251 108.06256227640478, 113.26617848099949 112.41485665269929 C109.56412247117643 116.76715102899382, 105.23268154789659 121.5641610231053, 100.45039493716035 124.15112537676708 C95.66810832642412 126.73808973042887, 87.09459011204166 129.32257135422242, 81.38426774275788 129.6612856771112 C75.67394537347408 130.0, 67.81281208385047 127.81696955837432, 62.381579141935035 126.40922086269228 C56.95034620001958 125.00147216701023, 49.72009226069803 123.00359504693708, 45.176048129988196 120.27629437256417 C40.63200399927837 117.54899369819123, 35.48465563786514 112.57635732577504, 32.08795160386951 108.22721636687285 C28.691247569873887 103.87807540797067, 24.289403498667873 96.24788671238375, 22.53135457001735 91.2820213132163 C20.773305641366825 86.31615591404888, 20.69218478643873 77.54553318020889, 20.367625412866033 75.12144703908994" stroke="#dd4444" stroke-width="3" fill="none" />
  <path d="M152.8081008534807 69.80119449134804 C155.02610753796705 68.73095027863059, 158.18427000377704 67.65481456348576, 158.9915407273661 65.57802882940159 M153.22971597585965 70.51474966857081 C154.98167366238525 68.53119832229291, 156.92723958571744 67.49579030412445, 159.51237479028418 66.19378355321982 M156.5779152684892 73.31192561473678 C156.54743692824673 70.80489685923446, 157.93733872301252 68.6009093506013, 159.0265366262049 65.27338556255978 M156.2745276559136 72.92681795156588 C157.56258792485434 70.68994742926354, 158.15155628136097 68.14542821514995, 159.55152038520302 65.96981990839754 M155.37098795452832 73.78079028019332 C157.96717990279942 69.8224433261374, 161.3886227633281 68.38211953577617, 165.2665090046597 64.67980552634022 M155.4510706067552 73.19809711330991 C158.85547935956666 70.39281941207612, 160.48047845125032 69.27443848634766, 166.36217146384777 64.2863186633023 M158.60981001898574 76.11369071170084 C160.28732234481333 70.3949212686913, 162.50351148705653 67.28647640404012, 165.5569565070396 64.68417392107203 M158.1422917927049 76.29129458089481 C161.2324960432599 72.39928738344284, 163.10985696737905 67.55890726816783, 166.76779077062946 63.94802307095934 M157.92293878722742 75.01223891701638 C161.34608096187665 73.63650265083557, 167.03943066713853 69.63604965418973, 173.31655258652987 61.809119824744045 M156.92172604576123 76.10722602340839 C162.552905142235 71.98497009010924, 168.24902544771993 65.50389459367636, 173.5064787905218 61.47117333148566 M159.4584514152367 80.62232732926344 C166.413612423488 71.65751773373962, 169.25430406298946 64.85506161315321, 174.35825772604971 60.20151018543933 M161.38568016983126 79.6358122548147 C163.49594036676808 74.53650557572578, 167.48359523635708 68.07820106043097, 172.6494961002614 61.905836429078775 M162.4729647463772 78.17704355079864 C165.35021790042788 77.09209617985123, 166.89599013937288 71.18541623278914, 180.31824388915237 61.32358425621264 M160.44136892388542 79.59613582084556 C166.93434819255495 73.60276662250266, 172.9298078503081 66.8777003757898, 179.2624625149662 60.58880012977292 M164.64813991151433 79.97676804881452 C167.6286786220513 75.29933493032857, 173.89248693801056 71.653500931849, 180.92195073016813 59.75948296727533 M163.76482354217305 82.63725340369948 C168.2760523019031 74.31318657179831, 172.71914362254688 69.32772357322206, 179.67377011714203 60.29347609188855 M162.63520351367038 82.27911220468808 C168.93370474114664 75.84769663095341, 173.1947144986874 72.17338848983779, 185.69073539298483 60.430677456388736 M164.09419445153878 81.42133511291404 C170.67892934176248 73.38308725663168, 178.0632284242811 65.87104030985695, 186.0374925109181 58.932197454799976 M165.1984247295391 85.99074165603625 C168.97994430629305 75.88584619380815, 174.35151912928248 71.62275751250282, 187.09136052760235 58.721846369689544 M165.02933054188816 85.3016391574554 C171.09992970947187 78.93821112120786, 174.23754911934358 74.53092112920858, 186.19490685075579 58.07130430469542 M165.66426305946405 82.7223241491523 C177.26136551287732 75.56356575062622, 184.2142855678709 61.33008732833379, 190.5893024209308 55.963917753567145 M166.04230875937085 83.23008468828968 C175.84611200675215 76.20519543817164, 184.38181417402467 66.0956846930695, 192.21812053265003 56.13098117338282 M170.07373135438093 86.3811056764892 C174.68393342964637 79.17033987372021, 181.3340239958918 72.42876413230684, 194.24304920985432 56.544340785988666 M169.58975203767878 85.6818322612637 C176.72943883732873 77.44625288482409, 183.60239859550134 68.75398276238404, 191.80088128600795 56.86783999794079 M168.59446260669995 84.36575446248987 C175.94287311580317 76.47994821849835, 185.08290605792925 67.50798344539449, 197.57117402649425 55.3412633423886 M168.98873557022677 86.00179685530942 C175.92231894041782 79.61642539199785, 181.53623045922558 71.90782865248791, 200.0088885864997 55.540508725396606 M173.34167524454392 88.38041969969385 C178.9004628277905 78.95979854653406, 186.34351094886574 69.05179610239998, 201.11883181171098 53.907938700437455 M171.79752507775052 89.707716339578 C180.48197242164082 78.36138834321571, 190.92279489031358 67.14478452301589, 198.4311439241611 55.29156023677109 M171.58274598316834 89.99370075306419 C180.74598239560964 80.44290674055071, 186.2354661022292 72.14185736783942, 205.61196934761028 54.81185800822307 M173.8037535124005 88.01386921823783 C182.39573138559874 79.11996325996907, 190.06359303410173 68.90928265005424, 204.35474006247577 56.32362311495753 M174.89211626023615 92.08268799120235 C181.60127907426835 80.42410806798604, 189.5278074076078 70.87489115573602, 204.3634697006409 54.761316656472275 M175.6688100390696 90.63347741173312 C182.9783133213629 80.13843674562621, 191.400106851761 71.05821486153836, 203.54186439774438 55.915217978075475 M177.98726230138988 87.74857030036797 C183.40875901856188 85.52310763443413, 189.39202261653412 78.22162035497342, 203.8618933739321 62.60372789308879 M175.41836340368823 89.31668579151203 C186.5747153796191 79.92029636412167, 196.3397779173531 69.75426570751407, 203.2445259898436 61.8525835261795 M177.41673390570108 92.36494582738878 C188.84312994056802 80.62986633030603, 194.1642891945368 68.41106804722367, 204.45371074908286 62.39788878357784 M179.53722773472597 91.65474330513032 C187.13143379749013 80.7282038910076, 196.30689056615515 70.08496685517396, 202.72718079478392 61.124612452317194 M178.66557091924165 89.60324031789311 C186.34494329862102 83.78667539490013, 190.91546748539653 80.60051134729551, 205.16167389236827 69.13429221710967 M180.74908287577952 91.31128164769447 C186.36753778456378 84.13481495227856, 191.9319101105353 78.36925365841914, 203.00509763683021 66.68922990853784 M184.27574653929508 94.80112959434008 C187.41820866860098 83.24596812565271, 196.32955198840273 75.82194147642532, 205.34013941356423 66.77525225851528 M182.22003523656696 94.63296971958539 C189.28137103954248 86.10558793550008, 196.59878382871435 76.35230122084381, 204.56584579813688 67.27942712269882 M185.45179937781975 94.53075899405688 C186.7297528033717 86.66407857794704, 191.4656641714014 86.07200673953948, 205.13447975897606 72.72620163380975 M184.16200392626925 93.40706479440222 C189.10792664625134 88.51327555409405, 192.39193682757892 82.70642041033585, 203.80089671449645 73.30740892743205 M187.81179391466137 96.03820591235404 C191.00202376537393 86.35178962647964, 196.45442782848394 83.71970800869128, 202.26300099563218 74.33985298635406 M187.7316747109978 94.30938083324871 C190.78195803764802 88.89457234325296, 195.5537380232889 83.69585830243717, 203.6212564624272 73.08507679408011 M186.99163218725866 94.24922527779127 C194.089588578343 87.56342114332287, 198.94303044725717 85.47630952267619, 204.59899972100246 80.07964170112714 M188.87805841269306 93.92708739714075 C195.0050287739491 87.49577200624921, 200.3430359610382 80.95866699358406, 202.8580795306718 78.13454005150194 M189.72628890751855 97.12478522444525 C195.238825384028 90.87296354085929, 199.57917556652254 86.67009318774925, 202.0622587950591 78.07346081251589 M191.77445447425615 96.56526660053663 C193.88015770072 92.16787679643154, 196.64884440600085 87.25082615942506, 203.82879888960375 77.56290502090945 M191.13922475857024 94.574484184084 C196.00367780422243 90.7753246755948, 199.90421620716958 87.98982339067311, 202.8530418043859 84.33734173652617 M191.9717325602709 94.14186602498128 C196.72333328847338 89.74045967691761, 200.59814733886313 87.07766861891606, 202.79546664643283 84.27579697787232 M193.9980239559202 96.10898350087461 C197.57599084496488 91.46204919336832, 199.46058338982655 88.03484204685476, 203.74758293327793 83.17466964282072 M194.92395889202322 97.09822069384873 C198.19542067371873 93.10269992283045, 200.4207585345307 89.48676600385353, 203.5096295556134 83.67226116771934 M196.26232126060546 94.72853491027467 C198.29964884740303 93.2081858811448, 198.91837148902744 92.79661642627875, 203.0141346469168 89.17563340304919 M196.38241826613054 94.83816500018033 C198.9645844886423 92.84795906003589, 201.75846984859822 91.1161968219898, 203.78958026098428 89.73292766214807 M199.222839986188 97.68418094242327 C200.74303882358498 95.81451790217767, 202.12513403996797 93.10217402857896, 203.73698029336748 90.27969003936919 M199.28936033392256 97.51212595099113 C201.24257896279696 94.15829649640897, 202.44512125371128 91.27257918163114, 203.1984708301761 89.78571917575171 M201.70209739665523 95.19539805978913 C202.43944568593298 95.27235181464674, 203.15322207128463 95.48632469307606, 203.56782880775543 95.6959523111457 M201.4605031936791 95.13000017072983 C201.96308407166552 95.16483010234234, 202.46864358284472 95.23995531453775, 203.49796354584606 95.6561413569865 M204.22725086744597 97.45849657701098 C204.17465119680375 96.86130992034688, 203.95078390771545 96.65574402581211, 203.5592583441899 95.6927265424082 M204.36960843681678 97.58946610840599 C204.15912838213313 97.0572061636662, 203.88808702777348 96.68810335689045, 203.5323918981373 95.6369244146172" stroke="#ffaaaa" stroke-width="1.0" fill="none" />
  <path d="M208.00346597889018 95.02267420136175 C202.7755249748033 95.87449540012673, 193.7529641490741 95.43133734352827, 188.21157647331302 94.2736378812154 C182.67018879755196 93.11593841890253, 175.2894539135482 89.86042980414344, 171.06088147381638 87.30467778594267 C166.8323090340846 84.74892576774191, 162.73511365161494 80.16081453295186, 160.0210935417677 77.23529109321032 C157.30707343192046 74.30976765346878, 154.02546599487476 69.2163036234974, 152.96741407483486 67.80118818766572 M203.29189670793554 95.48311420408385 C197.96326338172796 95.87192676264794, 189.12399403702491 93.83060578284805, 183.71597305530855 92.38060943878037 C178.30795207359222 90.9306130947127, 171.18292323201263 88.46816727420283, 167.23842349649317 85.8164719102993 C163.2939237609737 83.16477654639576, 159.55995956509426 77.40493290448515, 157.4193081518455 74.7026403460901 C155.27865673859674 72.00034778769508, 153.63519818638645 68.83640601142937, 152.96741407483486 67.80118818766572 M202.18726180878673 52.374635542240895 C202.24287848408025 70.11555653214462, 203.56505337595237 83.79439796735636, 204.22880996859715 95.07328754148271 M202.8411814506426 52.79744660375667 C202.58372574532663 67.00791865899915, 202.53819441059218 82.18542511609327, 203.0463135113649 96.25503888621321 M202.8014688573106 52.72553456121061 C194.6116335339292 56.75250251683259, 183.3539540553924 61.45791168558364, 151.3553206752905 67.73920830975634 M203.0112902209592 52.89068906673185 C184.20599374278427 59.31595421764247, 164.3879923211582 64.45191428896395, 153.47107202855068 68.781930954326" stroke="#000" stroke-width="2.0" fill="none" />
  <path d="M355.0549433256503 32.60226889796232 C355.33450431494805 34.70170929640419, 354.0366109987511 38.28186056107934, 352.94512318137834 40.35437794059571 C351.8536353640056 42.42689532011207, 349.09174908805886 44.946792534403954, 347.77835787649855 46.4190514280714 C346.4649666649382 47.89131032173884, 344.7275581868043 49.606879361165866, 344.1891817709759 50.16943723171195 M354.2922670244328 30.214103092087 C354.50812366376044 32.407303453704486, 352.17460740348065 36.51650861742992, 351.6616906918258 38.68101974255019 C351.1487739801709 40.845530867670476, 351.6893146809615 42.731572363581094, 350.8728222800668 44.64417725955555 C350.05632987917215 46.55678215553, 347.22095409555817 50.602930053223076, 346.2184080191945 51.431719049046535 C345.2158619428309 52.26050804486998, 344.4935657082087 50.35877950431214, 344.1891817709759 50.16943723171195" stroke="#666" stroke-width="2.0" fill="none" />
  <path d="M407.1452034938095 51.418045465846276 C405.48418302878713 52.74429340931576, 402.6424310522555 53.73088763526597, 400.50325184379784 53.94943742957112 C398.36407263534016 54.16798722387628, 394.7465661607958 53.20774030739433, 392.88400877075844 52.87504409454735 C391.0214513807211 52.542347881700366, 388.8058735059637 51.902999889851344, 388.0862025768823 51.73146267725794 M408.2302576367656 49.94837661292658 C406.706886983888 51.36242859521144, 404.88433578645885 52.2429971807977, 402.72952854704573 52.92367066743765 C400.5747213076327 53.60434415407761, 396.06137493620287 54.665031055719936, 393.8648760406783 54.486199857192986 C391.6683771451537 54.30736865866602, 388.9530035964517 52.14467325424819, 388.0862025768823 51.73146267725794" stroke="#666" stroke-width="2.0" fill="none" />
  <path d="M452.26724572739823 52.01546665888003 C450.1342703354411 51.488079974805785, 446.66236555721474 49.540442410734514, 445.1856493669777 47.700583406228134 C443.70893317674074 45.860724401721754, 443.11877700155316 41.76962822497589, 442.4224711258183 39.74973996217082 C441.7261652500834 37.72985169936575, 440.912600139373 35.38985677455514, 440.5436101954119 34.234661654194355 C440.17462025145073 33.07946653383355, 440.04969897047766 32.37637253392984, 439.9625381660775 32.04843915976552 M452.06324566366527 52.82790751090951 C449.94991473983777 52.45293274327513, 447.8468868605152 50.71619999362473, 446.52958454555613 48.81734559711343 C445.21228223059705 46.91849120060212, 444.141619594563 42.14958290246004, 443.28123023060493 40.16887820083414 C442.4208408666468 38.18817349920825, 441.29145926218143 36.83071344243443, 440.79365545250226 35.612647586274136 C440.29585164282315 34.39458173011384, 440.0872057590412 32.583070423741816, 439.9625381660775 32.04843915976552" stroke="#666" stroke-width="2.0" fill="none" />
  <path d="M539.206927704252 46.05852425733242 C544.3482610165037 37.90368745353982, 552.733630326761 32.21567568780695, 557.6873862044603 21.256123311883528 M538.8550657673242 44.963146030606566 C542.3270396649926 41.01965967969572, 547.9705758268389 36.018934975597915, 558.0375303703627 23.446978158941747 M537.457681543892 51.99649173539365 C541.4561173326272 44.15181192523936, 549.2768902862612 38.81176945993512, 563.8279977066683 20.0 M536.7740217739059 53.53701335557729 C546.3263536978837 40.729836725907674, 556.9546490418014 29.29617141836971, 564.0243559843834 20.809450018747206 M539.9629208637825 54.81745565400166 C547.3279380324558 44.59642640327837, 552.6696879310236 39.38369198971431, 569.5092018495209 20.691789388128193 M542.1524034492494 53.56930299867648 C551.4559298004949 42.283723592776255, 560.936512370001 33.510600414764525, 568.5074674397029 21.898460113866307 M546.1374617648329 51.42393711313434 C553.1890566701162 47.44333986668913, 557.8398627556653 40.176901889206135, 569.5197113862246 27.790172525633736 M546.0601599400052 52.64301423741843 C554.3495519202404 44.36667662330737, 562.0625163680115 34.15830115652743, 569.4763540113419 28.478498496831584 M549.6985375270827 54.07112873515494 C558.8046022568137 46.4083710750223, 566.188502719729 39.125112464554846, 570.3375615196591 34.16379653420198 M551.3260483119516 54.40212933996233 C557.7812223019085 47.00252065777374, 562.6907619231692 39.28609553601683, 569.4342168133096 33.13951337885128 M556.4919460330823 54.386594412031286 C558.8298218899515 50.83147228274444, 562.7631368763157 44.562784225053434, 568.6408283124222 39.925251384828144 M555.4924920496323 53.32315363636481 C562.1195692333858 48.7798422646423, 566.912861056278 43.19779099044759, 570.0276743208221 39.67820035390832 M560.8869668357482 52.57961413008 C562.6253372526328 51.145137477071714, 567.0018337726883 47.215851215187755, 568.5173744504613 44.76832633433237 M561.5035506961109 54.06409880591016 C563.1701006811251 51.38088035945525, 565.1178440339565 49.079360219827706, 569.7235827516458 44.85134593546343 M566.6239758866727 53.78973371136439 C567.4656359914939 52.303661248726826, 568.5752402093248 51.33542336241702, 568.9123896553107 49.96901299747472 M566.5856738090829 53.547599615260694 C567.1126990479592 52.86160521213732, 567.8171683113868 52.05532465722365, 569.3778895632781 50.16247150288055" stroke="#ccffcc" stroke-width="1.0" fill="none" />
  <path d="M536.3270675410027 51.09362803897669 C536.2767430519351 47.861790093057394, 539.1843510488089 42.41549916209199, 540.856908330668 39.41310206435793 C542.529465612527 36.41070496662387, 545.2714674956635 33.40350474982425, 547.4774494200628 31.0776473874163 C549.6834313444622 28.751790025008354, 552.6743963421492 25.20976838226742, 555.5634544933305 23.907386314971582 C558.4525126445118 22.605004247675744, 564.7049499958139 22.781532098898488, 566.737837094605 22.39510027211073 C568.770724193396 22.008668445322982, 568.7593054433374 21.49076305674521, 569.1160351519374 21.331174136386586 M535.6421569530099 56.23708215738628 C535.0875107922172 53.03777198644541, 537.6086104895763 46.61718103022291, 538.7370969820124 43.300601523076296 C539.8655834744485 39.98402201592968, 541.413626812701 36.72377564836866, 543.1654002359168 34.12655210974219 C544.9171736591326 31.529328571115727, 547.6877033771101 27.652663564157947, 550.4155864701178 25.985777932233184 C553.1434695631254 24.318892300308427, 558.5462202203614 23.712171799620798, 561.3512875226344 23.013981230243807 C564.1563548249072 22.315790660866817, 567.9513230075419 21.58359520046517, 569.1160351519374 21.331174136386586 M571.1931365489263 52.943668427059606 C562.4327384477479 53.948230227654065, 552.8379912559426 53.03406081394283, 536.2329400242793 55.05100360048441 M569.1700436287715 54.18145332543098 C556.9251146930225 53.119367813998466, 545.5259006149199 53.984330242309014, 536.8222938106827 54.470164300836046 M567.1123238193937 53.191152721949976 C567.7115711975246 42.50966217206778, 571.3849256635374 35.080032470667916, 569.5011687619832 20.91008795997243 M569.5331680188825 53.14478525119466 C570.0383195809773 47.5779053088127, 568.6032994781305 40.28481153683198, 569.0461236710164 22.22375276874906" stroke="gray" stroke-width="2.0" fill="none" />
</svg>