<svg width="600" height="150" xmlns="http://www.w3.org/2000/svg">
  <path d="M-298.26994683099554 -93.9891853250124 C-299.17890865383885 -96.89277680837301, -298.1586416437974 -96.9056617059503, -297.35980016062365 -101.18967058238682 M-299.5085180925906 -93.91817454373256 C-298.05216475733215 -95.69496527372108, -297.8874666976952 -97.18840557407313, -295.6786742770123 -99.89211177354997 M-304.2214483814394 -86.52774209219156 C-298.35776371772135 -95.24482558432675, -296.58079730230247 -97.15047932597965, -287.1894019121907 -97.99094155928938 M-299.9069393121174 -88.70884066010733 C-296.7742620043378 -91.58817039214739, -296.8227260492515 -95.32352622267925, -289.47628757585414 -100.5634465011127 M-302.5154227914826 -89.96891024674935 C-296.5578684063273 -84.87300822644733, -291.1602883895269 -101.19391657251624, -287.3455295343488 -100.92927292498261 M-301.4347724395035 -83.89576986162025 C-296.4782836006801 -90.35427752612924, -294.31219911574755 -95.83408927701235, -287.1308760334274 -101.39012994821657 M-295.923942933755 -75.30981207222202 C-290.8408163555408 -85.03529555512125, -289.27632444294096 -87.61515130668242, -279.2825972006541 -102.0802999418603 M-300.9148882254562 -81.22998778148086 C-297.64964122331367 -84.11929505843491, -288.75051076787634 -89.36893544213596, -281.39917910587593 -97.60544690517965 M-301.9104127175689 -70.85786075006833 C-301.30623565489907 -78.6549827405679, -286.66055419979625 -88.33523139605809, -282.1894299428935 -100.76130736934084 M-301.58852451694594 -72.99252848055559 C-294.13300280783017 -80.28279821260091, -294.4067678723791 -85.80742072957796, -274.37503477185544 -100.09200619118849 M-294.00067136809264 -70.39829437761016 C-288.8364537652657 -70.6103977814334, -284.2688293341553 -77.64770260053392, -271.78263715697534 -97.4244451054486 M-301.83801143469196 -68.64064919494581 C-291.3710367916419 -79.73633159859612, -281.51907546785765 -91.9261296051231, -269.51548180713064 -99.56855275322152 M-297.63275245373734 -57.24949372946024 C-286.109351789593 -76.60015032679394, -278.0115040473738 -86.62916474977538, -270.4992700005702 -102.96614506699434 M-302.05487638481657 -61.593770854938164 C-284.36655907588175 -75.30723608594812, -273.47897268347066 -88.24003014123218, -266.7546943823886 -98.55647982077512 M-301.8242583087758 -60.09373649096747 C-286.3959329452419 -78.11165370185213, -268.6881329322362 -90.53516306152235, -268.2394447133061 -97.89741033124618 M-299.04702238368196 -58.138396284830854 C-287.8609509669333 -67.43784641366054, -278.63082733091267 -80.27357731581708, -261.12069498482447 -100.72926679427238 M-297.7442308327855 -51.7525571564526 C-285.2612935502963 -69.44253227730154, -274.4344691714214 -76.15276959134002, -252.46107685620416 -99.26028695574976 M-302.3579757322362 -53.83259854034865 C-293.76528354718783 -66.91983180285148, -285.17890007649805 -72.1802012833118, -257.1645759599624 -101.86552447027785 M-300.13894862222435 -45.84008535751601 C-295.6669979562619 -58.15845723330702, -274.9463818245442 -66.45543644595074, -248.5326595435685 -105.5858955101976 M-300.75046413566474 -44.30543463754245 C-288.69879822277886 -66.716774314526, -267.8076134074933 -80.86359488510358, -252.17525652163062 -101.38462354633243 M-301.277586990631 -43.71788091049651 C-280.14045569059306 -70.86784174846642, -263.70842000676515 -94.51009796211616, -250.1474025714688 -97.80430207764931 M-299.72854738437036 -42.02704710411456 C-283.7209286159587 -61.82467108161735, -264.858547506528 -86.27237577051639, -251.34505668659696 -99.76609342953475 M-304.8005422459918 -30.95612662759417 C-279.82538101481987 -57.23842575412313, -265.8941208263877 -64.36031615645693, -249.7357900524577 -99.81410368430157 M-299.9949423219054 -37.842191052651934 C-279.7611266337852 -52.57732318719388, -269.1776898748267 -66.76168831420857, -244.4348236628403 -98.86551046272068 M-305.0212972178223 -25.684486055438942 C-281.79895937623337 -49.8229195546628, -257.9191754601231 -78.97725494835221, -245.4239142091131 -100.21297638966375 M-300.2414664911299 -28.4754778878438 C-277.30595623313945 -59.12158665865036, -258.15971244986065 -80.64210330507488, -241.12775578486225 -98.34967937662717 M-305.52267287090547 -30.25375022848295 C-279.9456464969157 -51.58863403972151, -261.84017514245545 -71.33918475540277, -238.38762450577326 -98.43041326311904 M-299.66624765687914 -24.75224396392791 C-278.36211822796474 -44.575559981916165, -261.16084442042734 -64.98692007623704, -235.3895112162987 -102.50381703651689 M-294.18210254618066 -20.24871963391702 C-277.5798227935844 -46.84488015973318, -254.68625076708656 -81.01554194289452, -235.51227401912212 -105.34477891742478 M-298.6978376282835 -19.296867818954166 C-270.6254130779324 -45.17122402578382, -248.18631860848748 -76.21562457292104, -230.12932775773902 -101.14579569368895 M-304.98385292616854 -14.206426225214283 C-271.839652199479 -30.36616877768828, -262.0659852530858 -61.06434862698606, -226.51019934605858 -97.15594225896336 M-299.2087473916862 -16.087171228624314 C-274.52900054100667 -48.34264328884815, -243.03036343620593 -82.18875329833811, -227.11406943224603 -98.5688726127003 M-302.722640626469 -9.892621625814193 C-284.50591705908505 -26.875629487116885, -265.5031850995649 -52.45857560421158, -225.12055183109575 -96.4384542808116 M-299.9254564535457 -11.015410445355785 C-283.68089704944725 -31.434834288693924, -263.84526215259865 -51.10391222855172, -219.88259216853263 -100.88758269505931 M-298.54817787397104 -3.0662099928109576 C-277.0041457091611 -42.12906924577459, -239.90889274235886 -68.24540561626644, -210.78113563461153 -101.43694058220692 M-297.4471835058402 -4.96706595076089 C-276.79746749355 -30.444597175066292, -257.3253692238212 -53.847935055426625, -213.97205845191576 -98.47225467463595 M-294.8903330475513 2.0962919191605356 C-263.5003980626652 -29.061987262554133, -240.54662860000613 -56.456332501108385, -216.56935013202477 -95.29665200658918 M-297.01188133098736 0.8391021739573216 C-284.13671819918966 -23.521552990580247, -262.3466256255205 -48.82224738240807, -212.58595053084494 -100.6145034551688 M-298.2390191593389 3.003875620804908 C-260.5082734890026 -30.87903333373395, -226.304618060605 -70.22248252085086, -206.15167863043735 -94.83330567406182 M-300.52764974698783 6.516779221043593 C-267.8002820716768 -29.283439666953857, -235.13282118593247 -74.77238092314177, -204.31808520191424 -97.44491743596502 M-298.8066102437706 6.149524823303854 C-274.53330745330106 -27.866938227749063, -243.80013150971104 -61.01364348173915, -203.37750530911805 -101.67061906292598 M-302.17498507032866 11.328272036832693 C-283.6800142999439 -14.742141629174345, -253.0644133665921 -42.152687173555734, -205.45009026929588 -97.41923180614562 M-299.82761647451093 22.492646559571472 C-275.8509583051111 -2.7230266968616377, -249.96731537298885 -30.766436674959962, -197.21044874317963 -94.64083143912298 M-299.6635558030864 15.86531689264619 C-272.3416899400927 -15.316082940765572, -247.49665693922097 -41.704554249958434, -198.34887422661242 -99.5773422236449 M-294.44864836914866 19.99694630410179 C-252.8647945700057 -30.364880310751598, -216.8413683398067 -69.53371793192662, -190.17784888214013 -102.97064599253733 M-301.56628677740986 22.473341128541634 C-263.3158871841571 -18.599541553805498, -224.84586962000958 -67.65564583225265, -195.32211588805322 -99.88328842301075 M-301.92373003062033 23.66495120861828 C-259.88393138668675 -8.061229259095597, -225.25533887541772 -49.85756910418723, -189.2298700808483 -98.04363562727518 M-299.0260974653187 29.286510885621958 C-266.43858470409543 -3.9241510072420978, -242.1335880248057 -35.04025974846413, -190.5083654281053 -102.2925430700614 M-298.9157421928438 27.58075432326012 C-270.68363669749795 -0.539662858753144, -225.96278039693175 -44.52539765987943, -180.47917056156257 -103.9848469784413 M-302.4543018403716 31.768008509601312 C-275.99657737323463 9.116705542804116, -251.91394662867867 -21.277716718613842, -184.53409025194753 -101.01322155073903 M-298.10624164347826 36.316658550411184 C-256.16904772549594 -17.63886104431996, -204.42608898155365 -80.21132997308655, -174.66595285864017 -101.11081600147803 M-300.96990449538913 38.447133960266534 C-277.38514686738984 11.295693416478041, -247.4070146406183 -17.646955534822478, -181.58783771013398 -99.41448245961894 M-304.2137866384414 40.34709248906134 C-276.46293578679035 9.383544310277058, -248.94095686125095 -27.037322730202856, -168.9048411506371 -105.44526577715078 M-302.7302001210536 44.55187331596745 C-266.96600697491243 0.16595580598585524, -231.32473461047934 -38.31129450240658, -171.82473902634837 -99.83562423607133 M-297.16618386617216 52.51539849971241 C-240.3849545289416 -6.997426735582431, -196.51550366015078 -68.48466221038913, -167.45687695225044 -97.7231522461973 M-297.24342876590947 49.826843280646756 C-270.9033483926922 12.543826763935424, -235.53179124013573 -30.571805481309447, -168.34763011056774 -99.26885738050048 M-291.6121859089159 49.41866282625996 C-250.9129467012657 -9.312833105616114, -196.99503658608333 -60.662608976575314, -166.94710465246777 -101.46217622955433 M-294.7334357067263 49.56967271797812 C-253.91344074729204 3.0317080411396953, -207.6241344133996 -51.7343401661648, -168.14779283773152 -99.88156709581688 M-291.7880624922141 44.722403645851884 C-250.40558040035353 3.281367956006693, -221.44421266075508 -38.47493838759176, -157.1358934169781 -95.44233469732214 M-293.47857572432724 47.958176314345685 C-257.8242074541195 19.65529108991484, -231.33460600134214 -14.710150621874838, -163.42386327410082 -100.03530786886593 M-284.961263695419 50.169416952025834 C-247.80384065924545 -2.6895808743725524, -216.66826261596188 -42.699174784914696, -151.03946690226815 -101.79574992498185 M-288.7560760742627 50.78107778810949 C-244.15177818020427 -0.9471873464658107, -194.6686514877815 -64.01360786761822, -153.48019431191437 -102.148540959297 M-282.40304103460784 47.177770176519545 C-239.93950193642468 15.635901646374288, -213.7770391765425 -27.868654435584087, -152.25428684381583 -97.32685516557044 M-283.9054432817715 52.718897339757035 C-245.79195277987233 8.76454958350478, -210.80609473020766 -36.88486167927631, -149.78837210290604 -99.15639670945536 M-281.66015893829683 51.88173441024579 C-239.95681628613613 15.844331166924835, -203.6886823804102 -26.457292870541004, -140.9987049243709 -102.08972843181795 M-274.4177471477683 48.3412750127452 C-231.02940761008918 9.849489480463772, -195.20310698231566 -33.826731795087575, -147.50070410862827 -100.09235171838307 M-274.8174313403452 46.227908344114155 C-222.25500912344833 2.2502253496536566, -192.04297791234615 -39.51710197006866, -147.22778189695248 -100.82197870818061 M-274.58045170433684 49.47191810443621 C-236.11383500985247 18.08070511209264, -212.736724130357 -11.209354235213766, -141.74449846266424 -101.24732218042358 M-263.7686125544032 44.80181775838223 C-233.80467649803708 4.840243814583862, -188.3318617391362 -50.0400809220636, -136.81278351281028 -97.39268457116218 M-266.6967843017339 47.02340236027885 C-229.69815751592253 4.197289891239559, -188.10657577803096 -43.510170383544086, -134.88796637868475 -100.54480319728367 M-265.32663096874467 54.737232289620316 C-227.99059348487887 16.405082123369468, -190.0509394785726 -38.029010433890406, -136.58906288697548 -97.13206169155055 M-265.0258727776859 52.63587288727792 C-245.5352744721143 16.0642450968338, -221.35656468356854 -17.24562779646139, -132.25247507360154 -99.70172231863332 M-254.66528198503488 45.7563181527687 C-215.95662269340818 20.75383700255799, -187.38675545238283 -17.614967457073828, -124.10424226683654 -105.31361375530884 M-257.9722831335284 49.503879223253534 C-226.5788241593123 26.20176864141402, -197.98678092831 -7.497539375714736, -129.63059449567845 -101.86205218306837 M-258.3501474328244 50.65858111654344 C-193.08970544469216 -17.746701700801182, -139.90684203986265 -75.85768305906808, -125.82724755430038 -103.45955171504038 M-255.9445530804684 47.10356369153764 C-222.95006227044334 12.42197051574981, -192.0662941415116 -23.217745535601342, -123.40233901994449 -98.69968982213162 M-249.39729450826988 46.86439549311272 C-212.0725406039584 -4.394018427314984, -167.37105747838828 -49.91420557032796, -120.42245179080705 -99.52095891978637 M-248.400825836674 51.40364209860736 C-217.8717012876586 10.723687373346435, -177.49779393411083 -35.49884632308829, -122.11640288565327 -100.23425824159489 M-244.0293243290414 49.19521023947524 C-202.94111811877602 -0.30685148578217714, -149.64727865974672 -59.608329234357555, -114.2148342007501 -102.56997607302384 M-242.69868580753652 50.447281801815755 C-208.48154119889873 -4.567487156908948, -168.14917118058406 -48.35110443909447, -112.46110127418687 -102.12787793908633 M-238.22497490319603 55.98863843082856 C-208.22395929940913 0.27889671597486965, -168.45647849701663 -39.34279662397912, -109.95455871680981 -97.7697975820721 M-239.1067327622816 50.65502251109811 C-199.93802695916918 -1.7721337883151405, -156.79907430881727 -53.052308953253196, -108.88298036685835 -97.61126707522722 M-240.92852663949623 53.8850686912821 C-194.89586710420323 2.079193601495648, -160.6505907307621 -35.31155579870223, -106.4966032851814 -97.76086423907469 M-236.37190815969086 52.41570737558217 C-197.26013212716003 1.1469657387492338, -151.97997975448567 -46.5683686271939, -107.48507111727196 -100.09158708205986 M-235.1838143709251 49.93327809774005 C-189.72827533826987 10.308647129804275, -138.89386643196664 -46.948837141972355, -105.16995473004258 -102.06616592410307 M-228.151723351235 51.99888955755109 C-193.2683205914124 6.7081341888071675, -163.71336856553847 -29.401639260843698, -98.92593608630014 -101.04221383297919 M-226.68526259337256 52.56842554387097 C-187.99657109049932 -7.622388250596688, -146.6787314594156 -55.823699319799786, -105.84181686297144 -97.68049858572434 M-224.46624199609954 48.91167651019603 C-188.60858247965393 4.369608310255845, -155.6909330718139 -35.29500133818867, -102.84859468501462 -97.85274643194973 M-225.89751465599474 50.99140391638107 C-183.41499622298724 10.27678327002767, -146.30959326112293 -42.29328403739405, -103.89261696948326 -94.51755421450461 M-221.17151192196786 47.86937812756257 C-175.53084978523364 10.797944893059096, -135.693640411227 -37.88852087484634, -100.31323282109258 -90.06532724814019 M-212.72640948041396 50.45162758531593 C-186.15401960089727 6.643501223690194, -139.6033740841172 -32.20112534712831, -96.34224528183334 -89.19093386163492 M-214.95355867974845 51.732626509262566 C-182.15990431179952 11.291968056034035, -153.0385183803479 -26.82584612665039, -99.58005708296785 -87.60438642610048 M-215.1844881744694 53.5772800434275 C-190.69646404820355 9.461072596302316, -160.48044574935082 -25.37443994588738, -94.7401261072327 -75.96137091094437 M-212.1986071327406 47.04104533607189 C-188.4919920872121 17.739408398276996, -155.72254732219585 -18.043155263141855, -97.62992460216857 -81.42451996047937 M-203.1749530362133 46.89023201115907 C-176.19804036013588 24.196529378762328, -147.7788146282008 -14.05251195149888, -99.09649822539487 -69.06500091331755 M-208.1107042582574 47.242992719748536 C-167.82642477896837 6.887818938732311, -133.69760927996194 -29.6210701843125, -97.27036280197574 -71.68197704854956 M-205.7632492340857 52.28675772263052 C-171.12491435554577 1.235210083104131, -138.71885257661327 -38.12044186970954, -101.70027640447965 -62.70659771120691 M-200.7206005330686 51.9822045187383 C-166.36967046449328 9.599880448816943, -131.51401626189568 -26.442268207235205, -101.96839559309575 -69.08795139934514 M-194.1336954331217 51.52057726286378 C-169.482357453482 1.6079856457236894, -127.43304744796666 -46.09645887651811, -95.2365298388696 -57.86124334489958 M-196.681209507393 50.468698112046674 C-168.5012655705551 16.777474800718114, -135.90793484895966 -17.288599908572603, -102.91343552894584 -63.77580901562945 M-195.81657134771683 46.45959705042637 C-156.02818959487075 4.68459465851099, -121.24177612150636 -27.559251363070743, -99.94385073424496 -59.61329820580206 M-195.67825245648106 51.250795892556596 C-166.4725444561124 11.811369951724348, -134.30624697825718 -24.38630604528373, -99.53269859800706 -60.888529866273934 M-194.96342868465803 45.55137877052248 C-155.62215578034062 19.342682860730676, -123.32206835998409 -9.794163981873231, -104.85026914945351 -48.00173293386171 M-189.9838468676143 48.94526928940102 C-172.80245863886134 22.24688799300257, -148.58343382957602 -3.3583778072538824, -102.71403113925551 -51.65674266674839 M-187.56390149585945 49.170602474906765 C-156.45863192418392 22.1409378548325, -122.30706603401293 -19.102433389192374, -94.09333373796815 -46.63759932117627 M-187.40070742661027 48.711519202083124 C-152.78673523498125 14.354856401386396, -128.34164073863775 -13.92382702611798, -100.55278464944698 -48.79254731505964 M-174.25647193503409 53.145226283532224 C-152.96802334617664 19.789498200909122, -129.19343144666774 -15.115816054962945, -105.48211311524832 -45.07203420860289 M-179.92893195959232 47.8273808336013 C-162.538719316305 26.823127580555592, -143.3700435483659 4.371828146919029, -99.07622438393358 -42.417084914360366 M-179.43204618355045 52.04296935910499 C-157.8699161253701 26.21653180397951, -133.73104242852267 12.24275184358476, -105.51688122726831 -38.02868372223476 M-178.32637662731563 47.818118369587765 C-144.14687709219288 24.207618420091308, -122.94232904385285 1.9293957151820722, -98.26454355067786 -36.43669702386062 M-168.27098932755993 44.46075808464585 C-148.1202269490304 24.801464938746083, -122.25244904148691 -1.824371768804909, -100.05621866791333 -33.05139529421954 M-168.94931364962636 49.06740761644553 C-152.12016687402777 28.93143082136291, -136.88317254001367 7.600018259060977, -101.5670975002307 -28.683510085825215 M-165.96899788730715 44.93186373493256 C-147.2734551634295 33.46299924287113, -128.78632759076785 7.4358352850448, -101.76507206436483 -27.778809601014014 M-163.71748235294928 49.838222723844574 C-140.60678257920978 26.22964226357022, -123.49656928836293 8.867240887657216, -97.48161053586826 -26.807367543276193 M-156.87292636156351 54.44277611488607 C-132.12913854479385 19.27238370329525, -109.0182083315941 -9.55889287240083, -105.89209472569269 -25.954808754703954 M-159.88376279332516 50.35737854771195 C-143.4493730566494 28.070115792544335, -123.81759776158323 4.23820076717232, -100.95364933924454 -22.257559515999972 M-155.69328114982198 46.1390852994002 C-135.42495779443013 31.75167281176699, -121.63289702650239 8.880346162345317, -102.07861588898983 -20.18299646692216 M-155.06474053816908 50.42295039697689 C-144.83717793812892 32.735268438223464, -130.03285652017672 11.677744591669743, -101.92550733076666 -15.479782476394389 M-157.5066447281492 54.308089072959554 C-140.69684682394282 34.637169089115915, -121.02420572088957 22.855976352754283, -98.1686159335862 -11.240263375383497 M-151.6227538502598 47.60465567307765 C-137.41902952259653 37.63693046018123, -124.96037760688773 24.316818759055746, -102.90850228160085 -12.2941683902886 M-148.38581042850774 47.14286027622545 C-133.12219919404473 30.567437271473796, -115.76349437983633 7.513259814133681, -105.62150369008141 -4.2502713526107 M-145.72248716875208 52.41993194139562 C-133.3328436760371 28.58206177399322, -112.91452784231315 9.194661411320622, -102.09395287609378 -5.844929355144957 M-148.56327116356644 49.97801146562121 C-138.33745370426254 36.25229346632007, -122.54273736644649 32.85688251265189, -101.67020447164317 6.249187683113929 M-140.53740938199826 52.352069544304214 C-130.51531637925626 34.14221415304337, -113.29247547649821 12.261702414736831, -97.9758926988467 2.372772341544626 M-133.08881998443863 54.25317235209663 C-126.1104901922524 35.190840301737694, -106.36996587236649 22.163178703835438, -101.65962161480434 6.429155955331021 M-135.4617242801797 51.78991263489702 C-122.00848148531682 33.08265847110393, -111.22463618438442 19.057556857112658, -101.74485925712851 7.922923325099495 M-138.98060072986993 53.14710284636688 C-114.77609941064858 38.800087374253906, -105.94080071287357 28.64462138076942, -96.41421447620458 12.812029106758104 M-131.60034298721342 49.56859861899569 C-121.5444002835899 40.46844905042707, -114.26904455917557 33.39386597470189, -102.93833163098354 9.152850771231527 M-131.98561469285784 53.160388665814146 C-118.92560717754819 43.24731327276913, -106.08452923722545 32.418292410595186, -98.84486527780298 12.202070953984814 M-128.34500856488017 48.858792275124614 C-118.29434539034708 41.97132448467744, -109.63093423110256 26.042546745310872, -99.04854284136023 14.482400481914393 M-121.31036033294566 55.40588919418207 C-121.67690934697518 33.94426300615336, -107.67243508861694 27.560134676332904, -100.97729654748798 18.94713779246818 M-124.88473632771662 52.70224560503953 C-118.43503837810843 43.83148746159594, -109.995763851022 37.30579305680791, -101.62602650403326 24.10340539546893 M-123.2362516822469 55.746860282377746 C-111.91824822360216 38.51179244706873, -112.69154309866045 34.858410841472825, -100.06887295565983 26.797224733579615 M-120.02357105362464 47.05348450786131 C-113.13926629743757 42.343171159627786, -105.33371990239623 35.50999018936342, -98.33557975261267 24.593429022440493 M-120.12468246177275 51.34699499949209 C-105.34687462033061 42.213235339308476, -101.90719787850699 35.19139183723402, -104.17401720125882 28.714231227815812 M-115.46899443501312 50.063734713505845 C-111.79278984722531 45.066455754234184, -106.54057929483109 39.07815876471491, -102.1984265713014 34.449529902711845 M-111.47417172079696 47.65678593100932 C-110.96400406950656 50.41499549348911, -103.7642354648842 38.76331404944327, -103.37833681562041 33.39975541919647 M-111.91682031295976 47.90845941945896 C-105.82306312378385 47.30833834604693, -105.64700372892574 42.30060719846625, -102.04198705556237 38.746035657428784 M-106.14122189521868 49.173180983029646 C-104.20491975638035 48.727240796142866, -99.30511733547883 43.73286498963573, -99.23078497810732 41.8062073796161 M-106.67938457091799 50.45316268000346 C-104.20351343180613 48.26510177545442, -103.94172349515847 47.290617522970635, -100.70343832201358 43.51684699766713 M-101.20531600697609 50.331380628926006 C-101.13548934525339 50.135309179758096, -100.26438734748865 49.84903287599992, -99.72424491206621 48.98244036225977 M-101.14126322542685 49.86563451608917 C-100.99352593179505 49.46525497270745, -100.39256366692791 49.28220804181456, -99.79160542038379 48.54839052089363" stroke="#ccf" stroke-width="1.0" fill="none" />
  <path d="M-300.5651083928172 -98.33534167813376 C-254.91910226189307 -93.35424169571449, -217.58793675538834 -99.69285576901633, -102.94266697348532 -97.18121310989758 M-298.0528756174054 -100.04359177644396 C-236.82440115730245 -87.65404903093786, -177.08501973221493 -88.71173681515086, -100.11719061643205 -97.87173379187078 M-101.38731297635813 -94.98468178370254 C-106.90734375543302 -51.583249413214276, -103.14378349955369 4.600951661635639, -101.01913235290867 55.462192745628855 M-97.33636848737316 -97.84325399009663 C-95.76845990669376 -48.640201536771, -97.46497883809032 -4.540478353174626, -101.91357291718646 49.921714492571404 M-104.77264021475682 48.82860947378975 C-164.2275287909491 39.69950645559893, -233.14638154646292 43.74560450387548, -301.9013609974031 45.15191835358239 M-101.76387034327703 50.95485167422223 C-149.1640404105866 47.830098713775556, -196.35692755076153 43.39618870612576, -301.9284772302483 48.38633468422078 M-299.2008431913335 46.098311140247766 C-295.36299558187045 5.53938913044491, -299.1872533057757 -29.48980095120604, -296.3815607272003 -94.31786268405517 M-301.4463200953073 50.682679419257994 C-289.6744554767732 9.275120038667284, -293.4854785052526 -33.74343262461174, -298.26054770185635 -98.8981163091483" stroke="#000" stroke-width="2.0" fill="none" />
  <path d="M-56.86927553213411 -91.49244169051323 C-50.627605661768584 -93.20191087447418, -39.94769455010464 -90.48826587944885, -33.73509151616774 -87.21938145594851 C-27.52248848223084 -83.95049703244817, -18.650642722650733 -76.1082668813856, -15.451921972554779 -69.69987886717763 C-12.253201222458825 -63.29149085296965, -11.374071306588084 -51.922749738296154, -12.41028651552805 -44.496794694562 C-13.446501724468016 -37.07083965082784, -17.674575858283404 -25.594336693877825, -22.36002336548789 -20.19351190894992 C-27.045470872692377 -14.792687124022013, -36.90963212240285 -9.677316608517549, -43.64660323022462 -8.491296128375971 C-50.383574338046394 -7.305275648234393, -61.366197227018624 -8.98170763811899, -67.2731640842997 -12.286708708006067 C-73.18013094158076 -15.591709777893143, -80.04102379447268 -24.02618118344755, -83.02638227876508 -30.524636594289817 C-86.01174076305749 -37.023092005132085, -88.16846625472354 -48.30787233572609, -87.17555397958236 -55.60974478028783 C-86.18264170444118 -62.91161722484958, -81.78952191059894 -73.8531310184253, -76.40696711115717 -79.20378622470147 C-71.02441231171541 -84.55444143097765, -56.14287357671436 -89.47530521088963, -51.29185531663728 -91.28077948879564 C-46.440837056560206 -93.08625376670166, -44.175033845781506 -91.86783485003865, -44.06684537731 -91.2402814107416 M-50.55178440017699 -90.73097196996844 C-44.34620544404895 -91.27818972525722, -35.05399359919249 -87.45798649522092, -29.427277491677966 -83.76110263765764 C-23.800561384163444 -80.06421878009436, -15.590397375468454 -72.96186922471767, -13.040343683413525 -66.08507958621325 C-10.490289991358596 -59.208289947708835, -10.293500845590682 -45.23051613818827, -12.42691954464511 -37.9158383809615 C-14.560338243699537 -30.60116062373474, -21.887580069471692 -21.70230905321018, -27.263135010443044 -17.320561204701484 C-32.63868995141439 -12.938813356192789, -41.54054226213561 -8.84631061503958, -48.26395248445411 -8.704186057570197 C-54.98736270677261 -8.562061500100816, -66.37672767805317 -12.338787429851962, -72.08586982589972 -16.373064154905606 C-77.79501197374627 -20.40734087995925, -84.33373981722794 -29.114559423053073, -86.32490013676444 -35.599364224594495 C-88.31606045630095 -42.08416902613592, -87.39375569608858 -52.78000726171356, -85.36027195614307 -59.605096165181756 C-83.32678821619756 -66.43018506864996, -77.98745659128477 -76.1923423222189, -72.768341870461 -81.09995691438249 C-67.54922714963723 -86.00757150654607, -53.821723679822284 -90.63707883101641, -50.56617381731791 -92.3225267796056 C-47.310623954813536 -94.00797472819478, -50.79941978567813 -93.04093454063471, -51.06467612043184 -92.33627657164374" stroke="none" stroke-width="0.0" fill="pink" />
  <path d="M-31.928972851627222 -86.63010872728975 C-25.99498944673207 -83.7981763215218, -18.258842786514453 -75.05988198921864, -15.243026599929948 -68.43846129415951 C-12.227210413345443 -61.81704059910039, -10.65990950982308 -49.70615802186146, -11.823531607730523 -42.48730409356227 C-12.987153705637965 -35.26845016526308, -17.98480239942944 -25.469662381225636, -23.000507252646234 -20.312768438831597 C-28.016212105863026 -15.155874496437558, -38.410938923696385 -9.188077181021278, -45.26156396250914 -8.108011144268687 C-52.1121890013219 -7.0279451075160955, -62.87113663697848 -9.673330699580605, -68.67134084473128 -13.11232819381432 C-74.47154505248407 -16.55132568804804, -81.14011742116716 -24.44830301019896, -83.92959201419447 -31.034661105826792 C-86.71906660722178 -37.62101920145463, -88.33819737713473 -49.711382319157025, -87.26783813157999 -57.02138216466654 C-86.19747888602525 -64.33138201017606, -81.6049989038631 -74.62904885259266, -76.7938637104962 -79.76799340922358 C-71.98272851712929 -84.9069379658545, -62.733474725235425 -91.03862214478306, -55.193603509133986 -91.28101254220599 C-47.65373229303255 -91.52340293962891, -31.72790115155819 -83.65200872127805, -26.528055603153295 -81.38392939204304 C-21.3282100547484 -79.11585006280804, -20.194942610549024 -76.40754041378666, -20.52796651976803 -76.16048368063929 M-54.77821174114482 -90.7935299772447 C-48.14985181395274 -92.35506375348912, -36.6469379509095 -90.05565385101004, -30.582780804222292 -86.43746283490137 C-24.518623657535084 -82.8192718187927, -17.24860703946446 -73.14722337899926, -14.350497429896762 -66.67225653652025 C-11.452387820329065 -60.197289694041245, -9.985769747216647 -50.165230221520325, -11.262050073770979 -43.27101721837468 C-12.53833040032531 -36.376804215229036, -17.784196076329895 -25.998549704108854, -22.859032940258974 -20.710836515549307 C-27.933869804188053 -15.423123326989762, -38.20024089127887 -9.147045671591908, -45.094295833298176 -8.019595961311047 C-51.988350775317485 -6.892146251030188, -63.07739133652091 -9.393379703027547, -68.81939922038768 -13.194505113676911 C-74.56140710425446 -16.995630524326277, -80.40007990869744 -26.67045134369443, -83.37434839240998 -33.36043203230681 C-86.34861687612253 -40.05041272091919, -89.79076940081347 -50.8559843405154, -88.64785577847135 -57.79437637109277 C-87.50494215612923 -64.73276840167014, -80.81392795045578 -74.59634726660134, -75.7549242434625 -79.61637890282262 C-70.69592053646922 -84.6364105390439, -58.319218109791095 -89.52220205246616, -54.92116439851611 -91.2612539459013 C-51.52311068724113 -93.00030583933645, -53.20508410812795 -91.91588375372253, -53.101232834962616 -91.21005819239029" stroke="orange" stroke-width="2.0" fill="none" />
  <path d="M150.04499457562227 -93.82711403816118 C150.03469192830343 -95.36581567010688, 151.10298511842285 -95.91139344486483, 154.4848954958914 -98.16513501318755 M149.3612542196527 -92.88598967471368 C150.4988682449851 -95.62118841157985, 152.47714285814115 -97.38260135148138, 153.74269682093953 -99.16357194900517 M146.2170859760761 -88.49786837899197 C150.40193144726535 -88.02107635603628, 157.01256997205786 -97.67361624955353, 158.7138921331551 -100.05911858475048 M147.10973435838514 -86.5005104552571 C149.1953352565067 -89.01572179858587, 151.49110352742045 -93.21380124792975, 158.37297082085985 -97.59160459700784 M146.11992783961819 -82.39939566912741 C150.3932798623628 -87.77021545010395, 159.95093081664027 -94.64873568647431, 158.04484403000015 -93.93292127933165 M148.0869118601489 -78.11374063149444 C149.8470963071013 -87.21328351944757, 154.56783304081185 -92.57645874515698, 161.17821515084668 -94.97554689612174 M142.28505230919387 -72.82150540671613 C150.4488791330299 -77.95626698483242, 162.22261776186642 -92.67557344691602, 165.47102042020248 -93.83875429548455 M144.96939721587245 -72.80851512479292 C150.5449082755618 -75.46069461482341, 153.7174379290121 -80.37566056564424, 166.33864622429317 -96.67356503339374 M140.17894176433128 -62.028997094177264 C150.06948704203955 -71.08292932281603, 159.61176954082913 -84.44398122249791, 166.3371792812003 -96.35073954186205 M144.66453301316653 -66.05382456798573 C149.3511720286542 -70.59439511969943, 155.4851651885134 -78.23338867224061, 169.16528413894127 -92.90115152737414 M139.48924343208287 -55.60257368342485 C151.91837587702105 -70.87376113672063, 159.15493857943085 -73.5063821926825, 171.48232131621995 -92.0659315812737 M141.7591985401508 -58.59955213631828 C148.67914745015236 -65.31349025380516, 155.94172229372722 -74.51096825701829, 172.90867223734526 -92.68061794121132 M141.40836796459828 -54.68764525822655 C156.814366843202 -68.76411260203228, 165.44739649087498 -81.88852362704901, 172.52934664599977 -91.97260225130232 M142.0604117182055 -51.883614884159634 C150.0688292709776 -64.03737441793076, 160.78197270373857 -71.61358078824185, 177.12589904340203 -91.79182724677908 M143.37813937591622 -48.99723015664477 C152.52542280687027 -59.427823715526145, 169.0750513427704 -75.72377592380303, 179.48279023126634 -87.1636623218524 M139.80036189633756 -43.8939468970447 C146.91080720511374 -52.506529541201395, 157.86889245569787 -61.61188139066495, 178.66701589163523 -89.40681065442735 M138.0685234811477 -42.61146715330546 C151.5964177561824 -55.56417503189373, 167.68395201065647 -77.85406714484138, 182.54386454812092 -90.91167790527496 M138.3464501060297 -38.81535747424535 C149.66115686134708 -49.89465246424473, 157.6093333440121 -58.109502357772485, 180.64655677411673 -87.85523686221075 M138.40345254435064 -32.39603790990468 C154.74114397198633 -55.78718533263552, 172.092632270762 -76.27459662148401, 188.18360684958904 -91.77740820906477 M138.2095413038242 -32.685529361384866 C152.13354482865574 -46.73511299069123, 164.48518936587897 -63.43272558984071, 186.35758417813446 -87.71778199389946 M133.1907271438547 -29.00922587738969 C152.0963015935121 -50.50973623932954, 176.12304981680848 -70.82674849649358, 188.7152742004869 -88.52907749062415 M136.64361399417305 -26.70807416016779 C151.01237609258155 -44.074196836168184, 165.930331148036 -60.688394998410814, 189.94842568999857 -87.07352727287666 M137.6086211545434 -17.99281654624624 C151.88448971478059 -45.93451556904478, 171.07901219253495 -65.97356116550672, 193.2031595239261 -82.68299422967021 M136.56241148252164 -19.579894709454248 C146.84377639604622 -34.179247510549516, 159.23257611976422 -47.6518468985164, 193.6955224750839 -83.830978892298 M131.9022395283151 -11.885676840847232 C145.62210324980856 -28.271807215675317, 160.80235884082688 -44.338898102000336, 196.73441609963544 -86.26319263762623 M131.66286142328593 -10.906184704113862 C155.54159074795766 -37.62663731496927, 179.34753915260404 -63.610141108000484, 197.2650111184109 -85.91104132645957 M130.7908365720221 -1.5631606855990414 C150.0870214911886 -32.32359813208688, 172.0979038922671 -54.19595230698296, 202.7276235448593 -81.01296870709731 M133.22480960893063 -3.2506960738487294 C147.0407530607581 -19.77923583951117, 163.21657340984262 -35.91846572850834, 199.58108282430968 -83.6800903599217 M131.08513766763988 -0.5003547459695783 C149.51270073922257 -23.430120968514526, 173.26117828975896 -41.641992388595845, 206.88280680511954 -79.02817715822876 M129.8401310787725 1.7865940356245664 C143.60605331157018 -14.223227973929344, 157.05020701224424 -31.945166840616356, 205.5352256963913 -80.11587657855408 M127.57776500643764 9.968535735546059 C152.09958738842533 -15.375220467097371, 178.1264880382416 -44.43348345367128, 209.28540395313735 -84.12760966538627 M127.85297104995077 10.43946215745981 C162.78322231980417 -21.209156316681252, 187.71541608620873 -55.572073204029834, 207.10641949915234 -81.88618797506317 M126.71712900557752 13.062757589375511 C139.51651956432045 -9.748313975733275, 163.2447762938993 -28.682415658682263, 207.68278617343458 -80.95681816743407 M129.4640123908087 15.870646084556217 C145.10234798324723 -7.594957088189981, 162.61630680348946 -24.809869408049508, 209.19499313367692 -81.21464030953675 M123.306172460181 21.633974127858785 C149.37422362000598 -2.0618526707003246, 177.26166545666302 -28.420944544334592, 214.79162153384513 -79.23150026288336 M127.31287575034114 21.208493448051772 C150.11353018399717 -4.363385539729068, 176.18764928524104 -38.001197606796765, 214.13315317625117 -80.15758968143528 M124.02943805910796 25.24231930623245 C154.50752207252336 -11.647417385236615, 186.28447525872667 -43.9596758495919, 219.17508268236065 -74.04476474130712 M125.45879617239935 29.78780599416903 C155.98449990640347 -2.1655194959504662, 186.26200437261446 -40.22610220103138, 217.66648190371174 -75.71295090281973 M127.64471468343953 37.114871788253176 C153.8033904508945 0.7792568288795785, 189.00236065208958 -36.36332875681599, 222.05574982892495 -74.22729740862154 M124.1764359170774 35.83054072205251 C150.38745258510286 5.224544694775294, 176.37935876423097 -28.029711060951342, 220.34990842747 -76.897587039004 M125.83260540879941 39.64269501003755 C158.98006160771388 5.547950700360254, 201.7061960859313 -43.26239257487299, 223.15625386163248 -76.6634990557957 M122.54196884266216 41.32501099835576 C157.19681142366682 -0.42819045433313896, 191.80466561800574 -41.812855954306144, 225.25263560604722 -74.22031441160549 M123.70668561041381 46.22272651203705 C158.90168209128382 12.201020140464871, 189.9531937737832 -32.683112744083935, 228.02381565764415 -71.45440824966722 M123.02699454033788 48.8550828766115 C161.80940143908842 10.611276097807643, 202.2803370519543 -36.064252462879764, 227.94403257094203 -74.66378644801958 M124.36166808727612 57.736486506358794 C149.3991708385014 19.707460558476857, 172.10062719257172 -2.514374134077536, 234.58124769647213 -70.5188264562013 M122.03675500448047 55.85706687788421 C142.08268922489012 27.920132014447116, 165.8591570780543 -1.2482910588539364, 233.8233930658799 -72.91969977283988 M123.47524453824292 60.138119888799736 C155.4489456187675 21.169616218966304, 187.9344849924276 -24.888005360599283, 236.11632433293553 -71.70087220246212 M124.13252716573666 59.82783163914024 C162.3663819292553 12.120668349319779, 203.56358967694177 -35.50471186921295, 237.76307151210042 -69.56778673361617 M125.74642604513465 63.27094632308003 C163.41648739480434 12.795023890880783, 200.99466182606452 -27.9037503602652, 243.74242713310136 -68.9589698712734 M126.69495244758042 57.58891878212712 C154.38788842861035 30.894104316703295, 183.35526965538455 -0.8656994041891592, 240.25425059473073 -70.72865356004516 M130.01103713179543 59.24301778654493 C174.6893865164665 12.289171747946892, 218.6317733470775 -32.415473591171384, 247.3477321013198 -66.14921347087972 M130.56293346854085 59.831088824833955 C155.66271882400963 28.662166679581482, 176.23539920394123 4.873362657298054, 244.54786167697472 -70.69446703201196 M134.4852259652431 59.74250440103194 C177.19602045034108 14.816380791141189, 208.7423825265121 -24.340254438663543, 249.1370206032671 -68.27030044468007 M139.2388948801431 60.09469553927719 C175.57076674356102 13.564615790889835, 215.2697369350627 -30.00439550082225, 248.7219818935451 -66.60385743590591 M140.643274725192 61.84450315609219 C174.68200113577527 26.864395561941727, 196.03447370272877 4.35818103905299, 249.36254491977286 -66.85238286744837 M144.06389182570487 58.45256201410686 C171.44571231858166 30.155955950543227, 202.77497683074458 -5.5194752197822385, 252.623455420201 -67.4416167010879 M143.8886600724355 58.77090721010463 C180.39926768199263 25.691564876352295, 212.44705590253415 -8.11078132244426, 255.756361243766 -67.81097186577519 M148.79479141956747 58.63716461774486 C177.4050668109972 21.86255094847228, 206.7807404106095 -10.448135343423063, 253.55501764396536 -64.86787784276399 M155.46089844553583 57.21972239892001 C199.42019081393076 15.290102637318093, 237.81940695874528 -36.47206930797299, 259.7387012041396 -65.14510914318984 M151.44608689712456 58.25146903740792 C197.29799190704742 12.599676582814226, 241.58975865295147 -33.578346608010165, 259.3193314830905 -64.54091390668007 M154.4193125607232 53.75778387106228 C192.36011622300492 15.283218587017856, 225.9601388321863 -27.721613342049743, 259.8969376620385 -63.77941438039334 M158.01039315440934 58.80912169389227 C188.78897888376272 16.417575528259576, 222.14943770763148 -18.935852481407643, 259.8459936717768 -62.89676830453244 M158.75812564851336 55.53465185040025 C185.57100913617123 27.925428576987166, 204.1855955503586 6.078436548950139, 262.3522643720057 -59.57016202379134 M160.25343554690812 55.6387572643401 C199.82784527064732 17.759000225027734, 235.62429719302304 -24.651590649470656, 263.30952648521054 -63.57069551423333 M165.26698811037443 55.7648556096684 C194.11816262638706 20.307294611772836, 222.87480545316237 -10.704799231752581, 265.7259947153395 -59.09912343157103 M166.40693493950155 58.13824440502438 C205.8788342623436 6.99448439910826, 246.52282426878068 -37.93994282720282, 268.88875821274183 -61.34234032438866 M173.39935845639127 56.344135450166384 C209.7825269807989 14.360784076336463, 240.7173187972843 -20.368724282988666, 272.10586722185974 -61.13972566862317 M172.29060441240765 55.67767831555706 C194.40404165615246 29.882906692701727, 220.20239407863187 1.9406442065647878, 271.2398967840415 -58.39872959062137 M178.8864782646749 56.03470837144472 C207.28826201123655 19.628982847817255, 238.93815007905357 -21.62970663148625, 278.9813154248406 -61.24588405097894 M179.02671437702935 57.37208783229051 C216.8071809892945 11.618223231621, 252.16000711253892 -31.05146014274632, 276.31072030575234 -57.54287755912089 M183.76024925335747 56.76441033061696 C201.86167093633168 34.767505582173044, 229.1843099663549 5.587976703556943, 278.53093562350693 -54.395638697795576 M181.63315810256745 55.94747054509132 C205.1798900593135 23.44330918836711, 234.33013452833163 -11.588533982011848, 277.99760706866556 -58.698309445909544 M186.20516611442585 54.276518223518764 C218.73776956463345 17.70651705640158, 253.67953627406425 -22.088244334940484, 282.018893906291 -52.027734900715345 M188.46292577689093 54.59318507541773 C211.04931739414894 32.656081041130335, 234.84174405445 7.622723312168825, 283.37220622140916 -54.28897183110301 M190.3550928949481 58.322448074786344 C229.10801740152314 19.821146894063155, 261.97713046255126 -18.14268137315189, 285.76776351232667 -55.209346424344815 M192.33744377335734 56.38169976882264 C227.45962079441114 14.059753540505547, 263.65152177134496 -22.106596332796617, 285.78782303178343 -54.916282728665834 M194.60723173576082 52.24674020817655 C226.45375559652885 17.174415644648796, 259.76155523161424 -17.273246561514533, 289.1471018368979 -56.03544552157395 M194.98128961840044 52.394793104618465 C224.04322718922708 24.032765965161097, 246.80508360561856 -0.647824588077984, 289.41129255648383 -51.28522038796202 M205.57459950236566 52.98650925402029 C233.066418084423 22.586690749809836, 259.0581032230434 -13.858481229701228, 294.09385420380744 -52.21830689919122 M203.74394137768473 53.288172780494634 C231.9463774433314 22.85484604145852, 260.2103765841424 -10.056156193703574, 295.3749518223357 -52.35516292340848 M210.5368029409369 50.43899978770316 C239.63003539698343 11.984454657064099, 279.23332685016265 -27.84432811523785, 298.66722436353706 -47.93369106672479 M207.24384712081743 52.16860680156276 C231.9247619072853 18.64082742575019, 254.60496830112692 -6.937728630888346, 295.4736392372518 -49.4813219819324 M213.7454850629381 51.6640181705818 C242.97509320591632 11.625338179308836, 275.72884194879384 -26.570719799336327, 298.87930062334556 -45.788292914000955 M213.35602590446283 52.08097941135813 C240.55618051866387 16.568731156853502, 274.892568515016 -22.351125770140484, 297.3780062845021 -46.76732322649581 M215.73411119445012 55.56631964804037 C236.74983007307105 27.188326605973817, 263.043620629944 -0.3662820856747846, 294.7075393995785 -31.92148078341376 M217.6062888995593 51.45632297433811 C240.60589528488148 30.347043575589034, 261.28010070233466 5.472211624907441, 290.4696710373613 -34.06519336740998 M224.24213827206856 53.47169063152718 C239.00206619018354 27.6632773051728, 263.9915263779658 6.3244199572405275, 283.687830642174 -23.33006485704273 M223.5745118191254 50.4751806133999 C247.58437810399084 24.490597207624802, 269.38377935316333 -2.508032780074848, 285.9603120372326 -20.380643985387543 M230.2671673760126 50.5818743760399 C235.00040807349038 36.46541129792777, 249.375824275562 22.317192725462238, 281.2143536764011 -7.583835090079915 M226.77983938054126 53.772204978822835 C245.52185131940666 31.534062753547467, 259.12698740723675 13.257274477557324, 279.77410368040194 -9.8913919652732 M227.8977987069244 49.71715608023916 C242.3330817238845 34.91663360831504, 259.39073903511024 18.94415702286065, 272.5336406897058 2.6724287362947337 M232.54955503203323 50.646725407944494 C244.87935274099257 38.33075472508205, 255.6665582674378 23.636752018488504, 271.4979128874908 3.05568801519531 M237.300023435213 51.43732256330725 C244.50732496141688 38.110537482682055, 252.177235981765 31.480605921239466, 268.23967279658103 13.501104301272004 M234.70102927858835 51.39038813466058 C245.04493939755284 42.835763784564435, 253.50878001554187 35.593004603670394, 268.454828115992 15.263527585513199 M244.66282755039558 48.28507380325244 C249.0606863303843 41.42661379974381, 252.70902888822215 39.751931922506444, 263.1696028556812 25.10783171979154 M243.16921802164276 50.2595113771652 C248.48910489615827 44.03438285286377, 252.54002177065155 35.78885073295062, 261.4492005871186 27.56992593195762 M248.14722290096051 48.032530511250414 C249.59702436496298 45.6742453812834, 254.60902169221185 43.142633594860506, 252.50090108813183 41.412989938339344 M247.14094371796867 50.26744748602698 C250.445646551121 47.227585916599004, 251.7256976156364 43.54111849538298, 254.44418312440843 41.22879936528884" stroke="lightgreen" stroke-width="1.0" fill="none" />
  <path d="M151.34549664209854 -103.53158926196936 C178.57364403948822 -96.83258660642085, 213.64210612217062 -86.84148292282664, 299.6162523048074 -53.884994640892835 M151.22404264622557 -98.23742404591172 C209.59972480293354 -82.0591707947008, 265.43085361245596 -60.78836594931239, 300.1743410537831 -50.38299283496244 M298.1485794271103 -51.92247395865734 C282.42812985760537 -15.345760956101934, 263.1081601079126 14.347203047176462, 246.01026540622593 53.52142393194205 M301.0575662865572 -48.21778159971246 C289.2490073811491 -24.72354661800132, 276.33276837986557 0.5187700737820906, 250.97826239977883 51.704299723591795 M250.7892115399191 50.030243435888664 C212.8912620885723 55.01962644021009, 166.81433480475766 62.351679925225525, 117.87523529020848 63.482693653312836 M251.17350405602414 48.214288340981255 C209.70235064053088 53.73686642522778, 166.87010507139848 57.1086740914307, 118.24498144548619 59.49935506354056 M120.70311567406316 56.0967027023885 C131.41817273023455 -0.8072716539759552, 145.8613158998365 -57.58812593165233, 147.63600048498995 -100.62058904982199 M121.60480362344757 61.47570743759894 C133.83792355611823 -3.455127377554377, 143.77112253241762 -63.048408545855644, 150.1103592487566 -100.84870327024194" stroke="#000" stroke-width="2.0" fill="none" />
</svg>