<svg width="600" height="150" xmlns="http://www.w3.org/2000/svg">
  <path d="M20.12287610951502 21.15852289511092 C46.86522834637923 20.83611077451075, 76.82001468567007 24.377692638520312, 93.99049058667669 21.934281799075475 M22.646126001117032 21.360037281470905 C41.4971169599209 22.371123682509314, 63.398078110746155 22.012499894111386, 92.05663730420828 20.870795163001848 M91.82792213126056 20.0 C90.02312274900542 36.60958055260307, 80.65911665547895 55.21415674810127, 70.05692115313798 94.15406104247648 M93.5950985643421 21.286498310040155 C86.39625411827029 45.300527624284385, 78.52058098508437 69.8611659842604, 69.94996732108451 92.7820593319507 M69.16570854595048 90.6502080347181 C50.2199755159902 67.08032010494972, 33.32364864114543 38.00810707933369, 20.0 21.539658814588556 M69.10679890843527 91.29802255766413 C54.44347054113759 71.65712796340688, 42.654112818339904 52.48929386079678, 23.206801393283637 21.986076186676925" stroke="brown" stroke-width="2.0" fill="none" stroke-dasharray="4 4" stroke-dashoffset="2" />
  <path d="M141.1346385437999 73.4609027412063 C141.78565556955664 72.45551359628749, 143.82188948989625 71.06270192381498, 144.72857007347704 68.20663296910757 M140.6904173245074 73.83044040923633 C142.61845473646537 71.75092977458343, 144.38304051069423 69.5346012683888, 145.07728397668706 68.84925814959988 M141.53184262437532 78.31925463271344 C144.9810547226105 76.1456462843854, 147.19211371044833 70.60353015020439, 150.01510634590403 67.52014117531147 M142.63275002380624 78.8656032706385 C144.79857370334145 75.19320489616783, 147.81016161868683 72.26685255144235, 150.57206110343373 68.43495945847562 M145.7337224948999 81.95575837011043 C147.76518714999986 79.42284925455161, 149.17779237904062 78.30380806055175, 155.94565852832426 69.06925667820238 M143.42295396095494 82.83920607337208 C148.85974763584022 76.39032571841037, 153.00974883180396 72.58363226303175, 156.45360740323173 68.79964930843633 M146.72257734162883 87.98862317346558 C149.89287042088438 80.86166547926933, 155.30184643970085 72.65873981561998, 160.4124429559858 70.48458865592482 M146.29648705453747 85.12329093459948 C150.84453993330783 80.60435935790102, 155.39248694375192 74.86136164833835, 161.4673854362619 67.95481587227243 M151.05668481173518 88.92073196636827 C154.7950329063762 81.06090990980047, 162.9673677128356 72.17224024162138, 167.67002216212722 70.1425351479117 M149.1470171614938 88.0475909949376 C156.0119733866626 81.63307139918695, 161.8465091402727 75.75202822387539, 167.43466810996455 68.23213803461388 M152.34868676593368 92.6791474466757 C158.94558750442502 81.73574320946736, 166.43389178433875 72.96863343349179, 171.7479895490073 68.62371966664762 M151.3591152305147 92.73993196357333 C159.02356937285822 86.33695212282589, 163.18556056597788 78.32913884039229, 172.82660061158282 68.47839831265239 M156.07353504871372 96.2480485902282 C161.87467329872703 85.83887833906542, 170.6923310309253 80.33179651028954, 180.32476120160987 69.49032391106354 M156.3128065599716 93.61366879474221 C164.04070738007704 84.49025530131843, 169.64697307238856 77.07758276081572, 177.8633557871671 68.97948855342273 M160.18023512244315 94.28693873467353 C167.90567443206038 87.03010461679108, 176.48212853248094 72.60547670823584, 181.341200546042 66.35648162264346 M158.54403342529434 96.2696929153378 C166.5517274097706 87.77549368769192, 173.7642783285421 79.00728101692081, 184.47324876097628 68.01658834654341 M162.03106993157547 98.97545980238488 C168.96201838104554 92.11331019042785, 179.2314973522914 81.2491466315939, 189.66501548210078 68.63272689002758 M162.35908093292005 97.92211591579078 C170.55397971758418 89.68928170038086, 180.62394645922154 79.7442205193471, 189.28615315104798 69.1426274804449 M165.80112905181034 99.22912693652196 C177.60345463405656 89.48393247061841, 182.34932922883252 82.91277397282184, 194.6774137357562 70.66847326819922 M167.30663176295076 100.56761989546948 C177.56809400665549 88.61837237150769, 186.6561036722369 76.45736605989961, 194.94217639358584 68.14295408646095 M169.6571413161455 100.57748828546084 C181.70403970810258 92.3090757749705, 190.8393160702086 81.26218145626854, 198.57937718648412 70.20110067608059 M171.33112558606007 100.5109985390645 C182.25527536045354 88.81070665646735, 192.83825307095822 77.56410861187624, 199.80499295530615 67.82233140552597 M176.2832936332096 102.7904470124985 C182.0670655880574 92.20757486942324, 191.97306907513337 86.1307166723987, 204.64143200489525 67.39553868393727 M174.85706884230387 103.21951800329518 C187.1930591036445 89.2924838960559, 197.9366173601212 77.38395842324508, 206.18757349651992 69.58644876942384 M182.31536428044137 101.9570307456506 C188.3116236818728 92.10684323379206, 198.0699667200982 85.39811853792727, 210.0629554329243 69.18066275956082 M181.36209939879245 102.18043248610653 C192.69529528585554 88.86342296815101, 205.1438859303397 76.003615715193, 209.6255430374885 68.1851744269502 M187.55966824997637 102.78642824995879 C193.65002124845563 94.85693577778022, 199.48687992591954 88.64893901687685, 214.47736098434797 70.41277214684439 M185.8410437203994 103.52124992622223 C195.41358178298282 92.14145221126623, 202.44213468128982 81.79325000429904, 215.30462343792283 68.1358124697301 M194.0326923611879 104.5400002313846 C199.92250522877652 95.53946288418007, 205.57228425111816 87.61247957739445, 221.4690629322575 67.9931888825908 M191.09030364095713 102.88348880820394 C202.46837311777847 89.55748750283632, 215.06837337141332 75.37302320362818, 221.04055818805256 69.16429336531371 M198.02776759909727 100.28910268739011 C202.68837255776282 94.92186513585466, 209.66613580405715 84.70161690716392, 226.7284613347253 70.18879701258587 M197.23565257263812 101.42847255530131 C206.7650925352309 90.17890442963122, 218.19870116474243 79.11473565605542, 228.08030876334095 67.67445931023113 M207.20383581824836 99.82990166978664 C214.3649194165517 90.41628813339037, 224.2892673487283 78.67705347829062, 231.34689490534078 66.76131738803309 M204.37437511765074 101.19313519809691 C214.31736055039352 87.39873763541863, 226.50298405635738 76.28412311506727, 232.5546693543974 68.62855462177617 M213.34193882887553 96.08224742508068 C222.7134247480006 88.37812039497425, 225.85240057899108 81.93184535744666, 230.1578704827519 75.98739467435658 M212.87249583703 96.77234827917175 C217.4238257865416 90.68543151271902, 222.767286703997 83.29297554311756, 232.79360547340826 75.42355155282658" stroke="pink" stroke-width="1.0" fill="none" stroke-dasharray="2 6" />
  <path d="M234.5811172909577 71.68514412970117 C234.96986627366414 75.33823446249744, 231.83858442380205 80.84144191990438, 229.76910745690287 84.025273919126 C227.69963049000364 87.20910591834763, 223.97231120868526 90.46198333955778, 220.7846041782962 92.91069079117867 C217.59689714790716 95.35939824279959, 212.72337199646324 98.72665617699988, 208.51772725430925 100.3499902632654 C204.31208251215526 101.97332434953094, 197.69139535868504 103.2257022278979, 192.74697256393648 103.73291803294879 C187.80254976918792 104.24013383799968, 180.45646841362185 104.62168105154853, 175.5549086226522 103.73142896360469 C170.65334883168254 102.8411768756608, 164.12449651539384 100.0605049917971, 160.06990729080553 97.79790411332309 C156.01531806621722 95.53530323484904, 151.2544656616538 91.40302711265699, 148.52431379206348 88.64742310711111 C145.79416192247322 85.89181910156526, 143.15296823279573 82.42799179609554, 141.86889482687042 79.4272107430173 C140.5848214209451 76.42642968993906, 140.24958498037444 70.25996528505362, 139.96382441922805 68.64221608658946 M232.5970224953919 66.37535448849263 C233.55909230462163 70.05164897629854, 232.90777193507864 76.84567306159366, 231.60104419255237 80.054466343419 C230.2943164500261 83.26325962524433, 226.66013915913624 85.08260974616908, 223.88550421188341 87.7673097006616 C221.11086926463065 90.45200965515409, 216.73501820290863 95.66863222045416, 213.10347787753363 97.9524660400356 C209.47193755215864 100.23629985961705, 204.25045757172535 102.26649766675874, 199.67523537605018 102.99286849787126 C195.10001318037496 103.71923932898378, 187.79365553410963 103.12930327033874, 182.6019965730323 102.79493824745236 C177.41033761195496 102.46057322456599, 169.5353057691604 102.24353791532823, 165.06417563553458 100.7637683452954 C160.5930455019087 99.28399877526257, 156.09268744968563 95.83752665623089, 152.79446234886007 92.92980778056682 C149.49623724803456 90.02208890490274, 144.76032164705947 84.63319986706634, 143.0760082966978 81.37897584086826 C141.39169494633614 78.12475181467016, 142.032534261403 73.1454949023881, 141.56570667978252 71.23498093924627 C141.09887909816206 69.32446697610445, 140.20410675831124 69.031130814488, 139.96382441922805 68.64221608658946 M185.25477214474893 68.70692335050407 C204.62100895756214 66.40820959475471, 217.75134326685952 69.90911022105041, 234.97299753512186 68.86864859091952 M186.86954780191815 67.6206281348309 C204.02961356859805 68.27282070788354, 219.52348625886225 68.5373845048978, 234.1606621652931 69.32929415692979 M184.6064168417089 66.52997618383091 C172.96896666565215 70.33102579279006, 160.9012889327637 70.46516040154529, 138.50311498645488 67.35530441143428 M185.79066718227403 68.47804371476388 C171.98400021754526 67.21387610020685, 158.05888357283692 68.04954584568358, 139.90114000602875 69.14223617126106" stroke="#000" stroke-width="2.0" fill="none" />
  <path d="M280.72497403746837 39.69744642308721 C282.61797355604944 38.001635889814374, 282.54506918246665 37.63414350936946, 286.6059967322712 33.425030846801924 M281.1382324497226 39.37279434285757 C281.958365338208 38.36850394314118, 283.37860406099566 36.81177078862687, 286.2628411991571 33.65983967594599 M281.0233334367582 45.403770107876184 C283.2849874121289 40.435680998361036, 290.146598330165 37.65961319522497, 292.5600610874458 34.734503780353165 M280.6499028284503 45.247277292359854 C283.2755074289051 42.367803302196975, 286.9789281248812 37.23270903034378, 291.46426641977706 33.270106768160524 M279.14318388690623 52.520958141444105 C282.93162251660345 46.67381866585951, 289.4182626511711 45.1579723451456, 297.2659257200489 34.37267768046616 M280.79378343784316 51.53557983059806 C287.9981536896749 44.58379653073729, 293.4146705631171 37.71825935327153, 296.65822529557204 34.11333262502584 M279.2488988411929 58.86293878596419 C287.4186069554336 51.716894559965155, 295.12575928503776 38.833980243653095, 304.25493746766887 34.25083013306061 M280.1053702272743 58.761326329054725 C288.33312172654263 48.965547325053464, 294.9459183374545 42.727716140491374, 303.5120973715681 33.829720337555806 M280.01473752939415 64.54121846522818 C286.3105322760385 59.22067784549887, 294.5867693763091 48.329174790199616, 306.2387115100593 32.407850785568385 M281.1865736452208 65.06988809819552 C285.9184278195052 57.56901441382278, 292.4656541344334 51.115394822377574, 308.21421257166423 33.06669532608761 M279.96718904935807 68.88686513811268 C292.0320082328559 57.66614723789714, 300.2285127280936 46.2526964558523, 315.3267755246071 30.998045352176277 M280.297703046174 70.46057651329181 C291.95960882462634 58.15853907750461, 303.42852215470157 43.20562305274347, 314.2114120486352 34.15230944241008 M280.3942392078731 76.80222768268789 C292.1660040668233 61.04058984279375, 304.9580013968824 48.07190953943721, 317.8062100709959 31.843793878537404 M280.08999431066155 76.06002589243303 C290.0535330116098 66.473546691841, 298.16930738380114 57.87650495573118, 319.23768251459023 34.39024081623281 M282.64132913025475 84.53422584692728 C289.9746953221064 70.39168946384206, 302.30728563986276 58.98738903877709, 326.2641069898768 33.103943401414725 M280.3651278774308 83.57417469452898 C289.33014922508494 72.67788542931979, 298.9548424913991 63.587819315199276, 325.0803201914741 32.990860143233235 M278.58302896620125 87.75378742217464 C299.70251456304976 69.48180309803953, 316.95960420789385 44.04429961170389, 329.98610931464776 32.74351717074701 M281.298622949925 90.18527344693564 C299.72975182817555 67.78361403702783, 320.11391577144786 44.92207259255267, 330.7407972397075 33.51895424416631 M281.2832833046186 96.62088860677699 C298.438204124651 73.30957811985266, 322.80765466148716 48.59695088760111, 337.01040540404375 33.51407864519901 M280.6755169744918 95.2922856516573 C301.51095081354805 73.88380511439053, 321.03231115881965 50.6057996673495, 334.2144294726784 33.26514750249771 M279.3176026843153 104.20648230037224 C297.3855665255987 81.381178049928, 313.5215988500127 62.22167296087748, 342.66875440662625 33.8935603582035 M281.8026851772882 101.67545502182531 C304.81060221427515 75.87892607302169, 329.57379656909444 47.55393974702147, 340.2386805980863 34.18448901450467 M282.42020629857024 108.57696870196065 C297.4874454774699 85.33392961985305, 317.8914948759739 63.382256376332144, 344.52670832671714 35.648346510879186 M280.2715379220909 107.71878934737174 C296.2755625545113 88.41743941919856, 312.67326554946794 68.80595902512678, 347.103066902784 33.203812703824255 M281.1112758713955 115.47174070355473 C298.1902622324651 99.28856695429431, 313.7870884956774 81.7322666823899, 353.8256676935341 33.49186008325491 M281.75625915247775 115.21449823416427 C300.3247615825847 90.78394396690604, 322.01448586078044 65.07944082575744, 350.74945325531843 33.11143018082231 M279.43173265184276 119.75098083457232 C304.736534940708 93.18530423954653, 329.4130922445524 65.14149923592834, 355.66388787143757 32.79156448312525 M281.85937020815584 120.19135950758223 C303.40359960956613 93.20829750812965, 324.6788355615108 66.91793955079058, 358.1473174652588 33.70828245870053 M282.4506190633287 129.0735051110343 C297.7520924166084 108.28592986595535, 311.71481898947815 87.73998741603222, 364.541958311824 33.72843716373149 M281.58445371969503 128.2993734427853 C305.15031191940506 102.07576208895543, 329.75266092133904 74.86488496880915, 362.3998779428911 33.389297616731646 M288.4448587412004 128.9412916827217 C303.58529195287707 105.54421430780627, 327.90884840748157 83.30019746923094, 367.4786396900634 35.113029046384554 M286.9473218377098 126.41117099092475 C312.89379833535355 93.88349292326038, 340.61390579237127 61.83943193783719, 366.8113308871538 32.66084099797185 M290.4702112632939 128.69057423950656 C317.3460274105989 97.06550219222291, 341.9845629845683 68.65997803000505, 375.37169240903927 32.19849991749471 M290.8322639499977 126.94368251790712 C321.148176946392 95.21747822860536, 350.3947971363096 62.57139243442591, 374.1394747902889 33.218472877636735 M296.155954146452 129.11915776383086 C322.9945565672759 97.43090409860713, 352.7080765017321 62.22870933429355, 378.53548006278476 35.25339542069712 M297.35771639113534 128.11932456403952 C320.1218205390629 99.0783708998598, 343.56507757786676 72.3954198886751, 378.182495273427 33.92467401841381 M301.7624592835979 129.05648391805943 C335.125019180728 91.39810357024234, 362.8829446940062 58.52378967387603, 384.1535100901081 31.726441183165562 M302.92667600482173 127.18455793980556 C325.20083685174427 101.00782238519784, 349.694653973992 74.46478933704302, 384.1171540615241 33.91586286103826 M309.66138569693584 125.48749758922742 C334.3746086127144 102.0119589225043, 357.4883908251163 74.17020012369454, 387.88654620055115 35.49749379408604 M308.10483418619253 127.79656758131279 C342.6571435919921 91.43781684810477, 373.1297538025761 52.612013784131676, 389.7784708286945 32.232480598748566 M314.7683129918197 128.31960970347862 C340.87164275080295 97.50737793455451, 369.104772867198 62.93905804569767, 395.0079837826086 31.092453371680996 M313.7698198210971 127.20022987216583 C344.2073746920737 96.04126749682288, 370.2410186430375 63.62949892032908, 394.5103920508749 33.82713019183992 M320.5631169099624 128.2952614080313 C338.63902177960097 106.84560842349163, 354.77694640365445 83.05155151725106, 400.4233688922017 34.50885153160061 M318.06916615198895 127.40223106486894 C334.9603033095486 109.39339612933622, 352.7435859982092 90.68267567935271, 397.9014625921343 36.111202058906784 M322.7495446039196 128.49445868220698 C351.2270948652665 96.78881164660825, 378.6715463663448 67.3234893563127, 396.140984444646 41.66546592061824 M325.3203347840159 126.88549414618885 C348.9053951970218 98.47791098799689, 371.8277078825462 70.04529389033274, 398.3742891353263 43.2717368659926 M329.65146776247883 126.31342005279382 C352.7347651973805 106.63871253064289, 370.4592093371524 80.56590150388638, 396.4978857773909 50.00392995223361 M330.14502737551464 126.49242482903529 C357.7948664993262 96.29008246546067, 383.9857293568189 64.45069961473669, 397.7885500590809 49.718108339410044 M333.080687428238 128.52956592622414 C355.14082685064784 104.0908928564389, 378.1755786557369 77.67471704837703, 399.3661222300676 54.947551539305685 M334.77042816848393 128.23470789232152 C354.21165620806454 103.15515511649909, 374.1276769007934 81.07224829132332, 397.35109896724936 55.871869663568255 M338.8204631896545 128.43060580262434 C358.2129057216456 109.36893540610325, 372.09593184787036 92.15885948490697, 399.7694160134381 61.67484470433847 M340.05858142125226 127.90266693108074 C352.18466711859924 113.88094058201705, 363.7028042698794 98.30356977640679, 397.15535685968985 61.53590214000072 M344.8283613789181 128.00876110225968 C368.29685429296643 101.49082936495921, 390.4208897951458 81.37757681109795, 398.7912880548586 66.6893408767796 M346.9951074796452 127.96865077034872 C365.77484505002917 106.95500011975207, 383.8748355780509 86.89639175579114, 397.9146935643503 67.6062812175326 M353.04816743396776 127.31688379575593 C365.5455005622593 109.39273876214176, 382.6184081287166 92.4149132352099, 397.54246648777513 75.70532702347089 M351.9058069610014 126.55031393124827 C364.4239788314574 112.67368407617806, 378.62280459473413 97.79836018209735, 397.85317691627785 74.44939182758773 M358.7396098493768 129.67779953556442 C371.11205065333263 114.73217659511039, 382.54922000738804 99.8969527658331, 398.64194761716186 81.87596483427595 M357.81253810240287 128.48429726442922 C365.85559676839193 114.69824805960414, 375.8258074765617 104.03812993528766, 399.2201490905173 81.00262260071827 M362.5511213239342 126.14003710952363 C377.755277715799 112.29274208616579, 389.78440725751744 97.57846160190161, 397.434130196641 84.49112396567432 M363.3128539866119 127.2190699880922 C370.60982142309666 116.65216752222355, 380.66723233215555 106.24598554834324, 397.5654505002 85.9232110069184 M369.7770299325216 128.42241252022663 C377.36234448043587 117.05468870050774, 381.1993426737383 111.5659533127114, 397.63857458645265 93.2343076008917 M369.04312293402285 127.66086172297128 C375.17792573327716 119.80706370341144, 381.03776568220553 111.51569070898518, 397.2369594852895 92.3121059336519 M372.59631075920504 127.49215475484823 C376.45227297056294 121.74858797656708, 381.68797318678565 113.83921886046889, 398.09321207783347 99.30746641268198 M373.71413839641815 127.80250972564616 C381.62663081441116 118.64470929939097, 389.74828342693934 109.09698082091549, 399.1409277648712 99.91192521958504 M378.2537414826438 126.1363844218024 C386.5633033802523 117.38694187914876, 393.8238699786571 109.40148884136568, 396.6864050491577 106.63505592213107 M379.20299040577896 127.92086857888884 C384.27427089002657 120.7907059678121, 390.27269710732406 115.00253011858032, 399.07367732745826 104.35456096593765 M385.11337862034117 126.03329407326302 C387.6887320370334 122.23812064810556, 392.97519427270976 116.90049777287541, 396.6973728542183 112.22929915804184 M384.2587142062413 127.77988137750188 C389.7000534985581 120.9274170235648, 393.88511877366534 116.5371217509429, 397.6148652881609 110.3258026665778 M388.99702420656837 127.59096338419204 C393.1782045178982 124.22780525115849, 395.68561641199966 120.91102932187204, 398.13010846150235 116.41956615277468 M389.99973645471505 127.90427938666298 C391.97724139281956 124.20949911580124, 395.92576434491025 120.77450272207929, 398.61503848551695 117.30219906216811 M395.409268883902 126.99223401118923 C395.95696268726493 126.37984854835906, 396.0935424825728 125.89001957075448, 398.3843130776664 124.25184987054172 M395.3073891823467 127.4281598575657 C395.968054114731 126.30892704030225, 396.4477040253225 125.83480382048108, 398.2365005427798 123.60911263256622 M287.5089664707128 127.02899125294726 C284.8785646145177 125.65794344650504, 282.54435278610896 123.36825337281235, 280.1915451503952 122.70188283688961 M287.260888149932 127.22688453651844 C285.0496193555044 125.79125061704178, 284.22716386703695 124.45902970070449, 280.3782898226215 121.53866718871791 M292.30000994896477 128.53944274437916 C289.17919277632666 122.44998312200025, 283.18802861472824 118.76217405182885, 280.121941144166 115.23403157585722 M292.9379301971961 126.68240881024275 C290.90718415413744 124.33293358548792, 286.6881879974529 121.7388810808176, 280.6865459988457 116.29434475700123 M300.981222572735 128.72667019766027 C293.0049293637559 123.24859486377161, 286.8046691979806 115.691547108257, 280.9066226903699 112.70602584842678 M300.0391299901655 127.94085748523815 C291.69842001618656 121.69301788753074, 284.3109001005917 114.96558416825121, 281.76456955228485 110.7220014340393 M304.3617807295976 127.97486680635436 C298.84904527357503 119.20746352300617, 293.10212745106975 114.6598190648512, 279.87487799122346 104.64218277916288 M306.3095448239227 127.13935320976958 C299.4006479502597 120.82057074754812, 293.16982212067524 116.03151388437695, 279.7386828587134 106.5206380921542 M310.24994953205226 128.83949338827833 C303.19522512448424 117.88932629692198, 295.93451085117454 111.52132525271207, 281.6685396835298 101.97927724846582 M311.0353843372027 128.34708500531113 C304.8492503946355 122.04299688337088, 299.5282456564895 116.3794316191804, 280.0584321148442 99.70290222872944 M316.59888203486855 127.88198005692047 C310.35120454938505 118.53117734711628, 303.16446310673973 113.40633616510934, 281.73592779634134 93.46068865242819 M318.183317984622 127.06580438375025 C309.5382557911023 121.06355206439076, 300.23938669413064 112.92792293011524, 280.53358124657194 95.0030394395622 M322.59868283518495 125.36476204835662 C313.6494710367641 115.14839896230609, 299.80224205198806 105.20836304471354, 282.7356602875568 87.37318443807129 M324.9558312855494 128.1349230869952 C314.5886262062251 118.36182479638597, 302.6080559384344 107.43170859413291, 280.36350344496566 88.56437547694097 M333.0231340959955 128.0457714568807 C321.2509951736676 116.3440837321512, 308.119346326544 108.86024390806094, 278.4362635928057 83.5386783241542 M331.3526444276157 126.23041532436562 C316.2058405176544 113.89594229578086, 299.7838452511931 101.60395060282738, 279.6598969106716 83.82025978799612 M336.7000298444648 129.13646720886803 C320.44773674672484 111.31412562783532, 301.20429052787216 97.86787483056423, 279.7736884541027 76.7592951520345 M336.9247171959491 127.53218361565857 C324.97312399686535 114.99882149429456, 309.37101632259885 102.05205179304792, 281.50214542395577 78.78709370132574 M345.5496508341995 128.57605143683313 C325.04373783016166 110.52102848270195, 303.7362400966392 94.93640096346635, 279.108415895252 70.75495912971431 M342.42947057730163 127.376771575748 C324.46393400602807 110.17548165838787, 306.16240098574474 93.92946806648487, 280.81998884404373 73.86535918638216 M351.1242635332636 125.08152510513617 C328.30274517787603 112.7100223687751, 307.83312091276025 91.45684677311053, 278.7122636729465 68.72909240573986 M350.6108294663385 128.12326549927138 C322.9626495231911 105.93129243579699, 297.7738804917281 82.95344304216243, 280.0246027116254 66.42420604745979 M356.22089903436836 125.41191869735852 C337.5501611654752 111.78126614741143, 320.9861644899105 96.22039259524232, 279.2809103890955 60.317367010904654 M356.58440775165366 126.97550443637451 C327.28799977469856 100.2586475257329, 298.1317644606748 75.83577164982123, 280.9029296952133 62.134833507713346 M360.60304326253106 126.83585965848567 C336.5886427967854 104.51544521647807, 309.0226869026776 82.11830574425164, 282.4250008576763 57.822187358987854 M361.5623338803878 126.59518611568834 C336.92903407346466 105.41620209539388, 311.3249232214905 83.871570613816, 279.95388518920373 57.44792290950356 M368.72399944540473 127.10425800759307 C336.59316035069736 96.72120035876654, 300.30362098862366 65.30589991094067, 282.09099957044714 53.05762295068224 M369.16226779162974 127.11697564598603 C347.3918422505603 109.57879917320875, 325.10098337043956 90.46134854551707, 281.35303553485505 51.02603330713986 M376.3645599172472 128.04921173518198 C344.96668565424244 96.29439313295836, 308.80471895784206 70.358294669191, 279.26603328570366 45.65365480000547 M373.9298671760258 126.98699701836986 C338.34190313994714 96.95937533926295, 300.4798955141828 64.88395813308523, 280.2748713142215 45.89393692602239 M382.3123641523915 129.30753071556248 C344.08652675446456 97.89471607891994, 306.34816060918257 62.00119588373684, 280.9605970276683 42.06289737532293 M381.76263072973376 127.95322041692336 C355.0634931129844 108.23355722544522, 331.7282652782131 84.7668002438819, 280.0923010643257 40.349934126163404 M386.9410570822554 129.15127759577626 C347.5711322370516 91.89406374362528, 305.45606709076316 54.73813516745604, 279.5801609720965 34.56810371590572 M386.5269946466976 128.3435402560963 C349.6521120885088 95.73277960993124, 310.5866966100793 61.118259403558135, 281.57833253008107 34.64782315833814 M395.4216542772093 129.14838739282607 C359.1060459607548 98.1698848173564, 324.4919494484477 64.07796482568554, 286.50757811582747 34.51093662874727 M393.0668766172935 128.18977396370695 C364.34068775964863 103.37061219174552, 334.4413242338243 77.90604584494542, 285.4997316090428 34.32632951725795 M396.30722563602654 123.65736817914473 C370.61859615812125 99.43309015755801, 341.40434516363655 74.7346874480105, 289.8151808040126 31.128718461540316 M397.66359294797854 125.78099956392825 C378.40718823383315 108.56377996391126, 356.8394765590962 91.27450806085253, 291.34421284630264 33.50268633726919 M399.60137856223 119.94494996577862 C373.69025676339265 101.86030036271592, 351.5371525772219 78.46806630055502, 298.17334350646564 32.49314543474242 M398.15627698051674 120.1308611464388 C369.9505240090116 95.35444075080815, 344.4722342414892 73.84837920882717, 297.1747904584766 34.4915215953665 M398.89484654176874 113.4366539482607 C374.4252033906426 94.23939670271204, 348.94373696332855 73.22083889423729, 304.5163888514833 32.70121745793467 M398.84071247919155 116.15056032965887 C366.59214240887013 86.9443044103665, 332.9818711456189 58.36724610865696, 304.53200148299146 32.750796925938786 M399.3648817134892 111.47512026115137 C376.95198975273377 89.8332063352774, 355.5668624373349 69.98847489373463, 312.06804025351704 31.049947477591935 M397.2680154593145 108.66682015216116 C365.31559656702615 78.81164255945154, 331.5910673270809 47.51451111315399, 310.49367929707034 34.33016521934477 M399.66385645216195 104.21367319963827 C380.17102314482213 87.37403167010021, 361.123284625398 70.08178180862095, 315.4786408783833 32.65815734940433 M397.18948820964255 104.7761904677659 C379.38252794199116 87.47202255479428, 362.98942634676473 72.90272465619591, 315.9310117818021 34.504536281962054 M400.22063113652325 98.14130130601376 C372.8147727440967 75.66159510389627, 344.736157644903 51.03319431497774, 323.88516446253783 32.94363420951204 M398.68484887399035 98.44638595181962 C383.2338233234852 83.29379523770311, 367.7784445152921 69.32620628568375, 324.1847842692098 33.75962796926163 M398.17900882490164 92.25449822051078 C378.98244616059895 77.87747673428055, 359.4421900212144 58.081281663653165, 328.71652097394434 35.06673990978552 M398.2327282858736 93.8028128819744 C380.7223160918547 76.86061152899637, 364.09942824562887 63.109622076580926, 328.2712663929504 32.824332198849454 M396.2997986962441 86.2975610599135 C374.00035899321796 70.54521852922784, 353.2747970606793 48.907832940139485, 333.4234994298808 31.035091381647156 M398.4487971301855 87.12244224395428 C378.6563513975138 71.48759826981998, 360.1862359841722 54.19988612103771, 336.16691074099435 33.02813739189044 M397.84748568437493 81.88491578273349 C378.2132632514285 62.29596385424107, 356.37137157327214 45.033247486340166, 342.6334662456572 31.853364745389115 M398.5454960949582 82.37893563168885 C386.47781001617705 70.33966712534115, 371.2183805642128 59.17717754968019, 341.42187072951776 34.00167425034863 M399.2521913348249 78.03285433088038 C377.3099138954215 61.481492318106774, 358.2492525925546 42.73920422412029, 347.12418303143954 34.64794281002393 M398.8926665819236 77.68145055582747 C379.47566330233735 60.16315541960798, 358.0370770392909 43.07701972564229, 346.9708033826469 33.00695339205501 M398.64504332028133 69.41270391556012 C381.8170761450263 59.03066417350195, 364.6689860028306 45.88095680996393, 352.9599705707543 31.701337937979034 M397.8981996059219 71.49582618616375 C388.9986029905622 63.035601949027104, 376.82730042258237 52.52452999295752, 354.31883954135577 32.24598871756624 M397.1583333695677 64.91492145965 C390.951088284472 59.262019740621916, 381.86952118543695 51.38033882782374, 360.96220562571216 34.53843374683233 M399.0410404364085 66.16142704011332 C387.09660001656323 56.985878528422475, 377.13558572440365 47.80546317150329, 361.5659298140841 32.58552209526855 M398.2837438059273 60.31768012421202 C386.09462341281903 49.21683124766487, 373.5698326210293 43.26942861319744, 366.43846783332737 33.79331738608567 M397.30453746460006 59.80914943343709 C392.0020889842016 54.29983505703767, 384.13297734271697 48.664601295689124, 366.42189155430077 33.780812151651496 M399.56191571806056 56.575140826731236 C390.90720938735814 50.82702444669312, 386.48252981949776 42.578252114801096, 374.61080799107907 31.635392711847217 M397.778701740614 54.09107557949201 C392.7239087780882 49.303802371402966, 385.4082460197403 44.30010124225932, 373.045650049 32.335954171048286 M399.4094511568375 51.001329859205555 C393.3687210603907 44.92755083851676, 384.631738510657 36.2230745043641, 378.2800895914317 33.535487495954534 M397.5745794575312 50.35082376032119 C393.7621089981626 46.97021289301824, 388.31253778811316 41.41624174233427, 379.8671688083288 33.09995428548736 M397.13079704287196 45.43804151835291 C394.1354778700072 41.06647780014598, 391.5529858664605 38.79870488002787, 384.08586066770386 33.35409777928026 M398.2930079961154 43.8526653280675 C393.40869403043854 40.08053193670947, 387.99694212538236 36.537565150380054, 384.9748370471213 33.49524324425082 M397.49456402166106 39.41175465866325 C396.5451022531641 36.8884433198119, 394.77197892370987 36.350878364485645, 391.4550719911898 33.54081107094216 M398.61140139927676 38.66950041968085 C396.6600432330447 37.16408004529819, 395.4086048442091 36.179669123925606, 392.22922539371143 33.73886820308486" stroke="lightgreen" stroke-width="1.0" fill="none" stroke-dasharray="1 4" />
  <path d="M279.57800346959766 31.858513617193374 C314.7956058611955 34.94959239720151, 348.87254813082916 31.35898557179324, 397.5418116838837 34.25750206213507 M279.74396888839675 33.815419282727866 C315.11180097825275 33.46045930531965, 352.60446036854813 34.999712302666495, 398.28170473851804 32.743857346344576 M398.11799980560215 34.244024981320145 C397.96843101061216 55.932289341818816, 399.90184941534153 75.21590313356748, 399.6132032562235 125.59815883230175 M398.33135660166965 34.426957908332724 C399.8659316680467 61.4369571626739, 399.37088525168724 88.2098768420665, 398.04397968354004 128.25360093046058 M397.3103005243047 125.58333178167138 C352.1315460399 130.00000000000003, 309.11681523629784 128.44617103460322, 281.38212848145304 129.65509613470863 M398.1669543915144 128.1917010495111 C362.3888056333915 127.15079900712703, 323.51641139655817 127.1177207943791, 279.6625845056376 127.14436271262974 M282.5112928929003 128.5682535936281 C279.8328828225905 101.14444344653532, 281.6717859086617 75.36562078099081, 279.8249021141723 35.115237678200074 M281.3803806176482 126.82974055467011 C282.35441073648525 92.33698327242479, 281.4622079369887 55.01902905017623, 281.5316713192275 34.2926964196988" stroke="blue" stroke-width="2.0" fill="none" stroke-dasharray="6 2" />
</svg>