<svg width="600" height="150" xmlns="http://www.w3.org/2000/svg">
  <path d="M90.90634813628107 66.04195485805083 C91.26559634324926 68.41262147548132, 86.46582539128667 72.60148965287479, 84.5703531303495 74.2996907174118 C82.67488086941233 75.99789178194882, 80.36366055966289 75.88944345382181, 78.26986639669998 77.36329528829756 C76.17607223373706 78.83714712277332, 73.34603078266588 83.40053303821439, 70.61172537726344 84.12536961391683 C67.87741997186102 84.85020618961926, 62.96540295601723 81.58897939162934, 60.04116369401709 82.1955391263138 C57.116924432016944 82.80209886099827, 54.633835594255416 87.63457424502415, 51.11679696392915 88.16910117847986 C47.59975833360287 88.70362811193556, 39.3212431570326 87.81320289318995, 36.594239491841925 85.75905201601844 C33.86723582665125 83.70490113884694, 35.20130471383183 76.03810426215674, 32.9367725293247 74.4747619973365 C30.672240344817567 72.91141973251626, 22.99471652358872 76.79735010849527, 21.49735826179436 75.33677025055022 C20.0 73.87619039260515, 22.73583023902711 66.3274440402966, 22.954384117362302 64.73756294436949 M79.82897730838464 64.2016744796848 C81.54090640167627 66.75264523597679, 89.35319430015973 69.57742529227066, 89.36445624387807 70.43013808875554 C89.37571818759639 71.2828508852404, 80.87019565432978 69.05574553974205, 79.90405693317342 69.88642645625067 C78.93791821201707 70.7171073727593, 83.98032361651636 74.195853459513, 82.92353143616899 75.96801086547971 C81.86673925582163 77.74016827144641, 76.66962461418676 80.54439172078644, 72.8587757308577 81.7008091626954 C69.04792684752864 82.85722660460438, 62.1151661239569 83.69638120972142, 57.51787221397532 83.67746047820616 C52.920578303993736 83.6585397466909, 44.724877042752915 81.51146076467403, 42.21014966431383 81.57467095259369 C39.69542228587475 81.63788114051337, 42.42757927003128 85.68359760019534, 40.75302302438145 84.09886173100395 C39.07846677873161 82.51412586181257, 32.56489756614552 72.9632016721192, 31.04644135998158 71.00976515798449 C29.52798515381764 69.05632864384978, 31.84379023634809 72.01678196881484, 30.629981649955205 71.07595163677259 C29.41617306356231 70.13512130473033, 24.10572374725124 65.68832124822995, 22.954384117362302 64.73756294436949" stroke="purple" stroke-width="2.0" fill="none" />
  <path d="M131.07999083074665 45.77217552083489 C133.96850128700507 45.06887863475171, 134.6049685192359 41.29570167783184, 138.66594764168102 40.009177830953035 M130.60565690071553 46.55009857262334 C133.098457011572 46.383571337771585, 133.45631444241133 43.40690913232065, 139.11654274866387 39.866146540005474 M129.5712215782631 51.58555610925433 C141.6457359672691 43.64442904764192, 142.72038255477088 40.23463418208904, 144.96407144004607 32.31950196730903 M133.00495009448935 50.09338937329497 C138.20011461443144 44.22138407072978, 143.92038531538856 40.01498859457644, 145.5820407907 36.5292668381753 M132.19117875380365 55.28342038154054 C140.08146916110542 47.323899562553535, 153.45718375932285 36.28872797343975, 153.9073872862489 32.92273314904557 M135.52584466973875 55.14584529783623 C140.54558424081998 46.32860197537396, 144.51207316170422 44.06994810938872, 157.38378541495902 31.464950877826116 M139.92068230883257 57.238680684980906 C140.6792600334516 47.79121869551861, 145.34083700408104 39.346247892485025, 168.02287018550405 24.824440280963742 M138.46659174877627 58.43135886460527 C146.45687203333543 46.50359216569066, 156.66054796952588 34.57298827633389, 163.2921100917224 24.80643747920429 M140.8675464566147 58.80740099393729 C151.74835071057944 42.97341327740757, 161.63794687452793 33.79925801594368, 174.38234517026035 23.930285985834168 M140.44575906759684 63.29947575224389 C150.80531637196088 46.143305288568925, 163.10252363266497 29.321068479153993, 174.45909488801445 23.911532663831053 M139.89404001519623 63.05726872673394 C145.87662379023374 50.881148579941495, 157.44043626546048 42.16887154831848, 174.5892655392559 26.291610779926156 M139.04837323709393 65.0622915162242 C149.06004158936213 56.10764431019284, 161.54041597901897 42.10316148440309, 176.492698388165 24.071582764076993 M141.48944131047148 68.98876059249895 C155.9137708314216 55.1107095149962, 159.56392789081707 43.10057402876383, 176.13144080162817 32.33518269497756 M143.27368204161453 68.66868872209452 C148.30688467148687 59.51400059598815, 156.06060725070705 51.16156577456772, 174.74672569545888 29.23533870383012 M145.01268111308957 70.72764034293895 C153.36995785771148 54.67727522826401, 173.89378526330634 45.60371134951326, 180.20786789221162 36.22749753728098 M143.34368497720786 71.45481189269805 C154.59765015465723 54.97537067223912, 169.77525585360652 42.53814748644845, 177.94535802487945 31.476528052211634 M144.27269165412463 73.90840940027095 C154.39757645632486 63.47127148201892, 168.36070686980722 49.71447607073104, 180.48460693206863 34.04271033659164 M146.91540389764305 76.34087490727194 C157.005458254982 63.486570372569446, 170.38638888846356 49.68070006135615, 180.0113954901247 38.342226647451184 M149.59841198547062 76.54536108648782 C158.43272932837306 64.78745814732693, 166.21008993583862 56.20783230552965, 178.1024328190843 41.14669341429207 M146.57945276284974 80.42086500333899 C156.2347263759355 70.10527540334631, 162.69504416368295 63.20408464915958, 180.54504937642716 39.003935214536696 M152.96398075061526 81.40163276925725 C158.35171000673856 68.56921820225685, 171.3981727561738 56.554002741707336, 184.99875812674247 45.34448314556941 M151.69648027143563 82.03010674573838 C158.05993003247673 72.19008122214014, 166.95412026156046 63.404030777625664, 184.35980335808873 43.750331459765505 M152.59537011845725 84.55638644736311 C163.52356218759112 71.71626275362476, 181.09271133463017 58.40742001059384, 186.50504283899426 47.28826217057582 M152.71844346156672 86.27836267806886 C160.55494833997204 73.90221778613707, 172.35783519603217 62.36731232097965, 185.73649587448284 49.829244231435254 M163.7732062703298 83.83088624203585 C164.78106864588437 73.89863029432553, 172.33335159689594 64.41147769697841, 187.02769667482283 53.41097296845109 M162.19377381941806 79.64857429134616 C169.66712794077114 71.32633158643847, 175.16258198322245 63.28263055812539, 186.00027450746487 51.22035852423731 M167.8829661658766 77.0980275539736 C170.9266294015096 73.71034772426675, 177.7029590537975 63.93260663642042, 192.05454904446847 58.77927592335881 M170.06600757907128 77.7383514178121 C173.59897125649448 73.65975134149782, 179.25592236154404 67.68972738346899, 190.15463669789253 52.938428768340174 M178.69080357136627 70.90249217327637 C181.5845155268045 66.92158909873602, 185.45892950614737 66.6119454824786, 188.35049694349087 57.06022196925551 M178.338482277311 72.4715272273244 C182.5868452459815 69.91548713252187, 187.88776209066208 65.1874346040946, 188.89909913670596 60.33028149068146 M188.59565509747293 67.85937390584417 C189.80487469384155 64.77487941177459, 190.77369777516185 62.44049247168029, 191.4515845565325 63.001807103528634 M188.35386835105396 67.854552054842 C189.6129361564568 65.72611311407194, 189.927771461838 64.6798080776036, 192.9521052148756 62.85913032406421" stroke="pink" stroke-width="1.0" fill="none" />
  <path d="M130.99655688887748 39.289337953705726 C142.2509396276605 34.871011956035346, 164.2218048973442 30.948325801279577, 170.01411112126343 22.815558597307763 M127.62567668642035 41.40838215294109 C140.8248300946028 36.5341701245155, 152.22057487682318 30.437406959837407, 174.49947392555396 20.259610250645782 M172.5344481901479 23.102567373591224 C174.72768795985775 35.86662516186318, 182.98579550725546 47.146184283326264, 193.46423425226135 65.11897956572618 M171.52051713783922 20.0 C180.75205029961026 37.613202961078656, 188.71206323653453 56.27857645706655, 193.32113086870802 64.17741841467081 M195.10112143468598 66.10210804015568 C181.7123319886998 69.09126399205874, 174.4276912873305 74.25564784411621, 153.0824725699549 81.86608577071422 M191.64018097473004 64.30473022658455 C184.9786753455712 67.14071269827322, 173.35790765258946 72.21206766779882, 151.9204363330805 87.42195449376383 M153.95867487542833 86.5885744359576 C141.8173610889261 72.11741449062345, 138.16720520308226 58.99190653155867, 129.79581487422362 41.52962706710255 M149.4344753075275 85.01141961392979 C145.18404567331734 74.8279917195325, 140.29863135780874 59.9936375919353, 128.9613120429126 41.59019925323072" stroke="teal" stroke-width="2.0" fill="none" />
  <path d="M245.000860446436 56.88647320107661 C250.0496704023121 51.17893001078119, 252.9185471867984 45.30951298404061, 257.6774399918261 42.33093401466981 M244.84125689453907 56.76080443847812 C249.73129005545937 50.64491194796719, 254.85887323129012 45.10403096041438, 256.99940861077766 42.26086788969765 M242.83872027255947 63.44583229932006 C249.0178467896421 56.38694465808683, 257.39821575092753 48.61616225530622, 265.59507300457017 37.921095209694016 M243.27003294500358 63.931226727708406 C248.0224219098154 58.85584688521952, 253.2428536515604 52.15872692816622, 264.47585189794063 38.93095500287197 M244.45589658732035 68.75321351702527 C250.51545938735072 61.908408298377424, 257.6928896882548 53.179453580265516, 269.88262879110357 39.626722932244334 M244.05265329406606 68.51951445808302 C252.89031943933324 58.38095545253847, 260.89229754542737 48.229941840979336, 269.5535094133619 38.736808175967155 M245.023787385276 73.98470881844955 C256.82773028436236 60.458799785906606, 267.58399472749386 47.30165415525596, 273.9268835143788 39.919509862071166 M245.30613194571703 72.94462618277268 C255.6999491251917 61.056439163682626, 265.6541477351483 49.18042313990138, 274.27246542314947 40.25955901402146 M245.05339688150818 76.79847537546742 C254.325700205211 67.92308762433055, 260.99219343431207 59.11331325969475, 277.59061119843216 41.95548216995704 M245.71518204558694 77.98795557059498 C256.833666890249 65.12061694390322, 267.3185304710106 53.02063154508684, 277.48707781223595 41.32964051302608 M248.5607420205038 81.04550640851984 C260.4108100506145 67.1530689729527, 273.65551126453147 51.82591846011351, 280.9580110547537 42.876719451749224 M247.88287428211274 80.95466787510543 C256.2652475749844 71.81401289463508, 264.2857462401872 61.831105904401085, 281.7315309420393 42.47577044969751 M252.00860733577585 82.85307638790064 C262.754545784494 69.49364699455293, 273.4433340899668 56.809037047697544, 284.9248073797096 45.23253921303683 M251.3684702483935 83.17619365707067 C262.00223276439783 70.62094410140365, 272.6694719955808 58.8314343972329, 285.3999691120712 43.921808686548204 M253.59479975401987 85.49647634496586 C266.41833637792604 71.30249567864315, 279.7241070862085 56.73607092333138, 288.03375407736644 48.10827654195586 M253.5285342286206 85.97226501018001 C263.8379244262876 74.75801682732504, 273.448113545056 64.41858243221566, 286.6652751034362 47.16425094585354 M256.82278472327766 88.07536296624723 C267.83431916282234 75.96810629445375, 278.4086891035396 63.24413478190394, 290.12276642616473 50.59315965582161 M256.724013510702 88.01422462958965 C263.9647061155274 80.51157981296255, 270.8855911939331 73.43390733110863, 289.3943577235991 51.15975459098256 M259.0441267859992 89.78928263758559 C270.2278658887981 77.71869166012327, 281.0607661119669 66.76125013783997, 291.1150710142657 53.6986152973992 M260.2470554996296 90.03152825790843 C272.46309967329 75.6560996303942, 284.2623045810766 62.490957494033964, 291.1937344193584 53.65208136504947 M264.1795957980572 90.78240610315773 C271.0206920526466 82.99440879702354, 279.3206821644832 74.79279598922598, 292.74311045581715 58.4140811535631 M264.6549843009726 90.49660398352574 C271.2844953836942 82.06999918043938, 278.88013858938746 73.68016183732668, 293.5154795741879 57.96342044297141 M270.5946206804564 89.64498669726693 C278.1557270968565 79.85042864778484, 287.89429888825055 69.24612653260051, 293.0413731396378 62.642059308392646 M269.8672778988898 90.543017141221 C277.63392586545456 81.19234107025835, 285.78371110494345 71.53500524221083, 294.04003343748525 62.08195463972474 M274.50553527612055 91.02639367247818 C281.45515122021686 83.17022712128393, 286.2829620894339 76.42058272782498, 292.65085300879696 67.97153370727068 M274.520704147126 89.98108045158176 C279.13677199463064 84.7906486243796, 283.5616734615488 79.18838187424235, 293.0956105262618 68.25994145523306 M284.04931473928207 84.70838274713921 C286.93179939194033 83.10877882567169, 288.20462986001144 80.14714013669408, 293.25705675147253 74.46449872364256 M284.223551264265 84.57941919617645 C288.08215094364243 80.7903430675147, 291.0624258601475 77.11690054760071, 292.80682535292783 74.92019759425897" stroke="#ccddff" stroke-width="1.0" fill="none" />
  <path d="M267.2371069158687 37.93159853160566 C272.10241295446235 37.315514517213856, 279.9253841426698 39.61385647665246, 283.96512948752445 42.749830229717546 C288.0048748323791 45.88580398278263, 292.8277746126596 53.72249754673396, 294.168742548233 58.83809021870623 C295.50971048380654 63.95368289067848, 295.1904786027245 72.2014242586142, 292.90491572468113 76.85378137619928 C290.61935284663764 81.50613849378436, 283.72913000539813 87.78504094590325, 278.9316566946104 89.85380433594013 C274.1341833838226 91.922567725977, 265.7753977802631 92.12294754901211, 260.92176031942915 90.64553730977846 C256.0681228585953 89.16812707054481, 249.3747362362183 84.27407850299842, 246.57407362238453 80.00440274104918 C243.7734110085508 75.73472697909992, 241.81819074035272 67.38908873646632, 242.25067622720414 62.181032230116855 C242.6831617140556 56.97297572376739, 245.7353070011323 48.91246868558481, 249.45731020139405 45.28402603205275 C253.17931340165583 41.655583378520674, 264.29087749440635 39.01567371519039, 267.06403089561604 37.991414539903005 C269.83718429682574 36.96715536461562, 267.9179292649658 38.12450395690665, 267.94499954279195 38.45563153013684 M275.40026481353357 39.25961268777583 C280.07348397092517 40.10462591322836, 286.7821594543358 44.892694920269975, 289.7833084259182 48.89457669236796 C292.7844573975008 52.89645846446595, 295.8122747214536 60.81562142062447, 295.4079246240839 65.93882450176243 C295.00357452671415 71.06202758290038, 290.6100627193406 79.22498893426109, 287.08764111011976 83.04926389995438 C283.56521950089893 86.87353886564766, 276.9599340298148 90.92914759517453, 271.92511389594483 91.43399093971765 C266.890293762075 91.93883428426076, 258.02679809923393 89.39622041466693, 253.52217355098688 86.41488619690854 C249.01754900273986 83.43355197915015, 243.4293327359586 76.37148556829018, 241.89428357429807 71.55842948799501 C240.3592344126375 66.74537340769986, 241.003364405859 59.035289639939165, 243.28851247324982 54.32784566160748 C245.57366054064065 49.620401683275816, 252.46721579818328 42.618967009792925, 257.12860402357023 40.17546963245054 C261.7899922489571 37.73197225510815, 271.70786436575906 38.281952422022485, 274.3644339758291 38.037863145991565 C277.0210035858993 37.79377386996063, 274.7395942142922 38.00956142666847, 274.8390680907039 38.548207792244355" stroke="#444" stroke-width="2.0" fill="none" />
  <path d="M331.89504465789435 64.58473073083113 C333.2252475808523 50.46243595403152, 339.4041610520943 53.764732268029135, 345.9155599253189 47.04771397059008 M325.7935997347456 65.40332554027614 C334.5992523524143 59.47253570792016, 336.0568333138377 50.94816596298138, 343.06680831579786 39.32060653293631 M325.1108980704132 64.39155024751061 C329.37127093133824 57.40485943199144, 342.90323858271233 53.63277486412912, 351.79115571276793 40.27301075323304 M327.9276043201753 66.94620258229443 C336.708845555519 57.160153519333335, 348.1476470444213 46.16617197902434, 352.98079023938396 39.670806534608005 M327.4882320851882 70.66454116625597 C344.4374583523528 66.32288103118282, 340.1761367828566 49.568280802900276, 358.8070621656616 41.86497569629421 M334.30221182250557 70.49025364876466 C337.3819162553159 61.21137012127221, 350.0611470405129 54.15754457466774, 354.19921559360773 39.35410516101118 M336.897030105427 78.73934793055554 C342.2869362140161 57.97527346294818, 348.4470236863756 54.05243382826062, 361.41604467052844 43.27633238397078 M333.87225109510905 74.6838339131008 C342.52446506121385 62.22898713966353, 349.6933432865652 53.14629494348374, 360.1163959742038 42.80594964153708 M337.66680941752577 72.61703654451709 C342.7910577896562 61.73847584647538, 352.00637434511134 54.40056128735763, 360.50446133249454 40.60269089316479 M335.9162390809473 75.1184655623519 C346.3379645046948 65.8217441712049, 351.4508904952552 54.55367657950177, 365.7465770982011 41.89420536594625 M342.87719739071156 81.0514740975014 C346.87527126438795 71.94659013584584, 353.67932549983016 67.81422394301147, 368.358165344039 46.014123304516616 M340.1527076352062 76.63163398369532 C347.59764599806306 71.65718026368353, 356.0261347989871 62.55978984463508, 368.672281541751 40.970928058630165 M337.01542600861876 85.26114339608662 C355.775601864314 64.5407659597273, 375.1036753044116 55.100966581347265, 382.2668117015744 45.54145658669883 M341.3964736281033 81.25034844692264 C349.7207366761148 73.48686330232658, 355.55255176921344 62.702044960251555, 375.06570702100726 43.27259403544811 M351.52605740433387 85.52321771169557 C353.56825217231517 67.06593331061644, 360.74858542261427 60.63250811633935, 380.25863219047926 43.58795317300131 M347.09680966067776 83.56796416711418 C354.9004139956352 70.3235627889618, 367.94654729624983 59.79683100730483, 380.24581382170754 39.9894137461488 M351.6513591661525 89.5655169537229 C358.26542779680653 76.4101846196768, 376.74693682159113 59.647829636595176, 380.07156795373305 44.9982771487751 M348.6962454851157 85.81348381051068 C361.95549180129854 69.50895670820273, 379.6529827527221 56.007852529751986, 386.9745256656879 42.79609541709313 M350.62583614933465 83.54554904126624 C361.6929949790497 69.92887899058633, 375.827714547415 50.92520744904279, 391.06555766853126 43.69767256882497 M353.0177963414976 88.8661897136643 C361.6661835192157 75.5393031429462, 374.1444985437357 62.388661220177354, 391.91072312778203 41.581597703965286 M350.0335707852921 86.61927356705804 C372.3032579906212 67.07747305158864, 373.91376008659154 56.22558671974326, 395.54474959609695 43.80779433550207 M354.07155036909 89.44241064407434 C369.02085489238425 71.88053272269461, 378.7991953097703 62.98688480959976, 396.14556968869726 40.447876043261715 M362.23890049151134 90.95118035356097 C371.75006519519866 73.8102526424234, 385.9680880591774 56.64762821537852, 397.9947281024332 44.347710725073384 M357.44418759460734 91.3951841949114 C369.23309005150713 80.34986452802667, 379.05958037162725 65.60995619945727, 397.8850165420803 43.430388970291304 M363.11831575160215 85.88446763078127 C379.3804723018492 74.9512191392299, 387.23193682279816 64.15878505763457, 409.26157584076145 38.67744942048712 M361.52710976164406 88.59959642659476 C376.75563600328564 75.6608758207376, 393.1021798559061 60.14976967440231, 402.42069553525744 44.849558231838316 M365.9994077558064 93.40588116230465 C380.2115829390433 66.95456257058008, 395.80252262584725 56.5540213623769, 401.8208951303635 45.77617656658869 M368.60605853211575 91.60148709517787 C376.74815729066063 75.45818786646036, 392.7619749074852 63.52309474077336, 405.6754718560327 47.73947519406833 M374.566351577756 91.62576172343066 C383.65015134983014 84.11431405649421, 393.0500131767816 75.06061977226736, 413.0607398156608 44.78579488585656 M375.17624397124484 88.69627488350947 C385.478563662527 76.47157722933223, 398.43015713921875 57.217888832010246, 412.73503316962467 49.60532819785725 M373.212364090547 91.14540084625226 C393.1757778128008 87.27965003283005, 394.83983569050235 71.71341674726567, 419.40467765247456 53.06957272977313 M375.39908591296364 93.49526835861353 C389.9136549018441 76.70892741610807, 399.9223053825633 63.44510873494788, 409.8386061818711 48.91882640879952 M386.49777993105204 95.32558145815048 C394.17767164248414 76.09087815308291, 412.93579583480425 70.62688089895067, 413.3560189944503 49.04715105279327 M380.63047206865315 93.9179074001419 C394.3137817336643 80.22111485608363, 404.4356425655709 69.8494267450245, 413.47605763046124 54.4333920071727 M386.39532850845853 94.63376322024163 C401.7504245826948 72.99797373251356, 406.4850546959633 61.87146781931237, 423.4335968614138 50.667103084483884 M389.54793720223654 88.65411226006674 C392.03981366917776 80.41566931773424, 406.6929574899177 71.89279306546419, 420.6772706446527 54.793086273616055 M396.2535735073395 87.76495805120656 C407.76967646131015 80.79368449990096, 411.4133443810457 63.5718913915688, 426.182030691642 53.653871058172356 M393.6658066154307 91.63985984733111 C400.07665747286785 80.56754270461145, 403.97964624240444 70.45268442317108, 418.9153158868754 57.79138517853083 M395.2543930921512 84.1006962097202 C409.26262818100304 77.55834470748893, 413.9374152526625 66.20425331066025, 420.8294483381179 62.63694128322943 M398.9127953050239 87.81110590954796 C403.7581454976463 79.75014789627956, 411.3986191343208 74.91453517756766, 421.6665050124632 58.557689585511625 M404.5611876446849 81.99464368449019 C420.36745328978463 76.66244529492423, 421.5144043949058 69.86929370161134, 420.1686927069095 68.30873284527604 M406.98785987076724 83.95000135125804 C416.39729399707926 79.74126744645734, 423.6030536765078 66.63163843217733, 422.8951486656425 63.55428813270703" stroke="lime" stroke-width="1.0" fill="none" />
  <path d="M407.68770841323044 45.03445562169949 C414.88207726665996 48.5162856248907, 425.75892810497623 58.75600797133362, 426.42554249940315 64.42057741634835 C427.09215689382995 70.0851468613631, 418.26320368874633 78.64826349018905, 412.1318043760766 82.79825192179773 C406.0004050634068 86.94824035340639, 394.4516430622607 91.31622496113137, 385.5495470816046 92.08716696040611 C376.6474511009484 92.85810895968085, 360.6700913074709 90.65349167527665, 352.7844978383689 87.93786525029604 C344.8989043692668 85.22223882531544, 336.9637145471613 78.27152210159231, 332.9789239542572 73.9829907938687 C328.99413336135297 69.69445948614509, 324.31657756768163 64.11068912400388, 326.2192272190076 59.347656532138686 C328.1218768703336 54.58462394027349, 337.74598789907054 44.99471215246247, 345.66325496309685 42.22944018143406 C353.58052202712327 39.46416821040566, 368.0623412206552 39.17615377736692, 379.0010076458501 40.91251005861599 C389.9396740710449 42.648866339865066, 411.9483441335533 49.16423860315703, 418.58769779772945 53.80514872309456 C425.2270514619056 58.44605884303209, 423.167219101398 71.11088032841162, 423.2633654070247 71.8519108581995 M328.8259503346834 58.33750925745345 C331.20631620756603 53.793930599784105, 343.1659696764118 47.65663098176056, 351.6982557449967 44.24925809300335 C360.23054181358157 40.84188520424614, 376.77634142462557 35.184975230436436, 385.70785745858257 35.621689999072075 C394.63937349253956 36.058404767707714, 405.29497253409966 43.03581521754485, 411.24169597137666 47.160689883907565 C417.18841940865366 51.28556455027028, 425.01910345183103 58.132541453405565, 425.3526803737625 63.12085444149015 C425.68625729569385 68.10916742957475, 420.08024556510327 75.59353658212802, 413.46554211758587 80.41610980447149 C406.85083867006836 85.23868302681497, 390.55166555771336 93.9835214875751, 381.25465739031256 95.27134259044666 C371.95764922291175 96.55916369331823, 359.10066008903425 93.1218157721934, 351.48548766824706 89.00158382361526 C343.87031524745976 84.88135187503713, 333.3476650823618 73.34611314987204, 330.48684125173065 67.80312959992578 C327.6260174210995 62.26014604997951, 332.58088560805186 53.81095938749914, 332.41332879737274 52.048360157306846 C332.24577198669374 50.28576092711454, 328.6149722749997 54.954826904964975, 329.3697958472038 56.05246806531042" stroke="#000" stroke-width="2.0" fill="none" />
  <path d="M473.46649049863925 21.817473389216293 C501.07998242940414 44.569282825990086, 529.7674668611702 72.05980386771529, 578.2376218429062 111.06510301922343 M472.9810762109686 22.77945053692839 C513.5887723722119 53.71723236205277, 558.0661345200396 88.25098416699082, 580.0 105.70647482130435" stroke="red" stroke-width="2.0" fill="none" />
</svg>