<svg width="600" height="150" xmlns="http://www.w3.org/2000/svg">
  <path d="M143.9188961846439 69.97667767428443 C145.21177276656374 75.1328684283889, 142.7545313757596 83.02161793935242, 141.0320418229915 88.41312309374415 C139.30955227022338 93.80462824813586, 135.9476608345447 101.26285571228877, 132.43563249952317 105.92004537022922 C128.92360416450163 110.57723502816967, 122.71458450591291 116.27518087898764, 117.61851958951448 119.46105414668054 C112.52245467311602 122.64692741437342, 104.53056481431216 125.79781597426044, 98.46186639020013 127.15920048818184 C92.3931679660881 128.52058500210322, 83.43108596726594 129.04232751721455, 77.16053009543434 128.53695090615636 C70.88997422360274 128.03157429509815, 62.4488234059236 126.02646680769953, 56.658160577989385 123.79002308112717 C50.867497750055165 121.55357935455481, 42.92577657214308 117.56629188152873, 38.556111242539544 113.62732606234063 C34.186445912936016 109.68836024315253, 30.100423463502146 102.71657684424395, 27.52705838063249 97.53025095320649 C24.953693297762833 92.34392506216905, 22.343912985672034 82.45517482569403, 21.400344023408497 79.05182012209097 C20.45677506114496 75.6484654184879, 21.26116044088885 75.47280967478845, 21.23659863220891 74.8412195958527 M144.3437279125084 71.9076805506725 C145.58133602642224 77.26910930657623, 143.55570377153137 86.25323604801854, 141.5364106352354 91.53862403533756 C139.51711749893946 96.82401202265659, 134.8086117545127 102.75336196674996, 130.88177367053535 107.14360046613268 C126.95493558655801 111.5338389655154, 120.48456501524916 117.74140058195692, 115.35749007538647 120.80688069788899 C110.23041513552377 123.87236081382106, 102.92085465318667 126.30019741733523, 96.70127407145071 127.58013457234654 C90.48169348971476 128.86007172735785, 80.18396630671978 130.0, 73.89361953048001 129.33979506463103 C67.60327275424025 128.67959012926207, 60.32567823379312 125.8838069950869, 54.76562889651896 123.17876833655345 C49.20557955924481 120.47372967802, 41.046529483908444 115.39953313739946, 36.82662394865232 111.30620400774137 C32.606718413396194 107.21287487808327, 29.03550156978407 101.01792302390334, 26.63292532814478 95.88990747216617 C24.23034908650549 90.76189192042902, 21.61889800878076 80.27673684427403, 20.80944900439038 77.119433662827 C20.0 73.96213048137997, 21.17252618803613 75.18295170589884, 21.23659863220891 74.8412195958527" stroke="purple" stroke-width="2" fill="none" />
  <path d="M108.85102888332764 129.21382682165248 C102.27067393363282 129.6530975383016, 92.82360341296442 126.64793691314843, 86.57253642034533 124.42552926475192 C80.32146942772627 122.2031216163554, 72.31585848471553 118.24171791495814, 67.17724893253387 114.3977758323424 C62.03863938035223 110.55383374972666, 55.4661084173092 103.78793825197866, 52.315139405801034 98.79924871398035 C49.16417039429288 93.81055917598204, 46.856638374577294 86.5244382366031, 46.170788855812816 81.13984557902033 C45.48493933704833 75.75525292143755, 46.12322817041988 68.3844981560637, 47.74280928070449 62.901964330095154 C49.362390390989106 57.419430504126595, 53.34277777575703 49.270293030133274, 56.96799625771026 44.589620072563335 C60.59321473966349 39.908947114993396, 66.49317269282398 34.979992380093826, 71.91093249372602 31.697477946295557 C77.32869229462807 28.414963512497287, 86.96543971406453 24.386982315067655, 93.08639493039053 22.706190513908208 C99.20735014671652 21.02539871274876, 109.77266475173963 20.824297958200592, 112.71730060256593 20.49219927189925 M117.02198899352334 128.3373878150389 C110.60290143635606 129.34242841190382, 101.0656341899963 127.62399988749432, 94.39204769317587 126.19501744499382 C87.71846119635543 124.76603500249333, 78.28971695146504 122.15449428654006, 72.53141234805376 118.81083819836887 C66.77310774464249 115.46718211019768, 59.717715479438475 108.58879554296196, 56.00335033710069 103.90397685718591 C52.288985194762915 99.21915817140987, 49.26882483810334 92.78580770135301, 47.768978065801896 87.57871362652858 C46.26913129350045 82.37161955170413, 45.25619053577309 74.69716059996705, 46.004371855091065 69.19001635835632 C46.752553174409044 63.682872116745585, 49.58410741199008 55.863000316782234, 52.756853527921734 50.86441868245703 C55.929599643853386 45.86583704813181, 62.090898657631776 39.74047291111269, 67.15601262796875 35.86613879618821 C72.22112659830572 31.991804681263716, 80.32337274213174 27.31322058288979, 86.52427999683488 25.035524582960434 C92.72518725153805 22.75782858303108, 104.5664412351301 21.362997593318354, 108.49539432598976 20.681498796659177 C112.4243474168494 20.0, 112.08401466107952 20.52059420061324, 112.71730060256593 20.49219927189925" stroke="orange" stroke-width="2.0" fill="none" />
  <path d="M205.18015132396448 45.4298569603617 C205.2723192634825 45.613311811624214, 205.6503629039402 45.262531048271725, 206.2423670628475 44.381279894774046 M205.13018859217468 45.681853350081695 C205.4682789848079 45.37667052257552, 205.72965172749377 44.92429662106443, 206.18422266169335 44.407140773870616 M207.00662716425435 48.06043206766826 C208.13914881913675 45.986261050683936, 208.30740645353177 45.559654012660516, 209.28217606626848 44.239495643042034 M206.61760562829184 47.1915369798395 C207.48565164863595 46.21674779146589, 207.80277244356725 45.546460671081256, 208.81528325532508 44.11358334664722 M208.01254013393594 48.51491177254833 C210.01993401392528 47.42461753266363, 211.34646908592217 45.21472471755038, 212.12018214935188 44.77685831992128 M207.78003202442534 48.66617728686313 C209.48162148936606 47.1242388603211, 210.51071520257847 45.040991303887495, 212.3915004440308 44.077156545962005 M209.7660377933797 51.84896530331753 C210.13634448399577 47.30229461365634, 213.0872716236673 46.960177733392996, 215.5218472581267 43.2448131755375 M209.12976243361854 49.82222439205498 C211.3938726612895 49.099255248291115, 213.10445403792446 46.51126249167518, 214.9613328015315 44.373924233536215 M209.2393348180358 52.47075037414628 C213.53939204282383 50.6871506300422, 213.59708391601785 47.28824561073887, 216.27837295138946 44.98298097432411 M211.49446529178982 51.0009662941151 C213.6950685521125 47.97192140687869, 215.9978471505128 45.06062520765221, 217.05516282227208 45.19486810308669 M212.22827024863517 51.459880157706905 C213.69323427835778 52.00246197986982, 215.80911949141955 47.98865524063332, 219.41496986465893 42.72008576966705 M213.6184673602561 52.138815715402 C215.5535872221095 50.014953771851424, 218.244744397292 46.41225975078058, 219.68638613845835 45.31087317678568 M213.06040113242108 53.70383215127626 C217.5861717720736 53.245180801228514, 218.49088382409101 49.752734776797936, 221.78468962153102 42.884177131960435 M213.70536603341316 53.366526805621874 C217.14519105927187 50.77989389457515, 220.5037745516083 47.2432678540808, 222.3528615609521 44.99817471203331 M218.68305518189263 53.55778102128474 C217.89839314257364 50.483577993675524, 224.0084606754728 49.94337972822004, 224.63463507195954 44.27892511272586 M217.19575234716393 55.86315422038756 C218.8698491852496 50.838745820301824, 223.12075831521793 48.85434086864937, 226.7042221841265 44.45850267075778 M216.73359181203338 55.02238527737474 C221.34587325065038 53.43435160514039, 225.78678799893248 47.376529255992494, 227.70989843043907 44.49990730868099 M219.61200281618588 56.11413348276339 C221.3355155515514 52.65871211723032, 223.31966465759783 49.49077827993723, 228.09059301231233 44.94458811839933 M222.72585904552633 57.60256445172057 C222.24268606181744 56.03719517265783, 225.90737748869842 53.40366069605828, 233.24402619924592 42.51730473659933 M220.71863178399735 56.7127608293177 C222.87843361309658 53.71688551854669, 227.35326657085648 49.971800393889325, 231.82848548660087 43.52462435128723 M225.06597735691255 55.54803943204418 C223.817834769552 54.73014019985915, 228.57207732363827 50.480669904084465, 234.68319464825166 43.18541022934201 M223.48374641663915 57.377592461557555 C224.30114085456597 54.9264946535818, 228.04298942878617 52.622662100297944, 233.6132776663099 44.47196387148533 M227.56046990977333 57.92461073716535 C227.5817837433797 55.07143844894087, 230.30252104095206 49.37595352030978, 235.54281628672268 46.404394634687165 M224.98040692773003 58.57240301153021 C229.50751438485034 53.82631790423109, 231.25157426349534 51.10279923332588, 236.65151133721562 44.03656249224696 M229.75838952229708 58.25850007912466 C234.03238020557043 53.47029250367804, 236.68059252863182 46.72076814089762, 241.95654452704693 44.89972506438775 M228.99509179109228 57.35837041724095 C231.96360906320655 53.83632822908065, 237.29513752690275 48.113082173610195, 239.87190326568452 43.84043934920794 M229.4440852948408 59.202532181525186 C233.21701867852028 55.082753965894725, 238.45162834975173 50.73300830476876, 241.68646664926848 45.187390093398 M231.43759148499186 57.8636831228971 C233.89627198496495 54.85540927664535, 237.4655645175087 50.379041963071344, 243.41367589366342 44.65306441409875 M235.09987619505708 56.61458326788501 C235.60602372335597 54.92929000813582, 240.96887548599415 52.9293517648825, 244.81765889618202 45.91002182647742 M233.8069979426936 57.48823376409983 C237.8731199677905 53.21717059156572, 242.0715316288524 49.58422586269158, 244.69011081769597 43.58102789279735 M237.53823331442877 54.38169515922827 C239.04034447033212 54.140604167843634, 243.71760210336228 51.485044743680916, 247.2022591226504 44.97449074508209 M237.5587676167593 55.22220578745518 C239.97633038208147 52.077863552499295, 243.66179758473885 49.89092792974489, 247.60518147061268 43.6400283191914 M242.6675215072963 51.64065004384628 C243.1397265530781 50.302721962381895, 245.93120337465652 49.49025735389827, 249.21046261748896 45.81603090489919 M243.25947811455606 54.56736749667385 C245.64107234803728 50.661112665302056, 246.06760327122745 49.84897839075835, 251.83182121929647 45.310889246276744" stroke="#ccf" stroke-width="1.0" fill="none" />
  <path d="M155.4597870583268 44.339024286881994 M154.33946939050972 43.32144928282992 C173.7930021657392 44.00678466780573, 190.89841961204488 43.43092392025413, 203.4722193950405 43.348682077715466 M155.66526794553974 43.983037127516724 C170.74159519648114 45.015163206011415, 185.90657598270008 45.0914592177187, 203.71924972993423 43.88578193366086 M204.12439498006148 44.339024286881994 C216.38177457253428 62.01704557552911, 241.45608246062142 63.35585352165853, 253.7348417291005 45.24915877499125 M204.93165374386615 45.14570858262651 C217.57758568857233 62.780722773923614, 239.525683186765 62.457951018158, 254.11182350699437 45.172801218126835 M251.87078749135497 43.601021286755554 C216.8908689729511 43.535321092602814, 179.2160139199316 43.236033325423946, 154.88299576631746 44.61230028673056 M252.821899478264 44.68781963425554 C217.10565697909877 46.30581872303797, 180.64282842998483 45.346012322272934, 155.9988629206751 44.90777980542124" stroke="#000" stroke-width="2.0" fill="none" />
</svg>